<svg xmlns="http://www.w3.org/2000/svg" xmlns:xlink="http://www.w3.org/1999/xlink" width="190" height="130" viewBox="0 0 190 130">
  <defs>
    <clipPath id="clip-path">
      <path id="path975" d="M0-682.665H89.972v89.972H0Z" transform="translate(0 682.665)"/>
    </clipPath>
  </defs>
  <g id="Grupo_1110204" data-name="Grupo 1110204" transform="translate(-1230.051 -7939)">
    <rect id="Rectángulo_402577" data-name="Rectángulo 402577" width="190" height="130" rx="8" transform="translate(1230.051 7939)" fill="#f8f0bc"/>
    <g id="g969" transform="translate(1280.051 8641.005)">
      <g id="g971" transform="translate(0 -682.665)">
        <g id="g973" clip-path="url(#clip-path)">
          <g id="g979" transform="translate(16.778 49.247)">
            <path id="path981" d="M-170.81-72.979c0-6.118-5.8-11.078-12.965-11.078S-196.74-79.1-196.74-72.979c0,5.795,5.207,10.549,11.841,11.035a.593.593,0,0,1,.549.593v1.857a2.46,2.46,0,0,0,2.46,2.46,2.46,2.46,0,0,0,2.46-2.46v-2.612a.591.591,0,0,1,.4-.562c4.813-1.618,8.22-5.624,8.22-10.311" transform="translate(196.74 84.057)" fill="#ffa78f"/>
          </g>
          <g id="g983" transform="translate(10.896 29.529)">
            <path id="path985" d="M-403.442,0h-3.542a3.158,3.158,0,0,0-2.558,1.307l-3.53,4.88a1.735,1.735,0,0,1-1.405.718h-41.115A9.093,9.093,0,0,0-464.686,16V53.173a1.067,1.067,0,0,0,1.067,1.067h4.442a1.067,1.067,0,0,0,1.067-1.067V44.631a.9.9,0,0,1,.483-.8c1.775-.932,7.856-4.479,8.355-9.528a1.073,1.073,0,0,1,.93-.949c8.749-1.161,20.992,8.215,30.8,3.179a.806.806,0,0,1,1.176.715V53.173A1.067,1.067,0,0,0-415.3,54.24h3.457a1.067,1.067,0,0,0,1.059-.934l2.4-19.105a2.853,2.853,0,0,1,.42-1.17l7.22-11.407a2.057,2.057,0,0,1,1.37-.923l10.524-1.913a2.34,2.34,0,0,0,1.921-2.3V14.156a2.34,2.34,0,0,0-.823-1.781L-401.4.754A3.157,3.157,0,0,0-403.442,0" transform="translate(464.686)" fill="#f2fbff"/>
          </g>
          <g id="g987" transform="translate(60.075 29.529)">
            <path id="path989" d="M-182.845-81.516l-13.645-11.621a3.157,3.157,0,0,0-2.047-.754h-3.542a3.157,3.157,0,0,0-.71.082,3.157,3.157,0,0,1,1.347.672l13.615,11.312A2.34,2.34,0,0,1-187-80.043v.739a2.34,2.34,0,0,1-1.921,2.3l-7.683,1.443a2.057,2.057,0,0,0-1.37.923l-8.944,13.777a2.853,2.853,0,0,0-.42,1.17l-2.4,19.105a1.067,1.067,0,0,1-.855.914,1.067,1.067,0,0,0,.205.02h3.457a1.067,1.067,0,0,0,1.059-.934l2.4-19.105a2.852,2.852,0,0,1,.42-1.17l7.22-11.407a2.056,2.056,0,0,1,1.37-.923l10.524-1.913a2.34,2.34,0,0,0,1.921-2.3v-2.329a2.34,2.34,0,0,0-.823-1.781" transform="translate(210.601 93.89)" fill="#dff6fd"/>
          </g>
          <g id="g991" transform="translate(81.036 38.577)">
            <path id="path993" d="M-44.766-21.913l-3.906-3.326a10.7,10.7,0,0,0-2.89,7.327,10.727,10.727,0,0,0,.535,3.35l5.162-.938a2.34,2.34,0,0,0,1.921-2.3v-2.329a2.34,2.34,0,0,0-.823-1.781" transform="translate(51.561 25.24)" fill="#ffa78f"/>
          </g>
          <g id="g995" transform="translate(81.057 38.577)">
            <path id="path997" d="M-44.624-21.913-48.53-25.24a10.782,10.782,0,0,0-1.731,2.475l.654.543a2.34,2.34,0,0,1,.823,1.781v.739a2.34,2.34,0,0,1-1.921,2.3l-.693.13a10.721,10.721,0,0,0,.514,2.707l5.162-.938A2.34,2.34,0,0,0-43.8-17.8v-2.329a2.34,2.34,0,0,0-.823-1.781" transform="translate(51.399 25.24)" fill="#f89580"/>
          </g>
          <g id="g999" transform="translate(21.91 36.434)">
            <path id="path1001" d="M0-48.5v2.072a4.242,4.242,0,0,0,2.522,3.878,4.241,4.241,0,0,0,4.617-.779l2.332-2.181a4.242,4.242,0,0,1,2.9-1.144h7.805a5.383,5.383,0,0,0,5.383-5.383,5.37,5.37,0,0,0-1.6-3.825H3.422A9.6,9.6,0,0,0,0-48.5" transform="translate(0 55.863)" fill="#678d98"/>
          </g>
          <g id="g1003" transform="translate(41.653 48.264)">
            <path id="path1005" d="M-81.408,0a3.873,3.873,0,0,0-2.843,1.237,12.073,12.073,0,0,1-6.82,3.682,3.245,3.245,0,0,0-2.664,2.748,3.242,3.242,0,0,0,3.211,3.687h7.637a5.364,5.364,0,0,0,5.364-5.364V3.885A3.885,3.885,0,0,0-81.408,0" transform="translate(93.766 0)" fill="#678d98"/>
          </g>
          <g id="g1007" transform="translate(60.88 27.505)">
            <path id="path1009" d="M-6.3-.119a.791.791,0,0,0-.941.925A10.448,10.448,0,0,0-5,5.828C-2.993,7.879-.539,8.734.48,7.736S.7,4.268-1.314,2.217A10.408,10.408,0,0,0-6.3-.119" transform="translate(7.257 0.137)" fill="#f2fbff"/>
          </g>
          <g id="g1011" transform="translate(1.318 55.412)">
            <path id="path1013" d="M-31.114-11.283a2.333,2.333,0,0,0-4.5,0,5.885,5.885,0,0,0-.224,1.615A5.87,5.87,0,0,0-33.9-5.307a.805.805,0,0,0,1.08,0A5.871,5.871,0,0,0-30.89-9.668a5.885,5.885,0,0,0-.225-1.615" transform="translate(35.837 12.996)" fill="#678d98"/>
          </g>
          <g id="g1015" transform="translate(42.086 19.221)">
            <path id="path1017" d="M-19.1,0A2.9,2.9,0,0,0-22,2.9a2.9,2.9,0,0,0,2.9,2.9,2.9,2.9,0,0,0,2.9-2.9A2.9,2.9,0,0,0-19.1,0" transform="translate(22)" fill="#68ca44"/>
          </g>
          <g id="g1019" transform="translate(21.677 64.282)">
            <path id="path1021" d="M-.052-28.442A3.782,3.782,0,0,1-3.83-32.22v-1.2a15.541,15.541,0,0,1-5.464-1.659,1.318,1.318,0,0,1-.557-1.779,1.318,1.318,0,0,1,1.779-.557,13.21,13.21,0,0,0,5.11,1.43,1.918,1.918,0,0,1,1.769,1.907v1.857A1.144,1.144,0,0,0-.052-31.078,1.144,1.144,0,0,0,1.09-32.22v-2.611a1.908,1.908,0,0,1,1.3-1.812,11.249,11.249,0,0,0,5.963-4.493,1.318,1.318,0,0,1,1.819-.406,1.318,1.318,0,0,1,.406,1.819,13.792,13.792,0,0,1-6.852,5.4v2.1A3.782,3.782,0,0,1-.052-28.442Z" transform="translate(10.002 41.748)"/>
          </g>
          <g id="g1023" transform="translate(2.474 37.809)">
            <path id="path1025" d="M-8.682-114.639A1.318,1.318,0,0,1-10-115.957v-11.724a5.885,5.885,0,0,1,5.878-5.878H1.055a1.318,1.318,0,0,1,1.318,1.318,1.318,1.318,0,0,1-1.318,1.318H-4.122a3.246,3.246,0,0,0-3.242,3.242v11.724A1.318,1.318,0,0,1-8.682-114.639Z" transform="translate(10 133.56)"/>
          </g>
          <g id="g1027" transform="translate(36.76 32.713)">
            <path id="path1029" d="M14.343-23.189H-8.682A1.318,1.318,0,0,1-10-24.507a1.318,1.318,0,0,1,1.318-1.318H14.343a.421.421,0,0,0,.34-.174L15.9-27.682a1.318,1.318,0,0,1,1.84-.3,1.318,1.318,0,0,1,.3,1.84l-1.22,1.685A3.066,3.066,0,0,1,14.343-23.189Z" transform="translate(10 28.227)"/>
          </g>
          <g id="g1031" transform="translate(65.633 28.211)">
            <path id="path1033" d="M-2.868,14.011a1.311,1.311,0,0,1-.7-.2,1.318,1.318,0,0,1-.408-1.819l2.072-3.272A3.38,3.38,0,0,1,.34,7.2L10.862,5.288A1.021,1.021,0,0,0,11.7,4.283V1.953a1.019,1.019,0,0,0-.359-.777L-2.3-10.445A1.84,1.84,0,0,0-3.5-10.884H-7.037a1.838,1.838,0,0,0-.959.27,1.318,1.318,0,0,1-1.812-.437,1.318,1.318,0,0,1,.437-1.812,4.473,4.473,0,0,1,2.334-.657H-3.5a4.478,4.478,0,0,1,2.9,1.069L13.051-.831a3.651,3.651,0,0,1,1.286,2.783v2.33a3.655,3.655,0,0,1-3,3.6L.81,9.8a.738.738,0,0,0-.492.332L-1.753,13.4A1.317,1.317,0,0,1-2.868,14.011Z" transform="translate(10.001 13.52)"/>
          </g>
          <g id="g1035" transform="translate(9.578 35.116)">
            <path id="path1037" d="M-115.414,39.972h-3.457a2.388,2.388,0,0,1-2.385-2.385V22.477a15.7,15.7,0,0,1-6.433,1.279c-4.224,0-8.542-1.336-12.525-2.569-4.154-1.285-8.081-2.5-11.338-2.133-.671,5.377-6.632,9.066-8.809,10.242v8.29a2.388,2.388,0,0,1-2.385,2.385h-4.442a2.388,2.388,0,0,1-2.385-2.385V.411A10.422,10.422,0,0,1-159.162-10h11.938a1.318,1.318,0,0,1,1.318,1.318,1.318,1.318,0,0,1-1.318,1.318h-11.938A7.783,7.783,0,0,0-166.937.411V37.336H-163V29.044a2.213,2.213,0,0,1,1.189-1.964c1.2-.631,7.213-4,7.656-8.491a2.378,2.378,0,0,1,2.068-2.126c3.866-.513,8.132.807,12.649,2.205,6.1,1.887,12.4,3.838,17.718,1.109a2.112,2.112,0,0,1,2.081.076,2.107,2.107,0,0,1,1.016,1.811V37.336h2.985l2.375-18.886a4.2,4.2,0,0,1,.614-1.711l1.862-2.941a1.318,1.318,0,0,1,1.818-.409,1.318,1.318,0,0,1,.409,1.818l-1.862,2.941a1.546,1.546,0,0,0-.226.63l-2.4,19.105A2.389,2.389,0,0,1-115.414,39.972Z" transform="translate(169.573 10)"/>
          </g>
          <g id="g1039" transform="translate(71.486 36.904)">
            <path id="path1041" d="M-8.682-6.317A1.318,1.318,0,0,1-10-7.635V-8.682A1.318,1.318,0,0,1-8.682-10,1.318,1.318,0,0,1-7.364-8.682v1.047A1.318,1.318,0,0,1-8.682-6.317Z" transform="translate(10 10)"/>
          </g>
          <g id="g1043" transform="translate(79.718 37.259)">
            <path id="path1045" d="M-30.071,3.314a1.318,1.318,0,0,1-1.252-.908,12.048,12.048,0,0,1-.6-3.76A12.019,12.019,0,0,1-28.68-9.581a1.318,1.318,0,0,1,1.863-.064,1.318,1.318,0,0,1,.064,1.863,9.392,9.392,0,0,0-2.535,6.428,9.416,9.416,0,0,0,.47,2.939,1.318,1.318,0,0,1-.842,1.663A1.317,1.317,0,0,1-30.071,3.314Z" transform="translate(31.924 10)"/>
          </g>
          <g id="g1047" transform="translate(59.562 26.188)">
            <path id="path1049" d="M-62.329-35.645a1.312,1.312,0,0,1-.62-.156A10.724,10.724,0,0,1-65.5-37.75,11.534,11.534,0,0,1-68.1-43.44,2.1,2.1,0,0,1-67.5-45.35a2.1,2.1,0,0,1,1.921-.557,11.487,11.487,0,0,1,5.651,2.7,10.6,10.6,0,0,1,1.963,2.732,1.318,1.318,0,0,1-.611,1.761,1.318,1.318,0,0,1-1.761-.611,7.946,7.946,0,0,0-1.474-2.038,8.1,8.1,0,0,0-3.509-1.771,8.148,8.148,0,0,0,1.705,3.539,8.062,8.062,0,0,0,1.914,1.468,1.318,1.318,0,0,1,.542,1.783A1.318,1.318,0,0,1-62.329-35.645Z" transform="translate(68.136 45.955)"/>
          </g>
          <g id="g1051" transform="translate(20.592 35.116)">
            <path id="path1053" d="M-30.4,6.313a5.559,5.559,0,0,1-2.256-.479A5.564,5.564,0,0,1-35.961.752V-1.32a10.932,10.932,0,0,1,3.889-8.369,1.318,1.318,0,0,1,1.857.157,1.318,1.318,0,0,1-.157,1.857A8.3,8.3,0,0,0-33.325-1.32V.752a2.926,2.926,0,0,0,1.739,2.673A2.919,2.919,0,0,0-28.4,2.887L-26.072.707a5.542,5.542,0,0,1,3.8-1.5h7.805A4.07,4.07,0,0,0-10.4-4.858a4.038,4.038,0,0,0-1.205-2.888,1.318,1.318,0,0,1-.009-1.864,1.318,1.318,0,0,1,1.864-.009A6.655,6.655,0,0,1-7.768-4.858a6.709,6.709,0,0,1-6.7,6.7h-7.805a2.914,2.914,0,0,0-2,.788L-26.6,4.813A5.551,5.551,0,0,1-30.4,6.313Z" transform="translate(35.961 10)"/>
          </g>
          <g id="g1055" transform="translate(40.336 46.946)">
            <path id="path1057" d="M-90.087-10a5.209,5.209,0,0,1,5.2,5.2v2.106a6.689,6.689,0,0,1-6.681,6.682H-99.2a4.558,4.558,0,0,1-3.439-1.565A4.558,4.558,0,0,1-103.719-1.2a4.549,4.549,0,0,1,3.744-3.865A10.7,10.7,0,0,0-93.9-8.34,5.207,5.207,0,0,1-90.087-10ZM-91.565,1.355A4.05,4.05,0,0,0-87.52-2.691V-4.8a2.57,2.57,0,0,0-2.567-2.567,2.563,2.563,0,0,0-1.876.815,13.313,13.313,0,0,1-7.562,4.085,1.921,1.921,0,0,0-1.583,1.631,1.9,1.9,0,0,0,.455,1.528,1.9,1.9,0,0,0,1.451.66Z" transform="translate(103.762 10)"/>
          </g>
          <g id="g1059" transform="translate(0 54.094)">
            <path id="path1061" d="M-42.045-23a3.634,3.634,0,0,1,3.517,2.67,7.21,7.21,0,0,1,.275,1.976,7.22,7.22,0,0,1-2.366,5.337,2.117,2.117,0,0,1-1.425.55,2.118,2.118,0,0,1-1.426-.55,7.22,7.22,0,0,1-2.366-5.337,7.21,7.21,0,0,1,.275-1.976A3.634,3.634,0,0,1-42.045-23Zm0,7.681a4.578,4.578,0,0,0,1.156-3.036,4.574,4.574,0,0,0-.174-1.254.99.99,0,0,0-.982-.756.99.99,0,0,0-.982.756A4.574,4.574,0,0,0-43.2-18.35,4.579,4.579,0,0,0-42.046-15.315Z" transform="translate(45.837 22.996)"/>
          </g>
          <g id="g1063" transform="translate(30.757 4.884)">
            <path id="path1065" d="M-178.784-68.982a1.319,1.319,0,0,1-1.252-.907,12.25,12.25,0,0,0-11.659-8.447,12.25,12.25,0,0,0-11.658,8.447,1.318,1.318,0,0,1-1.663.841,1.318,1.318,0,0,1-.841-1.663,14.881,14.881,0,0,1,14.163-10.26,14.881,14.881,0,0,1,14.163,10.26,1.318,1.318,0,0,1-.841,1.663A1.317,1.317,0,0,1-178.784-68.982Z" transform="translate(205.924 80.972)"/>
          </g>
          <g id="g1067" transform="translate(35.611 11.323)">
            <path id="path1069" d="M7.428-44.8a1.318,1.318,0,0,1-1.241-.875A7.254,7.254,0,0,0-.628-50.48a7.254,7.254,0,0,0-6.815,4.808,1.318,1.318,0,0,1-1.684.8,1.318,1.318,0,0,1-.8-1.684,9.9,9.9,0,0,1,9.3-6.557,9.9,9.9,0,0,1,9.3,6.557,1.318,1.318,0,0,1-.8,1.684A1.316,1.316,0,0,1,7.428-44.8Z" transform="translate(10.003 53.116)"/>
          </g>
          <g id="g1071" transform="translate(40.768 17.903)">
            <path id="path1073" d="M-27.782-10a4.222,4.222,0,0,1,4.217,4.217,4.222,4.222,0,0,1-4.217,4.217A4.222,4.222,0,0,1-32-5.783,4.222,4.222,0,0,1-27.782-10Zm0,5.8A1.583,1.583,0,0,0-26.2-5.783a1.583,1.583,0,0,0-1.582-1.582,1.583,1.583,0,0,0-1.582,1.582A1.583,1.583,0,0,0-27.782-4.2Z" transform="translate(32 10)"/>
          </g>
        </g>
      </g>
    </g>
  </g>
</svg>
