<svg xmlns="http://www.w3.org/2000/svg" width="190" height="130" viewBox="0 0 190 130">
  <g id="Grupo_1110187" data-name="Grupo 1110187" transform="translate(-180.051 -1697)">
    <rect id="Rectángulo_402537" data-name="Rectángulo 402537" width="190" height="130" rx="8" transform="translate(180.051 1697)" fill="#f8f0bc"/>
    <g id="ganad2" transform="translate(233.051 1719.685)">
      <g id="Grupo_1110185" data-name="Grupo 1110185" transform="translate(1.322 14.532)">
        <path id="Trazado_898473" data-name="Trazado 898473" d="M71.979,52.379a5.382,5.382,0,0,1,.41,2.036v1.534H67.035A8.375,8.375,0,0,0,65.951,52.6a27.612,27.612,0,0,0-3.913-5.3c-.41-.449-.846-.9-1.3-1.322-.145.079-.278.145-.423.212a23.578,23.578,0,0,1-5.434,1.943,41.088,41.088,0,0,1-12.969.793c-.873-.066-1.732-.159-2.6-.278v.093s0,.04.013.053a2.763,2.763,0,0,1,.013.331v6.822H34.051V51.665a9.069,9.069,0,0,0-.635-3.305,9.294,9.294,0,0,0-.5-1.031H32.9c-.159-.04-.317-.093-.476-.145a33.92,33.92,0,0,1-9.492-4.2,19.778,19.778,0,0,1-2.1-1.573c-4.257-3.649-6.61-10.576-6.61-10.576H3.9a2.889,2.889,0,0,1-2.9-2.9,2.932,2.932,0,0,1,.7-1.89l4.64-5.407a10.572,10.572,0,0,1,6.531-3.6l5.315-.754L23.474,11l.555,1.4a8.519,8.519,0,0,1-1.877,9.175h2.459A97.871,97.871,0,0,0,43.344,19.99a68.544,68.544,0,0,1,11.5-1.058H56.7a41.062,41.062,0,0,1,10.074,1.243,7.423,7.423,0,0,1,5.619,7.192,8.473,8.473,0,0,1-.159,1.626L70.142,39.45a14.684,14.684,0,0,0-.278,4.363,29.777,29.777,0,0,0,1.851,7.866c.093.264.185.5.264.7Z" transform="translate(-1 -11)" fill="#d5f1fe"/>
        <g id="Grupo_1110184" data-name="Grupo 1110184">
          <path id="Trazado_898474" data-name="Trazado 898474" d="M15.516,17.042a10.572,10.572,0,0,0-6.531,3.6l-4.64,5.407a2.932,2.932,0,0,0-.7,1.89,2.889,2.889,0,0,0,2.9,2.9H3.9a2.889,2.889,0,0,1-2.9-2.9,2.932,2.932,0,0,1,.7-1.89l4.64-5.407a10.572,10.572,0,0,1,6.531-3.6l5.315-.754L23.474,11l.555,1.4a3.929,3.929,0,0,1,.172.516L20.83,16.288Z" transform="translate(-1 -11)" fill="#b4e7fd"/>
          <path id="Trazado_898475" data-name="Trazado 898475" d="M32.337,42.5a8.884,8.884,0,0,1,1.137,4.336v4.283H30.83V46.835A8.884,8.884,0,0,0,29.693,42.5H29.68a34.511,34.511,0,0,1-9.968-4.349,19.778,19.778,0,0,1-2.1-1.573C13.353,32.927,11,26,11,26h2.644S16,32.927,20.254,36.576a19.778,19.778,0,0,0,2.1,1.573A34.511,34.511,0,0,0,32.324,42.5Z" transform="translate(2.22 -6.17)" fill="#b4e7fd"/>
          <path id="Trazado_898476" data-name="Trazado 898476" d="M54.921,47.428H52.277a8.375,8.375,0,0,0-1.084-3.345,28.835,28.835,0,0,0-4.363-5.777,18.717,18.717,0,0,0,1.8-.846,28.894,28.894,0,0,1,5.209,6.623A8.375,8.375,0,0,1,54.921,47.428Z" transform="translate(13.758 -2.479)" fill="#b4e7fd"/>
          <path id="Trazado_898477" data-name="Trazado 898477" d="M50.168,39.847a1.324,1.324,0,0,1-.965.423h-.026c-.41-.449-.846-.9-1.3-1.322-.145.079-.278.145-.423.212a27.3,27.3,0,0,0-5.777-3.807,1.324,1.324,0,0,1,1.163-2.38,29.64,29.64,0,0,1,7.258,5.01A1.306,1.306,0,0,1,50.168,39.847Z" transform="translate(11.862 -3.967)" fill="#b4e7fd"/>
          <path id="Trazado_898478" data-name="Trazado 898478" d="M33.166,41.668a.866.866,0,0,1-.04.37c-.873-.066-1.732-.159-2.6-.278v.093a3.938,3.938,0,0,0-.291-1.163,32.354,32.354,0,0,1-1.917-6.742,1.327,1.327,0,1,1,2.618-.436A28.4,28.4,0,0,0,32.69,39.7a7.34,7.34,0,0,1,.476,1.97Z" transform="translate(7.79 -4.11)" fill="#b4e7fd"/>
        </g>
        <path id="Trazado_898479" data-name="Trazado 898479" d="M28.708,43.876v4.283H23.42V46.52a8.8,8.8,0,0,0-1.15-4.349,56.467,56.467,0,0,0-4.68-6.98,34.511,34.511,0,0,0,9.968,4.349h.013a8.884,8.884,0,0,1,1.137,4.336Z" transform="translate(4.342 -3.21)" fill="#d5f1fe"/>
        <path id="Trazado_898480" data-name="Trazado 898480" d="M26.064,46.52v1.639H23.42V46.52a8.8,8.8,0,0,0-1.15-4.349,56.467,56.467,0,0,0-4.68-6.98,28.541,28.541,0,0,0,4.416,2.393c1.084,1.547,2.062,3.107,2.908,4.587a8.8,8.8,0,0,1,1.15,4.349Z" transform="translate(4.342 -3.21)" fill="#b4e7fd"/>
        <path id="Trazado_898481" data-name="Trazado 898481" d="M29.009,40.629a1.337,1.337,0,0,1-1.322,1.335,1.256,1.256,0,0,1-.806-.291,9.294,9.294,0,0,0-.5-1.031h-.013c-.159-.04-.317-.093-.476-.145-.066-.066-.119-.145-.185-.225a25.22,25.22,0,0,1-4.31-6.676,1.328,1.328,0,0,1,.714-1.732,1.314,1.314,0,0,1,1.719.727,23.814,23.814,0,0,0,3.913,6q.555.654.992,1.229a1.3,1.3,0,0,1,.278.806Z" transform="translate(5.535 -4.313)" fill="#b4e7fd"/>
        <path id="Trazado_898482" data-name="Trazado 898482" d="M11.576,70.084H1V44.966L3.644,41H8.932l2.644,3.966Z" transform="translate(-1 -1.339)" fill="#efdb59"/>
        <path id="Trazado_898483" data-name="Trazado 898483" d="M11.576,67.44v2.644H1V44.966L3.644,41H6.288L3.644,44.966V62.152A5.287,5.287,0,0,0,8.932,67.44Z" transform="translate(-1 -1.339)" fill="#f8a230"/>
        <path id="Trazado_898484" data-name="Trazado 898484" d="M65.576,44.966V70.084H55V44.966L57.644,41h5.288Z" transform="translate(16.389 -1.339)" fill="#efdb59"/>
        <path id="Trazado_898485" data-name="Trazado 898485" d="M53.909,47.428H47.894a6.978,6.978,0,0,0-.357-.7,28.182,28.182,0,0,0-5.777-7.112,23.843,23.843,0,0,0,5.857-2.155,28.894,28.894,0,0,1,5.209,6.623A8.375,8.375,0,0,1,53.909,47.428Z" transform="translate(12.126 -2.479)" fill="#d5f1fe"/>
        <path id="Trazado_898486" data-name="Trazado 898486" d="M50.538,45.8l-.026,1.322H47.894a6.978,6.978,0,0,0-.357-.7,28.182,28.182,0,0,0-5.777-7.112,26.96,26.96,0,0,0,3.08-.912,27.5,27.5,0,0,1,5.341,6.7,6.979,6.979,0,0,1,.357.7Z" transform="translate(12.126 -2.177)" fill="#b4e7fd"/>
        <path id="Trazado_898487" data-name="Trazado 898487" d="M9,45H69.813v5.288H9Z" transform="translate(1.576 -0.051)" fill="#ffc14f"/>
        <path id="Trazado_898488" data-name="Trazado 898488" d="M9,49H69.813v5.288H9Z" transform="translate(1.576 1.237)" fill="#ffc14f"/>
        <path id="Trazado_898489" data-name="Trazado 898489" d="M9,53H69.813v5.288H9Z" transform="translate(1.576 2.525)" fill="#ffc14f"/>
        <path id="Trazado_898490" data-name="Trazado 898490" d="M9,57H69.813v5.288H9Z" transform="translate(1.576 3.813)" fill="#ffc14f"/>
        <path id="Trazado_898491" data-name="Trazado 898491" d="M69.813,59.644v2.644H9V57h3.966a2.652,2.652,0,0,0,2.644,2.644Z" transform="translate(1.576 3.813)" fill="#ffb52d"/>
        <path id="Trazado_898492" data-name="Trazado 898492" d="M69.813,55.644v2.644H9V53h3.966a2.652,2.652,0,0,0,2.644,2.644Z" transform="translate(1.576 2.525)" fill="#ffb52d"/>
        <path id="Trazado_898493" data-name="Trazado 898493" d="M69.813,51.644v2.644H9V49h3.966a2.652,2.652,0,0,0,2.644,2.644Z" transform="translate(1.576 1.237)" fill="#ffb52d"/>
        <path id="Trazado_898494" data-name="Trazado 898494" d="M69.813,47.644v2.644H9V45h3.966a2.652,2.652,0,0,0,2.644,2.644Z" transform="translate(1.576 -0.051)" fill="#ffb52d"/>
        <path id="Trazado_898495" data-name="Trazado 898495" d="M49.461,17.079c-1.917,2.3-4.852,5.685-6.372,6.531-2.353,1.335-.278,5.288-1.97,7.271s-6.24,3.305-7.562,1.983-2.644-5.288-1.322-8.831c.568-1.534-.066-3.662-.965-5.579.754-.132,1.52-.251,2.327-.4A68.544,68.544,0,0,1,45.1,17h1.851c.846,0,1.679.026,2.512.079Z" transform="translate(8.748 -9.068)" fill="#07a9f0"/>
        <path id="Trazado_898496" data-name="Trazado 898496" d="M40.273,31.429c-2.036,1.52-5.579,2.34-6.716,1.2-1.322-1.322-2.644-5.288-1.322-8.831.568-1.534-.066-3.662-.965-5.579.754-.132,1.52-.251,2.327-.4.225-.04.449-.079.674-.106.7,1.692,1.1,3.437.608,4.759-1.322,3.543,0,7.509,1.322,8.831.727.727,2.406.661,4.072.119Z" transform="translate(8.748 -8.836)" fill="#0691ce"/>
        <path id="Trazado_898497" data-name="Trazado 898497" d="M65.576,67.44v2.644H55V44.966L57.644,41h2.644l-2.644,3.966V62.152a5.287,5.287,0,0,0,5.288,5.288Z" transform="translate(16.389 -1.339)" fill="#f8a230"/>
      </g>
      <g id="Grupo_1110186" data-name="Grupo 1110186" transform="translate(0 0.032)">
        <path id="Trazado_898498" data-name="Trazado 898498" d="M28.809,9.119a1.325,1.325,0,1,0,1.269,2.327,6.769,6.769,0,0,1,6.359,0,1.325,1.325,0,0,0,1.269-2.327,9.45,9.45,0,0,0-8.871,0Z" transform="translate(9.053 2.538)" fill="#000935"/>
        <path id="Trazado_898499" data-name="Trazado 898499" d="M40.209,8.273a1.35,1.35,0,0,0,1.163-.687,1.326,1.326,0,0,0-.516-1.8,14.449,14.449,0,0,0-13.961,0A1.323,1.323,0,0,0,28.178,8.1a11.892,11.892,0,0,1,11.409,0,1.367,1.367,0,0,0,.635.159Z" transform="translate(8.442 1.242)" fill="#000935"/>
        <path id="Trazado_898500" data-name="Trazado 898500" d="M26.232,4.749a17.456,17.456,0,0,1,16.5,0,1.367,1.367,0,0,0,.635.159,1.327,1.327,0,0,0,.648-2.485,20.153,20.153,0,0,0-19.037,0,1.323,1.323,0,0,0,1.282,2.314Z" transform="translate(7.823 -0.032)" fill="#000935"/>
        <circle id="Elipse_12286" data-name="Elipse 12286" cx="1.322" cy="1.322" r="1.322" transform="translate(13.22 23.753)" fill="#000935"/>
        <circle id="Elipse_12287" data-name="Elipse 12287" cx="1.322" cy="1.322" r="1.322" transform="translate(5.288 58.126)" fill="#000935"/>
        <path id="Trazado_898501" data-name="Trazado 898501" d="M84.385,54.219l-2.644-3.966a1.333,1.333,0,0,0-1.1-.595H79.559c.648-4.006,2.168-14.661,1.058-20.095-.74-3.6-3.715-6.134-8.395-7.179a.289.289,0,0,0-.04-.066,8.773,8.773,0,0,0-4.759-3.094,42.637,42.637,0,0,0-10.4-1.282H55.168a70.613,70.613,0,0,0-11.726,1.071,97.1,97.1,0,0,1-18.35,1.573,9.851,9.851,0,0,0,.489-8.342l-.555-1.4a1.33,1.33,0,0,0-.965-.806,1.31,1.31,0,0,0-1.2.357l-4.971,4.971-4.878.687A11.838,11.838,0,0,0,5.671,20.1L1.018,25.5a4.212,4.212,0,0,0,3.2,6.967H13.63c.806,2.062,3.08,7.179,6.663,10.259a20.5,20.5,0,0,0,2.036,1.534,53.91,53.91,0,0,1,4.455,6.663,7.506,7.506,0,0,1,.978,3.688v.317H13.22A1.278,1.278,0,0,0,13,54.206L10.351,50.24a1.333,1.333,0,0,0-1.1-.595H3.966a1.315,1.315,0,0,0-1.1.595L.225,54.219A1.31,1.31,0,0,0,0,54.946V80.065a1.326,1.326,0,0,0,1.322,1.322H11.9a1.326,1.326,0,0,0,1.322-1.322V78.743H71.389v1.322a1.326,1.326,0,0,0,1.322,1.322H83.287a1.326,1.326,0,0,0,1.322-1.322V54.946A1.278,1.278,0,0,0,84.385,54.219ZM78.026,30.092c1.058,5.156-.582,16.089-1.15,19.566h-1.52a1.315,1.315,0,0,0-1.1.595l-.939,1.4a1.244,1.244,0,0,0-.053-.132A28.479,28.479,0,0,1,71.495,44a13.116,13.116,0,0,1,.264-3.979l2.089-10.457a10.039,10.039,0,0,0,.185-1.877,8.559,8.559,0,0,0-.291-2.089c1.983.793,3.794,2.142,4.283,4.495Zm-6.637,35.43H13.22V62.878H71.389ZM13.22,68.166H71.389V70.81H13.22ZM43.891,21.618a66.866,66.866,0,0,1,11.277-1.044h1.56c-2.6,2.975-3.741,3.874-4.23,4.138-1.957,1.111-1.917,3.213-1.9,4.9a4.508,4.508,0,0,1-.423,2.67,7.57,7.57,0,0,1-4.521,2.036,1.84,1.84,0,0,1-1.1-.132c-.965-.965-2.168-4.363-1.018-7.43a7.471,7.471,0,0,0-.357-5.024l.7-.119ZM15.8,30.727a1.322,1.322,0,0,0-1.256-.9H4.217a1.58,1.58,0,0,1-1.573-1.573,1.583,1.583,0,0,1,.383-1.031l4.64-5.407a9.263,9.263,0,0,1,5.711-3.146l5.315-.754a1.4,1.4,0,0,0,.754-.37L23.294,13.7a7.251,7.251,0,0,1,.344,2.195,7.1,7.1,0,0,1-2.1,5.077,1.323,1.323,0,0,0,.925,2.261H24.92A96.83,96.83,0,0,0,40.494,22.16a5.741,5.741,0,0,1,.555,3.675c-1.52,4.085-.04,8.567,1.626,10.232a3.659,3.659,0,0,0,2.67.925h.264a10,10,0,0,0,6.57-2.975c1.1-1.3,1.084-2.948,1.058-4.416-.026-1.52.026-2.261.555-2.552,1.269-.7,3.279-2.723,6.306-6.306a39.038,39.038,0,0,1,6.676,1.071,6.022,6.022,0,0,1,3.318,2.155,6.117,6.117,0,0,1,1.3,3.741,6.79,6.79,0,0,1-.132,1.362L69.168,39.531a16.027,16.027,0,0,0-.3,4.746,31.352,31.352,0,0,0,1.917,8.183c.106.291.2.555.291.767a3.984,3.984,0,0,1,.317,1.534v.212H68.467a9.512,9.512,0,0,0-1.044-2.684,30.292,30.292,0,0,0-5.447-6.927,29.866,29.866,0,0,0-7.258-5.01,1.311,1.311,0,0,0-1.772.608,1.326,1.326,0,0,0,.608,1.772A27.544,27.544,0,0,1,58.671,46,24.684,24.684,0,0,1,54.9,47.2a41.527,41.527,0,0,1-14.159.595,6.455,6.455,0,0,0-.264-.859,29.886,29.886,0,0,1-1.758-6.2,1.32,1.32,0,1,0-2.6.436,31.438,31.438,0,0,0,1.93,6.756,3.935,3.935,0,0,1,.317,1.534v5.5H35.721V52a10.206,10.206,0,0,0-1.309-4.984,1.2,1.2,0,0,0-.145-.212c-.291-.37-.621-.78-.978-1.2a23.366,23.366,0,0,1-3.913-5.989,1.325,1.325,0,1,0-2.446,1.018,20.434,20.434,0,0,0,2.512,4.363,29.268,29.268,0,0,1-5.46-2.776,18.872,18.872,0,0,1-1.957-1.467c-3.926-3.358-6.2-9.928-6.214-9.994ZM40.983,50.438a48.773,48.773,0,0,0,5.328.317,40.487,40.487,0,0,0,8.487-.873,26.544,26.544,0,0,1,4.244,5.063H41V50.438Zm21.166,4.508a.065.065,0,0,0-.013-.04,29.936,29.936,0,0,0-4.349-5.817,24.455,24.455,0,0,0,3-1.19,27.811,27.811,0,0,1,4.336,5.671,7.8,7.8,0,0,1,.608,1.362H62.148ZM29.084,49.618c-.516-.9-1.031-1.745-1.56-2.565A42.99,42.99,0,0,0,32.3,48.746a7.5,7.5,0,0,1,.754,3.239v2.961H30.406v-.317A10.206,10.206,0,0,0,29.084,49.618Zm42.3,7.972v2.644H13.22V57.59ZM10.576,78.743H2.644v-23.4L4.68,52.3H8.553l2.036,3.041v23.4ZM13.22,76.1V73.454H71.389V76.1Zm68.745,2.644H74.033v-23.4L76.069,52.3h3.874l2.036,3.041v23.4Z" transform="translate(0 3.18)" fill="#000935"/>
        <circle id="Elipse_12288" data-name="Elipse 12288" cx="1.322" cy="1.322" r="1.322" transform="translate(76.677 58.126)" fill="#000935"/>
      </g>
    </g>
  </g>
</svg>
