<svg xmlns="http://www.w3.org/2000/svg" width="72" height="72" viewBox="0 0 72 72">
  <g id="Grupo_1109995" data-name="Grupo 1109995" transform="translate(-215 -1883.688)">
    <g id="Grupo_1109953" data-name="Grupo 1109953" transform="translate(-204 762.688)">
      <path id="Trazado_824488" data-name="Trazado 824488" d="M36,0A36,36,0,1,1,0,36,36,36,0,0,1,36,0Z" transform="translate(419 1121)" fill="#f1efe3"/>
    </g>
    <g id="www" transform="translate(226.507 1901.188)">
      <path id="Trazado_898279" data-name="Trazado 898279" d="M43.96,26.25H47.9a2.461,2.461,0,0,0,2.461-2.461V12.961A2.461,2.461,0,0,0,47.9,10.5H12.461A2.461,2.461,0,0,0,10,12.961V23.789a2.461,2.461,0,0,0,2.461,2.461Zm0,0" transform="translate(-9.18 -9.18)" fill="#ffc66c"/>
      <path id="Trazado_898280" data-name="Trazado 898280" d="M378.094,327.367l6.816,6.816a1.961,1.961,0,0,0,2.774-2.773l-6.816-6.816Zm0,0" transform="translate(-347.079 -297.508)" fill="#ff5d5d"/>
      <path id="Trazado_898281" data-name="Trazado 898281" d="M209.691,146.344a9.844,9.844,0,1,1-9.844-9.844A9.844,9.844,0,0,1,209.691,146.344Zm0,0" transform="translate(-174.418 -124.844)" fill="#fff"/>
      <path id="Trazado_898282" data-name="Trazado 898282" d="M244.8,184.9a6.4,6.4,0,1,1-6.4-6.4A6.4,6.4,0,0,1,244.8,184.9Zm0,0" transform="translate(-212.973 -163.399)" fill="#72d8ff"/>
      <path id="Trazado_898283" data-name="Trazado 898283" d="M229.223,168.5a7.219,7.219,0,1,0,7.219,7.219A7.227,7.227,0,0,0,229.223,168.5Zm0,12.8a5.578,5.578,0,1,1,5.578-5.578A5.584,5.584,0,0,1,229.223,181.3Zm0,0" transform="translate(-203.793 -154.219)"/>
      <path id="Trazado_898284" data-name="Trazado 898284" d="M300.824,211.5a.82.82,0,1,0,0,1.641,2.053,2.053,0,0,1,2.05,2.05.82.82,0,0,0,1.641,0A3.7,3.7,0,0,0,300.824,211.5Zm0,0" transform="translate(-275.395 -193.695)"/>
      <path id="Trazado_898285" data-name="Trazado 898285" d="M44.31,70.94a.82.82,0,1,0-1.457.754l2.208,4.266a.82.82,0,0,0,1.468-.022l1.337-2.783,1.452,2.805a.821.821,0,0,0,.729.443h.012a.821.821,0,0,0,.727-.465l2.049-4.266a.82.82,0,1,0-1.479-.71l-1.337,2.783L48.567,70.94a.82.82,0,0,0-1.468.022l-1.337,2.783Zm0,0" transform="translate(-39.254 -64.255)"/>
      <path id="Trazado_898286" data-name="Trazado 898286" d="M116.809,2.141a.821.821,0,1,0-.58-.24A.826.826,0,0,0,116.809,2.141Zm0,0" transform="translate(-106.474)"/>
      <path id="Trazado_898287" data-name="Trazado 898287" d="M42,14.609V3.781A3.285,3.285,0,0,0,38.718.5H13.78a.82.82,0,0,0,0,1.641H38.718a1.643,1.643,0,0,1,1.641,1.641V14.609a1.643,1.643,0,0,1-1.641,1.641H34.781c-.024,0-.047,0-.07,0a10.721,10.721,0,0,0-5.766-4.821L30.161,8.9l1.452,2.805a.82.82,0,0,0,.728.443h.013a.821.821,0,0,0,.727-.465l2.049-4.266a.82.82,0,0,0-1.479-.71L32.314,9.491,30.862,6.685a.82.82,0,0,0-1.468.022L28.057,9.491,26.605,6.685a.82.82,0,0,0-1.457.754l1.816,3.507a10.68,10.68,0,0,0-4.444.293l1.836-3.822a.82.82,0,0,0-1.479-.71L21.54,9.491,20.088,6.685a.82.82,0,0,0-1.468.022L17.283,9.491,15.831,6.685a.82.82,0,0,0-1.457.754l2.208,4.266a.82.82,0,0,0,1.468-.022L19.387,8.9l1.452,2.805a.8.8,0,0,0,.087.13,10.735,10.735,0,0,0-4.775,4.414H3.281a1.643,1.643,0,0,1-1.641-1.641V3.781A1.643,1.643,0,0,1,3.281,2.141H6.644A.82.82,0,0,0,6.644.5H3.281A3.285,3.285,0,0,0,0,3.781V14.609A3.285,3.285,0,0,0,3.281,17.89H15.4A10.661,10.661,0,0,0,30.74,30.745l6.51,6.51a2.782,2.782,0,1,0,3.934-3.934l-2.558-2.558a.82.82,0,0,0-1.16,1.16l2.558,2.558A1.141,1.141,0,0,1,38.411,36.1l-6.295-6.3a10.654,10.654,0,0,0,3.348-11.91h3.254A3.285,3.285,0,0,0,42,14.609ZM25.43,30.523A9.023,9.023,0,1,1,34.453,21.5,9.034,9.034,0,0,1,25.43,30.523Zm0,0"/>
      <path id="Trazado_898288" data-name="Trazado 898288" d="M430.33,343.022a.82.82,0,1,0,.58-.24A.826.826,0,0,0,430.33,343.022Zm0,0" transform="translate(-394.81 -314.204)"/>
    </g>
  </g>
</svg>
