<svg xmlns="http://www.w3.org/2000/svg" xmlns:xlink="http://www.w3.org/1999/xlink" width="108.914" height="108.914" viewBox="0 0 108.914 108.914">
  <defs>
    <filter id="Trazado_874925" x="0" y="0" width="108.914" height="108.914" filterUnits="userSpaceOnUse">
      <feOffset dy="3" input="SourceAlpha"/>
      <feGaussianBlur stdDeviation="3" result="blur"/>
      <feFlood flood-opacity="0.161"/>
      <feComposite operator="in" in2="blur"/>
      <feComposite in="SourceGraphic"/>
    </filter>
  </defs>
  <g id="Grupo_1110370" data-name="Grupo 1110370" transform="translate(-1112.708 -4845.999)">
    <g id="Grupo_1110086" data-name="Grupo 1110086" transform="translate(0 2334.842)">
      <g id="Grupo_1109819" data-name="Grupo 1109819" transform="translate(1121.708 2517.157)">
        <g transform="matrix(1, 0, 0, 1, -9, -6)" filter="url(#Trazado_874925)">
          <g id="Trazado_874925-2" data-name="Trazado 874925" transform="translate(9 6)" fill="#efdb59" opacity="0.859">
            <path d="M 45.45676803588867 89.41407012939453 C 39.52198028564453 89.41407012939453 33.76551818847656 88.25206756591797 28.34726715087891 85.96034240722656 C 23.11311721801758 83.74648284912109 18.41204261779785 80.57682800292969 14.37464332580566 76.5394287109375 C 10.33724308013916 72.50202941894531 7.167593002319336 67.80095672607422 4.953730583190918 62.56679534912109 C 2.662005424499512 57.14855575561523 1.500005483627319 51.39208221435547 1.500005483627319 45.45729446411133 C 1.500005483627319 39.52198028564453 2.662005424499512 33.76551818847656 4.953730583190918 28.34726905822754 C 7.167593002319336 23.11310577392578 10.33724308013916 18.41203117370605 14.37464332580566 14.37464332580566 C 18.41204261779785 10.33724403381348 23.11311721801758 7.167593955993652 28.34726715087891 4.953731060028076 C 33.76551818847656 2.662006139755249 39.52198028564453 1.500006198883057 45.45676803588867 1.500006198883057 C 51.39155578613281 1.500006198883057 57.14802932739258 2.662006139755249 62.56626892089844 4.953731060028076 C 67.80043029785156 7.167593955993652 72.50150299072266 10.33724403381348 76.53890228271484 14.37464332580566 C 80.57630920410156 18.41203117370605 83.74595642089844 23.11310577392578 85.95981597900391 28.34726905822754 C 88.25154113769531 33.76551818847656 89.41354370117188 39.52198028564453 89.41354370117188 45.45676803588867 C 89.41354370117188 51.39208221435547 88.25154113769531 57.14855575561523 85.95981597900391 62.56679534912109 C 83.74595642089844 67.80095672607422 80.57630920410156 72.50202941894531 76.53890228271484 76.5394287109375 C 72.50150299072266 80.57682800292969 67.80043029785156 83.74648284912109 62.56626892089844 85.96034240722656 C 57.14802932739258 88.25206756591797 51.39155578613281 89.41407012939453 45.45676803588867 89.41407012939453 Z" stroke="none"/>
            <path d="M 45.45676803588867 3 C 39.72381210327148 3 34.1639404296875 4.12213134765625 28.93159484863281 6.335227966308594 C 23.87622833251953 8.473472595214844 19.33542633056641 11.53517150878906 15.43529510498047 15.435302734375 C 11.53517150878906 19.33543395996094 8.473464965820312 23.87622833251953 6.335227966308594 28.93160247802734 C 4.122123718261719 34.16394424438477 3 39.72381591796875 3 45.4572868347168 C 3 51.19024658203125 4.122123718261719 56.75011825561523 6.335227966308594 61.98246002197266 C 8.473464965820312 67.03782653808594 11.53517150878906 71.57862854003906 15.43529510498047 75.478759765625 C 19.33542633056641 79.37889099121094 23.87622833251953 82.44058990478516 28.93159484863281 84.57883453369141 C 34.1639404296875 86.79193115234375 39.72381210327148 87.9140625 45.45676803588867 87.9140625 C 51.18972396850586 87.9140625 56.74959564208984 86.79193115234375 61.98194122314453 84.57883453369141 C 67.03730773925781 82.44058990478516 71.57810974121094 79.37889099121094 75.47824096679688 75.478759765625 C 79.37837219238281 71.57862854003906 82.44007110595703 67.03782653808594 84.57830810546875 61.98246002197266 C 86.79141235351562 56.75011825561523 87.91353607177734 51.19024658203125 87.91353607177734 45.4567756652832 C 87.91353607177734 39.72381591796875 86.79141235351562 34.16394424438477 84.57830810546875 28.93160247802734 C 82.44007110595703 23.87622833251953 79.37837219238281 19.33543395996094 75.47824096679688 15.435302734375 C 71.57810974121094 11.53517150878906 67.03730773925781 8.473472595214844 61.98194122314453 6.335227966308594 C 56.74959564208984 4.12213134765625 51.18972396850586 3 45.45676803588867 3 M 45.45676803588867 0 C 70.56185150146484 0 90.91353607177734 20.35169219970703 90.91353607177734 45.4567756652832 L 90.91353607177734 45.4572868347168 C 90.91353607177734 70.5623779296875 70.56185150146484 90.9140625 45.45676803588867 90.9140625 C 20.3516845703125 90.9140625 0 70.5623779296875 0 45.4572868347168 L 0 45.4567756652832 C 0 20.35169219970703 20.3516845703125 0 45.45676803588867 0 Z" stroke="none" fill="#fff"/>
          </g>
        </g>
        <g id="Trazado_874923" data-name="Trazado 874923" transform="translate(0 0)" fill="none">
          <path d="M45.457,0A45.457,45.457,0,0,1,90.914,45.457h0A45.457,45.457,0,0,1,0,45.457H0A45.457,45.457,0,0,1,45.457,0Z" stroke="none"/>
          <path d="M 45.45676803588867 3 C 39.72381210327148 3 34.1639404296875 4.12213134765625 28.93159484863281 6.335227966308594 C 23.87622833251953 8.473472595214844 19.33542633056641 11.53517150878906 15.43529510498047 15.435302734375 C 11.53517150878906 19.33543395996094 8.473464965820312 23.87622833251953 6.335227966308594 28.93160247802734 C 4.122123718261719 34.16394424438477 3 39.72381591796875 3 45.4572868347168 C 3 51.19024658203125 4.122123718261719 56.75011825561523 6.335227966308594 61.98246002197266 C 8.473464965820312 67.03782653808594 11.53517150878906 71.57862854003906 15.43529510498047 75.478759765625 C 19.33542633056641 79.37889099121094 23.87622833251953 82.44058990478516 28.93159484863281 84.57883453369141 C 34.1639404296875 86.79193115234375 39.72381210327148 87.9140625 45.45676803588867 87.9140625 C 51.18972396850586 87.9140625 56.74959564208984 86.79193115234375 61.98194122314453 84.57883453369141 C 67.03730773925781 82.44058990478516 71.57810974121094 79.37889099121094 75.47824096679688 75.478759765625 C 79.37837219238281 71.57862854003906 82.44007110595703 67.03782653808594 84.57830810546875 61.98246002197266 C 86.79141235351562 56.75011825561523 87.91353607177734 51.19024658203125 87.91353607177734 45.4567756652832 C 87.91353607177734 39.72381591796875 86.79141235351562 34.16394424438477 84.57830810546875 28.93160247802734 C 82.44007110595703 23.87622833251953 79.37837219238281 19.33543395996094 75.47824096679688 15.435302734375 C 71.57810974121094 11.53517150878906 67.03730773925781 8.473472595214844 61.98194122314453 6.335227966308594 C 56.74959564208984 4.12213134765625 51.18972396850586 3 45.45676803588867 3 M 45.45676803588867 0 C 70.56185150146484 0 90.91353607177734 20.35169219970703 90.91353607177734 45.4567756652832 L 90.91353607177734 45.4572868347168 C 90.91353607177734 70.5623779296875 70.56185150146484 90.9140625 45.45676803588867 90.9140625 C 20.3516845703125 90.9140625 0 70.5623779296875 0 45.4572868347168 L 0 45.4567756652832 C 0 20.35169219970703 20.3516845703125 0 45.45676803588867 0 Z" stroke="none" fill="#fff"/>
        </g>
      </g>
    </g>
    <g id="aaa" transform="translate(1135.294 4839.205)">
      <path id="Trazado_898831" data-name="Trazado 898831" d="M214.592,45.526l1.516-1.017,2.4,2.4-1.017,1.516,1.01,2.437,1.791.353V54.6l-1.791.353-1.01,2.437,1.017,1.516-2.4,2.4-1.516-1.017-2.437,1.01-.353,1.791h-3.391l-.353-1.791-2.437-1.009-1.516,1.017-2.4-2.4,1.017-1.516-1.01-2.437-1.791-.353V51.213l1.791-.353,1.01-2.437-1.017-1.516,2.4-2.4,1.516,1.017,2.437-1.01.353-1.791H211.8l.353,1.791Z" transform="translate(-175.779 -6.217)" fill="#909cd1" fill-rule="evenodd"/>
      <path id="Trazado_898832" data-name="Trazado 898832" d="M214.593,45.526l.861-.578,1.959,1.958L216.4,48.423l1.01,2.437,1.791.353V54.6l-1.791.353-1.01,2.437,1.017,1.516-1.959,1.958-.861-.578-.887-.594-2.535,1.05-.462,2.345h-2.3l-.353-1.791-2.437-1.009h0l-.907-.376-1.2.8-1.809-1.809,1.017-1.516-1.01-2.437-1.791-.353V51.213l1.791-.353,1.01-2.437-1.017-1.516,1.809-1.809,1.2.8.907-.376,2.437-1.01.353-1.791h2.3l.462,2.345,2.535,1.05Z" transform="translate(-175.779 -6.217)" fill="#bdc7f2" fill-rule="evenodd"/>
      <circle id="Elipse_12359" data-name="Elipse 12359" cx="5.222" cy="5.222" r="5.222" transform="matrix(0.16, -0.987, 0.987, 0.16, 27.394, 51.01)" fill="#909cd1"/>
      <circle id="Elipse_12360" data-name="Elipse 12360" cx="5.222" cy="5.222" r="5.222" transform="translate(29.106 41.469)" fill="#f3f3ff"/>
      <g id="Grupo_1110369" data-name="Grupo 1110369" transform="translate(4.732 50.786)">
        <path id="Trazado_898833" data-name="Trazado 898833" d="M24.608,349.86a13.48,13.48,0,0,1,13.423,12.254H11.185A13.48,13.48,0,0,1,24.608,349.86Z" transform="translate(-11.185 -332.547)" fill="#2a92fa" fill-rule="evenodd"/>
        <path id="Trazado_898834" data-name="Trazado 898834" d="M35.561,366.246H11.185A13.49,13.49,0,0,1,20.8,354.536a13.616,13.616,0,0,1,1.388-.071,13.48,13.48,0,0,1,13.371,11.781Z" transform="translate(-11.185 -336.678)" fill="#4eb1fc" fill-rule="evenodd"/>
        <path id="Trazado_898835" data-name="Trazado 898835" d="M85.7,224.619a6.419,6.419,0,1,1-6.419,6.419A6.419,6.419,0,0,1,85.7,224.619Z" transform="translate(-72.272 -220.188)" fill="#fdb0a0" fill-rule="evenodd"/>
        <path id="Trazado_898836" data-name="Trazado 898836" d="M84.829,237.909a6.42,6.42,0,0,1,0-12.722,6.42,6.42,0,0,1,0,12.722Z" transform="translate(-72.272 -220.697)" fill="#ffcec0" fill-rule="evenodd"/>
        <path id="Trazado_898837" data-name="Trazado 898837" d="M87.458,198.239v-1.06a7.022,7.022,0,0,0-14.045,0v1.06Z" transform="translate(-67.012 -189.271)" fill="#fdc72e" fill-rule="evenodd"/>
        <path id="Trazado_898838" data-name="Trazado 898838" d="M81.1,190.188c-.219-.021-.441-.032-.665-.032a7.043,7.043,0,0,0-7.022,7.022v1.06H85.8v-1.06a7.547,7.547,0,0,0-4.7-6.991Z" transform="translate(-67.012 -189.27)" fill="#fcdb35" fill-rule="evenodd"/>
        <path id="Trazado_898839" data-name="Trazado 898839" d="M70.23,265.893v-.536h14.7v.536a21.411,21.411,0,0,1-7.35,1.649,21.414,21.414,0,0,1-7.35-1.649Z" transform="translate(-64.157 -256.736)" fill="#f19a00" fill-rule="evenodd"/>
        <path id="Trazado_898840" data-name="Trazado 898840" d="M70.231,265.357h14.7a21.415,21.415,0,0,1-7.35,1.649A21.415,21.415,0,0,1,70.231,265.357Z" transform="translate(-64.158 -256.736)" fill="#f9ac00" fill-rule="evenodd"/>
        <path id="Trazado_898841" data-name="Trazado 898841" d="M53.545,363.485v4.173H65.523v-4.173a13.515,13.515,0,0,1,3.43,2.437v8.416H50.115v-8.416A13.513,13.513,0,0,1,53.545,363.485Z" transform="translate(-46.111 -344.77)" fill="#f9ac00" fill-rule="evenodd"/>
        <path id="Trazado_898842" data-name="Trazado 898842" d="M53.545,367.658H65.523v-4.173a13.473,13.473,0,0,1,2.191,1.365v9.487h-17.6v-8.416a13.54,13.54,0,0,1,2.191-1.738v3.473h1.238Z" transform="translate(-46.111 -344.77)" fill="#fcdb35" fill-rule="evenodd"/>
        <path id="Trazado_898843" data-name="Trazado 898843" d="M265.176,181.539a9.367,9.367,0,0,1,8.055,14.146,1.588,1.588,0,0,0,.245,1.956l1.673,1.673-1.563,1.563-1.673-1.673a1.588,1.588,0,0,0-1.956-.245,9.366,9.366,0,1,1-4.781-17.42Z" transform="translate(-230.648 -181.539)" fill="#2a92fa" fill-rule="evenodd"/>
        <path id="Trazado_898844" data-name="Trazado 898844" d="M274.5,203.182l-.916.916-1.673-1.673a1.588,1.588,0,0,0-1.956-.245,9.476,9.476,0,1,1-5.7-17.051c7.312,0,11.827,7.485,7.792,13.883a1.588,1.588,0,0,0,.245,1.956l2.213,2.213Z" transform="translate(-230.65 -184.761)" fill="#4eb1fc" fill-rule="evenodd"/>
      </g>
      <circle id="Elipse_12361" data-name="Elipse 12361" cx="6.625" cy="6.625" r="6.625" transform="translate(30.588 55.051) rotate(-11.951)" fill="#2a92fa"/>
      <circle id="Elipse_12362" data-name="Elipse 12362" cx="6.625" cy="6.625" r="6.625" transform="translate(31.901 65.974) rotate(-83.394)" fill="#f3f3ff"/>
      <path id="Trazado_898845" data-name="Trazado 898845" d="M420.664,343.559,415.21,338.1a.968.968,0,0,0-1.367,0l-1.466,1.466a.968.968,0,0,0,0,1.367l5.454,5.454a2,2,0,1,0,2.833-2.833Z" transform="translate(-366.125 -270.961)" fill="#a34f41" fill-rule="evenodd"/>
      <path id="Trazado_898846" data-name="Trazado 898846" d="M413.11,345.232l-.733.733h0a.968.968,0,0,0,0,1.367l5.454,5.454a1.537,1.537,0,1,0,2.1-2.1l-5.454-5.454a.968.968,0,0,0-1.367,0Z" transform="translate(-366.125 -277.356)" fill="#c86f5c" fill-rule="evenodd"/>
      <path id="Trazado_898847" data-name="Trazado 898847" d="M39.26,66.043a5.891,5.891,0,1,1,5.89-5.891A5.9,5.9,0,0,1,39.26,66.043Zm0-13.223a7.332,7.332,0,1,0,7.333,7.332A7.342,7.342,0,0,0,39.26,52.82Zm-2.013-7.426-3.614,3.611a.71.71,0,0,1-.506.211.741.741,0,0,1-.094-.006.715.715,0,0,1-.531-.354l-1.2-2.085a.721.721,0,0,1,1.249-.72l.734,1.273,2.945-2.947a.721.721,0,1,1,1.021,1.018ZM54.02,74.91a1.291,1.291,0,0,1-1.825,0L46.772,69.49a.257.257,0,0,1,0-.354l1.473-1.472a.256.256,0,0,1,.357,0l5.419,5.419a1.295,1.295,0,0,1,0,1.826ZM43.668,67.575a2.282,2.282,0,0,1,2.528.1l.59-.586a2.293,2.293,0,0,1-.1-2.532,8.614,8.614,0,1,0-3.014,3.018ZM34.7,51.172a10.054,10.054,0,0,1,2.236-.821,4.5,4.5,0,1,0-2.613.837c.129,0,.253-.007.377-.017ZM30.123,53.4a.714.714,0,0,0-.674.067l-1.026.687L26.866,52.6l.684-1.023a.73.73,0,0,0,.069-.677l-1.011-2.435a.711.711,0,0,0-.526-.431l-1.21-.239v-2.2l1.21-.238a.712.712,0,0,0,.526-.431l1.011-2.435a.73.73,0,0,0-.069-.677l-.684-1.024,1.557-1.559,1.026.687a.716.716,0,0,0,.674.067l2.434-1.009a.715.715,0,0,0,.431-.526l.238-1.209h2.206l.238,1.209a.715.715,0,0,0,.431.526l2.434,1.009a.715.715,0,0,0,.674-.067l1.026-.687,1.557,1.559-.684,1.024a.73.73,0,0,0-.069.677l1.011,2.435a.712.712,0,0,0,.526.431l1.21.238v2.2l-1.21.239a.711.711,0,0,0-.526.431l-.759,1.825a10.023,10.023,0,0,0-2.033-.206h-.055a5.938,5.938,0,1,0-6.4,2.348,9.964,9.964,0,0,0-1.443,1.485L30.123,53.4ZM55.036,72.065l-5.419-5.419a1.677,1.677,0,0,0-1.195-.494,1.718,1.718,0,0,0-.486.07.873.873,0,0,1-.015-.929,10.077,10.077,0,0,0-5.23-14.61l.545-1.313,1.408-.278a.72.72,0,0,0,.58-.707V45a.721.721,0,0,0-.58-.707l-1.408-.278-.714-1.722.8-1.195a.718.718,0,0,0-.089-.91l-2.395-2.4a.723.723,0,0,0-.912-.089l-1.195.8-1.72-.713-.278-1.411a.722.722,0,0,0-.709-.581H32.637a.722.722,0,0,0-.709.581l-.278,1.411-1.72.713-1.195-.8a.723.723,0,0,0-.912.089l-2.395,2.4a.718.718,0,0,0-.089.91l.8,1.195-.714,1.722-1.413.278a.72.72,0,0,0-.58.707v3.389a.72.72,0,0,0,.58.707l1.413.278.714,1.723-.8,1.195a.718.718,0,0,0,.089.91l2.395,2.4a.722.722,0,0,0,.912.088l1.195-.8.6.251A10.07,10.07,0,0,0,44.4,68.813a.874.874,0,0,1,.932.016,1.681,1.681,0,0,0,.421,1.68l5.419,5.419a2.731,2.731,0,0,0,3.862-3.863ZM28.309,79.655V73.8a12.714,12.714,0,0,1,2.479,5.852ZM8.006,73.8v5.852H5.527A12.716,12.716,0,0,1,8.006,73.8ZM12.449,61.63c0-.12,0-.239.01-.357a18.644,18.644,0,0,0,5.692,1.034h.01a18.644,18.644,0,0,0,5.692-1.034q.015.179.015.357a5.709,5.709,0,0,1-11.418,0Zm10.263-1.513a16.274,16.274,0,0,1-4.556.749,16.243,16.243,0,0,1-4.551-.749ZM15.884,52.8l-.134,3.531a.722.722,0,0,0,.694.746h.025a.716.716,0,0,0,.719-.694l.169-4.47a6.014,6.014,0,0,1,1.6,0l.164,4.47a.719.719,0,1,0,1.438-.053L20.431,52.8a6.358,6.358,0,0,1,4.036,5.878H11.844A6.37,6.37,0,0,1,15.884,52.8Zm-3,17.145a12.979,12.979,0,0,1,10.555,0v3.021H12.88V69.944ZM9.444,72.219A12.6,12.6,0,0,1,11.437,70.7v2.98a.72.72,0,0,0,.719.72h12a.72.72,0,0,0,.719-.72V70.7a12.881,12.881,0,0,1,2,1.514v7.436H9.444V72.219Zm18.329-1.091a14.173,14.173,0,0,1,4.541,9.182.717.717,0,0,1-.714.785H4.714A.725.725,0,0,1,4,80.31,14.236,14.236,0,0,1,14.6,67.831a7.154,7.154,0,0,1-3.6-6.2,7.8,7.8,0,0,1,.05-.834l-.511-.186a.721.721,0,0,1-.471-.675V59.4a.72.72,0,0,1,.332-.6v-.11a7.808,7.808,0,0,1,5.538-7.427.712.712,0,0,1,.555-.65,7.459,7.459,0,0,1,3.317,0,.723.723,0,0,1,.555.65,7.814,7.814,0,0,1,5.538,7.427v.11a.716.716,0,0,1,.327.6v.537a.721.721,0,0,1-.471.675c-.174.064-.342.126-.511.186a6.69,6.69,0,0,1,.05.834,7.144,7.144,0,0,1-3.6,6.2,14.19,14.19,0,0,1,6.068,3.3Z" transform="translate(0)" fill-rule="evenodd"/>
    </g>
  </g>
</svg>
