<svg xmlns="http://www.w3.org/2000/svg" xmlns:xlink="http://www.w3.org/1999/xlink" width="108.914" height="108.914" viewBox="0 0 108.914 108.914">
  <defs>
    <filter id="Trazado_874925" x="0" y="0" width="108.914" height="108.914" filterUnits="userSpaceOnUse">
      <feOffset dy="3" input="SourceAlpha"/>
      <feGaussianBlur stdDeviation="3" result="blur"/>
      <feFlood flood-opacity="0.161"/>
      <feComposite operator="in" in2="blur"/>
      <feComposite in="SourceGraphic"/>
    </filter>
  </defs>
  <g id="Grupo_1110399" data-name="Grupo 1110399" transform="translate(-1050.001 6761)">
    <g id="Grupo_1110091" data-name="Grupo 1110091" transform="translate(-62.708 -9272.157)">
      <g id="Grupo_1109819" data-name="Grupo 1109819" transform="translate(1121.708 2517.157)">
        <g transform="matrix(1, 0, 0, 1, -9, -6)" filter="url(#Trazado_874925)">
          <g id="Trazado_874925-2" data-name="Trazado 874925" transform="translate(9 6)" fill="#efdb59" opacity="0.859">
            <path d="M 45.45676803588867 89.41407012939453 C 39.52198028564453 89.41407012939453 33.76551818847656 88.25206756591797 28.34726715087891 85.96034240722656 C 23.11311721801758 83.74648284912109 18.41204261779785 80.57682800292969 14.37464332580566 76.5394287109375 C 10.33724308013916 72.50202941894531 7.167593002319336 67.80095672607422 4.953730583190918 62.56679534912109 C 2.662005424499512 57.14855575561523 1.500005483627319 51.39208221435547 1.500005483627319 45.45729446411133 C 1.500005483627319 39.52198028564453 2.662005424499512 33.76551818847656 4.953730583190918 28.34726905822754 C 7.167593002319336 23.11310577392578 10.33724308013916 18.41203117370605 14.37464332580566 14.37464332580566 C 18.41204261779785 10.33724403381348 23.11311721801758 7.167593955993652 28.34726715087891 4.953731060028076 C 33.76551818847656 2.662006139755249 39.52198028564453 1.500006198883057 45.45676803588867 1.500006198883057 C 51.39155578613281 1.500006198883057 57.14802932739258 2.662006139755249 62.56626892089844 4.953731060028076 C 67.80043029785156 7.167593955993652 72.50150299072266 10.33724403381348 76.53890228271484 14.37464332580566 C 80.57630920410156 18.41203117370605 83.74595642089844 23.11310577392578 85.95981597900391 28.34726905822754 C 88.25154113769531 33.76551818847656 89.41354370117188 39.52198028564453 89.41354370117188 45.45676803588867 C 89.41354370117188 51.39208221435547 88.25154113769531 57.14855575561523 85.95981597900391 62.56679534912109 C 83.74595642089844 67.80095672607422 80.57630920410156 72.50202941894531 76.53890228271484 76.5394287109375 C 72.50150299072266 80.57682800292969 67.80043029785156 83.74648284912109 62.56626892089844 85.96034240722656 C 57.14802932739258 88.25206756591797 51.39155578613281 89.41407012939453 45.45676803588867 89.41407012939453 Z" stroke="none"/>
            <path d="M 45.45676803588867 3 C 39.72381210327148 3 34.1639404296875 4.12213134765625 28.93159484863281 6.335227966308594 C 23.87622833251953 8.473472595214844 19.33542633056641 11.53517150878906 15.43529510498047 15.435302734375 C 11.53517150878906 19.33543395996094 8.473464965820312 23.87622833251953 6.335227966308594 28.93160247802734 C 4.122123718261719 34.16394424438477 3 39.72381591796875 3 45.4572868347168 C 3 51.19024658203125 4.122123718261719 56.75011825561523 6.335227966308594 61.98246002197266 C 8.473464965820312 67.03782653808594 11.53517150878906 71.57862854003906 15.43529510498047 75.478759765625 C 19.33542633056641 79.37889099121094 23.87622833251953 82.44058990478516 28.93159484863281 84.57883453369141 C 34.1639404296875 86.79193115234375 39.72381210327148 87.9140625 45.45676803588867 87.9140625 C 51.18972396850586 87.9140625 56.74959564208984 86.79193115234375 61.98194122314453 84.57883453369141 C 67.03730773925781 82.44058990478516 71.57810974121094 79.37889099121094 75.47824096679688 75.478759765625 C 79.37837219238281 71.57862854003906 82.44007110595703 67.03782653808594 84.57830810546875 61.98246002197266 C 86.79141235351562 56.75011825561523 87.91353607177734 51.19024658203125 87.91353607177734 45.4567756652832 C 87.91353607177734 39.72381591796875 86.79141235351562 34.16394424438477 84.57830810546875 28.93160247802734 C 82.44007110595703 23.87622833251953 79.37837219238281 19.33543395996094 75.47824096679688 15.435302734375 C 71.57810974121094 11.53517150878906 67.03730773925781 8.473472595214844 61.98194122314453 6.335227966308594 C 56.74959564208984 4.12213134765625 51.18972396850586 3 45.45676803588867 3 M 45.45676803588867 0 C 70.56185150146484 0 90.91353607177734 20.35169219970703 90.91353607177734 45.4567756652832 L 90.91353607177734 45.4572868347168 C 90.91353607177734 70.5623779296875 70.56185150146484 90.9140625 45.45676803588867 90.9140625 C 20.3516845703125 90.9140625 0 70.5623779296875 0 45.4572868347168 L 0 45.4567756652832 C 0 20.35169219970703 20.3516845703125 0 45.45676803588867 0 Z" stroke="none" fill="#fff"/>
          </g>
        </g>
        <g id="Trazado_874923" data-name="Trazado 874923" transform="translate(0 0)" fill="none">
          <path d="M45.457,0A45.457,45.457,0,0,1,90.914,45.457h0A45.457,45.457,0,0,1,0,45.457H0A45.457,45.457,0,0,1,45.457,0Z" stroke="none"/>
          <path d="M 45.45676803588867 3 C 39.72381210327148 3 34.1639404296875 4.12213134765625 28.93159484863281 6.335227966308594 C 23.87622833251953 8.473472595214844 19.33542633056641 11.53517150878906 15.43529510498047 15.435302734375 C 11.53517150878906 19.33543395996094 8.473464965820312 23.87622833251953 6.335227966308594 28.93160247802734 C 4.122123718261719 34.16394424438477 3 39.72381591796875 3 45.4572868347168 C 3 51.19024658203125 4.122123718261719 56.75011825561523 6.335227966308594 61.98246002197266 C 8.473464965820312 67.03782653808594 11.53517150878906 71.57862854003906 15.43529510498047 75.478759765625 C 19.33542633056641 79.37889099121094 23.87622833251953 82.44058990478516 28.93159484863281 84.57883453369141 C 34.1639404296875 86.79193115234375 39.72381210327148 87.9140625 45.45676803588867 87.9140625 C 51.18972396850586 87.9140625 56.74959564208984 86.79193115234375 61.98194122314453 84.57883453369141 C 67.03730773925781 82.44058990478516 71.57810974121094 79.37889099121094 75.47824096679688 75.478759765625 C 79.37837219238281 71.57862854003906 82.44007110595703 67.03782653808594 84.57830810546875 61.98246002197266 C 86.79141235351562 56.75011825561523 87.91353607177734 51.19024658203125 87.91353607177734 45.4567756652832 C 87.91353607177734 39.72381591796875 86.79141235351562 34.16394424438477 84.57830810546875 28.93160247802734 C 82.44007110595703 23.87622833251953 79.37837219238281 19.33543395996094 75.47824096679688 15.435302734375 C 71.57810974121094 11.53517150878906 67.03730773925781 8.473472595214844 61.98194122314453 6.335227966308594 C 56.74959564208984 4.12213134765625 51.18972396850586 3 45.45676803588867 3 M 45.45676803588867 0 C 70.56185150146484 0 90.91353607177734 20.35169219970703 90.91353607177734 45.4567756652832 L 90.91353607177734 45.4572868347168 C 90.91353607177734 70.5623779296875 70.56185150146484 90.9140625 45.45676803588867 90.9140625 C 20.3516845703125 90.9140625 0 70.5623779296875 0 45.4572868347168 L 0 45.4567756652832 C 0 20.35169219970703 20.3516845703125 0 45.45676803588867 0 Z" stroke="none" fill="#fff"/>
        </g>
      </g>
    </g>
    <g id="desemp" transform="translate(1078 -6762.531)">
      <g id="Grupo_1110395" data-name="Grupo 1110395" transform="translate(0.778 31.31)">
        <path id="Trazado_898896" data-name="Trazado 898896" d="M228.354,38.036l-7.886,1.128a.441.441,0,0,0-.275.719l1.394,1.668a.45.45,0,0,1-.057.634L214.691,47.9a.8.8,0,0,1-1.165-.147L210.7,43.825a1.024,1.024,0,0,0-1.487-.188L196.935,53.9l2.1,2.509,9.761-8.158a.8.8,0,0,1,1.165.147l2.827,3.931a1.024,1.024,0,0,0,1.487.188l9.354-7.819a.45.45,0,0,1,.634.057l1.307,1.563a.441.441,0,0,0,.757-.144l2.51-7.56A.441.441,0,0,0,228.354,38.036Z" transform="translate(-177.273 -38.031)" fill="#bbec6c"/>
        <path id="Trazado_898897" data-name="Trazado 898897" d="M278.313,298.306v15.63H285.7V297.787h-6.864A.519.519,0,0,0,278.313,298.306Z" transform="translate(-250.205 -270.826)" fill="#fd8087"/>
        <path id="Trazado_898898" data-name="Trazado 898898" d="M349.443,250.557v20.587h7.383V250.038h-6.864A.519.519,0,0,0,349.443,250.557Z" transform="translate(-313.952 -228.033)" fill="#fee97d"/>
        <path id="Trazado_898899" data-name="Trazado 898899" d="M420.574,202.808V228.35h6.864a.519.519,0,0,0,.519-.519V202.808a.519.519,0,0,0-.519-.519h-6.345A.519.519,0,0,0,420.574,202.808Z" transform="translate(-377.7 -185.24)" fill="#8ac9fe"/>
        <rect id="Rectángulo_402716" data-name="Rectángulo 402716" width="2.076" height="16.149" transform="translate(33.415 26.961)" fill="#fe646f"/>
        <rect id="Rectángulo_402717" data-name="Rectángulo 402717" width="2.076" height="21.105" transform="translate(40.798 22.005)" fill="#fed402"/>
        <path id="Trazado_898900" data-name="Trazado 898900" d="M468.779,202.289H466.7a.519.519,0,0,1,.519.519v25.023a.519.519,0,0,1-.519.519h2.076a.519.519,0,0,0,.519-.519V202.808A.519.519,0,0,0,468.779,202.289Z" transform="translate(-419.041 -185.24)" fill="#60b7ff"/>
        <path id="Trazado_898901" data-name="Trazado 898901" d="M35.054,80.981a.457.457,0,0,1-.15-.609,3.3,3.3,0,0,0-.964-4.353.467.467,0,0,1-.2-.382V66.148a6.056,6.056,0,0,0-5.862-6.053.355.355,0,0,1-.294-.169l-.072-.119a5.878,5.878,0,0,0-5.025-2.829h-3.36a8.4,8.4,0,0,0-8.4,8.4V75.637a.467.467,0,0,1-.2.382,3.3,3.3,0,0,0-.964,4.353.457.457,0,0,1-.15.609,4.15,4.15,0,1,0,5.87,5.511H29.184a4.15,4.15,0,1,0,5.87-5.511Z" transform="translate(-7.501 -55.012)" fill="#8b8089"/>
        <path id="Trazado_898902" data-name="Trazado 898902" d="M146.516,80.981a.457.457,0,0,1-.15-.609,3.3,3.3,0,0,0-.964-4.353.467.467,0,0,1-.2-.382V66.148a6.056,6.056,0,0,0-5.862-6.053.355.355,0,0,1-.294-.169l-.072-.119a5.878,5.878,0,0,0-5.025-2.829h-2.076a5.878,5.878,0,0,1,5.025,2.829l.072.119a.355.355,0,0,0,.294.169,6.056,6.056,0,0,1,5.862,6.053v9.489a.467.467,0,0,0,.2.382,3.3,3.3,0,0,1,.964,4.353.457.457,0,0,0,.15.609,4.15,4.15,0,0,1-1.206,7.508,4.15,4.15,0,0,0,3.282-7.508Z" transform="translate(-118.963 -55.012)" fill="#7b7179"/>
        <path id="Trazado_898903" data-name="Trazado 898903" d="M7.5,317.6V305.421a3.206,3.206,0,0,1,2.612-3.151l12.118-2.287,12.117,2.287a3.207,3.207,0,0,1,2.612,3.151V317.6a.442.442,0,0,1-.441.442H7.942A.442.442,0,0,1,7.5,317.6Z" transform="translate(-7.5 -272.795)" fill="#b3dafe"/>
        <path id="Trazado_898904" data-name="Trazado 898904" d="M174.38,304.7l-10.629-2.006v1.085a.667.667,0,0,0,.543.655l8.48,1.6a2.629,2.629,0,0,1,2.142,2.584v11.411a.442.442,0,0,1-.442.442h2.076a.442.442,0,0,0,.441-.442V307.846A3.206,3.206,0,0,0,174.38,304.7Z" transform="translate(-147.533 -275.22)" fill="#8ac9fe"/>
        <path id="Trazado_898905" data-name="Trazado 898905" d="M124.773,364.676l-1.621,11.344H128.6l-1.621-11.344Z" transform="translate(-111.148 -330.773)" fill="#8b8089"/>
        <path id="Trazado_898906" data-name="Trazado 898906" d="M94.9,299.983l-6.314,1.192,1.023,5.068a.67.67,0,0,0,1.1.372l4.195-3.655,4.436,3.693a.669.669,0,0,0,1.085-.381l1.026-5.055Z" transform="translate(-80.166 -272.795)" fill="#8ac9fe"/>
        <path id="Trazado_898907" data-name="Trazado 898907" d="M163.751,303.773a.667.667,0,0,0,.543.655l4.195.792.32-1.577-5.058-.955Z" transform="translate(-147.533 -275.219)" fill="#60b7ff"/>
        <path id="Trazado_898908" data-name="Trazado 898908" d="M115.07,254.371v5.812a3.564,3.564,0,0,0,7.128,0v-5.812Z" transform="translate(-103.905 -231.917)" fill="#fed2a4"/>
        <path id="Trazado_898909" data-name="Trazado 898909" d="M164.294,261.126l1.327.251a3.557,3.557,0,0,0,.205-1.193v-5.812h-2.076v6.1A.667.667,0,0,0,164.294,261.126Z" transform="translate(-147.533 -231.917)" fill="#ffbd86"/>
        <path id="Trazado_898910" data-name="Trazado 898910" d="M129.955,342.174l-1.084,2.481a.7.7,0,0,1-.646.423h-1.71a.7.7,0,0,1-.646-.423l-1.052-2.409,1.033-.91h3.085Z" transform="translate(-112.641 -309.855)" fill="#7b7179"/>
        <path id="Trazado_898911" data-name="Trazado 898911" d="M79.711,123.255H78.4a.859.859,0,0,0-.53.18,11.043,11.043,0,0,1-10.207,1.8.565.565,0,0,0-.735.54v6.751a8.562,8.562,0,1,0,17.123.108v-5.041A4.338,4.338,0,0,0,79.711,123.255Z" transform="translate(-60.758 -114.409)" fill="#fed2a4"/>
      </g>
      <g id="Grupo_1110398" data-name="Grupo 1110398" transform="translate(0 30.531)">
        <path id="Trazado_898912" data-name="Trazado 898912" d="M263.682,133.407a1.787,1.787,0,0,1-.223-.014,1.809,1.809,0,0,1-1.238-.735l-2.828-3.931-5.315,4.41a.778.778,0,1,1-1-1.195l5.281-4.414a1.58,1.58,0,0,1,2.3.291l2.827,3.93a.246.246,0,0,0,.356.045l3.819-3.192a.778.778,0,1,1,1,1.195l-3.819,3.192A1.808,1.808,0,0,1,263.682,133.407Z" transform="translate(-226.561 -117.13)"/>
        <path id="Trazado_898913" data-name="Trazado 898913" d="M253.159,42.493a.778.778,0,0,1-.5-1.376l5.743-4.8a1.8,1.8,0,0,1,2.618.33l2.828,3.932,6.621-5.5-1.183-1.415a1.219,1.219,0,0,1,.762-1.989l7.886-1.128a1.219,1.219,0,0,1,1.33,1.59l-2.51,7.562a1.219,1.219,0,0,1-2.094.4l-1.1-1.31-2.5,2.088a.778.778,0,0,1-1-1.194l2.749-2.3a1.232,1.232,0,0,1,1.73.155l.919,1.1,2.147-6.467-6.745.965,1.006,1.2a1.228,1.228,0,0,1-.157,1.732l-6.837,5.716a1.581,1.581,0,0,1-2.3-.289l-2.827-3.932a.246.246,0,0,0-.356-.045l-5.743,4.8A.775.775,0,0,1,253.159,42.493Z" transform="translate(-226.185 -30.531)"/>
        <path id="Trazado_898914" data-name="Trazado 898914" d="M283.425,307.994h-6.032a.778.778,0,1,1,0-1.557h5.254V291.845h-6.085a.778.778,0,0,1-.006-1.557h6.87a.778.778,0,0,1,.778.778v16.149A.778.778,0,0,1,283.425,307.994Z" transform="translate(-247.156 -263.327)"/>
        <path id="Trazado_898915" data-name="Trazado 898915" d="M343.241,242.538H350.1a.778.778,0,0,1,.778.778v21.105a.778.778,0,0,1-.778.778h-7.383a.778.778,0,0,1-.778-.778V243.835A1.3,1.3,0,0,1,343.241,242.538Zm6.085,1.557H343.5v19.549h5.826Z" transform="translate(-306.452 -220.533)"/>
        <path id="Trazado_898916" data-name="Trazado 898916" d="M414.371,194.789h6.345a1.3,1.3,0,0,1,1.3,1.3V221.11a1.3,1.3,0,0,1-1.3,1.3h-6.864a.778.778,0,0,1-.778-.778V196.086A1.3,1.3,0,0,1,414.371,194.789Zm6.085,1.557h-5.826v24.5h5.826Z" transform="translate(-370.2 -177.74)"/>
        <path id="Trazado_898917" data-name="Trazado 898917" d="M121.881,380.275H116.43a.778.778,0,0,1-.771-.889l1.452-10.162a.778.778,0,1,1,1.541.22l-1.325,9.274h3.656l-1.325-9.274a.778.778,0,1,1,1.541-.22l1.452,10.162a.778.778,0,0,1-.771.889Z" transform="translate(-103.648 -333.472)"/>
        <path id="Trazado_898918" data-name="Trazado 898918" d="M29.8,317.909H1.22A1.222,1.222,0,0,1,0,316.688v-2.85a.778.778,0,1,1,1.557,0v2.514h27.9V304.51a2.431,2.431,0,0,0-1.978-2.386l-8.553-1.614a.778.778,0,0,1,.289-1.53l8.553,1.614a3.989,3.989,0,0,1,3.246,3.916v12.178A1.221,1.221,0,0,1,29.8,317.909Z" transform="translate(0 -271.105)"/>
        <path id="Trazado_898919" data-name="Trazado 898919" d="M.778,310.984A.778.778,0,0,1,0,310.205v-5.7a3.989,3.989,0,0,1,3.245-3.916L11.8,298.98a.778.778,0,0,1,.289,1.53l-8.553,1.614a2.431,2.431,0,0,0-1.978,2.386v5.7A.778.778,0,0,1,.778,310.984Z" transform="translate(0 -271.105)"/>
        <path id="Trazado_898920" data-name="Trazado 898920" d="M169.865,311.535a1.436,1.436,0,0,1-.923-.338l-1.851-1.541a.778.778,0,0,1,1-1.2l1.711,1.425.989-4.876a.778.778,0,0,1,1.526.31l-1.026,5.055a1.436,1.436,0,0,1-.94,1.078A1.46,1.46,0,0,1,169.865,311.535Z" transform="translate(-149.497 -275.962)"/>
        <path id="Trazado_898921" data-name="Trazado 898921" d="M83.545,311.129a1.463,1.463,0,0,1-.471-.079,1.434,1.434,0,0,1-.954-1.085L81.1,304.9a.778.778,0,0,1,1.526-.308l.986,4.885,1.544-1.345a.778.778,0,0,1,1.023,1.174l-1.686,1.468A1.434,1.434,0,0,1,83.545,311.129Z" transform="translate(-72.666 -275.584)"/>
        <path id="Trazado_898922" data-name="Trazado 898922" d="M110.385,288.153a.775.775,0,0,1-.333-.075,4.362,4.362,0,0,1-2.482-3.924V281.9a.778.778,0,1,1,1.557,0v2.257a2.8,2.8,0,0,0,1.592,2.517.779.779,0,0,1-.334,1.482Z" transform="translate(-96.405 -255.109)"/>
        <path id="Trazado_898923" data-name="Trazado 898923" d="M157.537,288.156a.779.779,0,0,1-.338-1.48,2.8,2.8,0,0,0,1.582-2.513v-2.256a.778.778,0,0,1,1.557,0v2.256a4.368,4.368,0,0,1-2.464,3.916A.776.776,0,0,1,157.537,288.156Z" transform="translate(-140.488 -255.118)"/>
        <g id="Grupo_1110396" data-name="Grupo 1110396" transform="translate(4.994 37.032)">
          <path id="Línea_567" data-name="Línea 567" d="M-6.722,2.271A.778.778,0,0,1-7.5,1.492V-6.722A.778.778,0,0,1-6.722-7.5a.778.778,0,0,1,.778.778V1.492A.778.778,0,0,1-6.722,2.271Z" transform="translate(26.97 7.5)"/>
          <path id="Línea_568" data-name="Línea 568" d="M-6.722,2.271A.778.778,0,0,1-7.5,1.492V-6.722A.778.778,0,0,1-6.722-7.5a.778.778,0,0,1,.778.778V1.492A.778.778,0,0,1-6.722,2.271Z" transform="translate(7.5 7.5)"/>
        </g>
        <g id="Grupo_1110397" data-name="Grupo 1110397" transform="translate(9.62 13.98)">
          <path id="Línea_569" data-name="Línea 569" d="M-6.722-4.884A.778.778,0,0,1-7.5-5.662v-1.06A.778.778,0,0,1-6.722-7.5a.778.778,0,0,1,.778.778v1.06A.778.778,0,0,1-6.722-4.884Z" transform="translate(16.145 10.569)"/>
          <path id="Trazado_898924" data-name="Trazado 898924" d="M167.406,167.344a.777.777,0,0,1-.581-.26,1.651,1.651,0,0,0-1.832-.049.778.778,0,0,1-.852-1.3,3.133,3.133,0,0,1,3.844.315.778.778,0,0,1-.58,1.3Z" transform="translate(-156.409 -165.222)"/>
          <path id="Línea_570" data-name="Línea 570" d="M-6.722-4.884A.778.778,0,0,1-7.5-5.662v-1.06A.778.778,0,0,1-6.722-7.5a.778.778,0,0,1,.778.778v1.06A.778.778,0,0,1-6.722-4.884Z" transform="translate(9.073 10.569)"/>
          <path id="Trazado_898925" data-name="Trazado 898925" d="M93.465,167.344a.778.778,0,0,1-.58-1.3,3.133,3.133,0,0,1,3.844-.315.778.778,0,1,1-.852,1.3,1.651,1.651,0,0,0-1.832.049A.777.777,0,0,1,93.465,167.344Z" transform="translate(-92.687 -165.222)"/>
        </g>
        <path id="Trazado_898926" data-name="Trazado 898926" d="M125.963,237.7a3.413,3.413,0,0,1-2.508-1.054.778.778,0,0,1,1.142-1.058,1.958,1.958,0,0,0,2.733,0,.778.778,0,0,1,1.142,1.058A3.413,3.413,0,0,1,125.963,237.7Z" transform="translate(-110.455 -214.081)"/>
        <path id="Trazado_898927" data-name="Trazado 898927" d="M119.129,333.836h3.085a.778.778,0,0,1,.494.177l1.02.838a.778.778,0,0,1,.219.913l-1.084,2.481a1.484,1.484,0,0,1-1.359.889h-1.71a1.484,1.484,0,0,1-1.359-.889l-1.052-2.41a.778.778,0,0,1,.2-.9l1.033-.91A.778.778,0,0,1,119.129,333.836Zm2.806,1.557h-2.512l-.386.34.825,1.889,1.642-.044.788-1.891Z" transform="translate(-105.141 -302.355)"/>
        <path id="Trazado_898928" data-name="Trazado 898928" d="M71.677,115.755h1.312a5.122,5.122,0,0,1,5.117,5.116v5.041a9.34,9.34,0,1,1-18.68-.108v-6.751a1.339,1.339,0,0,1,1.754-1.28,10.265,10.265,0,0,0,9.487-1.673A1.644,1.644,0,0,1,71.677,115.755Zm-2.97,17.94a7.8,7.8,0,0,0,7.842-7.783v-5.041a3.564,3.564,0,0,0-3.56-3.56H71.677a.084.084,0,0,0-.05.015,11.823,11.823,0,0,1-10.644,2.016V125.8A7.858,7.858,0,0,0,68.707,133.695Z" transform="translate(-53.258 -106.909)"/>
        <path id="Trazado_898929" data-name="Trazado 898929" d="M29.878,80.217a.778.778,0,0,1-.71-1.1,3.366,3.366,0,0,0-1.255-4.207,1.235,1.235,0,0,1-.4-1.653,2.525,2.525,0,0,0-.738-3.327,1.251,1.251,0,0,1-.531-1.019V59.426a5.253,5.253,0,0,0-5.108-5.275A1.131,1.131,0,0,1,20.2,53.6l-.07-.116a5.13,5.13,0,0,0-4.36-2.454h-3.36A7.635,7.635,0,0,0,4.78,58.661V68.915a1.25,1.25,0,0,1-.529,1.017,2.525,2.525,0,0,0-.74,3.328,1.233,1.233,0,0,1-.4,1.653,3.364,3.364,0,0,0-1.257,4.206.778.778,0,0,1-1.421.637,4.871,4.871,0,0,1-.426-1.824,4.956,4.956,0,0,1,2.015-4.159,4.083,4.083,0,0,1,1.2-5.017V58.661a9.194,9.194,0,0,1,9.184-9.184h3.36a6.7,6.7,0,0,1,5.644,3.128,6.8,6.8,0,0,1,6.388,6.82v9.329A4.084,4.084,0,0,1,29,73.773a4.955,4.955,0,0,1,2.014,4.159,4.871,4.871,0,0,1-.426,1.824A.779.779,0,0,1,29.878,80.217Z" transform="translate(-0.003 -47.511)"/>
      </g>
    </g>
  </g>
</svg>
