<svg xmlns="http://www.w3.org/2000/svg" width="72" height="72" viewBox="0 0 72 72">
  <g id="Grupo_1110416" data-name="Grupo 1110416" transform="translate(-213 -10970.5)">
    <g id="Grupo_1110149" data-name="Grupo 1110149" transform="translate(-72 5569.812)">
      <g id="Grupo_1109991" data-name="Grupo 1109991" transform="translate(70 3517)">
        <g id="Grupo_1109953" data-name="Grupo 1109953" transform="translate(-204 762.688)">
          <path id="Trazado_824488" data-name="Trazado 824488" d="M36,0A36,36,0,1,1,0,36,36,36,0,0,1,36,0Z" transform="translate(419 1121)" fill="#84a065"/>
        </g>
      </g>
    </g>
    <g id="veterinario" transform="translate(229.332 10985)">
      <g id="Grupo_1110406" data-name="Grupo 1110406" transform="translate(0.632 0.632)">
        <g id="Grupo_1110401" data-name="Grupo 1110401">
          <path id="Trazado_898912" data-name="Trazado 898912" d="M71.373,38.9H46.634V19.87A12.37,12.37,0,0,1,59,7.5h0a12.369,12.369,0,0,1,12.37,12.37V38.9Z" transform="translate(-43.334 -7.5)" fill="#695d69"/>
          <path id="Trazado_898913" data-name="Trazado 898913" d="M179.583,7.5h0a12.513,12.513,0,0,0-1.265.064,12.371,12.371,0,0,1,11.1,12.306V38.9h2.53V19.87A12.37,12.37,0,0,0,179.583,7.5Z" transform="translate(-163.913 -7.5)" fill="#564e57"/>
          <path id="Trazado_898914" data-name="Trazado 898914" d="M38.839,301.709l-.4-6.749c0-2.173-.844-3.115-2.9-3.808l-7.69-3.226c-.686-.231-1.822-1.323-1.822-2.047l.482-2.891-6.494.117-.145,2.757a2.029,2.029,0,0,1-1.4,1.66l-.254-.042L13.982,288.9l-.888.789-.655-.27-1.493.5a5.06,5.06,0,0,0-3.446,4.8v6.99a.59.59,0,0,0,.59.59H38.249A.59.59,0,0,0,38.839,301.709Z" transform="translate(-7.5 -259.756)" fill="#e5edfc"/>
          <path id="Trazado_898915" data-name="Trazado 898915" d="M218.818,289.922l-7.139-2.4-.592.073c-.686-.231-1.635-.991-1.635-1.716l.482-2.891-2.117.128v4.011a1.687,1.687,0,0,0,1.149,1.6l3.183,1.071a.593.593,0,0,1,.39.678A11.517,11.517,0,0,0,217.52,302.3h4.154a.59.59,0,0,0,.59-.59v-6.99A5.06,5.06,0,0,0,218.818,289.922Z" transform="translate(-190.925 -259.755)" fill="#d1d9fc"/>
          <path id="Trazado_898916" data-name="Trazado 898916" d="M134.524,288.863l4.8,4.8a.337.337,0,0,0,.477,0l4.761-4.761h0l-.592.073a2.051,2.051,0,0,1-1.339-1.733l.139-2.591-7.045-.155v2.746a1.687,1.687,0,0,1-1.149,1.6l-.057.019Z" transform="translate(-123.812 -261.14)" fill="#f1b0a2"/>
          <path id="Trazado_898917" data-name="Trazado 898917" d="M208.969,290.11l1.129.38,1.583-1.583h0l-.183-.062a1.7,1.7,0,0,1-1.143-1.464q-.005-.067-.005-.135V284.5h-2.53v4.011A1.686,1.686,0,0,0,208.969,290.11Z" transform="translate(-190.927 -261.141)" fill="#eb9c8d"/>
          <path id="Trazado_898918" data-name="Trazado 898918" d="M296.87,144.284h-1.281v-4.929h1.281a2.464,2.464,0,0,1,2.464,2.464h0A2.464,2.464,0,0,1,296.87,144.284Z" transform="translate(-271.295 -128.236)" fill="#f1b0a2"/>
          <path id="Trazado_898919" data-name="Trazado 898919" d="M49.1,144.284h1.281v-4.929H49.1a2.464,2.464,0,0,0-2.464,2.464h0A2.464,2.464,0,0,0,49.1,144.284Z" transform="translate(-43.334 -128.236)" fill="#eb9c8d"/>
          <g id="Grupo_1110400" data-name="Grupo 1110400" transform="translate(6.202 7.6)">
            <path id="Trazado_898920" data-name="Trazado 898920" d="M90.774,115.455a10.724,10.724,0,0,1-3.974-.56,9.6,9.6,0,0,1-5.753-8.8V101.48a.337.337,0,0,1,.334-.337,20.836,20.836,0,0,0,7.526-1.495A20.567,20.567,0,0,0,92.6,97.707a.493.493,0,0,1,.662.112,8.57,8.57,0,0,0,6.4,3.318c.18.008.1.333.1.514l.223,4.423v.121a9.47,9.47,0,0,1-5.715,8.695A7.987,7.987,0,0,1,90.774,115.455Z" transform="translate(-81.048 -97.625)" fill="#f1b0a2"/>
          </g>
          <path id="Trazado_898921" data-name="Trazado 898921" d="M159.509,140.271a8.932,8.932,0,0,1-2.364,6.259c-3.281,3.429-8.036,2.488-8.326,2.425a9.458,9.458,0,0,0,3.036.757s.348.026.683.027a9.467,9.467,0,0,0,9.5-9.467V135.55a.336.336,0,0,0-.321-.337,8.676,8.676,0,0,1-2.149-.373Z" transform="translate(-136.902 -124.102)" fill="#eb9c8d"/>
        </g>
        <g id="Grupo_1110405" data-name="Grupo 1110405" transform="translate(23.931 23.931)">
          <circle id="Elipse_12370" data-name="Elipse 12370" cx="8.99" cy="8.99" r="8.99" transform="translate(0 0)" fill="#bef8a8"/>
          <path id="Trazado_898922" data-name="Trazado 898922" d="M384.159,291.287a9.053,9.053,0,0,0-1.265.089,8.99,8.99,0,0,1,0,17.8,8.99,8.99,0,1,0,1.265-17.891Z" transform="translate(-375.169 -291.287)" fill="#a0e38b"/>
          <g id="Grupo_1110404" data-name="Grupo 1110404" transform="translate(2.381 3.254)">
            <g id="Grupo_1110402" data-name="Grupo 1110402" transform="translate(0 3.414)">
              <ellipse id="Elipse_12371" data-name="Elipse 12371" cx="1.048" cy="1.39" rx="1.048" ry="1.39" fill="#695d69"/>
              <ellipse id="Elipse_12372" data-name="Elipse 12372" cx="1.048" cy="1.39" rx="1.048" ry="1.39" transform="translate(11.12)" fill="#695d69"/>
            </g>
            <g id="Grupo_1110403" data-name="Grupo 1110403" transform="translate(3.147)">
              <ellipse id="Elipse_12373" data-name="Elipse 12373" cx="1.225" cy="1.625" rx="1.225" ry="1.625" fill="#695d69"/>
              <ellipse id="Elipse_12374" data-name="Elipse 12374" cx="1.225" cy="1.625" rx="1.225" ry="1.625" transform="translate(4.472)" fill="#695d69"/>
            </g>
            <path id="Trazado_898923" data-name="Trazado 898923" d="M351.6,395.42a3.774,3.774,0,0,1,7.033,0l.024.064c.337.907.685,2.134.024,2.98a1.9,1.9,0,0,1-2.481.425,2.376,2.376,0,0,0-2.167,0,1.9,1.9,0,0,1-2.481-.425c-.661-.846-.313-2.073.024-2.98Z" transform="translate(-348.513 -387.692)" fill="#695d69"/>
          </g>
        </g>
      </g>
      <g id="Grupo_1110415" data-name="Grupo 1110415" transform="translate(0 0)">
        <g id="Grupo_1110410" data-name="Grupo 1110410" transform="translate(0 0)">
          <path id="Trazado_898924" data-name="Trazado 898924" d="M40.017,257.549h-.255a.632.632,0,0,1-.632-.632v-9.3a.632.632,0,0,1,1.265,0v8.8a.632.632,0,0,1-.378,1.14Z" transform="translate(-35.83 -226.153)"/>
          <path id="Trazado_898925" data-name="Trazado 898925" d="M64.5,26.636A.632.632,0,0,1,63.869,26V13a11.737,11.737,0,0,0-23.474,0v5.507a.632.632,0,1,1-1.265,0V13a13,13,0,1,1,26,0V26A.632.632,0,0,1,64.5,26.636Z" transform="translate(-35.83 0)"/>
          <path id="Trazado_898926" data-name="Trazado 898926" d="M236.3,300.359a.632.632,0,0,1-.2-.033l-4.2-1.414a2.315,2.315,0,0,1-1.579-2.2v-1.242a.632.632,0,1,1,1.265,0v1.242a1.052,1.052,0,0,0,.717,1l4.2,1.414a.633.633,0,0,1-.2,1.232Z" transform="translate(-210.898 -269.977)"/>
          <path id="Trazado_898927" data-name="Trazado 898927" d="M.632,313.034A.632.632,0,0,1,0,312.4v-6.948a5.688,5.688,0,0,1,3.877-5.4l7.322-2.464a1.052,1.052,0,0,0,.718-1v-1.253a.632.632,0,1,1,1.265,0V296.6a2.315,2.315,0,0,1-1.58,2.2l-7.322,2.464a4.424,4.424,0,0,0-3.016,4.2V312.4A.632.632,0,0,1,.632,313.034Z" transform="translate(0 -269.858)"/>
          <path id="Trazado_898928" data-name="Trazado 898928" d="M132.7,334.919a.964.964,0,0,1-.686-.284l-4.8-4.8a.632.632,0,0,1,.894-.894l4.6,4.6,4.553-4.553a.632.632,0,0,1,.894.894l-4.761,4.761A.964.964,0,0,1,132.7,334.919Z" transform="translate(-116.312 -301.028)"/>
          <path id="Trazado_898929" data-name="Trazado 898929" d="M47.86,420.347a1.157,1.157,0,0,1-1.128-.909l-.549-2.515a2.983,2.983,0,1,1,5.828-1.271l.549,2.515a1.156,1.156,0,0,1-.882,1.374l-.693.151a.632.632,0,0,1-.27-1.236l.585-.128-.525-2.407a1.718,1.718,0,1,0-3.356.732l.525,2.407.585-.128a.632.632,0,0,1,.27,1.236l-.693.151A1.157,1.157,0,0,1,47.86,420.347Z" transform="translate(-42.225 -378.452)"/>
          <path id="Trazado_898930" data-name="Trazado 898930" d="M62.363,356.177a.633.633,0,0,1-.6-.43,8.637,8.637,0,0,1,.132-5.909.632.632,0,0,1,1.179.458,7.372,7.372,0,0,0-.113,5.045.633.633,0,0,1-.6.835Z" transform="translate(-56.137 -319.968)"/>
          <g id="Grupo_1110407" data-name="Grupo 1110407" transform="translate(16.365 36.219)">
            <path id="Línea_567" data-name="Línea 567"/>
            <path id="Línea_568" data-name="Línea 568" transform="translate(0 3.795)"/>
          </g>
          <path id="Trazado_898931" data-name="Trazado 898931" d="M296.285,138.044h-.438a.632.632,0,1,1,0-1.265h.438a1.832,1.832,0,0,0,0-3.664h-.7a.632.632,0,0,1,0-1.265h.7a3.1,3.1,0,0,1,0,6.194Z" transform="translate(-270.078 -120.731)"/>
          <path id="Trazado_898932" data-name="Trazado 898932" d="M42.665,138.044h-.438a3.1,3.1,0,1,1,0-6.194h.759a.632.632,0,1,1,0,1.265h-.759a1.832,1.832,0,1,0,0,3.664h.438a.632.632,0,1,1,0,1.265Z" transform="translate(-35.83 -120.731)"/>
          <g id="Grupo_1110408" data-name="Grupo 1110408" transform="translate(6.202 7.6)">
            <path id="Trazado_898933" data-name="Trazado 898933" d="M83.648,109.426h-.036a10.17,10.17,0,0,1-10.064-10.2V94.613a.974.974,0,0,1,.958-.97,19.975,19.975,0,0,0,10.872-3.331,1.125,1.125,0,0,1,1.511.251,7.918,7.918,0,0,0,2.426,2.084,8.02,8.02,0,0,0,3.507.99.968.968,0,0,1,.925.969v4.721a10.1,10.1,0,0,1-10.1,10.1ZM74.813,94.9v4.321a8.9,8.9,0,0,0,8.8,8.938l.031.633v-.632a8.835,8.835,0,0,0,8.835-8.835V94.883a9.286,9.286,0,0,1-3.78-1.13,9.171,9.171,0,0,1-2.748-2.333,19.4,19.4,0,0,1-3.678,1.948A21.359,21.359,0,0,1,74.813,94.9Z" transform="translate(-73.548 -90.125)"/>
          </g>
          <path id="Trazado_898934" data-name="Trazado 898934" d="M168.658,260.04h-.082a3.786,3.786,0,0,1-1.887-.554.632.632,0,1,1,.659-1.08,2.519,2.519,0,0,0,1.255.369,2.551,2.551,0,0,0,1.363-.369.632.632,0,1,1,.659,1.08A3.778,3.778,0,0,1,168.658,260.04Z" transform="translate(-152.355 -236.53)"/>
          <g id="Grupo_1110409" data-name="Grupo 1110409" transform="translate(9.91 12.944)">
            <path id="Trazado_898935" data-name="Trazado 898935" d="M223.094,155.106a.633.633,0,0,1-.3-1.189,3.431,3.431,0,0,1,3.27,0,.632.632,0,1,1-.6,1.113,2.166,2.166,0,0,0-2.068,0A.63.63,0,0,1,223.094,155.106Z" transform="translate(-213.611 -153.502)"/>
            <path id="Trazado_898936" data-name="Trazado 898936" d="M118.152,155.106a.633.633,0,0,1-.3-1.189,3.43,3.43,0,0,1,3.27,0,.632.632,0,1,1-.6,1.113,2.166,2.166,0,0,0-2.068,0A.63.63,0,0,1,118.152,155.106Z" transform="translate(-117.519 -153.502)"/>
            <path id="Línea_569" data-name="Línea 569" d="M-6.868-5.014A.632.632,0,0,1-7.5-5.647V-6.868A.632.632,0,0,1-6.868-7.5a.632.632,0,0,1,.632.632v1.221A.632.632,0,0,1-6.868-5.014Z" transform="translate(17.684 9.33)"/>
            <path id="Línea_570" data-name="Línea 570" d="M-6.868-5.014A.632.632,0,0,1-7.5-5.647V-6.868A.632.632,0,0,1-6.868-7.5a.632.632,0,0,1,.632.632v1.221A.632.632,0,0,1-6.868-5.014Z" transform="translate(8.835 9.33)"/>
          </g>
        </g>
        <g id="Grupo_1110414" data-name="Grupo 1110414" transform="translate(23.931 23.931)">
          <path id="Trazado_898937" data-name="Trazado 898937" d="M293.41,303.032a9.622,9.622,0,1,1,6.158-17.016.632.632,0,0,1-.81.972,8.346,8.346,0,1,0,1.792,2.076.632.632,0,0,1,1.08-.659,9.624,9.624,0,0,1-8.22,14.627Z" transform="translate(-283.788 -283.787)"/>
          <g id="Grupo_1110413" data-name="Grupo 1110413" transform="translate(2.381 3.254)">
            <g id="Grupo_1110411" data-name="Grupo 1110411" transform="translate(0 3.414)">
              <path id="Elipse_12375" data-name="Elipse 12375" d="M-5.819-7.5A1.855,1.855,0,0,1-4.139-5.477,1.855,1.855,0,0,1-5.819-3.455,1.855,1.855,0,0,1-7.5-5.477,1.855,1.855,0,0,1-5.819-7.5Zm0,2.78c.17,0,.416-.3.416-.758s-.246-.758-.416-.758-.416.3-.416.758S-5.989-4.72-5.819-4.72Z" transform="translate(7.5 7.5)"/>
              <path id="Elipse_12376" data-name="Elipse 12376" d="M-5.819-7.5A1.855,1.855,0,0,1-4.139-5.477,1.855,1.855,0,0,1-5.819-3.455,1.855,1.855,0,0,1-7.5-5.477,1.855,1.855,0,0,1-5.819-7.5Zm0,2.78c.17,0,.416-.3.416-.758s-.246-.758-.416-.758-.416.3-.416.758S-5.989-4.72-5.819-4.72Z" transform="translate(18.62 7.5)"/>
            </g>
            <g id="Grupo_1110412" data-name="Grupo 1110412" transform="translate(3.147)">
              <path id="Elipse_12377" data-name="Elipse 12377" d="M-5.642-7.5A2.064,2.064,0,0,1-3.785-5.243,2.064,2.064,0,0,1-5.642-2.986,2.064,2.064,0,0,1-7.5-5.243,2.064,2.064,0,0,1-5.642-7.5Zm0,3.249c.28,0,.593-.424.593-.992s-.313-.992-.593-.992-.593.424-.593.992S-5.922-4.251-5.642-4.251Z" transform="translate(7.5 7.5)"/>
              <path id="Elipse_12378" data-name="Elipse 12378" d="M-5.642-7.5A2.064,2.064,0,0,1-3.785-5.243,2.064,2.064,0,0,1-5.642-2.986,2.064,2.064,0,0,1-7.5-5.243,2.064,2.064,0,0,1-5.642-7.5Zm0,3.249c.28,0,.593-.424.593-.992s-.313-.992-.593-.992-.593.424-.593.992S-5.922-4.251-5.642-4.251Z" transform="translate(11.972 7.5)"/>
            </g>
            <path id="Trazado_898938" data-name="Trazado 898938" d="M348.221,385.516a4.323,4.323,0,0,1,4.106,2.807c.438,1.177.8,2.582-.043,3.662a2.382,2.382,0,0,1-1.909.943,2.994,2.994,0,0,1-1.36-.345,1.774,1.774,0,0,0-1.588,0,3,3,0,0,1-1.36.345,2.383,2.383,0,0,1-1.909-.943c-.844-1.08-.481-2.486-.071-3.59A4.35,4.35,0,0,1,348.221,385.516Zm2.154,6.147a1.113,1.113,0,0,0,.912-.457c.458-.586.177-1.574-.118-2.37a3.141,3.141,0,0,0-5.874-.055c-.317.85-.6,1.839-.139,2.425a1.113,1.113,0,0,0,.912.457,1.728,1.728,0,0,0,.78-.2,3.008,3.008,0,0,1,2.747,0A1.728,1.728,0,0,0,350.375,391.663Z" transform="translate(-340.98 -380.192)"/>
          </g>
        </g>
      </g>
    </g>
  </g>
</svg>
