<svg xmlns="http://www.w3.org/2000/svg" width="72" height="72" viewBox="0 0 72 72">
  <g id="Grupo_1110309" data-name="Grupo 1110309" transform="translate(-543.051 -1194)">
    <g id="Grupo_1110002" data-name="Grupo 1110002" transform="translate(258.051 -4206.688)">
      <g id="Grupo_1109991" data-name="Grupo 1109991" transform="translate(70 3517)">
        <g id="Grupo_1109953" data-name="Grupo 1109953" transform="translate(-204 762.688)">
          <path id="Trazado_824488" data-name="Trazado 824488" d="M36,0A36,36,0,1,1,0,36,36,36,0,0,1,36,0Z" transform="translate(419 1121)" fill="#efdb59"/>
        </g>
      </g>
    </g>
    <g id="certificado" transform="translate(553.257 1207)">
      <g id="Grupo_1110307" data-name="Grupo 1110307" transform="translate(3.46 0.666)">
        <g id="Grupo_1110301" data-name="Grupo 1110301">
          <g id="Grupo_1110300" data-name="Grupo 1110300">
            <g id="Grupo_1110299" data-name="Grupo 1110299">
              <g id="Grupo_1110298" data-name="Grupo 1110298">
                <g id="Grupo_1110297" data-name="Grupo 1110297">
                  <path id="Trazado_898718" data-name="Trazado 898718" d="M19.786,7.5H42.373A2.628,2.628,0,0,1,45,10.127V48.992a2.628,2.628,0,0,1-2.628,2.628H12.921a2.628,2.628,0,0,1-2.628-2.628v-32a2.628,2.628,0,0,1,.77-1.859l6.864-6.864a2.628,2.628,0,0,1,1.858-.77Z" transform="translate(-10.293 -7.499)" fill="#f4fbff"/>
                  <path id="Trazado_898719" data-name="Trazado 898719" d="M313.732,7.5h-5.644a2.628,2.628,0,0,1,2.628,2.628V48.992a2.628,2.628,0,0,1-2.628,2.628h5.644a2.628,2.628,0,0,0,2.628-2.628V10.127A2.628,2.628,0,0,0,313.732,7.5Z" transform="translate(-281.651 -7.499)" fill="#e4f6ff"/>
                  <path id="Trazado_898720" data-name="Trazado 898720" d="M13.487,17.557l6.864-6.864a2.628,2.628,0,0,1,.77-.534V16.7a1.629,1.629,0,0,1-1.629,1.629H12.953A2.626,2.626,0,0,1,13.487,17.557Z" transform="translate(-12.717 -9.923)" fill="#e28086"/>
                </g>
              </g>
            </g>
          </g>
          <path id="Trazado_898721" data-name="Trazado 898721" d="M179.6,63.021H165.93a.827.827,0,0,1-.827-.827v-2.16a.827.827,0,0,1,.827-.827H179.6a.827.827,0,0,1,.827.827v2.16A.827.827,0,0,1,179.6,63.021Z" transform="translate(-151.36 -54.617)" fill="#cbe2ff"/>
        </g>
        <path id="Trazado_898722" data-name="Trazado 898722" d="M363.328,342.1l-2.442-1.5a.747.747,0,0,0-.784,0l-2.442,1.5a.747.747,0,0,1-1.139-.636v-9.67h7.945v9.67A.747.747,0,0,1,363.328,342.1Z" transform="translate(-325.786 -303.003)" fill="#e8ae4d"/>
        <g id="Grupo_1110306" data-name="Grupo 1110306" transform="translate(25.793 14.604)">
          <g id="Grupo_1110305" data-name="Grupo 1110305">
            <g id="Grupo_1110304" data-name="Grupo 1110304">
              <g id="Grupo_1110303" data-name="Grupo 1110303">
                <g id="Grupo_1110302" data-name="Grupo 1110302">
                  <path id="Trazado_898723" data-name="Trazado 898723" d="M311.332,172.781a2,2,0,0,0,2.138.695,2,2,0,0,1,2.555,1.856,2,2,0,0,0,1.321,1.819,2,2,0,0,1,.976,3,2,2,0,0,0,0,2.248,2,2,0,0,1-.976,3,2,2,0,0,0-1.321,1.819,2,2,0,0,1-2.555,1.856,2,2,0,0,0-2.138.695,2,2,0,0,1-3.158,0,2,2,0,0,0-2.138-.695,2,2,0,0,1-2.554-1.856,2,2,0,0,0-1.321-1.819,2,2,0,0,1-.976-3,2,2,0,0,0,0-2.248,2,2,0,0,1,.976-3,2,2,0,0,0,1.321-1.819,2,2,0,0,1,2.554-1.856,2,2,0,0,0,2.138-.695A2,2,0,0,1,311.332,172.781Z" transform="translate(-300.838 -172.007)" fill="#ffe07d"/>
                  <path id="Trazado_898724" data-name="Trazado 898724" d="M389.677,182.4a2,2,0,0,1,0-2.248,2,2,0,0,0-.976-3,2,2,0,0,1-1.321-1.819,2,2,0,0,0-2.555-1.856,2,2,0,0,1-2.138-.695,2,2,0,0,0-3.158,0,2,2,0,0,1-.385.379,8.919,8.919,0,0,1,0,16.235,1.993,1.993,0,0,1,.385.379,2,2,0,0,0,3.158,0,2,2,0,0,1,2.138-.695,2,2,0,0,0,2.555-1.856,2,2,0,0,1,1.321-1.819A2,2,0,0,0,389.677,182.4Z" transform="translate(-372.193 -172.007)" fill="#ffd064"/>
                  <circle id="Elipse_12354" data-name="Elipse 12354" cx="4.914" cy="4.914" r="4.914" transform="translate(4.002 4.357)" fill="#e8ae4d"/>
                  <path id="Trazado_898725" data-name="Trazado 898725" d="M427.384,230.657a4.915,4.915,0,0,0-2.849-4.46,8.927,8.927,0,0,1,0,8.92A4.915,4.915,0,0,0,427.384,230.657Z" transform="translate(-413.554 -221.386)" fill="#e5a32e"/>
                </g>
              </g>
            </g>
          </g>
        </g>
      </g>
      <path id="Trazado_898726" data-name="Trazado 898726" d="M13.487,17.557l6.864-6.864a2.628,2.628,0,0,1,.77-.534V16.7a1.629,1.629,0,0,1-1.629,1.629H12.953A2.626,2.626,0,0,1,13.487,17.557Z" transform="translate(-9.257 -9.257)" fill="#e28086"/>
      <g id="Grupo_1110308" data-name="Grupo 1110308" transform="translate(2.794 0)">
        <path id="Trazado_898727" data-name="Trazado 898727" d="M77,181.506H59.956a.666.666,0,0,0,0,1.331H77a.666.666,0,1,0,0-1.331Z" transform="translate(-54.275 -165.393)"/>
        <path id="Trazado_898728" data-name="Trazado 898728" d="M77,234.2H59.956a.666.666,0,1,0,0,1.331H77a.666.666,0,1,0,0-1.331Z" transform="translate(-54.275 -213.411)"/>
        <path id="Trazado_898729" data-name="Trazado 898729" d="M77,286.9H59.956a.666.666,0,1,0,0,1.331H77a.666.666,0,1,0,0-1.331Z" transform="translate(-54.275 -261.428)"/>
        <path id="Trazado_898730" data-name="Trazado 898730" d="M77.665,340.26a.666.666,0,0,0-.666-.666H59.956a.666.666,0,1,0,0,1.331H77A.666.666,0,0,0,77.665,340.26Z" transform="translate(-54.275 -309.447)"/>
        <path id="Trazado_898731" data-name="Trazado 898731" d="M59.956,416.821a.666.666,0,1,0,0,1.331H68.5a.666.666,0,1,0,0-1.331Z" transform="translate(-54.275 -379.818)"/>
        <path id="Trazado_898732" data-name="Trazado 898732" d="M174.257,55.36V53.2a1.494,1.494,0,0,0-1.492-1.492H159.1A1.494,1.494,0,0,0,157.6,53.2v2.16a1.494,1.494,0,0,0,1.492,1.492h1.154a.666.666,0,0,0,0-1.331H159.1a.161.161,0,0,1-.161-.161V53.2a.161.161,0,0,1,.161-.161h13.668a.161.161,0,0,1,.161.161v2.16a.161.161,0,0,1-.161.161h-9.4a.666.666,0,1,0,0,1.331h9.4A1.494,1.494,0,0,0,174.257,55.36Z" transform="translate(-143.861 -47.117)"/>
        <path id="Trazado_898733" data-name="Trazado 898733" d="M38.169,40.6a.666.666,0,0,0-.666.666v.9a1.965,1.965,0,0,1-1.963,1.963H6.088a1.965,1.965,0,0,1-1.963-1.963v-32a1.976,1.976,0,0,1,.047-.423h6.062a2.3,2.3,0,0,0,2.3-2.3V1.378a1.975,1.975,0,0,1,.423-.047H35.54A1.965,1.965,0,0,1,37.5,3.294v8.863a.666.666,0,1,0,1.331,0V3.294A3.3,3.3,0,0,0,35.54,0H12.952a3.273,3.273,0,0,0-2.329.965L3.759,7.829a3.272,3.272,0,0,0-.965,2.329v32a3.3,3.3,0,0,0,3.294,3.294H35.54a3.3,3.3,0,0,0,3.294-3.294v-.9a.666.666,0,0,0-.666-.666ZM11.2,2.273V7.44a.965.965,0,0,1-.964.964H5.067Z" transform="translate(-2.794 0)"/>
        <path id="Trazado_898734" data-name="Trazado 898734" d="M312.031,173.695a2.662,2.662,0,0,0-1.3-4,1.323,1.323,0,0,1-.881-1.212A2.662,2.662,0,0,0,306.443,166a1.323,1.323,0,0,1-1.425-.463,2.662,2.662,0,0,0-4.211,0,1.323,1.323,0,0,1-1.425.463,2.662,2.662,0,0,0-3.406,2.475,1.323,1.323,0,0,1-.881,1.212,2.662,2.662,0,0,0-1.3,4,1.323,1.323,0,0,1,0,1.5,2.662,2.662,0,0,0,1.3,4,1.323,1.323,0,0,1,.881,1.212,2.662,2.662,0,0,0,2.3,2.557v6.061a1.413,1.413,0,0,0,2.154,1.2l2.442-1.5a.07.07,0,0,1,.085,0l2.442,1.5a1.413,1.413,0,0,0,2.154-1.2v-6.061a2.662,2.662,0,0,0,2.3-2.557,1.323,1.323,0,0,1,.881-1.212,2.662,2.662,0,0,0,1.3-4A1.322,1.322,0,0,1,312.031,173.695Zm-5.936,15.4-2.442-1.5a1.413,1.413,0,0,0-1.481,0l-2.442,1.5a.081.081,0,0,1-.124-.069V182.84a1.321,1.321,0,0,1,1.2.508,2.662,2.662,0,0,0,4.211,0,1.321,1.321,0,0,1,1.2-.508v6.188A.081.081,0,0,1,306.095,189.1Zm4.836-13.154a1.33,1.33,0,0,1-.65,2,2.647,2.647,0,0,0-1.762,2.425,1.331,1.331,0,0,1-1.7,1.237,2.647,2.647,0,0,0-2.851.926,1.331,1.331,0,0,1-2.1,0,2.645,2.645,0,0,0-2.1-1.035,2.688,2.688,0,0,0-.754.108,1.325,1.325,0,0,1-1.224-.254,1.312,1.312,0,0,1-.479-.983,2.647,2.647,0,0,0-1.762-2.425,1.33,1.33,0,0,1-.65-2,2.647,2.647,0,0,0,0-3,1.33,1.33,0,0,1,.65-2,2.647,2.647,0,0,0,1.762-2.425,1.33,1.33,0,0,1,1.7-1.237,2.647,2.647,0,0,0,2.851-.926,1.331,1.331,0,0,1,2.1,0,2.647,2.647,0,0,0,2.851.926,1.33,1.33,0,0,1,1.7,1.237,2.647,2.647,0,0,0,1.762,2.425,1.33,1.33,0,0,1,.65,2,2.647,2.647,0,0,0,0,3Z" transform="translate(-267.538 -149.903)"/>
        <path id="Trazado_898735" data-name="Trazado 898735" d="M343.994,213.583a5.58,5.58,0,1,0,5.58,5.58A5.586,5.586,0,0,0,343.994,213.583Zm0,9.828a4.248,4.248,0,1,1,4.248-4.248A4.253,4.253,0,0,1,343.994,223.411Z" transform="translate(-308.619 -194.622)"/>
      </g>
    </g>
  </g>
</svg>
