<svg xmlns="http://www.w3.org/2000/svg" width="72" height="72" viewBox="0 0 72 72">
  <g id="Grupo_1110429" data-name="Grupo 1110429" transform="translate(-213.051 -11092)">
    <g id="Grupo_1110150" data-name="Grupo 1110150" transform="translate(-71.949 5691.312)">
      <g id="Grupo_1109991" data-name="Grupo 1109991" transform="translate(70 3517)">
        <g id="Grupo_1109953" data-name="Grupo 1109953" transform="translate(-204 762.688)">
          <path id="Trazado_824488" data-name="Trazado 824488" d="M36,0A36,36,0,1,1,0,36,36,36,0,0,1,36,0Z" transform="translate(419 1121)" fill="#84a065"/>
        </g>
      </g>
    </g>
    <g id="problema" transform="translate(227.051 11105)">
      <g id="Grupo_1110427" data-name="Grupo 1110427" transform="translate(1.687 1.687)">
        <g id="Grupo_1110417" data-name="Grupo 1110417" transform="translate(32.968 35.715)">
          <path id="Trazado_898924" data-name="Trazado 898924" d="M58.242,54.687v4.121a.689.689,0,0,1-.687.687H50.687A.689.689,0,0,1,50,58.808V54.687A.689.689,0,0,1,50.687,54h6.868A.689.689,0,0,1,58.242,54.687Z" transform="translate(-50 -54)" fill="#f0d0b4"/>
        </g>
        <g id="Grupo_1110418" data-name="Grupo 1110418" transform="translate(32.968 9.616)">
          <path id="Trazado_898925" data-name="Trazado 898925" d="M58.242,16.687v4.121a.689.689,0,0,1-.687.687H50.687A.689.689,0,0,1,50,20.808V16.687A.689.689,0,0,1,50.687,16h6.868A.689.689,0,0,1,58.242,16.687Z" transform="translate(-50 -16)" fill="#f0d0b4"/>
        </g>
        <g id="Grupo_1110419" data-name="Grupo 1110419" transform="translate(32.968)">
          <path id="Trazado_898926" data-name="Trazado 898926" d="M58.242,2.687V6.808a.689.689,0,0,1-.687.687H50.687A.689.689,0,0,1,50,6.808V2.687A.689.689,0,0,1,50.687,2h6.868A.689.689,0,0,1,58.242,2.687Z" transform="translate(-50 -2)" fill="#f0d0b4"/>
        </g>
        <g id="Grupo_1110420" data-name="Grupo 1110420" transform="translate(24.726 27.473)">
          <path id="Trazado_898927" data-name="Trazado 898927" d="M46.242,42.687v4.121a.689.689,0,0,1-.687.687H38.687A.689.689,0,0,1,38,46.808V42.687A.689.689,0,0,1,38.687,42h6.868A.689.689,0,0,1,46.242,42.687Z" transform="translate(-38 -42)" fill="#f0d0b4"/>
        </g>
        <g id="Grupo_1110421" data-name="Grupo 1110421" transform="translate(32.968 19.231)">
          <path id="Trazado_898928" data-name="Trazado 898928" d="M58.242,30.687v4.121a.689.689,0,0,1-.687.687H50.687A.689.689,0,0,1,50,34.808V30.687A.689.689,0,0,1,50.687,30h6.868A.689.689,0,0,1,58.242,30.687Z" transform="translate(-50 -30)" fill="#f0d0b4"/>
        </g>
        <g id="Grupo_1110422" data-name="Grupo 1110422" transform="translate(9.616 30.22)">
          <path id="Trazado_898929" data-name="Trazado 898929" d="M22.868,47.374v8.242a1.378,1.378,0,0,1-1.374,1.374H17.374A1.378,1.378,0,0,1,16,55.616V46h6.868Z" transform="translate(-16 -46)" fill="#969faa"/>
        </g>
        <g id="Grupo_1110423" data-name="Grupo 1110423" transform="translate(9.616 25.639)">
          <path id="Trazado_898930" data-name="Trazado 898930" d="M22.868,39.33v4.581H16V39.33a13.044,13.044,0,0,0,6.868,0Z" transform="translate(-16 -39.33)" fill="#ccd1d9"/>
        </g>
        <g id="Grupo_1110424" data-name="Grupo 1110424">
          <circle id="Elipse_12375" data-name="Elipse 12375" cx="13" cy="13" r="13" transform="translate(0.313 0.313)" fill="#e6e9ed"/>
        </g>
        <g id="Grupo_1110425" data-name="Grupo 1110425" transform="translate(2.747 2.747)">
          <path id="Trazado_898931" data-name="Trazado 898931" d="M26.6,16.3a10.178,10.178,0,0,1-.206,2.06,10.309,10.309,0,1,1-.385-5.495,10.125,10.125,0,0,1,.563,2.747C26.6,15.842,26.6,16.069,26.6,16.3Z" transform="translate(-6 -6)" fill="#69d6f4"/>
        </g>
        <g id="Grupo_1110426" data-name="Grupo 1110426" transform="translate(6.868 6.868)">
          <path id="Trazado_898932" data-name="Trazado 898932" d="M24.363,16.808v2.747H23.154a.687.687,0,0,0-.481,1.174l.852.852-1.944,1.944-.852-.852a.687.687,0,0,0-1.174.481v1.209H16.808V23.154a.687.687,0,0,0-1.174-.481l-.852.852-1.944-1.944.852-.852a.687.687,0,0,0-.481-1.174H12V16.808h1.209a.687.687,0,0,0,.481-1.174l-.852-.852,1.944-1.944.852.852a.687.687,0,0,0,1.174-.481V12h2.747v1.209a.687.687,0,0,0,1.174.481l.852-.852,1.944,1.944-.852.852a.687.687,0,0,0,.481,1.174Zm-4.121,1.374a2.06,2.06,0,1,0-2.06,2.06A2.058,2.058,0,0,0,20.242,18.181Z" transform="translate(-12 -12)" fill="#fcd770"/>
        </g>
      </g>
      <g id="Grupo_1110428" data-name="Grupo 1110428" transform="translate(1 1)">
        <path id="Trazado_898933" data-name="Trazado 898933" d="M24.737,15.808H22.843l1.339-1.339-2.914-2.914-1.339,1.339V11H15.808v1.894l-1.339-1.339-2.914,2.914,1.339,1.339H11v4.121h1.894l-1.339,1.339,2.914,2.914,1.339-1.339v1.894h4.121V22.842l1.339,1.339,2.914-2.914-1.339-1.339h1.894Zm-1.374,2.747h-.52a1.373,1.373,0,0,0-.971,2.345l.368.367-.972.972-.368-.368a1.373,1.373,0,0,0-2.345.971v.521H17.181v-.521a1.373,1.373,0,0,0-2.345-.971l-.368.368-.972-.972.368-.367a1.373,1.373,0,0,0-.971-2.345h-.52V17.181h.52a1.373,1.373,0,0,0,.971-2.345l-.368-.368.972-.971.368.368a1.373,1.373,0,0,0,2.345-.971v-.521h1.374v.521a1.373,1.373,0,0,0,2.345.971l.368-.368.972.971-.368.368a1.373,1.373,0,0,0,.971,2.345h.52Z" transform="translate(-4.132 -4.132)"/>
        <path id="Trazado_898934" data-name="Trazado 898934" d="M19.747,17a2.747,2.747,0,1,0,2.747,2.747A2.75,2.75,0,0,0,19.747,17Zm0,4.121a1.374,1.374,0,1,1,1.374-1.374A1.375,1.375,0,0,1,19.747,21.121Z" transform="translate(-6.011 -6.011)"/>
        <path id="Trazado_898935" data-name="Trazado 898935" d="M42.21,1H35.341a1.375,1.375,0,0,0-1.374,1.374V3.747H29.847v6.868H27.832A13.733,13.733,0,1,0,10.616,27.84V41.523a2.063,2.063,0,0,0,2.06,2.06H16.8a2.063,2.063,0,0,0,2.06-2.06V38.089H29.847v2.747h4.121V42.21a1.375,1.375,0,0,0,1.374,1.374H42.21a1.375,1.375,0,0,0,1.374-1.374V38.089a1.375,1.375,0,0,0-1.374-1.374H35.341a1.375,1.375,0,0,0-1.374,1.374v1.374H31.22V36.715H18.858V33.968h5.495V31.22h1.374v2.747A1.375,1.375,0,0,0,27.1,35.341h6.868a1.375,1.375,0,0,0,1.374-1.374V29.847a1.375,1.375,0,0,0-1.374-1.374H27.1a1.375,1.375,0,0,0-1.374,1.374H22.979v2.747H18.858V27.839a13.627,13.627,0,0,0,9.327-10.355h1.662v6.868h4.121v1.374A1.375,1.375,0,0,0,35.341,27.1H42.21a1.375,1.375,0,0,0,1.374-1.374V21.6a1.375,1.375,0,0,0-1.374-1.374H35.341A1.375,1.375,0,0,0,33.968,21.6v1.374H31.22V16.11H22.979v1.374h.975a9.625,9.625,0,1,1-.534-6.868h-.442v1.374H31.22V5.121h2.747V6.495a1.375,1.375,0,0,0,1.374,1.374H42.21a1.375,1.375,0,0,0,1.374-1.374V2.374A1.375,1.375,0,0,0,42.21,1ZM35.341,38.089H42.21V42.21H35.341ZM27.1,29.847h6.868v4.121H27.1ZM35.341,21.6H42.21v4.121H35.341ZM16.8,42.21H12.676a.688.688,0,0,1-.687-.687V32.594h5.495v8.929A.688.688,0,0,1,16.8,42.21Zm.687-10.989H11.989V28.2a13.769,13.769,0,0,0,2.747.277,13.933,13.933,0,0,0,2.747-.28ZM14.737,3.747A10.989,10.989,0,1,0,25.369,17.484h1.415a12.352,12.352,0,1,1-.392-6.868H24.917A11,11,0,0,0,14.737,3.747Zm20.6,2.747V2.374H42.21V6.495Z" transform="translate(-1 -1)"/>
        <path id="Trazado_898936" data-name="Trazado 898936" d="M53,5h1.374V6.374H53Z" transform="translate(-17.285 -2.253)"/>
        <path id="Trazado_898937" data-name="Trazado 898937" d="M57,5h1.374V6.374H57Z" transform="translate(-18.538 -2.253)"/>
        <path id="Trazado_898938" data-name="Trazado 898938" d="M52.231,15H45.363a1.375,1.375,0,0,0-1.374,1.374v1.374H33v1.374H43.989v1.374a1.375,1.375,0,0,0,1.374,1.374h6.868A1.375,1.375,0,0,0,53.6,20.495V16.374A1.375,1.375,0,0,0,52.231,15Zm-6.868,5.495V16.374h6.868v4.121Z" transform="translate(-11.022 -5.384)"/>
        <path id="Trazado_898939" data-name="Trazado 898939" d="M53,19h1.374v1.374H53Z" transform="translate(-17.285 -6.637)"/>
        <path id="Trazado_898940" data-name="Trazado 898940" d="M57,19h1.374v1.374H57Z" transform="translate(-18.538 -6.637)"/>
        <path id="Trazado_898941" data-name="Trazado 898941" d="M53,33h1.374v1.374H53Z" transform="translate(-17.285 -11.022)"/>
        <path id="Trazado_898942" data-name="Trazado 898942" d="M57,33h1.374v1.374H57Z" transform="translate(-18.538 -11.022)"/>
        <path id="Trazado_898943" data-name="Trazado 898943" d="M41,45h1.374v1.374H41Z" transform="translate(-13.527 -14.78)"/>
        <path id="Trazado_898944" data-name="Trazado 898944" d="M45,45h1.374v1.374H45Z" transform="translate(-14.78 -14.78)"/>
        <path id="Trazado_898945" data-name="Trazado 898945" d="M53,57h1.374v1.374H53Z" transform="translate(-17.285 -18.538)"/>
        <path id="Trazado_898946" data-name="Trazado 898946" d="M57,57h1.374v1.374H57Z" transform="translate(-18.538 -18.538)"/>
      </g>
    </g>
  </g>
</svg>
