<svg xmlns="http://www.w3.org/2000/svg" xmlns:xlink="http://www.w3.org/1999/xlink" width="72" height="72" viewBox="0 0 72 72">
  <defs>
    <clipPath id="clip-path">
      <path id="path2229" d="M0-682.665H42.2v42.2H0Z" transform="translate(0 682.665)"/>
    </clipPath>
  </defs>
  <g id="Grupo_1110438" data-name="Grupo 1110438" transform="translate(-843 -11091.5)">
    <g id="Grupo_1110153" data-name="Grupo 1110153" transform="translate(558 5690.812)">
      <g id="Grupo_1109991" data-name="Grupo 1109991" transform="translate(70 3517)">
        <g id="Grupo_1109953" data-name="Grupo 1109953" transform="translate(-204 762.688)">
          <path id="Trazado_824488" data-name="Trazado 824488" d="M36,0A36,36,0,1,1,0,36,36,36,0,0,1,36,0Z" transform="translate(419 1121)" fill="#84a065"/>
        </g>
      </g>
    </g>
    <g id="g2223" transform="translate(861.429 11789.563)">
      <g id="g2225" transform="translate(0 -682.665)">
        <g id="g2227" clip-path="url(#clip-path)">
          <g id="g2233" transform="translate(0.824 0.824)">
            <path id="path2235" d="M-30.022,0h27.7A1.978,1.978,0,0,1-.348,1.978v36.6a1.978,1.978,0,0,1-1.978,1.978h-27.7A1.978,1.978,0,0,1-32,38.576V1.978A1.978,1.978,0,0,1-30.022,0" transform="translate(32 0)" fill="#79b2ff"/>
          </g>
          <g id="g2237" transform="translate(4.121 4.121)">
            <path id="path2239" d="M-288.124,0h6.072V33.96H-307.11V0h6.072" transform="translate(307.11)" fill="#fff"/>
          </g>
          <g id="g2241" transform="translate(10.455 0.824)">
            <path id="path2243" d="M-26.582-90.065h8.888a1.752,1.752,0,0,0,1.752-1.752V-96H-28.333v4.183a1.752,1.752,0,0,0,1.752,1.752" transform="translate(28.333 96)" fill="#ff6977"/>
          </g>
          <g id="g2245" transform="translate(0 0)">
            <path id="path2247" d="M-494.834-337.8h-27.7a2.806,2.806,0,0,1-2.8-2.8v-36.6a2.806,2.806,0,0,1,2.8-2.8h27.7a2.806,2.806,0,0,1,2.8,2.8V-363a.824.824,0,0,1-.824.824.824.824,0,0,1-.824-.824v-14.2a1.155,1.155,0,0,0-1.154-1.154h-27.7a1.155,1.155,0,0,0-1.154,1.154v36.6a1.155,1.155,0,0,0,1.154,1.154h27.7a1.155,1.155,0,0,0,1.154-1.154v-15.908a.824.824,0,0,1,.824-.824.824.824,0,0,1,.824.824V-340.6A2.806,2.806,0,0,1-494.834-337.8Z" transform="translate(525.332 379.999)"/>
          </g>
          <g id="g2249" transform="translate(10.455 0.824)">
            <path id="path2251" d="M-26.582-90.065h8.888a1.752,1.752,0,0,0,1.752-1.752V-96H-28.333v4.183a1.752,1.752,0,0,0,1.752,1.752" transform="translate(28.333 96)" fill="#bdd9ff"/>
          </g>
          <g id="g2253" transform="translate(9.63 0)">
            <path id="path2255" d="M-30.2-101.75h-8.888a2.579,2.579,0,0,1-2.576-2.576v-4.183a.824.824,0,0,1,.824-.824h12.392a.824.824,0,0,1,.824.824v4.183A2.579,2.579,0,0,1-30.2-101.75Zm-9.816-5.935v3.359a.928.928,0,0,0,.927.927H-30.2a.928.928,0,0,0,.927-.927v-3.359Z" transform="translate(41.667 109.333)"/>
          </g>
          <g id="g2257" transform="translate(3.297 3.297)">
            <path id="path2259" d="M-152.61-527.057h-9.232a.824.824,0,0,1-.824-.824v-33.96a.824.824,0,0,1,.824-.824h6.072a.824.824,0,0,1,.824.824.824.824,0,0,1-.824.824h-5.248v32.312h8.408a.824.824,0,0,1,.824.824A.824.824,0,0,1-152.61-527.057Z" transform="translate(162.666 562.665)"/>
          </g>
          <g id="g2261" transform="translate(19.123 24.811)">
            <path id="path2263" d="M-152.61.762h-9.232a.824.824,0,0,1-.824-.824.824.824,0,0,1,.824-.824h8.408V-12.509a.824.824,0,0,1,.824-.824.824.824,0,0,1,.824.824V-.062A.824.824,0,0,1-152.61.762Z" transform="translate(162.666 13.333)"/>
          </g>
          <g id="g2265" transform="translate(22.283 3.297)">
            <path id="path2267" d="M-6.437,4.37a.824.824,0,0,1-.824-.824V-11.685h-5.248a.824.824,0,0,1-.824-.824.824.824,0,0,1,.824-.824h6.072a.824.824,0,0,1,.824.824V3.546A.824.824,0,0,1-6.437,4.37Z" transform="translate(13.333 13.333)"/>
          </g>
          <g id="g2269" transform="translate(16.65 38.081)">
            <path id="path2271"/>
          </g>
          <g id="g2273" transform="translate(25.525 11.181)">
            <path id="path2275" d="M-37.547-156.256l9.658-9.658a2.18,2.18,0,0,1,3.083,0h0a2.18,2.18,0,0,1,0,3.083l-9.658,9.658-5.557,2.474Z" transform="translate(40.021 166.553)" fill="#ffc15a"/>
          </g>
          <g id="g2277" transform="translate(25.525 21.477)">
            <path id="path2279" d="M-84.335-46.788l-3.083-3.083-2.474,5.557Z" transform="translate(89.892 49.871)" fill="#98a1b3"/>
          </g>
          <g id="g2281" transform="translate(36.597 11.181)">
            <path id="path2283" d="M-46.788-72.56l1.06-1.06a2.18,2.18,0,0,0,0-3.083,2.18,2.18,0,0,0-3.083,0l-1.06,1.06Z" transform="translate(49.871 77.341)" fill="#ff6977"/>
          </g>
          <g id="g2285" transform="translate(24.701 10.357)">
            <path id="path2287" d="M-208.931-105.723a.824.824,0,0,1-.583-.241.824.824,0,0,1-.17-.918l2.474-5.557a.824.824,0,0,1,.17-.248l9.658-9.658a2.985,2.985,0,0,1,2.124-.88,2.985,2.985,0,0,1,2.124.88,3.008,3.008,0,0,1,0,4.249l-9.658,9.658a.824.824,0,0,1-.248.17l-5.557,2.474A.823.823,0,0,1-208.931-105.723Zm3.165-5.907-1.539,3.456,3.456-1.539,9.55-9.55a1.357,1.357,0,0,0,0-1.917,1.347,1.347,0,0,0-.959-.4,1.347,1.347,0,0,0-.959.4Z" transform="translate(209.756 123.225)"/>
          </g>
          <g id="g2289" transform="translate(27.248 20.726)">
            <path id="path2291" d="M-55.44-54.616a.822.822,0,0,1-.583-.241l-2.829-2.829a.824.824,0,0,1,0-1.166.824.824,0,0,1,1.166,0l2.829,2.829a.824.824,0,0,1,0,1.166A.822.822,0,0,1-55.44-54.616Z" transform="translate(59.093 59.093)"/>
          </g>
          <g id="g2293" transform="translate(35.773 12.055)">
            <path id="path2295" d="M-59.3-58.472a.822.822,0,0,1-.583-.241L-62.962-61.8a.824.824,0,0,1,0-1.166.824.824,0,0,1,1.166,0l3.083,3.083a.824.824,0,0,1,0,1.166A.822.822,0,0,1-59.3-58.472Z" transform="translate(63.204 63.204)"/>
          </g>
          <path id="path2297" d="M135.942-504.057h-5.275v-5.275h5.275Z" transform="translate(-122.588 520.048)" fill="#cbe558"/>
          <path id="path2299" d="M135.942-357.39h-5.275v-5.275h5.275Z" transform="translate(-122.588 382.448)" fill="#cbe558"/>
          <path id="path2301" d="M135.942-210.724h-5.275V-216h5.275Z" transform="translate(-122.588 244.849)" fill="#ff6977"/>
          <path id="path2303" d="M123.433-515.742h-5.275a.824.824,0,0,1-.824-.824v-5.275a.824.824,0,0,1,.824-.824h5.275a.824.824,0,0,1,.824.824v5.275A.824.824,0,0,1,123.433-515.742Zm-4.451-1.649h3.627v-3.627h-3.627Z" transform="translate(-110.079 532.557)"/>
          <path id="path2305" d="M123.433-369.075h-5.275a.824.824,0,0,1-.824-.824v-5.275a.824.824,0,0,1,.824-.824h5.275a.824.824,0,0,1,.824.824v5.275A.824.824,0,0,1,123.433-369.075Zm-4.451-1.649h3.627v-3.627h-3.627Z" transform="translate(-110.079 394.957)"/>
          <path id="path2307" d="M123.433-222.409h-5.275a.824.824,0,0,1-.824-.824v-5.275a.824.824,0,0,1,.824-.824h5.275a.824.824,0,0,1,.824.824v5.275A.824.824,0,0,1,123.433-222.409Zm-4.451-1.649h3.627v-3.627h-3.627Z" transform="translate(-110.079 257.358)"/>
          <g id="g2309" transform="translate(17.178 10.668)">
            <path id="path2311" d="M-10.675-38.5a.824.824,0,0,1-.583-.241l-1.834-1.834a.824.824,0,0,1,0-1.166.824.824,0,0,1,1.166,0l1.251,1.251,3.138-3.138a.824.824,0,0,1,1.166,0,.824.824,0,0,1,0,1.166l-3.721,3.721A.824.824,0,0,1-10.675-38.5Z" transform="translate(13.333 43.865)"/>
          </g>
          <g id="g2313" transform="translate(17.178 19.735)">
            <path id="path2315" d="M-10.675-38.5a.824.824,0,0,1-.583-.241l-1.834-1.834a.824.824,0,0,1,0-1.166.824.824,0,0,1,1.166,0l1.251,1.251,3.138-3.138a.824.824,0,0,1,1.166,0,.824.824,0,0,1,0,1.166l-3.721,3.721A.824.824,0,0,1-10.675-38.5Z" transform="translate(13.333 43.865)"/>
          </g>
          <g id="g2317" transform="translate(18.095 28.802)">
            <path id="path2319" d="M-12.509-68.158a.822.822,0,0,1-.583-.241.824.824,0,0,1,0-1.166l3.721-3.721a.824.824,0,0,1,1.166,0,.824.824,0,0,1,0,1.166L-11.926-68.4A.822.822,0,0,1-12.509-68.158Z" transform="translate(13.333 73.528)"/>
          </g>
          <g id="g2321" transform="translate(18.095 28.802)">
            <path id="path2323" d="M-8.788-7.963A.822.822,0,0,1-9.371-8.2l-3.721-3.721a.824.824,0,0,1,0-1.166.824.824,0,0,1,1.166,0L-8.2-9.371A.824.824,0,0,1-8.2-8.2.822.822,0,0,1-8.788-7.963Z" transform="translate(13.333 13.333)"/>
          </g>
        </g>
      </g>
    </g>
  </g>
</svg>
