<svg xmlns="http://www.w3.org/2000/svg" width="72" height="72" viewBox="0 0 72 72">
  <g id="Grupo_1110431" data-name="Grupo 1110431" transform="translate(-213.051 -11214)">
    <g id="Grupo_1110151" data-name="Grupo 1110151" transform="translate(-71.949 5813.312)">
      <g id="Grupo_1109991" data-name="Grupo 1109991" transform="translate(70 3517)">
        <g id="Grupo_1109953" data-name="Grupo 1109953" transform="translate(-204 762.688)">
          <path id="Trazado_824488" data-name="Trazado 824488" d="M36,0A36,36,0,1,1,0,36,36,36,0,0,1,36,0Z" transform="translate(419 1121)" fill="#84a065"/>
        </g>
      </g>
    </g>
    <g id="layer2" transform="translate(228.522 11228.471)">
      <path id="path6751" d="M37.677,5.821a2.007,2.007,0,0,1,2.012,2.012v22.13a2.007,2.007,0,0,1-2.012,2.012H3.14A2.372,2.372,0,0,1,.809,29.8c0-8.758-.015-15.257-.015-23.975" transform="translate(0.407 8.121)" fill="#e4eff8"/>
      <path id="path6753" d="M39.6,29.912a2.007,2.007,0,0,1-2.012,2.012H3.047A2.452,2.452,0,0,1,.855,30.408a2.234,2.234,0,0,0,.85.175H36.242a2.007,2.007,0,0,0,2.012-2.012V6.431a2,2,0,0,0-.093-.578A2,2,0,0,1,39.6,7.773Z" transform="translate(0.5 8.171)" fill="#c4dcf0"/>
      <path id="path6755" d="M.794,6.651a2.682,2.682,0,0,1,5.365,0v21.46a2.007,2.007,0,0,1-2.012,2.012H3.141A2.342,2.342,0,0,0,.794,32.47Z" transform="translate(0.406 5.278)" fill="#549ad4"/>
      <path id="path6757" d="M6.159,27.969a2.007,2.007,0,0,1-2.012,2.012H3.141A2.342,2.342,0,0,0,.794,32.328V28.872A2.336,2.336,0,0,1,1.8,28.64H2.806a2.007,2.007,0,0,0,2.012-2.012V5.163a2.676,2.676,0,0,0-.24-1.1A2.673,2.673,0,0,1,6.159,6.5Z" transform="translate(0.406 5.42)" fill="#3588cb"/>
      <path id="path6759" d="M12.472,11.925a1.341,1.341,0,1,1-1.341-1.341A1.341,1.341,0,0,1,12.472,11.925Z" transform="translate(14.211 15.429)" fill="#ff5151"/>
      <path id="path6761" d="M20.064,8.841A8.047,8.047,0,1,1,12.016.794a8.047,8.047,0,0,1,8.047,8.047Z" transform="translate(5.278 0.406)" fill="#ffca28"/>
      <path id="path6763" d="M10.957.794a8.047,8.047,0,0,0-6.3,3.053,8.04,8.04,0,0,1,11.256,11.33A8.045,8.045,0,0,0,10.957.794Z" transform="translate(6.337 0.406)" fill="#ecb200"/>
      <path id="path6765" d="M9.3,9.808A1.341,1.341,0,1,1,7.956,8.467,1.341,1.341,0,0,1,9.3,9.808Z" transform="translate(9.339 12.181)" fill="#ff5151"/>
      <path id="path6767" d="M13.371,7.408h2.682a.669.669,0,0,1,.671.671v2.012a.669.669,0,0,1-.671.671H13.371a.669.669,0,0,1-.671-.671V8.079a.669.669,0,0,1,.671-.671Z" transform="translate(18.677 10.557)" fill="#549ad4"/>
      <path id="path6769" d="M13.371,7.408a.669.669,0,0,0-.671.671v2.012a.669.669,0,0,0,.671.671h2.682a.669.669,0,0,0,.671-.671V9.42H14.712a.669.669,0,0,1-.671-.671V7.408Z" transform="translate(18.677 10.557)" fill="#3588cb"/>
      <path id="path6771" d="M13.494,2.618,20.2,5.971,13.494,8.653" transform="translate(19.896 3.205)" fill="#ff5151"/>
      <g id="Grupo_1110430" data-name="Grupo 1110430" transform="translate(15.953 5.823)">
        <path id="path6773" d="M13.494,2.618V8.653l1.341-.537V3.289Z" transform="translate(3.942 -2.618)" fill="#ff2929"/>
        <path id="path6775" d="M10.7,10.614a1.338,1.338,0,1,0,1.75,1.519,1.332,1.332,0,0,1-1.75-1.519Z" transform="translate(-1.742 9.653)" fill="#ff2929"/>
        <path id="path6777" d="M7.521,8.5a1.338,1.338,0,1,0,1.75,1.519A1.332,1.332,0,0,1,7.521,8.5Z" transform="translate(-6.615 6.405)" fill="#ff2929"/>
      </g>
      <path id="path6779" d="M8.577,9.247a8.653,8.653,0,0,0,.986,4.025H7.238V11.931a3.354,3.354,0,0,0-6.709,0V37.747a3.013,3.013,0,0,0,3.02,3.019H38.084a2.681,2.681,0,0,0,2.682-2.682V15.955a2.676,2.676,0,0,0-2.682-2.682H34.059v-.96L40.346,9.8a.671.671,0,0,0,.05-1.218L34.059,5.408V5.222a.671.671,0,1,0-1.341,0v8.05h-7.7A8.716,8.716,0,1,0,8.577,9.247ZM33.38.529a.671.671,0,0,0-.663.678v.673a.671.671,0,0,0,1.341,0V1.208A.67.67,0,0,0,33.38.529ZM17.3,1.872A7.375,7.375,0,1,1,9.918,9.247,7.378,7.378,0,0,1,17.3,1.872Zm12.46,1.37.474.475a.672.672,0,0,0,.951-.95l-.475-.475a.639.639,0,0,0-.468-.2.67.67,0,0,0-.481,1.145Zm6.321-.95-.475.475a.672.672,0,0,0,.951.95l.475-.475a.672.672,0,0,0-.5-1.145.644.644,0,0,0-.453.2ZM16.623,4.554V9.247a.671.671,0,0,0,.2.475l2.009,2.009a.671.671,0,0,0,.951-.946L17.965,8.97V4.554a.671.671,0,0,0-1.342,0ZM34.059,6.911l4.4,2.2-4.4,1.76Zm-30.178,3A2.013,2.013,0,0,1,5.9,11.931v21.46a1.342,1.342,0,0,1-1.341,1.341h-1a3.014,3.014,0,0,0-1.678.5v-23.3A2.009,2.009,0,0,1,3.881,9.915Zm3.357,4.7h3.185a8.72,8.72,0,0,0,13.744,0h8.55V17.3h-.668a1.337,1.337,0,0,0-1.343,1.341v2.009a.666.666,0,0,0-.069,0,.673.673,0,0,0,.069,1.343h1.3l-5.3,3.891A2.007,2.007,0,0,0,24,25.851l-4.748-3.425a1.967,1.967,0,0,0,.051-.436,2.013,2.013,0,1,0-4.025,0,1.95,1.95,0,0,0,.072.5L8.836,27.494a.671.671,0,1,0,.823,1.06L16.1,23.605a2.017,2.017,0,0,0,2.444-.037l4.813,3.47a2.2,2.2,0,0,0-.023.318,2.013,2.013,0,0,0,4.025,0,1.882,1.882,0,0,0-.02-.269l6.941-5.1h1.8a.671.671,0,0,0,0-1.343V18.638A1.343,1.343,0,0,0,34.732,17.3h-.673V14.613h4.025a1.334,1.334,0,0,1,1.341,1.341V38.084a1.337,1.337,0,0,1-1.341,1.341H3.55a1.676,1.676,0,1,1,0-3.352h1a2.683,2.683,0,0,0,2.684-2.682ZM24,18.633a.674.674,0,0,0-.475,1.149l.533.53-.533.533a.671.671,0,0,0,.951.946l.53-.53.533.53a.669.669,0,1,0,.946-.946l-.53-.533.53-.53A.67.67,0,0,0,26,18.633a.677.677,0,0,0-.466.2l-.533.533-.53-.533a.654.654,0,0,0-.475-.2Zm8.05.005h2.682v2.009H32.049ZM17.3,21.316a.673.673,0,0,1,.668.675.666.666,0,0,1-.668.668.671.671,0,1,1,0-1.343Zm16.767,4.025a.67.67,0,0,0-.481,1.143l.533.533-.533.532a.672.672,0,1,0,.951.951l.53-.533.533.533a.671.671,0,0,0,.946-.951l-.527-.532.532-.533a.67.67,0,0,0-.5-1.143.653.653,0,0,0-.456.2l-.533.532-.53-.532a.642.642,0,0,0-.47-.2Zm-8.723,1.341a.671.671,0,1,1-.668.675A.673.673,0,0,1,25.341,26.682ZM12.594,29.361a.67.67,0,0,0-.367.114l-2.009,1.341a.672.672,0,1,0,.743,1.12L12.6,30.841l1.644,1.095a.671.671,0,0,0,.741,0l1.639-1.095,1.64,1.095a.671.671,0,0,0,.747,0l1.639-1.095,1.639,1.095a.672.672,0,1,0,.743-1.12L21.02,29.474a.671.671,0,0,0-.743,0l-1.639,1.094-1.644-1.094a.671.671,0,0,0-.743,0l-1.639,1.094L12.97,29.474a.671.671,0,0,0-.376-.114Zm16.772,2.688a.671.671,0,1,0,0,1.341h.671a.671.671,0,1,0,0-1.341Zm3.353,0a.671.671,0,1,0,0,1.341h.671a.671.671,0,1,0,0-1.341Zm3.353,0a.671.671,0,1,0,0,1.341h.671a.671.671,0,1,0,0-1.341Zm-23.478.669a.67.67,0,0,0-.367.114l-2.009,1.336a.671.671,0,1,0,.743,1.119L12.6,34.192l1.644,1.094a.671.671,0,0,0,.741,0l1.639-1.094,1.64,1.094a.671.671,0,0,0,.747,0l1.639-1.094,1.639,1.094a.671.671,0,1,0,.743-1.119L21.02,32.831a.671.671,0,0,0-.743,0L18.638,33.92l-1.644-1.088a.671.671,0,0,0-.743,0L14.613,33.92,12.97,32.831A.671.671,0,0,0,12.594,32.718Z" transform="translate(0 0)"/>
    </g>
  </g>
</svg>
