<svg xmlns="http://www.w3.org/2000/svg" xmlns:xlink="http://www.w3.org/1999/xlink" width="108" height="108" viewBox="0 0 108 108">
  <defs>
    <filter id="Trazado_896985" x="0" y="0" width="108" height="108" filterUnits="userSpaceOnUse">
      <feOffset dy="3" input="SourceAlpha"/>
      <feGaussianBlur stdDeviation="3" result="blur"/>
      <feFlood flood-opacity="0.161"/>
      <feComposite operator="in" in2="blur"/>
      <feComposite in="SourceGraphic"/>
    </filter>
  </defs>
  <g id="Grupo_1110362" data-name="Grupo 1110362" transform="translate(-747.051 -1534)">
    <g id="Grupo_1110071" data-name="Grupo 1110071" transform="translate(-0.73 -2293)">
      <g id="Grupo_1098742" data-name="Grupo 1098742" transform="translate(-446.539 3444.258)">
        <g transform="matrix(1, 0, 0, 1, 1194.32, 382.74)" filter="url(#Trazado_896985)">
          <g id="Trazado_896985-2" data-name="Trazado 896985" transform="translate(9 6)" fill="#84a065" opacity="0.859">
            <path d="M 44.99993896484375 88.5 C 39.12682723999023 88.5 33.4301872253418 87.35007476806641 28.06826400756836 85.08217620849609 C 22.88850212097168 82.89132690429688 18.23627662658691 79.75461578369141 14.2408390045166 75.75916290283203 C 10.24540138244629 71.76372528076172 7.108676433563232 67.11151123046875 4.917826652526855 61.9317512512207 C 2.649926424026489 56.56982421875 1.500001430511475 50.87317657470703 1.500001430511475 45.00006103515625 C 1.500001430511475 39.12682342529297 2.649926424026489 33.4301872253418 4.917826652526855 28.06826210021973 C 7.108676433563232 22.88850021362305 10.24540138244629 18.23628807067871 14.2408390045166 14.24083709716797 C 18.23628807067871 10.24540042877197 22.88850212097168 7.108675003051758 28.06826400756836 4.917825222015381 C 33.4301872253418 2.649924993515015 39.12682723999023 1.5 44.99993896484375 1.5 C 50.87305068969727 1.5 56.5697021484375 2.649924993515015 61.93162536621094 4.917825222015381 C 67.11138916015625 7.108675003051758 71.76360321044922 10.24540042877197 75.75904083251953 14.24083709716797 C 79.75448608398438 18.23627471923828 82.89120483398438 22.88850021362305 85.08205413818359 28.06826210021973 C 87.34995269775391 33.4301872253418 88.4998779296875 39.12682342529297 88.4998779296875 44.99993896484375 C 88.4998779296875 50.87317657470703 87.34995269775391 56.56982421875 85.08205413818359 61.9317512512207 C 82.89120483398438 67.11151123046875 79.75448608398438 71.76372528076172 75.75904083251953 75.75916290283203 C 71.76360321044922 79.75461578369141 67.11138916015625 82.89132690429688 61.93162536621094 85.08217620849609 C 56.5697021484375 87.35007476806641 50.87305068969727 88.5 44.99993896484375 88.5 Z" stroke="none"/>
            <path d="M 44.99993896484375 3 C 39.32865142822266 3 33.82860946655273 4.110054016113281 28.65258026123047 6.299331665039062 C 23.65162658691406 8.414558410644531 19.15966796875 11.44332885742188 15.30149841308594 15.30149841308594 C 11.44332122802734 19.15966796875 8.41455078125 23.65162658691406 6.299324035644531 28.65258407592773 C 4.110054016113281 33.82861328125 2.999992370605469 39.32865524291992 2.999992370605469 45.00005722045898 C 2.999992370605469 50.67134475708008 4.110054016113281 56.17138671875 6.299324035644531 61.347412109375 C 8.41455078125 66.34837341308594 11.44332122802734 70.84033203125 15.30149841308594 74.69850158691406 C 19.15966796875 78.55667114257812 23.65162658691406 81.58544158935547 28.65258026123047 83.70066833496094 C 33.82860946655273 85.88994598388672 39.32865142822266 87 44.99993896484375 87 C 50.67122650146484 87 56.17126846313477 85.88994598388672 61.34729766845703 83.70066833496094 C 66.34825134277344 81.58544158935547 70.8402099609375 78.55667114257812 74.69837951660156 74.69850158691406 C 78.55654907226562 70.84033203125 81.5853271484375 66.34837341308594 83.70055389404297 61.347412109375 C 85.88982391357422 56.17138671875 86.9998779296875 50.67134475708008 86.9998779296875 44.99994277954102 C 86.9998779296875 39.32865524291992 85.88982391357422 33.82861328125 83.70055389404297 28.65258407592773 C 81.5853271484375 23.65162658691406 78.55654907226562 19.15966796875 74.69837951660156 15.30149841308594 C 70.8402099609375 11.44332885742188 66.34825134277344 8.414558410644531 61.34729766845703 6.299331665039062 C 56.17126846313477 4.110054016113281 50.67122650146484 3 44.99993896484375 3 M 44.99993896484375 0 C 69.85272216796875 0 89.99988555908203 20.14715576171875 89.99988555908203 44.99994277954102 L 89.99988555908203 45.00005722045898 C 89.99988555908203 69.85284423828125 69.85272216796875 90 44.99993896484375 90 C 20.14715576171875 90 -7.62939453125e-06 69.85284423828125 -7.62939453125e-06 45.00005722045898 L -7.62939453125e-06 44.99994277954102 C -7.62939453125e-06 20.14715576171875 20.14715576171875 0 44.99993896484375 0 Z" stroke="none" fill="#fff"/>
          </g>
        </g>
        <g id="Rectángulo_400907" data-name="Rectángulo 400907" transform="translate(1203.32 388.742)" fill="none" stroke="#fff" stroke-width="3">
          <rect width="90" height="90" rx="45" stroke="none"/>
          <rect x="1.5" y="1.5" width="87" height="87" rx="43.5" fill="none"/>
        </g>
      </g>
    </g>
    <g id="granjero_1_" data-name="granjero (1)" transform="translate(771.541 1557)">
      <g id="Grupo_1110329" data-name="Grupo 1110329" transform="translate(16.453 33.773)">
        <path id="Trazado_898777" data-name="Trazado 898777" d="M153.122,309.313c.1,4.8-11.427,4.712-11.53,0-2.854,3.026-3.206,5.566-3.222,11.733l9.931,2.346,8.588-2.346,1.346-4.288-1.346-5.8c-1.087-.3-2.116-.561-3.013-.792-.474-.122-.754-.337-.754-.851Z" transform="translate(-138.37 -309.313)" fill="#a7e9a6" fill-rule="evenodd"/>
      </g>
      <g id="Grupo_1110330" data-name="Grupo 1110330" transform="translate(37.387 36.621)">
        <path id="Trazado_898778" data-name="Trazado 898778" d="M331.466,335.4l-1.368,4.939,1.368,3.945c.031.1-1.48,2.736,1.405,9.579h7.236c.863,0,1.564-5.291,1.68-5.989l-2.234-6.993c-1.679-2.58-4.849-4.282-8.086-5.482Z" transform="translate(-330.098 -335.399)" fill="#a7e9a6" fill-rule="evenodd"/>
      </g>
      <g id="Grupo_1110331" data-name="Grupo 1110331" transform="translate(2.329 38.899)">
        <path id="Trazado_898779" data-name="Trazado 898779" d="M14.093,356.262c-2.524,1.633-4.4,3.833-4.587,6.871L9.02,371.21c-.059.988.19,1.237,1.215,1.237H17.4C19.926,366.686,20.471,359.649,14.093,356.262Z" transform="translate(-9.011 -356.262)" fill="#a7e9a6" fill-rule="evenodd"/>
      </g>
      <g id="Grupo_1110332" data-name="Grupo 1110332" transform="translate(46.841 38.31)">
        <path id="Trazado_898780" data-name="Trazado 898780" d="M416.687,351.426v7.036l3.15,2.132,3.15-2.132v-7.036a.559.559,0,0,0-.558-.558h-5.188A.557.557,0,0,0,416.687,351.426Z" transform="translate(-416.687 -350.868)" fill="#ffe07d" fill-rule="evenodd"/>
      </g>
      <g id="Grupo_1110333" data-name="Grupo 1110333" transform="translate(46.841 48.036)">
        <path id="Trazado_898781" data-name="Trazado 898781" d="M422.989,442.077l-3.15-2.135-3.15,2.135v4.356a.557.557,0,0,0,.555.558h5.188a.559.559,0,0,0,.558-.558v-4.356Z" transform="translate(-416.688 -439.942)" fill="#ffe07d" fill-rule="evenodd"/>
      </g>
      <g id="Grupo_1110334" data-name="Grupo 1110334" transform="translate(34.972 35.415)">
        <path id="Trazado_898782" data-name="Trazado 898782" d="M307.98,324.354v10.09l1.879.957,1.9-.957V325.56c-.963-.352-1.929-.664-2.864-.941C308.591,324.528,308.282,324.441,307.98,324.354Z" transform="translate(-307.98 -324.354)" fill="#ffe07d" fill-rule="evenodd"/>
      </g>
      <g id="Grupo_1110335" data-name="Grupo 1110335" transform="translate(38.755 36.621)">
        <path id="Trazado_898783" data-name="Trazado 898783" d="M350.713,340.88c-1.68-2.58-4.849-4.282-8.086-5.481v2.8c6.192,2.724,6.235,4.456,8.086,10.246V340.88Z" transform="translate(-342.627 -335.399)" fill="#7fdbae" fill-rule="evenodd"/>
      </g>
      <g id="Grupo_1110336" data-name="Grupo 1110336" transform="translate(46.841 45.904)">
        <path id="Trazado_898784" data-name="Trazado 898784" d="M416.687,420.42h6.3v4.266h-6.3Z" transform="translate(-416.687 -420.42)" fill="#d09080" fill-rule="evenodd"/>
      </g>
      <g id="Grupo_1110337" data-name="Grupo 1110337" transform="translate(50.64 38.31)">
        <path id="Trazado_898785" data-name="Trazado 898785" d="M452.031,351.426v7.036h1.948v-7.036a.559.559,0,0,0-.558-.558h-1.945A.557.557,0,0,1,452.031,351.426Z" transform="translate(-451.476 -350.868)" fill="#ffd064" fill-rule="evenodd"/>
      </g>
      <g id="Grupo_1110338" data-name="Grupo 1110338" transform="translate(51.194 45.904)">
        <path id="Trazado_898786" data-name="Trazado 898786" d="M456.557,420.42v4.266H458.5V420.42Z" transform="translate(-456.557 -420.42)" fill="#ce775f" fill-rule="evenodd"/>
      </g>
      <g id="Grupo_1110339" data-name="Grupo 1110339" transform="translate(50.64 50.17)">
        <path id="Trazado_898787" data-name="Trazado 898787" d="M452.032,459.492v4.356a.557.557,0,0,1-.555.558h1.945a.559.559,0,0,0,.558-.558v-4.356Z" transform="translate(-451.477 -459.492)" fill="#ffd064" fill-rule="evenodd"/>
      </g>
      <g id="Grupo_1110340" data-name="Grupo 1110340" transform="translate(10.719 45.378)">
        <path id="Trazado_898788" data-name="Trazado 898788" d="M110.11,415.73H91.591c-2.462-.608-4.257,1.041-5.734,3.313v6.267H115.3v-8.174a1.41,1.41,0,0,0-1.405-1.405Z" transform="translate(-85.857 -415.603)" fill="#d09080" fill-rule="evenodd"/>
      </g>
      <g id="Grupo_1110341" data-name="Grupo 1110341" transform="translate(35.52 45.505)">
        <path id="Trazado_898789" data-name="Trazado 898789" d="M313,416.767a1.41,1.41,0,0,1,1.405,1.405v8.174h3.235v-8.174a1.41,1.41,0,0,0-1.405-1.405Z" transform="translate(-313.003 -416.767)" fill="#ce775f" fill-rule="evenodd"/>
      </g>
      <g id="Grupo_1110342" data-name="Grupo 1110342" transform="translate(29.749 19.722)">
        <path id="Trazado_898790" data-name="Trazado 898790" d="M265.121,183.058a22.042,22.042,0,0,1-3.518,9.2l-1.455,2.664c0,.517,1.574,1.539,2.044,1.658h4.1c4.618-4.927,3.9-9.866,4.01-15.958-.1,1.726-2.886,1.857-5.179,2.434Z" transform="translate(-260.148 -180.624)" fill="#365e7d" fill-rule="evenodd"/>
      </g>
      <g id="Grupo_1110343" data-name="Grupo 1110343" transform="translate(34.305 16.219)">
        <path id="Trazado_898791" data-name="Trazado 898791" d="M301.873,148.546c.125,1.789,2.057,6.594,1.929,7.423a4.443,4.443,0,0,0,3.668-3.92,4.2,4.2,0,0,0-1.218-3.122Z" transform="translate(-301.873 -148.546)" fill="#e2a770" fill-rule="evenodd"/>
      </g>
      <g id="Grupo_1110344" data-name="Grupo 1110344" transform="translate(19.675 30.967)">
        <path id="Trazado_898792" data-name="Trazado 898792" d="M167.88,284.01v2.415a5.765,5.765,0,1,0,11.53,0V284.01A42.6,42.6,0,0,0,167.88,284.01Z" transform="translate(-167.88 -283.62)" fill="#f1b986" fill-rule="evenodd"/>
      </g>
      <g id="Grupo_1110345" data-name="Grupo 1110345" transform="translate(34.028 19.722)">
        <path id="Trazado_898793" data-name="Trazado 898793" d="M303.091,183.916c-.019,4.431-.3,8.3-3.758,12.147.308.081.623.168.944.255.3.087.611.174.919.265,4.618-4.927,3.9-9.866,4.01-15.958A4.108,4.108,0,0,1,303.091,183.916Z" transform="translate(-299.333 -180.625)" fill="#2b4d66" fill-rule="evenodd"/>
      </g>
      <g id="Grupo_1110346" data-name="Grupo 1110346" transform="translate(19.675 31.358)">
        <path id="Trazado_898794" data-name="Trazado 898794" d="M167.88,287.2v2.415c2.153,2.234,7.594,2.733,9.47,1.315v1.362a5.683,5.683,0,0,1-.365,2.013,5.769,5.769,0,0,0,2.424-4.69V287.2a12.027,12.027,0,0,1-3.041,1.692,7.044,7.044,0,0,1-5.45,0,10.946,10.946,0,0,1-1.147-.5A12.674,12.674,0,0,1,167.88,287.2Z" transform="translate(-167.88 -287.195)" fill="#e2a770" fill-rule="evenodd"/>
      </g>
      <g id="Grupo_1110347" data-name="Grupo 1110347" transform="translate(5.454 19.946)">
        <path id="Trazado_898795" data-name="Trazado 898795" d="M43.178,182.68c.081,4.69-9.566,8.7-3.587,18.953A23.39,23.39,0,0,0,40.95,203.7c1.38,1.885.841,4.366.555,6.65-.193,1.53-.6,1.673.925,1.321.156-.034.315-.075.47-.118a13.21,13.21,0,0,0,5.734-3.313,9.936,9.936,0,0,0,3.222-6.84v-7.308c-.321-5.257-5.905-9.685-8.678-11.412Z" transform="translate(-37.636 -182.68)" fill="#365e7d" fill-rule="evenodd"/>
      </g>
      <g id="Grupo_1110348" data-name="Grupo 1110348" transform="translate(9.126 19.946)">
        <path id="Trazado_898796" data-name="Trazado 898796" d="M79.171,200.625a8.815,8.815,0,0,1-3.222,6.273,13.455,13.455,0,0,1-4.375,2.624c-.037.277-.075.552-.109.826-.193,1.53-.6,1.673.925,1.321.156-.034.315-.075.47-.118a13.21,13.21,0,0,0,5.734-3.313,9.936,9.936,0,0,0,3.222-6.84v-7.308a12.9,12.9,0,0,1-5.029-7.716,4.489,4.489,0,0,1-3.649-3.7,5.883,5.883,0,0,1-1.165,3.191,5.679,5.679,0,0,0,2.169.969,11.809,11.809,0,0,0,5.029,7.08v6.706Z" transform="translate(-71.268 -182.679)" fill="#2b4d66" fill-rule="evenodd"/>
      </g>
      <g id="Grupo_1110349" data-name="Grupo 1110349" transform="translate(10.97 15.748)">
        <path id="Trazado_898797" data-name="Trazado 898797" d="M89.385,145.078a4.14,4.14,0,0,0-1.2,3.347,4.489,4.489,0,0,0,3.649,3.7c3.023-1.016,1.63-5.488,1.458-7.66A4.16,4.16,0,0,0,89.385,145.078Z" transform="translate(-88.16 -144.226)" fill="#e2a770" fill-rule="evenodd"/>
      </g>
      <g id="Grupo_1110350" data-name="Grupo 1110350" transform="translate(14.835 0.819)">
        <path id="Trazado_898798" data-name="Trazado 898798" d="M134.162,7.5a11.675,11.675,0,0,0-10.6,6.79l10.978,2.069L144.77,14.29A11.676,11.676,0,0,0,134.162,7.5Z" transform="translate(-123.558 -7.5)" fill="#d8a595" fill-rule="evenodd"/>
      </g>
      <g id="Grupo_1110351" data-name="Grupo 1110351" transform="translate(13.77 7.609)">
        <path id="Trazado_898799" data-name="Trazado 898799" d="M136.074,69.689H114.863a11.615,11.615,0,0,0-1.066,4.88l11.67,2.144,11.673-2.144A11.662,11.662,0,0,0,136.074,69.689Z" transform="translate(-113.797 -69.689)" fill="#ff8086" fill-rule="evenodd"/>
      </g>
      <g id="Grupo_1110352" data-name="Grupo 1110352" transform="translate(14.561 15.458)">
        <path id="Trazado_898800" data-name="Trazado 898800" d="M121.047,148.7a6.821,6.821,0,0,0,.084,1.056,12.9,12.9,0,0,0,5.029,7.716,12.007,12.007,0,0,0,3.038,1.692,7.044,7.044,0,0,0,5.45,0,12.027,12.027,0,0,0,3.041-1.692,12.919,12.919,0,0,0,5.029-7.716,6.821,6.821,0,0,0,.084-1.056V143.32a34.759,34.759,0,0,0-21.757,0V148.7Z" transform="translate(-121.047 -141.574)" fill="#f1d0a5" fill-rule="evenodd"/>
      </g>
      <g id="Grupo_1110353" data-name="Grupo 1110353" transform="translate(7.781 12.489)">
        <path id="Trazado_898801" data-name="Trazado 898801" d="M92.428,114.383H60.78c-1.2,0-2.343.056-1.6,1.38.679,1.209,2.172,2.091,4.179,2.73a21.955,21.955,0,0,0,2.365.6,62.53,62.53,0,0,0,21.757,0,22.134,22.134,0,0,0,2.365-.6c2-.639,3.5-1.521,4.176-2.73C94.771,114.439,93.627,114.383,92.428,114.383Z" transform="translate(-58.945 -114.383)" fill="#d8a595" fill-rule="evenodd"/>
      </g>
      <g id="Grupo_1110354" data-name="Grupo 1110354" transform="translate(14.562 17.204)">
        <path id="Trazado_898802" data-name="Trazado 898802" d="M140.018,162.766c-.6,4.014-4.179,8.2-8.071,9.688a7.5,7.5,0,0,1-2.723.564,6.519,6.519,0,0,1-1.169-.109,10.923,10.923,0,0,0,1.147.5,7.044,7.044,0,0,0,5.45,0,12.028,12.028,0,0,0,3.041-1.692A12.919,12.919,0,0,0,142.724,164a6.821,6.821,0,0,0,.084-1.056v-5.382l-2.7.436a75.887,75.887,0,0,1-8.174.517,71.768,71.768,0,0,1-9.133-.648c-.6-.09-1.187-.193-1.745-.305v2.378c.633.181,1.3.337,1.985.474a53.136,53.136,0,0,0,8.893.851,55.661,55.661,0,0,0,8.174-.717v1.692C140.1,162.6,140.074,162.4,140.018,162.766Z" transform="translate(-121.051 -157.565)" fill="#f1b986" fill-rule="evenodd"/>
      </g>
      <g id="Grupo_1110355" data-name="Grupo 1110355" transform="translate(22.807 0.819)">
        <path id="Trazado_898803" data-name="Trazado 898803" d="M209.8,14.29A11.676,11.676,0,0,0,199.2,7.5a11.8,11.8,0,0,0-2.633.3,11.7,11.7,0,0,1,7.971,6.494Z" transform="translate(-196.562 -7.5)" fill="#d09080" fill-rule="evenodd"/>
      </g>
      <g id="Grupo_1110356" data-name="Grupo 1110356" transform="translate(30.778 7.609)">
        <path id="Trazado_898804" data-name="Trazado 898804" d="M274.836,69.689h-5.269c.146.321.281.648.4.985a11.609,11.609,0,0,1,.667,3.9H275.9A11.664,11.664,0,0,0,274.836,69.689Z" transform="translate(-269.567 -69.689)" fill="#e5646e" fill-rule="evenodd"/>
      </g>
      <g id="Grupo_1110357" data-name="Grupo 1110357" transform="translate(22.719 12.489)">
        <path id="Trazado_898805" data-name="Trazado 898805" d="M214.308,114.383h-5.441a7.5,7.5,0,0,1,1.022.05c.695.1,1.094.408.573,1.331-1.128,2.007-4.412,2.9-6.541,3.334a54.325,54.325,0,0,1-8.158.876c.9.037,1.81.062,2.72.078a76.278,76.278,0,0,0,8.177-.517l.748-.122.206-.031,1.748-.284a23.49,23.49,0,0,0,2.353-.6c1.5-.474,3.384-1.3,4.188-2.736.748-1.325-.4-1.381-1.6-1.381Z" transform="translate(-195.764 -114.383)" fill="#d09080" fill-rule="evenodd"/>
      </g>
      <g id="Grupo_1110358" data-name="Grupo 1110358" transform="translate(30.366 33.81)">
        <path id="Trazado_898806" data-name="Trazado 898806" d="M266.631,309.868a5.728,5.728,0,0,1-.832,2.733c.863.221,1.832.467,2.858.754.3.084.611.171.922.265l.826.249v-2.608c-.321-.087-.636-.174-.944-.255-.739-.2-1.437-.374-2.069-.536-.461-.118-.739-.324-.754-.813C266.637,309.728,266.637,309.8,266.631,309.868Z" transform="translate(-265.799 -309.656)" fill="#7fdbae" fill-rule="evenodd"/>
      </g>
      <g id="Grupo_1110359" data-name="Grupo 1110359" transform="translate(34.972 35.415)">
        <path id="Trazado_898807" data-name="Trazado 898807" d="M308.9,324.619c-.308-.09-.617-.178-.919-.265v2.608c.218.069.436.14.654.212.458.15.919.309,1.38.48.352.131.7.268,1.053.411.234.093.464.19.695.293v-2.8C310.8,325.208,309.835,324.9,308.9,324.619Z" transform="translate(-307.981 -324.354)" fill="#ffd064" fill-rule="evenodd"/>
      </g>
      <g id="Grupo_1110361" data-name="Grupo 1110361" transform="translate(1.509 0)">
        <g id="Grupo_1110360" data-name="Grupo 1110360">
          <path id="Trazado_898808" data-name="Trazado 898808" d="M150.528,189.634a.819.819,0,1,0,1.137,1.178,1.05,1.05,0,0,1,1.446,0,.819.819,0,0,0,1.137-1.178A2.7,2.7,0,0,0,150.528,189.634Z" transform="translate(-134.035 -168.267)"/>
          <path id="Trazado_898809" data-name="Trazado 898809" d="M256.413,190.793a.819.819,0,0,0-.021-1.158,2.7,2.7,0,0,0-3.721,0,.819.819,0,1,0,1.137,1.178,1.05,1.05,0,0,1,1.446,0A.819.819,0,0,0,256.413,190.793Z" transform="translate(-225.025 -168.268)"/>
          <path id="Trazado_898810" data-name="Trazado 898810" d="M200.007,245.2a1.809,1.809,0,0,1-1.289.535h0a1.817,1.817,0,0,1-1.293-.536.819.819,0,0,0-1.158,1.158,3.444,3.444,0,0,0,2.451,1.016h0a3.436,3.436,0,0,0,2.447-1.017.819.819,0,1,0-1.16-1.156Z" transform="translate(-174.787 -218.214)"/>
          <path id="Trazado_898811" data-name="Trazado 898811" d="M306.344,453.134h-.963a.819.819,0,1,0,0,1.638h.963a.819.819,0,1,0,0-1.638Z" transform="translate(-271.473 -403.658)"/>
          <path id="Trazado_898812" data-name="Trazado 898812" d="M56.264,17.843a.819.819,0,0,0-.819.819v8.778a2.356,2.356,0,0,1-2.353,2.353H50.81V18.662a.819.819,0,1,0-1.638,0V29.794H46.888a2.356,2.356,0,0,1-2.353-2.353V18.662a.819.819,0,1,0-1.638,0v8.778a4,4,0,0,0,3.991,3.991h2.285v6.059H47.4a1.377,1.377,0,0,0-1.373,1.377v1c-2.275-2.17-5.585-3.593-8.69-4.595,3.374-4.177,3.376-8.364,3.374-13.157,0-.77,0-1.567.014-2.376,0-.017,0-.033,0-.049A4.869,4.869,0,0,0,40.008,17a6.745,6.745,0,0,0,3.564-2.727,1.741,1.741,0,0,0,.166-1.787c-.476-.815-1.584-.815-2.474-.815H37.9a12.49,12.49,0,0,0-24.926,0H9.616c-.89,0-2,0-2.475.815A1.741,1.741,0,0,0,7.3,14.271,6.757,6.757,0,0,0,10.87,17a4.833,4.833,0,0,0-.693,2.963c.021,1.308-.966,2.686-2.109,4.281-2.319,3.236-5.395,7.53-1.738,14.4-2.7,1.938-4.158,4.316-4.326,7.077L1.519,53.8a2.038,2.038,0,0,0,.414,1.59,2.124,2.124,0,0,0,1.619.515H47.324l.036,0,.036,0h5.188a1.378,1.378,0,0,0,1.377-1.377V38.868a1.378,1.378,0,0,0-1.377-1.377H50.81V31.432h2.282a4,4,0,0,0,3.991-3.991V18.662a.819.819,0,0,0-.819-.819ZM37.936,37.2v7.485H35.791v-8.18C36.494,36.717,37.215,36.947,37.936,37.2Zm-2.308-2.449c-1.139-.327-3.576-.954-3.6-.966,0,0,0-.009,0-.013v-2.02a13.888,13.888,0,0,0,4.924-7.468A6.076,6.076,0,0,0,39.068,23.1c-.014,4.409-.232,8.019-3.44,11.656Zm-7.749-2.47a6.938,6.938,0,0,1-2.439.5,6.967,6.967,0,0,1-2.442-.5c-3.718-1.38-7.016-5.3-7.542-8.76v-.007a6.23,6.23,0,0,1-.074-.929V18.192a68.116,68.116,0,0,0,10.045.784h.028A68.111,68.111,0,0,0,35.5,18.192v4.394a6.233,6.233,0,0,1-.074.93v.006c-.527,3.462-3.826,7.381-7.545,8.76Zm2.507.6v.886a4.946,4.946,0,1,1-9.892,0v-.885a12.11,12.11,0,0,0,1.936.93,8.541,8.541,0,0,0,3.01.6,8.506,8.506,0,0,0,3.008-.6,12.115,12.115,0,0,0,1.938-.931ZM38.97,20.336a3.48,3.48,0,0,1-1.833,2.1V17.869q.669-.152,1.271-.325A3.151,3.151,0,0,1,38.97,20.336ZM15.377,8.428h8.9a.819.819,0,1,0,0-1.638H16.21a10.846,10.846,0,0,1,18.463,0H27.783a.819.819,0,1,0,0,1.638h7.722a10.769,10.769,0,0,1,.758,3.242H14.62A10.769,10.769,0,0,1,15.377,8.428Zm-6.646,5.04c-.024-.043-.044-.082-.06-.115a7.431,7.431,0,0,1,.945-.045H41.263a7.469,7.469,0,0,1,.943.045c-.016.034-.036.072-.061.116-.927,1.65-4.578,3.66-16.705,3.87-12.127-.21-15.78-2.22-16.708-3.87Zm5.011,4.4v4.567a3.481,3.481,0,0,1-1.835-2.1,3.148,3.148,0,0,1,.563-2.79Q13.073,17.717,13.742,17.868ZM9.9,54.266H3.552a2.527,2.527,0,0,1-.4-.024,2.32,2.32,0,0,1,0-.345L3.64,45.82a7.585,7.585,0,0,1,3.521-5.756c.287.451.6.913.946,1.385,1.034,1.413.777,3.3.5,5.3-.035.256-.184,1.295-.221,1.489a1.39,1.39,0,0,0,.221,1.394,1,1,0,0,0,.744.281,2.946,2.946,0,0,0,.544-.063ZM9.429,40.482A23.348,23.348,0,0,1,8.141,38.53a.846.846,0,0,0-.044-.076l-.009-.013C4.429,32.133,7.056,28.467,9.4,25.2a20.761,20.761,0,0,0,1.779-2.771,5.755,5.755,0,0,0,2.753,1.858,13.891,13.891,0,0,0,4.924,7.469v6.912a9.036,9.036,0,0,1-2.9,6.19,12.29,12.29,0,0,1-5.883,3.281c.021-.126.126-.915.161-1.166C10.525,44.841,10.854,42.427,9.429,40.482ZM39.341,54.266h-27.8V49.427a14.028,14.028,0,0,0,5.245-3.1h6.8a.819.819,0,1,0,0-1.638H18.267a10.023,10.023,0,0,0,2.227-6.021v-.554a6.579,6.579,0,0,0,11.318-2.68s1.6.408,2.341.61v8.645H27.122a.819.819,0,1,0,0,1.638H38.755a.594.594,0,0,1,.586.586Zm6.681,0H40.979V46.911a2.226,2.226,0,0,0-1.405-2.066V37.827c2.615,1.08,5.055,2.525,6.449,4.526V54.266Zm6.3,0H47.66V50.989h4.663Zm0-4.914H47.66V46.723h4.663Zm0-10.222v5.956H47.66V39.129Z" transform="translate(-1.509 0)"/>
          <path id="Trazado_898813" data-name="Trazado 898813" d="M111.621,453.134h-.966a.819.819,0,1,0,0,1.638h.966a.819.819,0,1,0,0-1.638Z" transform="translate(-98.008 -403.658)"/>
        </g>
      </g>
    </g>
  </g>
</svg>
