<svg xmlns="http://www.w3.org/2000/svg" xmlns:xlink="http://www.w3.org/1999/xlink" width="108" height="108" viewBox="0 0 108 108">
  <defs>
    <filter id="Trazado_896985" x="0" y="0" width="108" height="108" filterUnits="userSpaceOnUse">
      <feOffset dy="3" input="SourceAlpha"/>
      <feGaussianBlur stdDeviation="3" result="blur"/>
      <feFlood flood-opacity="0.161"/>
      <feComposite operator="in" in2="blur"/>
      <feComposite in="SourceGraphic"/>
    </filter>
  </defs>
  <g id="Grupo_1110367" data-name="Grupo 1110367" transform="translate(-1167.051 -1534)">
    <g id="Grupo_1110073" data-name="Grupo 1110073" transform="translate(419.27 -2293)">
      <g id="Grupo_1098742" data-name="Grupo 1098742" transform="translate(-446.539 3444.258)">
        <g transform="matrix(1, 0, 0, 1, 1194.32, 382.74)" filter="url(#Trazado_896985)">
          <g id="Trazado_896985-2" data-name="Trazado 896985" transform="translate(9 6)" fill="#84a065" opacity="0.859">
            <path d="M 44.99993896484375 88.5 C 39.12682723999023 88.5 33.4301872253418 87.35007476806641 28.06826400756836 85.08217620849609 C 22.88850212097168 82.89132690429688 18.23627662658691 79.75461578369141 14.2408390045166 75.75916290283203 C 10.24540138244629 71.76372528076172 7.108676433563232 67.11151123046875 4.917826652526855 61.9317512512207 C 2.649926424026489 56.56982421875 1.500001430511475 50.87317657470703 1.500001430511475 45.00006103515625 C 1.500001430511475 39.12682342529297 2.649926424026489 33.4301872253418 4.917826652526855 28.06826210021973 C 7.108676433563232 22.88850021362305 10.24540138244629 18.23628807067871 14.2408390045166 14.24083709716797 C 18.23628807067871 10.24540042877197 22.88850212097168 7.108675003051758 28.06826400756836 4.917825222015381 C 33.4301872253418 2.649924993515015 39.12682723999023 1.5 44.99993896484375 1.5 C 50.87305068969727 1.5 56.5697021484375 2.649924993515015 61.93162536621094 4.917825222015381 C 67.11138916015625 7.108675003051758 71.76360321044922 10.24540042877197 75.75904083251953 14.24083709716797 C 79.75448608398438 18.23627471923828 82.89120483398438 22.88850021362305 85.08205413818359 28.06826210021973 C 87.34995269775391 33.4301872253418 88.4998779296875 39.12682342529297 88.4998779296875 44.99993896484375 C 88.4998779296875 50.87317657470703 87.34995269775391 56.56982421875 85.08205413818359 61.9317512512207 C 82.89120483398438 67.11151123046875 79.75448608398438 71.76372528076172 75.75904083251953 75.75916290283203 C 71.76360321044922 79.75461578369141 67.11138916015625 82.89132690429688 61.93162536621094 85.08217620849609 C 56.5697021484375 87.35007476806641 50.87305068969727 88.5 44.99993896484375 88.5 Z" stroke="none"/>
            <path d="M 44.99993896484375 3 C 39.32865142822266 3 33.82860946655273 4.110054016113281 28.65258026123047 6.299331665039062 C 23.65162658691406 8.414558410644531 19.15966796875 11.44332885742188 15.30149841308594 15.30149841308594 C 11.44332122802734 19.15966796875 8.41455078125 23.65162658691406 6.299324035644531 28.65258407592773 C 4.110054016113281 33.82861328125 2.999992370605469 39.32865524291992 2.999992370605469 45.00005722045898 C 2.999992370605469 50.67134475708008 4.110054016113281 56.17138671875 6.299324035644531 61.347412109375 C 8.41455078125 66.34837341308594 11.44332122802734 70.84033203125 15.30149841308594 74.69850158691406 C 19.15966796875 78.55667114257812 23.65162658691406 81.58544158935547 28.65258026123047 83.70066833496094 C 33.82860946655273 85.88994598388672 39.32865142822266 87 44.99993896484375 87 C 50.67122650146484 87 56.17126846313477 85.88994598388672 61.34729766845703 83.70066833496094 C 66.34825134277344 81.58544158935547 70.8402099609375 78.55667114257812 74.69837951660156 74.69850158691406 C 78.55654907226562 70.84033203125 81.5853271484375 66.34837341308594 83.70055389404297 61.347412109375 C 85.88982391357422 56.17138671875 86.9998779296875 50.67134475708008 86.9998779296875 44.99994277954102 C 86.9998779296875 39.32865524291992 85.88982391357422 33.82861328125 83.70055389404297 28.65258407592773 C 81.5853271484375 23.65162658691406 78.55654907226562 19.15966796875 74.69837951660156 15.30149841308594 C 70.8402099609375 11.44332885742188 66.34825134277344 8.414558410644531 61.34729766845703 6.299331665039062 C 56.17126846313477 4.110054016113281 50.67122650146484 3 44.99993896484375 3 M 44.99993896484375 0 C 69.85272216796875 0 89.99988555908203 20.14715576171875 89.99988555908203 44.99994277954102 L 89.99988555908203 45.00005722045898 C 89.99988555908203 69.85284423828125 69.85272216796875 90 44.99993896484375 90 C 20.14715576171875 90 -7.62939453125e-06 69.85284423828125 -7.62939453125e-06 45.00005722045898 L -7.62939453125e-06 44.99994277954102 C -7.62939453125e-06 20.14715576171875 20.14715576171875 0 44.99993896484375 0 Z" stroke="none" fill="#fff"/>
          </g>
        </g>
        <g id="Rectángulo_400907" data-name="Rectángulo 400907" transform="translate(1203.32 388.742)" fill="none" stroke="#fff" stroke-width="3">
          <rect width="90" height="90" rx="45" stroke="none"/>
          <rect x="1.5" y="1.5" width="87" height="87" rx="43.5" fill="none"/>
        </g>
      </g>
    </g>
    <g id="economico22" transform="translate(1165.192 1556.001)">
      <g id="Grupo_1110366" data-name="Grupo 1110366" transform="translate(33.905 13.117)">
        <g id="Grupo_1110363" data-name="Grupo 1110363" transform="translate(0 25.875)">
          <path id="Trazado_898814" data-name="Trazado 898814" d="M85.048,353.346l2.876,10.735a17.913,17.913,0,0,1,1.9-1.408,5.921,5.921,0,0,1,2.107-.917,5.447,5.447,0,0,1,2.44.063h0l5.838,1.338a4.993,4.993,0,0,0,3.76-.5l14.6-8.429a2.735,2.735,0,0,0-2.735-4.738l-10.168,5.87c.008-.025.015-.051.022-.077a3.038,3.038,0,0,0-2.125-3.714L93.37,348.8a4.788,4.788,0,0,0-3.665.978Z" transform="translate(-82.173 -348.753)" fill="#ffd6bd" fill-rule="evenodd"/>
          <path id="Trazado_898815" data-name="Trazado 898815" d="M187.546,402.516a3.039,3.039,0,0,0,3.459-1.487,3,3,0,0,1-.1.7,3.034,3.034,0,0,1-3.714,2.125c-1.984-.542-3.971-1.064-5.958-1.6a.7.7,0,0,1,.36-1.345C183.572,401.445,185.553,401.974,187.546,402.516Z" transform="translate(-167.387 -395.194)" fill="#f9c6aa" fill-rule="evenodd"/>
          <path id="Trazado_898816" data-name="Trazado 898816" d="M107.43,375.757l.431,1.609a17.914,17.914,0,0,1,1.9-1.408,5.921,5.921,0,0,1,2.107-.917,5.447,5.447,0,0,1,2.44.063h0l5.838,1.338a4.993,4.993,0,0,0,3.76-.5l14.6-8.429a2.743,2.743,0,0,0,1-3.736q-.034-.059-.07-.115a2.739,2.739,0,0,1-1.362,2.242l-14.6,8.43a4.993,4.993,0,0,1-3.76.5l-5.838-1.338h0a5.447,5.447,0,0,0-2.44-.063,5.918,5.918,0,0,0-2.106.917,17.918,17.918,0,0,0-1.9,1.408Z" transform="translate(-102.11 -362.038)" fill="#f9c6aa" fill-rule="evenodd"/>
          <path id="Trazado_898817" data-name="Trazado 898817" d="M62.345,366.333l3.516,13.122a.6.6,0,0,1-.426.738l-2.425.65a.6.6,0,0,1-.738-.426l-3.516-13.122a.6.6,0,0,1,.426-.738l2.425-.65A.6.6,0,0,1,62.345,366.333Z" transform="translate(-58.736 -364.015)" fill="#64b5f6" fill-rule="evenodd"/>
          <path id="Trazado_898818" data-name="Trazado 898818" d="M62.345,366.333l.041.153-2.271.609a.6.6,0,0,0-.426.738l3.475,12.97-.154.041a.6.6,0,0,1-.738-.426l-3.516-13.122a.6.6,0,0,1,.426-.738l2.425-.65A.6.6,0,0,1,62.345,366.333Z" transform="translate(-58.736 -364.015)" fill="#42a5f5" fill-rule="evenodd"/>
        </g>
        <g id="Grupo_1110365" data-name="Grupo 1110365" transform="translate(9.074)">
          <circle id="Elipse_12357" data-name="Elipse 12357" cx="12.477" cy="12.477" r="12.477" fill="#fdb800"/>
          <path id="Trazado_898819" data-name="Trazado 898819" d="M186.629,139.162a12.477,12.477,0,1,1-17.588,17.588,12.477,12.477,0,0,0,17.588-17.588Z" transform="translate(-166.064 -136.185)" fill="#f4a40e" fill-rule="evenodd"/>
          <ellipse id="Elipse_12358" data-name="Elipse 12358" cx="8.709" cy="8.709" rx="8.709" ry="8.709" transform="translate(3.505 20.898) rotate(-88.224)" fill="#ffda2d"/>
          <g id="Grupo_1110364" data-name="Grupo 1110364" transform="translate(3.769 3.768)">
            <path id="Trazado_898820" data-name="Trazado 898820" d="M185,146.408a8.685,8.685,0,0,1,6.377,2.778,8.709,8.709,0,0,0-11.537,12.946A8.709,8.709,0,0,1,185,146.408Z" transform="translate(-176.288 -146.408)" fill="#ffc700" fill-rule="evenodd"/>
            <path id="Trazado_898821" data-name="Trazado 898821" d="M224.993,178.453a.874.874,0,0,1,1.748,0v.725a2.726,2.726,0,0,1,1.671,1.068A.873.873,0,0,1,227,181.269a.96.96,0,0,0-.336-.293.931.931,0,0,0-.427-.1h-.571a.94.94,0,0,0,0,1.879h.405a2.688,2.688,0,0,1,.671,5.29v.761a.874.874,0,0,1-1.748,0v-.725a2.727,2.727,0,0,1-1.671-1.068.873.873,0,1,1,1.413-1.024.96.96,0,0,0,.336.293.931.931,0,0,0,.427.1h.571a.939.939,0,0,0,0-1.879h-.405a2.688,2.688,0,0,1-.671-5.29Z" transform="translate(-217.876 -174.173)" fill="#ffc700" fill-rule="evenodd"/>
          </g>
        </g>
      </g>
      <path id="Trazado_898822" data-name="Trazado 898822" d="M52.568,23.784a2.692,2.692,0,0,1,2.015-2.6v-.76a.874.874,0,1,1,1.748,0v.724A2.7,2.7,0,0,1,58,22.213a.874.874,0,1,1-1.417,1.024.942.942,0,0,0-.762-.393h-.57a.939.939,0,1,0,0,1.879h.406a2.688,2.688,0,0,1,.671,5.29v.761a.874.874,0,0,1-1.748,0V30.05a2.711,2.711,0,0,1-1.673-1.068.874.874,0,0,1,1.417-1.025.943.943,0,0,0,.762.394h.571a.94.94,0,0,0,0-1.879h-.406a2.69,2.69,0,0,1-2.687-2.687Zm2.89-6.022A7.835,7.835,0,1,0,63.292,25.6a7.844,7.844,0,0,0-7.835-7.835Zm0,17.418A9.583,9.583,0,1,0,45.875,25.6,9.593,9.593,0,0,0,55.458,35.18Zm0-21.186a11.6,11.6,0,1,0,11.6,11.6,11.617,11.617,0,0,0-11.6-11.6Zm0,24.954A13.351,13.351,0,1,0,42.106,25.6,13.367,13.367,0,0,0,55.458,38.949ZM80.054,25.6a.883.883,0,0,1-.294.657L77.787,27.98a.873.873,0,1,1-1.149-1.316l.222-.193h-4.37a.874.874,0,1,1,0-1.748h4.37l-.222-.193a.873.873,0,1,1,1.149-1.315L79.76,24.94a.884.884,0,0,1,.294.657ZM66.883,14.172a.872.872,0,0,1,0-1.236l3.088-3.088-.293.02a.874.874,0,0,1-.116-1.745l2.613-.173a.873.873,0,0,1,.93.93l-.174,2.613a.874.874,0,0,1-.871.816l-.059,0a.873.873,0,0,1-.814-.93l.02-.292-3.089,3.088a.873.873,0,0,1-1.236,0ZM33.128,27.98l-1.971-1.725a.874.874,0,0,1,0-1.316l1.971-1.725a.874.874,0,0,1,1.151,1.315l-.221.193h4.368a.874.874,0,1,1,0,1.748H34.059l.221.193A.874.874,0,0,1,33.7,28.2a.865.865,0,0,1-.575-.216Zm4.681-19.1a.875.875,0,0,1,.93-.93l2.613.173a.874.874,0,0,1-.116,1.745l-.293-.02,3.089,3.088A.874.874,0,0,1,42.8,14.172l-3.088-3.088.019.292a.873.873,0,0,1-.814.93l-.059,0a.874.874,0,0,1-.871-.816ZM53.075,3.267,54.8,1.3a.874.874,0,0,1,1.316,0l1.725,1.97a.874.874,0,0,1-1.316,1.152L56.332,4.2V8.566a.874.874,0,0,1-1.748,0V4.2l-.193.221a.874.874,0,1,1-1.316-1.152Zm16.3,40.6-14.4,8.316a4.067,4.067,0,0,1-3.077.394l-5.759-1.32a6.18,6.18,0,0,0-4.932.814L38.773,43.01,41.7,40.77a3.272,3.272,0,0,1,2.855-.816L54.608,42.69A2.111,2.111,0,0,1,53.5,46.764L48.128,45.3a.874.874,0,1,0-.459,1.686l5.372,1.462a3.852,3.852,0,0,0,4.423-1.916L67.55,40.712a1.834,1.834,0,0,1,2.493.667A1.827,1.827,0,0,1,69.375,43.872ZM38.167,54.908l1.851-.5L36.694,42.005l-1.851.5ZM69.387,38.845a3.568,3.568,0,0,1,.863,6.541L55.844,53.7a5.592,5.592,0,0,1-2.838.761,6.723,6.723,0,0,1-1.5-.177l-5.76-1.321a4.579,4.579,0,0,0-4.062.9l.1.368a1.47,1.47,0,0,1-1.038,1.8l-2.394.641a1.467,1.467,0,0,1-1.8-1.038L33.081,42.684a1.471,1.471,0,0,1,1.039-1.8l2.393-.641a1.467,1.467,0,0,1,1.767.941l2.355-1.8a4.977,4.977,0,0,1,4.377-1.115L55.068,41a3.866,3.866,0,0,1,2.818,3.27L66.677,39.2A3.546,3.546,0,0,1,69.387,38.845Z" fill-rule="evenodd"/>
    </g>
  </g>
</svg>
