<svg xmlns="http://www.w3.org/2000/svg" xmlns:xlink="http://www.w3.org/1999/xlink" width="52.367" height="73" viewBox="0 0 52.367 73">
  <defs>
    <filter id="Rect치ngulo_402475" x="0" y="0" width="40" height="73" filterUnits="userSpaceOnUse">
      <feOffset dy="3" input="SourceAlpha"/>
      <feGaussianBlur stdDeviation="3" result="blur"/>
      <feFlood flood-opacity="0.161"/>
      <feComposite operator="in" in2="blur"/>
      <feComposite in="SourceGraphic"/>
    </filter>
  </defs>
  <g id="Grupo_1110454" data-name="Grupo 1110454" transform="translate(-183 -1107)">
    <g transform="matrix(1, 0, 0, 1, 183, 1107)" filter="url(#Rect치ngulo_402475)">
      <rect id="Rect치ngulo_402475-2" data-name="Rect치ngulo 402475" width="22" height="55" rx="11" transform="translate(9 6)" fill="#6a8051"/>
    </g>
    <g id="_26-Lumberjack" data-name="26-Lumberjack" transform="translate(187.617 1118)">
      <path id="Trazado_898080" data-name="Trazado 898080" d="M38.188,20.562V25.25a3.906,3.906,0,0,1-3.906,3.906H24.906A3.906,3.906,0,0,1,21,25.25V19a2.3,2.3,0,0,1,2.344,2.344v3.125a8.437,8.437,0,0,1,6.25-3.125,8.438,8.438,0,0,1,6.25,3.125V21.344A2.3,2.3,0,0,1,38.188,19Z" transform="translate(-3.719 -4.156)" fill="#966857"/>
      <path id="Trazado_898081" data-name="Trazado 898081" d="M34.281,28.906H24.906A3.906,3.906,0,0,1,21,25v1.563a3.906,3.906,0,0,0,3.906,3.906h9.375a3.906,3.906,0,0,0,3.906-3.906V25a3.906,3.906,0,0,1-3.906,3.906Z" transform="translate(-3.719 -5.469)" fill="#7e584d"/>
      <g id="Grupo_1109867" data-name="Grupo 1109867" transform="translate(14.937 12.5)">
        <path id="Trazado_898082" data-name="Trazado 898082" d="M20.344,18.344v1.563h-.781A1.567,1.567,0,0,1,18,18.344V16h2.344Z" transform="translate(-18 -16)" fill="#faa68e"/>
        <path id="Trazado_898083" data-name="Trazado 898083" d="M45.344,18.344a1.567,1.567,0,0,1-1.562,1.563H43V16h2.344Z" transform="translate(-23.469 -16)" fill="#faa68e"/>
        <path id="Trazado_898084" data-name="Trazado 898084" d="M34.25,32v1.563a3.125,3.125,0,0,1-6.25,0V32Z" transform="translate(-20.188 -19.5)" fill="#faa68e"/>
      </g>
      <path id="Trazado_898085" data-name="Trazado 898085" d="M38.188,15.125v2.344a2.3,2.3,0,0,0-2.344,2.344v3.125a8.438,8.438,0,0,0-6.25-3.125,8.438,8.438,0,0,0-6.25,3.125V19.813A2.3,2.3,0,0,0,21,17.469V14.031C22.648,13.391,26.586,12,29.594,12s6.945,1.391,8.594,2.031Z" transform="translate(-3.719 -2.625)" fill="#ffcdbe"/>
      <path id="Trazado_898086" data-name="Trazado 898086" d="M29.594,12c-3.008,0-6.945,1.391-8.594,2.031v1.563c1.648-.641,5.586-2.031,8.594-2.031s6.945,1.391,8.594,2.031V14.031C36.539,13.391,32.6,12,29.594,12Z" transform="translate(-3.719 -2.625)" fill="#ffbeaa"/>
      <path id="Trazado_898087" data-name="Trazado 898087" d="M43.125,42v4.687H40V42h3.125Z" transform="translate(-7.875 -9.188)" fill="#cfcfcf"/>
      <path id="Trazado_898088" data-name="Trazado 898088" d="M34.492,47.594A5.8,5.8,0,0,1,33,43.688,5.859,5.859,0,0,1,35.344,39l2.25,1.688.875.656v4.688l-3.125,2.344A4.812,4.812,0,0,1,34.492,47.594Z" transform="translate(-6.344 -8.531)" fill="#f0f0f0"/>
      <path id="Trazado_898089" data-name="Trazado 898089" d="M43.125,49.563v5.469H40V48h3.125Z" transform="translate(-7.875 -10.5)" fill="#b2876d"/>
      <path id="Trazado_898090" data-name="Trazado 898090" d="M24.688,46v3.125H20V46h4.688Z" transform="translate(-3.5 -10.063)" fill="#9c9c9c"/>
      <path id="Trazado_898091" data-name="Trazado 898091" d="M24.125,34.1v9.3H21V34.366C22.148,34.233,23.234,34.147,24.125,34.1Z" transform="translate(-3.719 -7.459)" fill="#b2876d"/>
      <path id="Trazado_898092" data-name="Trazado 898092" d="M38.974,39.491V34.1c.891.047,1.977.133,3.125.266v5.906H39.755l-.875-.656Z" transform="translate(-7.63 -7.459)" fill="#b2876d"/>
      <path id="Trazado_898093" data-name="Trazado 898093" d="M13.25,54.563v6.25H7c0-2.852.141-5.477.352-7.812h5.9Z" transform="translate(-0.656 -11.594)" fill="#ffcdbe"/>
      <path id="Trazado_898094" data-name="Trazado 898094" d="M52.625,60.813H39.344a2.344,2.344,0,0,1,0-4.687h7.031V53h5.9C52.484,55.336,52.625,57.961,52.625,60.813Z" transform="translate(-7.219 -11.594)" fill="#ffcdbe"/>
      <path id="Trazado_898095" data-name="Trazado 898095" d="M41.688,60.563H39.344A2.334,2.334,0,0,1,37.144,59a2.3,2.3,0,0,0-.144.781,2.344,2.344,0,0,0,2.344,2.344H52.625c0-.531-.009-1.047-.019-1.562Z" transform="translate(-7.219 -12.906)" fill="#ffbeaa"/>
      <path id="Trazado_898096" data-name="Trazado 898096" d="M47.906,53.906v1.563H44V50S44,53.906,47.906,53.906Z" transform="translate(-8.75 -10.938)" fill="#966857"/>
      <path id="Trazado_898097" data-name="Trazado 898097" d="M34.531,48v7.031a2.344,2.344,0,0,0,0,4.688H15v-6.25c3.906,0,3.906-3.906,3.906-3.906H30.555a4.812,4.812,0,0,0,.852.781Z" transform="translate(-2.406 -10.5)" fill="#966857"/>
      <path id="Trazado_898098" data-name="Trazado 898098" d="M7.469,47h5.344v4.687H6.563A1.567,1.567,0,0,1,5,50.125V48.563A1.567,1.567,0,0,1,6.563,47Z" transform="translate(-0.219 -10.281)" fill="#d9d9d9"/>
      <path id="Trazado_898099" data-name="Trazado 898099" d="M6.563,50.563A1.567,1.567,0,0,1,5,49v1.563a1.567,1.567,0,0,0,1.563,1.563h6.25V50.563Z" transform="translate(-0.219 -10.719)" fill="#c1c1c1"/>
      <path id="Trazado_898100" data-name="Trazado 898100" d="M56.813,48.563v1.563a1.567,1.567,0,0,1-1.562,1.563H49V47h6.25A1.567,1.567,0,0,1,56.813,48.563Z" transform="translate(-9.844 -10.281)" fill="#d9d9d9"/>
      <path id="Trazado_898101" data-name="Trazado 898101" d="M55.25,50.563H49v1.563h6.25a1.567,1.567,0,0,0,1.563-1.562V49a1.567,1.567,0,0,1-1.562,1.563Z" transform="translate(-9.844 -10.719)" fill="#c1c1c1"/>
      <path id="Trazado_898102" data-name="Trazado 898102" d="M8.16,45.031A54.6,54.6,0,0,1,9.6,38L13.5,41.906v3.125Z" transform="translate(-0.91 -8.313)" fill="#c5305b"/>
      <path id="Trazado_898103" data-name="Trazado 898103" d="M18.594,34.44v9.031h-.781V46.6s0,3.906-3.906,3.906V41.128L10,37.221C11.625,35.6,15.375,34.815,18.594,34.44Z" transform="translate(-1.313 -7.534)" fill="#f56b70"/>
      <path id="Trazado_898104" data-name="Trazado 898104" d="M33.594,37.906a5.859,5.859,0,0,0-2.344,4.688A5.8,5.8,0,0,0,32.742,46.5H25.781V43.375H25v-9.3C26.406,34,27.344,34,27.344,34a3.125,3.125,0,0,0,6.25,0s.938,0,2.344.078v5.391l-.094.125Z" transform="translate(-4.594 -7.438)" fill="#f56b70"/>
      <path id="Trazado_898105" data-name="Trazado 898105" d="M51.594,37.221l-3.906,3.906V50.5c-3.906,0-3.906-3.906-3.906-3.906v-6.25H43V34.44C46.219,34.815,49.969,35.6,51.594,37.221Z" transform="translate(-8.531 -7.534)" fill="#f56b70"/>
      <path id="Trazado_898106" data-name="Trazado 898106" d="M54.344,45.031H49V41.906L52.906,38a54.6,54.6,0,0,1,1.438,7.031Z" transform="translate(-9.844 -8.313)" fill="#c5305b"/>
      <path id="Trazado_898107" data-name="Trazado 898107" d="M36.406,1a20.1,20.1,0,0,1,1.555,7.492c-1.648-.633-5.578-2.023-8.586-2.023C25.469,6.469,20,8.812,20,8.812S20,4.125,21.563,1Z" transform="translate(-3.5 -0.219)" fill="#f19563"/>
      <path id="Trazado_898108" data-name="Trazado 898108" d="M29.375,6c-3.641,0-8.633,2.031-9.3,2.311C20,9.269,20,9.906,20,9.906s5.469-2.344,9.375-2.344c3.008,0,6.938,1.391,8.586,2.023-.009-.331-.035-.9-.1-1.6C36.161,7.338,32.327,6,29.375,6Z" transform="translate(-3.5 -1.313)" fill="#d25242"/>
      <path id="Trazado_898109" data-name="Trazado 898109" d="M39.313,11.906a2.727,2.727,0,0,1-.781,1.563s-.289-.125-.781-.312c-1.648-.641-5.586-2.031-8.594-2.031s-6.945,1.391-8.594,2.031c-.492.188-.781.313-.781.313A2.727,2.727,0,0,1,19,11.906a2.727,2.727,0,0,1,.781-1.562S25.25,8,29.156,8c3.008,0,6.938,1.391,8.586,2.023.5.2.789.32.789.32a2.727,2.727,0,0,1,.781,1.563Z" transform="translate(-3.281 -1.75)" fill="#fdca80"/>
      <path id="Trazado_898110" data-name="Trazado 898110" d="M38.531,12.344s-.289-.125-.781-.312C36.1,11.391,32.164,10,29.156,10s-6.945,1.391-8.594,2.031c-.492.188-.781.313-.781.313a3.594,3.594,0,0,1-.561-.781,1.744,1.744,0,0,0-.22.781,2.727,2.727,0,0,0,.781,1.563s.289-.125.781-.312c1.648-.641,5.586-2.031,8.594-2.031s6.945,1.391,8.594,2.031c.492.188.781.313.781.313a2.727,2.727,0,0,0,.781-1.562,1.744,1.744,0,0,0-.22-.781,3.594,3.594,0,0,1-.561.781Z" transform="translate(-3.281 -2.188)" fill="#f19563"/>
      <path id="Trazado_898111" data-name="Trazado 898111" d="M28.656,61.574H6.781A.781.781,0,0,1,6,60.793c0-2.623.12-5.275.355-7.883l1.556.141c-.208,2.3-.323,4.641-.348,6.961H28.656Z" transform="translate(-0.438 -11.574)"/>
      <path id="Trazado_898112" data-name="Trazado 898112" d="M8.716,43.614l-1.545-.228a55.077,55.077,0,0,1,1.462-7.142.781.781,0,0,1,.2-.327c2.841-2.842,11.21-3.276,13.834-3.342V31h1.563v2.344a.781.781,0,0,1-.781.781c-2.9,0-10.83.5-13.37,2.764a57.945,57.945,0,0,0-1.357,6.725Z" transform="translate(-0.694 -6.781)"/>
      <path id="Trazado_898113" data-name="Trazado 898113" d="M52.406,58.158H39.125a3.125,3.125,0,0,1,0-6.25h6.25V41.752A.781.781,0,0,1,45.6,41.2l3.906-3.906,1.1,1.1-3.677,3.677V52.689a.781.781,0,0,1-.781.781H39.125a1.562,1.562,0,0,0,0,3.125h12.5c-.022-2.32-.137-4.659-.345-6.961l1.556-.141c.234,2.608.355,5.26.355,7.883a.781.781,0,0,1-.784.781Z" transform="translate(-7 -8.158)"/>
      <path id="Trazado_898114" data-name="Trazado 898114" d="M50.509,43.614a57.944,57.944,0,0,0-1.357-6.725c-2.54-2.261-10.473-2.764-13.37-2.764A.781.781,0,0,1,35,33.344V31h1.563v1.574c2.623.066,10.992.5,13.834,3.342a.781.781,0,0,1,.2.327,55.079,55.079,0,0,1,1.462,7.142Z" transform="translate(-6.781 -6.781)"/>
      <path id="Trazado_898115" data-name="Trazado 898115" d="M14.533,57.377H12.97v-15.3L9.293,38.4l1.1-1.1L14.3,41.2a.781.781,0,0,1,.229.552Z" transform="translate(-1.158 -8.158)"/>
      <path id="Trazado_898116" data-name="Trazado 898116" d="M34.063,28.844H24.688A4.692,4.692,0,0,1,20,24.156V14h1.563V24.156a3.125,3.125,0,0,0,3.125,3.125h9.375a3.125,3.125,0,0,0,3.125-3.125V14H38.75V24.156A4.692,4.692,0,0,1,34.063,28.844Z" transform="translate(-3.5 -3.063)"/>
      <path id="Trazado_898117" data-name="Trazado 898117" d="M38.313,14.031A.773.773,0,0,1,38,13.968c-.053-.023-5.37-2.28-9.067-2.28s-9.014,2.258-9.067,2.28a.781.781,0,0,1-.859-.166A3.437,3.437,0,0,1,18,11.688a3.437,3.437,0,0,1,1.01-2.115.781.781,0,0,1,.245-.166C19.484,9.309,24.917,7,28.937,7s9.453,2.309,9.683,2.407a.781.781,0,0,1,.245.166,3.437,3.437,0,0,1,1.01,2.115,3.437,3.437,0,0,1-1.01,2.115A.781.781,0,0,1,38.313,14.031Zm-9.375-3.906c3.325,0,7.616,1.579,9.13,2.18a1.307,1.307,0,0,0,.245-.618,1.786,1.786,0,0,0-.459-.907c-.9-.369-5.569-2.218-8.916-2.218s-8.02,1.85-8.916,2.218a1.788,1.788,0,0,0-.459.907,1.31,1.31,0,0,0,.245.618C21.323,11.7,25.613,10.125,28.937,10.125Z" transform="translate(-3.063 -1.531)"/>
      <path id="Trazado_898118" data-name="Trazado 898118" d="M36.969,8.594A21.2,21.2,0,0,0,35.69,1.562H21.841a21.2,21.2,0,0,0-1.279,7.031H19c0-.2.019-4.909,1.645-8.162a.781.781,0,0,1,.7-.432H36.188a.781.781,0,0,1,.7.432c1.622,3.252,1.641,7.962,1.641,8.162Z" transform="translate(-3.281)"/>
      <path id="Trazado_898119" data-name="Trazado 898119" d="M20.125,20.469h-.781A2.344,2.344,0,0,1,17,18.125V15.781A.781.781,0,0,1,17.781,15h2.344v1.563H18.563v1.563a.781.781,0,0,0,.781.781h.781Z" transform="translate(-2.844 -3.281)"/>
      <path id="Trazado_898120" data-name="Trazado 898120" d="M43.781,20.469H43V18.906h.781a.781.781,0,0,0,.781-.781V16.563H43V15h2.344a.781.781,0,0,1,.781.781v2.344A2.344,2.344,0,0,1,43.781,20.469Z" transform="translate(-8.531 -3.281)"/>
      <path id="Trazado_898121" data-name="Trazado 898121" d="M28.688,17.344H27.125a.781.781,0,0,0-1.562,0H24a2.344,2.344,0,0,1,4.688,0Z" transform="translate(-4.375 -3.281)"/>
      <path id="Trazado_898122" data-name="Trazado 898122" d="M38.688,17.344H37.125a.781.781,0,0,0-1.562,0H34a2.344,2.344,0,0,1,4.688,0Z" transform="translate(-6.563 -3.281)"/>
      <path id="Trazado_898123" data-name="Trazado 898123" d="M35.842,25.031a.781.781,0,0,1-.625-.312,7.716,7.716,0,0,0-5.625-2.812,7.715,7.715,0,0,0-5.625,2.812.781.781,0,0,1-1.406-.469V21.125a1.473,1.473,0,0,0-1.568-1.562L21,18a3.037,3.037,0,0,1,3.125,3.125v1.25a8.377,8.377,0,0,1,10.937,0v-1.25A3.037,3.037,0,0,1,38.186,18l.005,1.563a1.473,1.473,0,0,0-1.568,1.562V24.25A.781.781,0,0,1,35.842,25.031Z" transform="translate(-3.717 -3.937)"/>
      <path id="Trazado_898124" data-name="Trazado 898124" d="M31.125,28.125A3.125,3.125,0,0,1,28,25h1.563a1.563,1.563,0,0,0,3.125,0H34.25A3.125,3.125,0,0,1,31.125,28.125Z" transform="translate(-5.25 -5.469)"/>
      <path id="Trazado_898125" data-name="Trazado 898125" d="M12.594,52.25H6.344A2.344,2.344,0,0,1,4,49.906V48.344A2.344,2.344,0,0,1,6.344,46h6.25a.781.781,0,0,1,.781.781v4.687A.781.781,0,0,1,12.594,52.25Zm-6.25-4.687a.781.781,0,0,0-.781.781v1.563a.781.781,0,0,0,.781.781h5.469V47.563Z" transform="translate(0 -10.063)"/>
      <path id="Trazado_898126" data-name="Trazado 898126" d="M55.031,52.25h-6.25A.781.781,0,0,1,48,51.469V46.781A.781.781,0,0,1,48.781,46h6.25a2.344,2.344,0,0,1,2.344,2.344v1.563A2.344,2.344,0,0,1,55.031,52.25Zm-5.469-1.562h5.469a.781.781,0,0,0,.781-.781V48.344a.781.781,0,0,0-.781-.781H49.563Z" transform="translate(-9.625 -10.063)"/>
      <path id="Trazado_898127" data-name="Trazado 898127" d="M24.469,49.688H19.781A.781.781,0,0,1,19,48.906V45.781A.781.781,0,0,1,19.781,45h4.688a.781.781,0,0,1,.781.781v3.125A.781.781,0,0,1,24.469,49.688Zm-3.906-1.562h3.125V46.563H20.563Z" transform="translate(-3.281 -9.844)"/>
      <path id="Trazado_898128" data-name="Trazado 898128" d="M20,34h1.563v9.375H20Z" transform="translate(-3.5 -7.438)"/>
      <path id="Trazado_898129" data-name="Trazado 898129" d="M24,34h1.563v9.375H24Z" transform="translate(-4.375 -7.438)"/>
      <path id="Trazado_898130" data-name="Trazado 898130" d="M38,34h1.563v5.469H38Z" transform="translate(-7.438 -7.438)"/>
      <path id="Trazado_898131" data-name="Trazado 898131" d="M42,34h1.563v6.25H42Z" transform="translate(-8.313 -7.438)"/>
      <path id="Trazado_898132" data-name="Trazado 898132" d="M30.905,37.9A3.766,3.766,0,0,1,27,34h.781l.781,0a2.344,2.344,0,0,0,4.688,0l1.563,0A3.766,3.766,0,0,1,30.905,37.9Z" transform="translate(-5.03 -7.436)"/>
      <path id="Trazado_898133" data-name="Trazado 898133" d="M15,54.688V53.125A3.03,3.03,0,0,0,18.125,50h1.563A4.52,4.52,0,0,1,15,54.688Z" transform="translate(-2.406 -10.938)"/>
      <path id="Trazado_898134" data-name="Trazado 898134" d="M47.687,54.688A4.52,4.52,0,0,1,43,50h1.563a3.008,3.008,0,0,0,3.125,3.125Z" transform="translate(-8.53 -10.938)"/>
      <path id="Trazado_898135" data-name="Trazado 898135" d="M42.906,47.25H39.781A.781.781,0,0,1,39,46.469V41.781A.781.781,0,0,1,39.781,41h3.125a.781.781,0,0,1,.781.781v4.688A.781.781,0,0,1,42.906,47.25Zm-2.344-1.562h1.563V42.563H40.563Z" transform="translate(-7.656 -8.969)"/>
      <path id="Trazado_898136" data-name="Trazado 898136" d="M35.125,48.937a.781.781,0,0,1-.434-.131,6.641,6.641,0,0,1,0-10.675.781.781,0,0,1,.9.025L38.719,40.5a.781.781,0,0,1,.313.625v4.687a.781.781,0,0,1-.313.625l-3.125,2.344a.781.781,0,0,1-.469.156Zm.022-9.163a5.1,5.1,0,0,0,0,7.389l2.322-1.741V41.516Z" transform="translate(-6.125 -8.312)"/>
      <path id="Trazado_898137" data-name="Trazado 898137" d="M39,48h1.563v7.031H39Z" transform="translate(-7.656 -10.5)"/>
      <path id="Trazado_898138" data-name="Trazado 898138" d="M43,48h1.563v7.031H43Z" transform="translate(-8.531 -10.5)"/>
      <path id="Trazado_898139" data-name="Trazado 898139" d="M26,49h7.031v1.563H26Z" transform="translate(-4.813 -10.719)"/>
    </g>
  </g>
</svg>
