<svg xmlns="http://www.w3.org/2000/svg" xmlns:xlink="http://www.w3.org/1999/xlink" width="108" height="108" viewBox="0 0 108 108">
  <defs>
    <filter id="Trazado_896985" x="0" y="0" width="108" height="108" filterUnits="userSpaceOnUse">
      <feOffset dy="3" input="SourceAlpha"/>
      <feGaussianBlur stdDeviation="3" result="blur"/>
      <feFlood flood-opacity="0.161"/>
      <feComposite operator="in" in2="blur"/>
      <feComposite in="SourceGraphic"/>
    </filter>
  </defs>
  <g id="Grupo_1110266" data-name="Grupo 1110266" transform="translate(-1167.051 -4599)">
    <g id="Grupo_1110054" data-name="Grupo 1110054" transform="translate(419.27 772)">
      <g id="Grupo_1098742" data-name="Grupo 1098742" transform="translate(-446.539 3444.258)">
        <g transform="matrix(1, 0, 0, 1, 1194.32, 382.74)" filter="url(#Trazado_896985)">
          <g id="Trazado_896985-2" data-name="Trazado 896985" transform="translate(9 6)" fill="#84a065" opacity="0.859">
            <path d="M 44.99993896484375 88.5 C 39.12682723999023 88.5 33.4301872253418 87.35007476806641 28.06826400756836 85.08217620849609 C 22.88850212097168 82.89132690429688 18.23627662658691 79.75461578369141 14.2408390045166 75.75916290283203 C 10.24540138244629 71.76372528076172 7.108676433563232 67.11151123046875 4.917826652526855 61.9317512512207 C 2.649926424026489 56.56982421875 1.500001430511475 50.87317657470703 1.500001430511475 45.00006103515625 C 1.500001430511475 39.12682342529297 2.649926424026489 33.4301872253418 4.917826652526855 28.06826210021973 C 7.108676433563232 22.88850021362305 10.24540138244629 18.23628807067871 14.2408390045166 14.24083709716797 C 18.23628807067871 10.24540042877197 22.88850212097168 7.108675003051758 28.06826400756836 4.917825222015381 C 33.4301872253418 2.649924993515015 39.12682723999023 1.5 44.99993896484375 1.5 C 50.87305068969727 1.5 56.5697021484375 2.649924993515015 61.93162536621094 4.917825222015381 C 67.11138916015625 7.108675003051758 71.76360321044922 10.24540042877197 75.75904083251953 14.24083709716797 C 79.75448608398438 18.23627471923828 82.89120483398438 22.88850021362305 85.08205413818359 28.06826210021973 C 87.34995269775391 33.4301872253418 88.4998779296875 39.12682342529297 88.4998779296875 44.99993896484375 C 88.4998779296875 50.87317657470703 87.34995269775391 56.56982421875 85.08205413818359 61.9317512512207 C 82.89120483398438 67.11151123046875 79.75448608398438 71.76372528076172 75.75904083251953 75.75916290283203 C 71.76360321044922 79.75461578369141 67.11138916015625 82.89132690429688 61.93162536621094 85.08217620849609 C 56.5697021484375 87.35007476806641 50.87305068969727 88.5 44.99993896484375 88.5 Z" stroke="none"/>
            <path d="M 44.99993896484375 3 C 39.32865142822266 3 33.82860946655273 4.110054016113281 28.65258026123047 6.299331665039062 C 23.65162658691406 8.414558410644531 19.15966796875 11.44332885742188 15.30149841308594 15.30149841308594 C 11.44332122802734 19.15966796875 8.41455078125 23.65162658691406 6.299324035644531 28.65258407592773 C 4.110054016113281 33.82861328125 2.999992370605469 39.32865524291992 2.999992370605469 45.00005722045898 C 2.999992370605469 50.67134475708008 4.110054016113281 56.17138671875 6.299324035644531 61.347412109375 C 8.41455078125 66.34837341308594 11.44332122802734 70.84033203125 15.30149841308594 74.69850158691406 C 19.15966796875 78.55667114257812 23.65162658691406 81.58544158935547 28.65258026123047 83.70066833496094 C 33.82860946655273 85.88994598388672 39.32865142822266 87 44.99993896484375 87 C 50.67122650146484 87 56.17126846313477 85.88994598388672 61.34729766845703 83.70066833496094 C 66.34825134277344 81.58544158935547 70.8402099609375 78.55667114257812 74.69837951660156 74.69850158691406 C 78.55654907226562 70.84033203125 81.5853271484375 66.34837341308594 83.70055389404297 61.347412109375 C 85.88982391357422 56.17138671875 86.9998779296875 50.67134475708008 86.9998779296875 44.99994277954102 C 86.9998779296875 39.32865524291992 85.88982391357422 33.82861328125 83.70055389404297 28.65258407592773 C 81.5853271484375 23.65162658691406 78.55654907226562 19.15966796875 74.69837951660156 15.30149841308594 C 70.8402099609375 11.44332885742188 66.34825134277344 8.414558410644531 61.34729766845703 6.299331665039062 C 56.17126846313477 4.110054016113281 50.67122650146484 3 44.99993896484375 3 M 44.99993896484375 0 C 69.85272216796875 0 89.99988555908203 20.14715576171875 89.99988555908203 44.99994277954102 L 89.99988555908203 45.00005722045898 C 89.99988555908203 69.85284423828125 69.85272216796875 90 44.99993896484375 90 C 20.14715576171875 90 -7.62939453125e-06 69.85284423828125 -7.62939453125e-06 45.00005722045898 L -7.62939453125e-06 44.99994277954102 C -7.62939453125e-06 20.14715576171875 20.14715576171875 0 44.99993896484375 0 Z" stroke="none" fill="#fff"/>
          </g>
        </g>
        <g id="Rectángulo_400907" data-name="Rectángulo 400907" transform="translate(1203.32 388.742)" fill="none" stroke="#fff" stroke-width="3">
          <rect width="90" height="90" rx="45" stroke="none"/>
          <rect x="1.5" y="1.5" width="87" height="87" rx="43.5" fill="none"/>
        </g>
      </g>
    </g>
    <g id="granjero" transform="translate(1191.051 4620)">
      <g id="Grupo_1110264" data-name="Grupo 1110264" transform="translate(1.931 1.931)">
        <g id="Grupo_1110249" data-name="Grupo 1110249" transform="translate(7.448 34.532)">
          <path id="Trazado_898622" data-name="Trazado 898622" d="M22.941,46.361l1.024-.838,4.655,4.655-.931.931-7.579,7.579A5.925,5.925,0,0,1,10,54.5V47.665a9.047,9.047,0,0,1,.251-2.141,9.225,9.225,0,0,1,1.611-3.445A9.345,9.345,0,0,1,15.67,39.09Z" transform="translate(-10 -39.09)" fill="#b4dd7f"/>
        </g>
        <g id="Grupo_1110250" data-name="Grupo 1110250" transform="translate(13.37 46.552)">
          <path id="Trazado_898623" data-name="Trazado 898623" d="M37.439,61.31H16.36a5.926,5.926,0,0,0,4.19-1.732L28.128,52Z" transform="translate(-16.36 -52)" fill="#b4dd7f"/>
        </g>
        <g id="Grupo_1110251" data-name="Grupo 1110251" transform="translate(27.931 22.345)">
          <path id="Trazado_898624" data-name="Trazado 898624" d="M52.483,39.034V26h7.448V40.9a5.591,5.591,0,0,1-5.586,5.586H41.31V56.724L32,47.414l1.834-1.834a3.241,3.241,0,0,0,.912-1.788l2.691-6.266Z" transform="translate(-32 -26)" fill="#b4dd7f"/>
        </g>
        <g id="Grupo_1110252" data-name="Grupo 1110252" transform="translate(17.643 32.586)">
          <path id="Trazado_898625" data-name="Trazado 898625" d="M25.652,37l4.655,3.752a3.175,3.175,0,0,0-1.862.9h-.931a2.786,2.786,0,0,0-1.974.819l-4.59-4.59Z" transform="translate(-20.95 -37)" fill="#a0d468"/>
        </g>
        <g id="Grupo_1110253" data-name="Grupo 1110253" transform="translate(27 33.517)">
          <path id="Trazado_898626" data-name="Trazado 898626" d="M37.368,38.354,34.678,44.62a3.4,3.4,0,0,0,.047-.531,3.306,3.306,0,0,0-3.3-3.3h-.047a2.633,2.633,0,0,0-.382.028L33.793,38Z" transform="translate(-31 -38)" fill="#a0d468"/>
        </g>
        <g id="Grupo_1110254" data-name="Grupo 1110254" transform="translate(13.034)">
          <path id="Trazado_898627" data-name="Trazado 898627" d="M38.838,6.739l1.369,4.571H16l.931-4.646a5.8,5.8,0,0,1,8.91-3.687,2.728,2.728,0,0,0,1.527.466,2.786,2.786,0,0,0,1.238-.3l.884-.447a6.656,6.656,0,0,1,9.348,4.041Z" transform="translate(-16 -2)" fill="#cf9e76"/>
        </g>
        <g id="Grupo_1110255" data-name="Grupo 1110255" transform="translate(9.31 9.31)">
          <path id="Trazado_898628" data-name="Trazado 898628" d="M44.586,12.931v1.862a.934.934,0,0,1-.931.931H12.931A.934.934,0,0,1,12,14.793V12.931A.934.934,0,0,1,12.931,12H43.655A.934.934,0,0,1,44.586,12.931Z" transform="translate(-12 -12)" fill="#b27946"/>
        </g>
        <g id="Grupo_1110256" data-name="Grupo 1110256" transform="translate(0 24.207)">
          <path id="Trazado_898629" data-name="Trazado 898629" d="M11.31,34.517v6.8A9.225,9.225,0,0,0,9.7,44.759H2.931A.934.934,0,0,1,2,43.828V33.586A5.591,5.591,0,0,1,7.586,28h2.793a2.8,2.8,0,0,0-2.793,2.793Z" transform="translate(-2 -28)" fill="#e6e9ed"/>
        </g>
        <g id="Grupo_1110257" data-name="Grupo 1110257" transform="translate(5.586 24.207)">
          <path id="Trazado_898630" data-name="Trazado 898630" d="M23.828,43.828v.931L22.8,45.6l-7.271-7.271-3.808-3.808L8,30.793A2.8,2.8,0,0,1,10.793,28l9.264,9.264,4.59,4.59a2.786,2.786,0,0,0-.819,1.974Z" transform="translate(-8 -28)" fill="#d3a06c"/>
        </g>
        <g id="Grupo_1110258" data-name="Grupo 1110258" transform="translate(25.138 43.758)">
          <path id="Trazado_898631" data-name="Trazado 898631" d="M31.793,49l9.31,9.31A2.8,2.8,0,0,1,38.31,61.1L29,51.793l.931-.931Z" transform="translate(-29 -49)" fill="#d3a06c"/>
        </g>
        <g id="Grupo_1110259" data-name="Grupo 1110259" transform="translate(13.034 13.034)">
          <path id="Trazado_898632" data-name="Trazado 898632" d="M26.241,16l-.931,3.724h-.689a3.036,3.036,0,0,0-3.035,3.035v.056a3.109,3.109,0,0,0,1.238,2.5c1.089.81,2.486,1.862,2.486,1.862V33.69L22.35,31.623A14.923,14.923,0,0,1,16,19.417V16Z" transform="translate(-16 -16)" fill="#656d78"/>
        </g>
        <g id="Grupo_1110260" data-name="Grupo 1110260" transform="translate(46.552 13.034)">
          <path id="Trazado_898633" data-name="Trazado 898633" d="M61.31,19.724V25.31H53.862L52.791,24.24A2.7,2.7,0,0,1,53.5,19.91l.363-.186a3.724,3.724,0,1,1,7.448,0Z" transform="translate(-52 -16)" fill="#f0d0b4"/>
        </g>
        <g id="Grupo_1110261" data-name="Grupo 1110261" transform="translate(21.414 36.31)">
          <path id="Trazado_898634" data-name="Trazado 898634" d="M34.31,44.3a3.4,3.4,0,0,1-.047.531,3.241,3.241,0,0,1-.912,1.788l-1.834,1.834L29.655,50.31,25,45.655v-.931a2.8,2.8,0,0,1,2.793-2.793h.931a3.175,3.175,0,0,1,1.862-.9A2.633,2.633,0,0,1,30.968,41h.047a3.306,3.306,0,0,1,3.3,3.3Z" transform="translate(-25 -41)" fill="#f0d0b4"/>
        </g>
        <g id="Grupo_1110262" data-name="Grupo 1110262" transform="translate(18.621 13.034)">
          <path id="Trazado_898635" data-name="Trazado 898635" d="M40.621,28.1a5.591,5.591,0,0,1-5.586,5.586H33.172v2.793L30.379,39.3l-4.655-3.752V27.172s-1.4-1.052-2.486-1.862A3.109,3.109,0,0,1,22,22.815v-.056a3.036,3.036,0,0,1,3.035-3.035h.689L26.655,16H40.621a17.741,17.741,0,0,1,1.853,7.215l-.009.009a2.769,2.769,0,0,0-1.843-.708,4.641,4.641,0,0,0-4.655,4.655.934.934,0,0,0,.931.931h3.724Z" transform="translate(-22 -16)" fill="#f0d0b4"/>
        </g>
        <g id="Grupo_1110263" data-name="Grupo 1110263" transform="translate(32.586 19.552)">
          <path id="Trazado_898636" data-name="Trazado 898636" d="M40.724,28.586H37.931A.934.934,0,0,1,37,27.655,4.641,4.641,0,0,1,41.655,23a2.769,2.769,0,0,1,1.843.708.751.751,0,0,1,.13.112,2.786,2.786,0,0,1,.819,1.974v1.862a.934.934,0,0,1-.931.931H40.724Z" transform="translate(-37 -23)" fill="#aab2bd"/>
        </g>
      </g>
      <g id="Grupo_1110265" data-name="Grupo 1110265" transform="translate(1 1)">
        <path id="Trazado_898637" data-name="Trazado 898637" d="M37.793,21.793A2.8,2.8,0,0,0,40.586,19H38.724a.931.931,0,1,1-1.862,0H35A2.8,2.8,0,0,0,37.793,21.793Z" transform="translate(-3.345 -2.241)"/>
        <path id="Trazado_898638" data-name="Trazado 898638" d="M20,7h3.724V8.862H20Z" transform="translate(-2.31 -1.414)"/>
        <path id="Trazado_898639" data-name="Trazado 898639" d="M26,7h1.862V8.862H26Z" transform="translate(-2.724 -1.414)"/>
        <path id="Trazado_898640" data-name="Trazado 898640" d="M32,5h3.724V6.862H32Z" transform="translate(-3.138 -1.276)"/>
        <path id="Trazado_898641" data-name="Trazado 898641" d="M54.069,14.034A4.662,4.662,0,0,0,49.451,18.1a3.637,3.637,0,0,0-.834,5.767l.8.8v11.62L32.655,34.606V33.586h.931A6.522,6.522,0,0,0,40.029,28h1.006A1.864,1.864,0,0,0,42.9,26.138V24.276a3.7,3.7,0,0,0-.978-2.493A18.388,18.388,0,0,0,40.592,15.9h2.3a1.864,1.864,0,0,0,1.862-1.862V12.172A1.864,1.864,0,0,0,42.9,10.31H39.865L38.693,6.4A7.534,7.534,0,0,0,31.432,1a7.624,7.624,0,0,0-3.39.8l-.89.445a1.827,1.827,0,0,1-1.828-.114A6.737,6.737,0,0,0,14.981,6.415l-.779,3.9h-2.03a1.864,1.864,0,0,0-1.862,1.862v1.862A1.864,1.864,0,0,0,12.172,15.9h1.862v2.485a15.841,15.841,0,0,0,6.751,12.966l2.559,1.792v.6l-3.462.65L10.7,25.207H7.517A6.524,6.524,0,0,0,1,31.724V41.965a1.864,1.864,0,0,0,1.862,1.862H8.526a10.4,10.4,0,0,0-.077,1.209v6.831A6.864,6.864,0,0,0,15.3,58.724H36.379A3.728,3.728,0,0,0,40.1,55v-9.31h12.1a6.525,6.525,0,0,0,6.517-6.517V18.69a4.66,4.66,0,0,0-4.655-4.655Zm-3.674,5.671.881-.44V18.69a2.793,2.793,0,0,1,5.586,0v4.655H50.73l-.8-.8a1.79,1.79,0,0,1-.52-1.255,1.765,1.765,0,0,1,.981-1.587ZM33.94,36.605l-1.093,2.55a4.246,4.246,0,0,0-1.958-1.543l1.184-1.194ZM28,46.235l-3.724-3.724v-.546A1.864,1.864,0,0,1,26.138,40.1h1.317l.273-.273a2.258,2.258,0,0,1,1.635-.658,2.364,2.364,0,0,1,2.361,2.361,2.341,2.341,0,0,1-.688,1.666Zm11.172-20.1V24.276H37.31v1.862H35.448a3.728,3.728,0,0,1,3.724-3.724,1.864,1.864,0,0,1,1.862,1.862v1.862Zm.775-5.5a3.725,3.725,0,0,0-.775-.084,5.592,5.592,0,0,0-5.586,5.586A1.864,1.864,0,0,0,35.448,28h2.7a4.663,4.663,0,0,1-4.561,3.724H28.931v1.862h1.862v1.478l-1.932,1.949-3.654-2.942v-8.4L22.35,23.53a2.193,2.193,0,0,1-.868-1.8,2.108,2.108,0,0,1,2.108-2.108H25l.931-3.724H38.563a16.539,16.539,0,0,1,1.384,4.739ZM16.807,6.781a4.875,4.875,0,0,1,7.484-3.1,3.693,3.693,0,0,0,3.693.23l.89-.445a5.754,5.754,0,0,1,2.558-.6,5.683,5.683,0,0,1,5.477,4.075l1.012,3.373H16.1Zm-4.635,5.392H42.9v1.862H12.172Zm9.681,17.65A13.977,13.977,0,0,1,15.9,18.381V15.9h8.118l-.466,1.862a3.971,3.971,0,0,0-3.928,4.023,4.01,4.01,0,0,0,1.613,3.238L23.345,26.6v4.263Zm2.172,5.689,3.066,2.468a4.058,4.058,0,0,0-.381.262h-.573a3.675,3.675,0,0,0-1.88.528l-2.78-2.78Zm-1.084,4.574a3.675,3.675,0,0,0-.528,1.88v.49l-.031.025-13.9-13.9A1.866,1.866,0,0,1,9.96,27.1ZM12.172,34.9l1.316,1.316a10.272,10.272,0,0,0-1.316.917Zm-9.31,7.063V31.724a4.646,4.646,0,0,1,4.218-4.611,3.681,3.681,0,0,0-.494,1.818v.385L10.31,33.04v6.11a10.23,10.23,0,0,0-1.391,2.815Zm7.448,9.9V45.037A8.345,8.345,0,0,1,14.871,37.6l6.063,6.063-3.176,2.6v-4.3H15.9v5.822l-3.382,2.767L13.694,52l9.589-7.847,3.4,3.4L18.832,55.4a4.995,4.995,0,0,1-8.522-3.536Zm9.682,4.994c.051-.048.106-.092.156-.142l6.92-6.921,7.063,7.063Zm16.739-.034-8.346-8.346,1.477-1.477,8.346,8.346A1.865,1.865,0,0,1,36.731,56.828Zm15.476-13H40.1V41.965H38.241V52.752l-7.063-7.063,1.174-1.174a4.181,4.181,0,0,0,1.155-2.177l2.374-5.54,14.04,1.4,1.627,1.627,1.316-1.316-1.589-1.588V25.207h5.586V39.172a4.66,4.66,0,0,1-4.655,4.655Z" transform="translate(-1 -1)"/>
      </g>
    </g>
  </g>
</svg>
