<svg xmlns="http://www.w3.org/2000/svg" xmlns:xlink="http://www.w3.org/1999/xlink" width="108" height="108" viewBox="0 0 108 108">
  <defs>
    <filter id="Trazado_896985" x="0" y="0" width="108" height="108" filterUnits="userSpaceOnUse">
      <feOffset dy="3" input="SourceAlpha"/>
      <feGaussianBlur stdDeviation="3" result="blur"/>
      <feFlood flood-opacity="0.161"/>
      <feComposite operator="in" in2="blur"/>
      <feComposite in="SourceGraphic"/>
    </filter>
  </defs>
  <g id="Grupo_1110247" data-name="Grupo 1110247" transform="translate(-325.757 -4599)">
    <g id="Grupo_1110053" data-name="Grupo 1110053" transform="translate(-422.024 772)">
      <g id="Grupo_1098742" data-name="Grupo 1098742" transform="translate(-446.539 3444.258)">
        <g transform="matrix(1, 0, 0, 1, 1194.32, 382.74)" filter="url(#Trazado_896985)">
          <g id="Trazado_896985-2" data-name="Trazado 896985" transform="translate(9 6)" fill="#84a065" opacity="0.859">
            <path d="M 44.99993896484375 88.5 C 39.12682723999023 88.5 33.4301872253418 87.35007476806641 28.06826400756836 85.08217620849609 C 22.88850212097168 82.89132690429688 18.23627662658691 79.75461578369141 14.2408390045166 75.75916290283203 C 10.24540138244629 71.76372528076172 7.108676433563232 67.11151123046875 4.917826652526855 61.9317512512207 C 2.649926424026489 56.56982421875 1.500001430511475 50.87317657470703 1.500001430511475 45.00006103515625 C 1.500001430511475 39.12682342529297 2.649926424026489 33.4301872253418 4.917826652526855 28.06826210021973 C 7.108676433563232 22.88850021362305 10.24540138244629 18.23628807067871 14.2408390045166 14.24083709716797 C 18.23628807067871 10.24540042877197 22.88850212097168 7.108675003051758 28.06826400756836 4.917825222015381 C 33.4301872253418 2.649924993515015 39.12682723999023 1.5 44.99993896484375 1.5 C 50.87305068969727 1.5 56.5697021484375 2.649924993515015 61.93162536621094 4.917825222015381 C 67.11138916015625 7.108675003051758 71.76360321044922 10.24540042877197 75.75904083251953 14.24083709716797 C 79.75448608398438 18.23627471923828 82.89120483398438 22.88850021362305 85.08205413818359 28.06826210021973 C 87.34995269775391 33.4301872253418 88.4998779296875 39.12682342529297 88.4998779296875 44.99993896484375 C 88.4998779296875 50.87317657470703 87.34995269775391 56.56982421875 85.08205413818359 61.9317512512207 C 82.89120483398438 67.11151123046875 79.75448608398438 71.76372528076172 75.75904083251953 75.75916290283203 C 71.76360321044922 79.75461578369141 67.11138916015625 82.89132690429688 61.93162536621094 85.08217620849609 C 56.5697021484375 87.35007476806641 50.87305068969727 88.5 44.99993896484375 88.5 Z" stroke="none"/>
            <path d="M 44.99993896484375 3 C 39.32865142822266 3 33.82860946655273 4.110054016113281 28.65258026123047 6.299331665039062 C 23.65162658691406 8.414558410644531 19.15966796875 11.44332885742188 15.30149841308594 15.30149841308594 C 11.44332122802734 19.15966796875 8.41455078125 23.65162658691406 6.299324035644531 28.65258407592773 C 4.110054016113281 33.82861328125 2.999992370605469 39.32865524291992 2.999992370605469 45.00005722045898 C 2.999992370605469 50.67134475708008 4.110054016113281 56.17138671875 6.299324035644531 61.347412109375 C 8.41455078125 66.34837341308594 11.44332122802734 70.84033203125 15.30149841308594 74.69850158691406 C 19.15966796875 78.55667114257812 23.65162658691406 81.58544158935547 28.65258026123047 83.70066833496094 C 33.82860946655273 85.88994598388672 39.32865142822266 87 44.99993896484375 87 C 50.67122650146484 87 56.17126846313477 85.88994598388672 61.34729766845703 83.70066833496094 C 66.34825134277344 81.58544158935547 70.8402099609375 78.55667114257812 74.69837951660156 74.69850158691406 C 78.55654907226562 70.84033203125 81.5853271484375 66.34837341308594 83.70055389404297 61.347412109375 C 85.88982391357422 56.17138671875 86.9998779296875 50.67134475708008 86.9998779296875 44.99994277954102 C 86.9998779296875 39.32865524291992 85.88982391357422 33.82861328125 83.70055389404297 28.65258407592773 C 81.5853271484375 23.65162658691406 78.55654907226562 19.15966796875 74.69837951660156 15.30149841308594 C 70.8402099609375 11.44332885742188 66.34825134277344 8.414558410644531 61.34729766845703 6.299331665039062 C 56.17126846313477 4.110054016113281 50.67122650146484 3 44.99993896484375 3 M 44.99993896484375 0 C 69.85272216796875 0 89.99988555908203 20.14715576171875 89.99988555908203 44.99994277954102 L 89.99988555908203 45.00005722045898 C 89.99988555908203 69.85284423828125 69.85272216796875 90 44.99993896484375 90 C 20.14715576171875 90 -7.62939453125e-06 69.85284423828125 -7.62939453125e-06 45.00005722045898 L -7.62939453125e-06 44.99994277954102 C -7.62939453125e-06 20.14715576171875 20.14715576171875 0 44.99993896484375 0 Z" stroke="none" fill="#fff"/>
          </g>
        </g>
        <g id="Rectángulo_400907" data-name="Rectángulo 400907" transform="translate(1203.32 388.742)" fill="none" stroke="#fff" stroke-width="3">
          <rect width="90" height="90" rx="45" stroke="none"/>
          <rect x="1.5" y="1.5" width="87" height="87" rx="43.5" fill="none"/>
        </g>
      </g>
    </g>
    <g id="roles" transform="translate(351.83 4606.666)">
      <g id="Grupo_1110238" data-name="Grupo 1110238" transform="translate(38.513 18.425)">
        <path id="Trazado_898598" data-name="Trazado 898598" d="M372.624,47.781l-1.319-.761a6.387,6.387,0,0,0,0-1.961l1.319-.761A1.022,1.022,0,0,0,373,42.9l-1.282-2.222a1.024,1.024,0,0,0-1.4-.374l-1.32.762a6.387,6.387,0,0,0-1.7-.98V38.564a1.023,1.023,0,0,0-1.023-1.023h-2.564a1.023,1.023,0,0,0-1.022,1.023v1.523a6.36,6.36,0,0,0-1.7.98l-1.32-.762a1.022,1.022,0,0,0-1.4.374L357,42.9a1.021,1.021,0,0,0,.374,1.4l1.318.761a6.461,6.461,0,0,0,0,1.961l-1.318.761a1.023,1.023,0,0,0-.374,1.4L358.28,51.4a1.022,1.022,0,0,0,1.4.374L361,51.01a6.339,6.339,0,0,0,1.7.981v1.523a1.022,1.022,0,0,0,1.022,1.022h2.564a1.022,1.022,0,0,0,1.023-1.022V51.991a6.367,6.367,0,0,0,1.7-.981l1.32.762a1.023,1.023,0,0,0,1.4-.374L373,49.178A1.024,1.024,0,0,0,372.624,47.781ZM365,49.419a3.38,3.38,0,1,1,3.38-3.38A3.38,3.38,0,0,1,365,49.419Z" transform="translate(-356.033 -36.714)" fill="#685e68"/>
        <path id="Trazado_898599" data-name="Trazado 898599" d="M360.88,62.207l-1.205-.7a1.022,1.022,0,0,0-1.4.374L357,64.108a1.022,1.022,0,0,0,.374,1.4l1.318.761a6.481,6.481,0,0,0,0,1.961l-1.318.761a1.023,1.023,0,0,0-.374,1.4l1.282,2.221a1.021,1.021,0,0,0,1.4.374l1.205-.7a9.879,9.879,0,0,1,0-10.076Z" transform="translate(-356.032 -57.921)" fill="#554e56"/>
        <path id="Trazado_898600" data-name="Trazado 898600" d="M359.6,48.69h-2.564a1.851,1.851,0,0,1-1.849-1.849V45.86a7.152,7.152,0,0,1-.927-.536l-.85.491a1.848,1.848,0,0,1-2.526-.677l-1.282-2.22a1.851,1.851,0,0,1,.676-2.526l.85-.491c-.013-.179-.02-.357-.02-.535s.007-.357.02-.536l-.85-.491a1.848,1.848,0,0,1-.676-2.526l1.282-2.221a1.849,1.849,0,0,1,2.525-.677l.851.491a7.172,7.172,0,0,1,.926-.535v-.981a1.851,1.851,0,0,1,1.849-1.85H359.6a1.852,1.852,0,0,1,1.85,1.85v.981a7.2,7.2,0,0,1,.926.535l.85-.491a1.85,1.85,0,0,1,2.526.676l1.282,2.222a1.849,1.849,0,0,1-.677,2.526l-.849.49c.013.179.02.358.02.536s-.007.357-.02.535l.849.49a1.853,1.853,0,0,1,.677,2.526l-1.282,2.221a1.857,1.857,0,0,1-1.6.925h0a1.849,1.849,0,0,1-.924-.248l-.849-.49a7.176,7.176,0,0,1-.927.536v.981A1.851,1.851,0,0,1,359.6,48.69Zm-5.284-5.18a.826.826,0,0,1,.52.184,5.506,5.506,0,0,0,1.476.853.827.827,0,0,1,.529.771v1.523a.2.2,0,0,0,.2.2H359.6a.2.2,0,0,0,.2-.2V45.318a.827.827,0,0,1,.528-.771,5.533,5.533,0,0,0,1.477-.854.827.827,0,0,1,.932-.072l1.32.762c.124.027.215.019.268-.072l1.282-2.22a.2.2,0,0,0-.072-.268l-1.318-.761a.827.827,0,0,1-.4-.843,5.56,5.56,0,0,0,0-1.708.827.827,0,0,1,.4-.843l1.319-.761a.2.2,0,0,0,.071-.267l-1.282-2.221a.2.2,0,0,0-.171-.1l-1.416.788a.827.827,0,0,1-.932-.072,5.554,5.554,0,0,0-1.477-.853.827.827,0,0,1-.528-.771V31.891a.2.2,0,0,0-.2-.2h-2.564a.2.2,0,0,0-.2.2v1.523a.827.827,0,0,1-.529.771,5.526,5.526,0,0,0-1.476.853.827.827,0,0,1-.932.072l-1.32-.762c-.124-.026-.215-.019-.267.071l-1.282,2.222a.195.195,0,0,0,.071.267l1.318.761a.827.827,0,0,1,.4.84,5.636,5.636,0,0,0,0,1.712.827.827,0,0,1-.4.841l-1.318.761a.2.2,0,0,0-.072.267l1.282,2.221a.2.2,0,0,0,.17.1l1.417-.789A.826.826,0,0,1,354.318,43.51Z" transform="translate(-349.355 -30.041)"/>
        <path id="Trazado_898601" data-name="Trazado 898601" d="M396.727,84.886a4.206,4.206,0,0,1,0-8.412c.107,0,.213,0,.319.012a.827.827,0,1,1-.13,1.648c-.062,0-.125-.007-.188-.007a2.547,2.547,0,1,0,2.4,1.689.827.827,0,0,1,1.557-.557,4.21,4.21,0,0,1-3.961,5.628Z" transform="translate(-387.762 -71.355)"/>
      </g>
      <path id="Trazado_898602" data-name="Trazado 898602" d="M205.408,362.51v-1.691h3.974a1.654,1.654,0,1,0,0-3.307h-3.974V355.82a.925.925,0,0,0-1.387-.8l-5.793,3.345a.925.925,0,0,0,0,1.6l5.793,3.345A.925.925,0,0,0,205.408,362.51Z" transform="translate(-175.965 -300.657)" fill="#9be69d"/>
      <path id="Trazado_898603" data-name="Trazado 898603" d="M203.393,88.54V86.849H199.42a1.654,1.654,0,0,1,0-3.307h3.974V81.85a.925.925,0,0,1,1.387-.8l5.793,3.345a.925.925,0,0,1,0,1.6l-5.793,3.345A.925.925,0,0,1,203.393,88.54Z" transform="translate(-175.965 -56.889)" fill="#9be69d"/>
      <path id="Trazado_898604" data-name="Trazado 898604" d="M197.809,357.59h0a1.753,1.753,0,0,1-.875-.236l-5.793-3.345a1.752,1.752,0,0,1,0-3.034l5.793-3.345a1.75,1.75,0,0,1,2.628,1.517v.865h3.147a2.48,2.48,0,1,1,0,4.961h-3.147v.864a1.733,1.733,0,0,1-.537,1.262A1.751,1.751,0,0,1,197.809,357.59Zm-5.84-5.013,5.793,3.345.048.015a.112.112,0,0,0,.1-.1v-1.691a.827.827,0,0,1,.827-.827h3.974a.827.827,0,0,0,0-1.654h-3.974a.827.827,0,0,1-.827-.827v-1.692a.1.1,0,0,0-.1-.1l-5.84,3.36-.413.886Z" transform="translate(-169.291 -293.984)"/>
      <path id="Trazado_898605" data-name="Trazado 898605" d="M197.647,83.62a1.755,1.755,0,0,1-1.753-1.753V81h-3.147a2.48,2.48,0,1,1,0-4.961h3.147v-.865a1.75,1.75,0,0,1,2.628-1.517l5.793,3.345a1.752,1.752,0,0,1,0,3.034l-5.793,3.345A1.753,1.753,0,0,1,197.647,83.62Zm-4.9-5.925a.827.827,0,1,0,0,1.654h3.974a.827.827,0,0,1,.827.827v1.691a.1.1,0,0,0,.1.1.092.092,0,0,0,.048-.015l5.792-3.345s0-.17,0-.17l-5.793-3.345c-.067-.015-.147,0-.147.085v1.691a.827.827,0,0,1-.827.827Z" transform="translate(-169.291 -50.216)"/>
      <g id="Grupo_1110240" data-name="Grupo 1110240" transform="translate(37.557 45.738)">
        <path id="Trazado_898606" data-name="Trazado 898606" d="M365.419,297.343V291.4a6.108,6.108,0,0,0-6.108-6.108H354.3a6.108,6.108,0,0,0-6.108,6.108v5.942" transform="translate(-347.361 -284.467)" fill="#fdb441"/>
        <path id="Trazado_898607" data-name="Trazado 898607" d="M359.351,285.294a6.107,6.107,0,0,0-6.067,6.107v5.942h-5.1V291.4a6.108,6.108,0,0,1,6.107-6.108h5.057Z" transform="translate(-347.36 -284.466)" fill="#fe9738"/>
        <path id="Trazado_898608" data-name="Trazado 898608" d="M358.745,291.5a.827.827,0,0,1-.827-.827v-5.942a5.287,5.287,0,0,0-5.281-5.281h-5.015a5.287,5.287,0,0,0-5.281,5.281v5.942a.827.827,0,1,1-1.654,0v-5.942a6.942,6.942,0,0,1,6.935-6.935h5.015a6.942,6.942,0,0,1,6.935,6.935v5.942A.827.827,0,0,1,358.745,291.5Z" transform="translate(-340.688 -277.794)"/>
        <path id="Trazado_898609" data-name="Trazado 898609" d="M365.417,345.2a1.743,1.743,0,0,1-1.758,1.693h-.567v2.238a6.285,6.285,0,0,1-6.311,6.29,6.351,6.351,0,0,1-6.271-6.384v-2.143H349.9a1.713,1.713,0,0,1,0-3.426h.611v-4.41s.773,1.709,3.912,3a22.777,22.777,0,0,0,8.67,1.411h.611a1.714,1.714,0,0,1,1.714,1.733Z" transform="translate(-347.359 -332.304)" fill="#ffdfcf"/>
        <path id="Trazado_898610" data-name="Trazado 898610" d="M358.22,355.237a.2.2,0,0,0-.081.042,6.276,6.276,0,0,1-1.358.143,6.351,6.351,0,0,1-6.271-6.384v-2.143H349.9a1.713,1.713,0,0,1,0-3.426h.611v-4.41s.773,1.709,3.912,3v8.26A5.085,5.085,0,0,0,358.22,355.237Z" transform="translate(-347.359 -332.304)" fill="#ffcebf"/>
        <path id="Trazado_898611" data-name="Trazado 898611" d="M343.84,331.555a.827.827,0,0,1,.75.478c.059.114,2.133,3.932,11.832,3.932h.611a2.541,2.541,0,0,1,2.54,2.571,2.568,2.568,0,0,1-2.325,2.5v1.424a7.118,7.118,0,0,1-7.118,7.118,7.183,7.183,0,0,1-7.118-7.212v-1.326a2.54,2.54,0,0,1,0-5.062V332.4a.788.788,0,0,1,.116-.44A.827.827,0,0,1,343.84,331.555Zm13.149,7.836a.913.913,0,0,0,.931-.876.887.887,0,0,0-.887-.9h-.611c-6.58,0-10.031-1.689-11.755-3.077v2.25a.827.827,0,0,1-.827.827h-.611a.886.886,0,1,0,0,1.773h.611a.827.827,0,0,1,.827.827v2.144a5.522,5.522,0,0,0,5.446,5.558,5.465,5.465,0,0,0,5.482-5.464v-2.238a.827.827,0,0,1,.827-.827Z" transform="translate(-340.689 -325.629)"/>
        <g id="Grupo_1110239" data-name="Grupo 1110239" transform="translate(7.153 11.996)">
          <path id="Línea_567" data-name="Línea 567" d="M-6.673-4.429A.827.827,0,0,1-7.5-5.256V-6.673A.827.827,0,0,1-6.673-7.5a.827.827,0,0,1,.827.827v1.417A.827.827,0,0,1-6.673-4.429Z" transform="translate(7.5 7.5)"/>
          <path id="Línea_568" data-name="Línea 568" d="M-6.673-4.429A.827.827,0,0,1-7.5-5.256V-6.673A.827.827,0,0,1-6.673-7.5a.827.827,0,0,1,.827.827v1.417A.827.827,0,0,1-6.673-4.429Z" transform="translate(10.425 7.5)"/>
        </g>
        <path id="Trazado_898612" data-name="Trazado 898612" d="M405.191,431.254a3.353,3.353,0,0,1-2.378-.983.827.827,0,0,1,1.169-1.169,1.711,1.711,0,0,0,2.417,0,.827.827,0,0,1,1.169,1.169A3.353,3.353,0,0,1,405.191,431.254Z" transform="translate(-395.749 -412.205)"/>
      </g>
      <g id="Grupo_1110245" data-name="Grupo 1110245" transform="translate(0 16.986)">
        <g id="Grupo_1110241" data-name="Grupo 1110241" transform="translate(2.146 0.827)">
          <path id="Trazado_898613" data-name="Trazado 898613" d="M35.683,35.8v-8.8a2.5,2.5,0,0,0-2.5-2.5H21.97a2.5,2.5,0,0,0-2.5,2.5v8.8" transform="translate(-19.467 -24.489)" fill="#685e68"/>
        </g>
        <g id="Grupo_1110242" data-name="Grupo 1110242" transform="translate(2.146 0.827)">
          <path id="Trazado_898614" data-name="Trazado 898614" d="M27.575,24.484a2.5,2.5,0,0,0-2.5,2.5v8.8h-5.6v-8.8a2.5,2.5,0,0,1,2.5-2.5Z" transform="translate(-19.467 -24.484)" fill="#554e56"/>
        </g>
        <path id="Trazado_898615" data-name="Trazado 898615" d="M26.348,94.474a1.874,1.874,0,0,1-1.874,1.875h-.669V98.7a6.988,6.988,0,0,1-5.333,6.807,6.772,6.772,0,0,1-1.528.179A6.884,6.884,0,0,1,10.037,98.8V96.349h-.62A1.907,1.907,0,0,1,7.493,94.5a1.876,1.876,0,0,1,1.875-1.9h1.511V90.569a.6.6,0,0,1,.829-.559l.04.016a13.842,13.842,0,0,0,10.385-.013.6.6,0,0,1,.831.559V92.6h1.51A1.874,1.874,0,0,1,26.348,94.474Z" transform="translate(-6.667 -81.92)" fill="#d78878"/>
        <path id="Trazado_898616" data-name="Trazado 898616" d="M18.473,105.5s0,0,0,0a6.772,6.772,0,0,1-1.528.179A6.884,6.884,0,0,1,10.037,98.8V96.349h-.62A1.907,1.907,0,0,1,7.493,94.5a1.876,1.876,0,0,1,1.875-1.9h1.511V90.569a.6.6,0,0,1,.829-.559l.04.016a13.823,13.823,0,0,0,2.568.756v9.336A5.565,5.565,0,0,0,18.473,105.5Z" transform="translate(-6.667 -81.92)" fill="#ca6e59"/>
        <path id="Trazado_898617" data-name="Trazado 898617" d="M10.251,99.836a7.709,7.709,0,0,1-3.724-.96.827.827,0,0,1,.8-1.447,6.051,6.051,0,0,0,2.946.753,6.121,6.121,0,0,0,6.039-6.16V89.676a.827.827,0,0,1,.827-.827h.668a1.048,1.048,0,0,0,0-2.1H16.3a.827.827,0,0,1-.827-.827v-1.7a14.67,14.67,0,0,1-10.431,0v1.7a.827.827,0,0,1-.827.827H2.7a1.048,1.048,0,0,0-1.048,1.06,1.077,1.077,0,0,0,1.1,1.036h.62a.827.827,0,0,1,.827.827v2.448a6.042,6.042,0,0,0,.753,2.925.827.827,0,1,1-1.446.8,7.7,7.7,0,0,1-.96-3.727V90.5A2.733,2.733,0,0,1,0,87.834,2.7,2.7,0,0,1,2.7,85.1h.683V83.9A1.43,1.43,0,0,1,5.35,82.569a13.014,13.014,0,0,0,9.805,0A1.43,1.43,0,0,1,17.123,83.9v1.2h.683a2.7,2.7,0,0,1,.159,5.4v1.524a7.777,7.777,0,0,1-7.687,7.814Z" transform="translate(0 -75.247)"/>
        <g id="Grupo_1110243" data-name="Grupo 1110243" transform="translate(7.827 11.307)">
          <path id="Línea_569" data-name="Línea 569" d="M-6.673-4.3A.827.827,0,0,1-7.5-5.122V-6.673A.827.827,0,0,1-6.673-7.5a.827.827,0,0,1,.827.827v1.551A.827.827,0,0,1-6.673-4.3Z" transform="translate(7.5 7.5)"/>
          <path id="Línea_570" data-name="Línea 570" d="M-6.673-4.3A.827.827,0,0,1-7.5-5.122V-6.673A.827.827,0,0,1-6.673-7.5a.827.827,0,0,1,.827.827v1.551A.827.827,0,0,1-6.673-4.3Z" transform="translate(10.701 7.5)"/>
        </g>
        <path id="Trazado_898618" data-name="Trazado 898618" d="M70.5,171.532a3.591,3.591,0,0,1-2.547-1.053.827.827,0,0,1,1.169-1.169,1.951,1.951,0,0,0,2.756,0,.827.827,0,0,1,1.169,1.169A3.591,3.591,0,0,1,70.5,171.532Z" transform="translate(-60.246 -152.301)"/>
        <g id="Grupo_1110244" data-name="Grupo 1110244" transform="translate(1.32 0)">
          <path id="Trazado_898619" data-name="Trazado 898619" d="M29.012,28.577a.827.827,0,0,1-.827-.827V20.316a1.679,1.679,0,0,0-1.677-1.677H15.3a1.678,1.678,0,0,0-1.676,1.677V27.75a.827.827,0,0,1-1.654,0V20.316a3.334,3.334,0,0,1,3.329-3.33h11.21a3.334,3.334,0,0,1,3.33,3.33V27.75A.827.827,0,0,1,29.012,28.577Z" transform="translate(-11.969 -16.986)"/>
        </g>
      </g>
      <g id="Grupo_1110246" data-name="Grupo 1110246" transform="translate(1.951 49.187)">
        <path id="Trazado_898620" data-name="Trazado 898620" d="M41.3,317.7V333.53a1.118,1.118,0,0,1-1.118,1.118H26.314A1.118,1.118,0,0,1,25.2,333.53v-8.3a2.031,2.031,0,0,1,.595-1.436l6.622-6.622a2.031,2.031,0,0,1,1.436-.595h6.33A1.118,1.118,0,0,1,41.3,317.7Z" transform="translate(-24.37 -315.753)" fill="#f5f8f9"/>
        <path id="Trazado_898621" data-name="Trazado 898621" d="M34.48,318.233v6.511a1.118,1.118,0,0,1-1.118,1.118H26.851a2.045,2.045,0,0,1,.412-.595l6.622-6.622A2.049,2.049,0,0,1,34.48,318.233Z" transform="translate(-25.842 -317.224)" fill="#dedbee"/>
        <path id="Trazado_898622" data-name="Trazado 898622" d="M26.689,320.016H20.178a.827.827,0,1,1,0-1.654h6.511a.291.291,0,0,0,.291-.291V311.56a.827.827,0,1,1,1.654,0v6.511A1.947,1.947,0,0,1,26.689,320.016Z" transform="translate(-19.169 -310.551)"/>
        <path id="Trazado_898623" data-name="Trazado 898623" d="M33.51,328.8H19.645a1.946,1.946,0,0,1-1.944-1.944v-8.3a2.878,2.878,0,0,1,.836-2.021l6.622-6.622a2.878,2.878,0,0,1,2.021-.836H33.51a1.946,1.946,0,0,1,1.945,1.944v10.158a.827.827,0,1,1-1.654,0V311.028a.291.291,0,0,0-.291-.29H27.181a1.213,1.213,0,0,0-.852.352l-6.622,6.622a1.213,1.213,0,0,0-.352.852v8.3a.29.29,0,0,0,.29.29H33.51a.291.291,0,0,0,.291-.29v-1.818a.827.827,0,1,1,1.654,0v1.818A1.946,1.946,0,0,1,33.51,328.8Z" transform="translate(-17.701 -309.084)"/>
      </g>
    </g>
  </g>
</svg>
