<svg xmlns="http://www.w3.org/2000/svg" xmlns:xlink="http://www.w3.org/1999/xlink" width="108.914" height="108.914" viewBox="0 0 108.914 108.914">
  <defs>
    <filter id="Trazado_874925" x="0" y="0" width="108.914" height="108.914" filterUnits="userSpaceOnUse">
      <feOffset dy="3" input="SourceAlpha"/>
      <feGaussianBlur stdDeviation="3" result="blur"/>
      <feFlood flood-opacity="0.161"/>
      <feComposite operator="in" in2="blur"/>
      <feComposite in="SourceGraphic"/>
    </filter>
  </defs>
  <g id="Grupo_1110368" data-name="Grupo 1110368" transform="translate(-798.051 -4845.999)">
    <g id="Grupo_1110085" data-name="Grupo 1110085" transform="translate(-0.376 2334.842)">
      <g id="Grupo_1109818" data-name="Grupo 1109818" transform="translate(807.427 2517.157)">
        <g transform="matrix(1, 0, 0, 1, -9, -6)" filter="url(#Trazado_874925)">
          <g id="Trazado_874925-2" data-name="Trazado 874925" transform="translate(9 6)" fill="#efdb59" opacity="0.859">
            <path d="M 45.45676803588867 89.41407012939453 C 39.52198028564453 89.41407012939453 33.76551818847656 88.25206756591797 28.34726715087891 85.96034240722656 C 23.11311721801758 83.74648284912109 18.41204261779785 80.57682800292969 14.37464332580566 76.5394287109375 C 10.33724308013916 72.50202941894531 7.167593002319336 67.80095672607422 4.953730583190918 62.56679534912109 C 2.662005424499512 57.14855575561523 1.500005483627319 51.39208221435547 1.500005483627319 45.45729446411133 C 1.500005483627319 39.52198028564453 2.662005424499512 33.76551818847656 4.953730583190918 28.34726905822754 C 7.167593002319336 23.11310577392578 10.33724308013916 18.41203117370605 14.37464332580566 14.37464332580566 C 18.41204261779785 10.33724403381348 23.11311721801758 7.167593955993652 28.34726715087891 4.953731060028076 C 33.76551818847656 2.662006139755249 39.52198028564453 1.500006198883057 45.45676803588867 1.500006198883057 C 51.39155578613281 1.500006198883057 57.14802932739258 2.662006139755249 62.56626892089844 4.953731060028076 C 67.80043029785156 7.167593955993652 72.50150299072266 10.33724403381348 76.53890228271484 14.37464332580566 C 80.57630920410156 18.41203117370605 83.74595642089844 23.11310577392578 85.95981597900391 28.34726905822754 C 88.25154113769531 33.76551818847656 89.41354370117188 39.52198028564453 89.41354370117188 45.45676803588867 C 89.41354370117188 51.39208221435547 88.25154113769531 57.14855575561523 85.95981597900391 62.56679534912109 C 83.74595642089844 67.80095672607422 80.57630920410156 72.50202941894531 76.53890228271484 76.5394287109375 C 72.50150299072266 80.57682800292969 67.80043029785156 83.74648284912109 62.56626892089844 85.96034240722656 C 57.14802932739258 88.25206756591797 51.39155578613281 89.41407012939453 45.45676803588867 89.41407012939453 Z" stroke="none"/>
            <path d="M 45.45676803588867 3 C 39.72381210327148 3 34.1639404296875 4.12213134765625 28.93159484863281 6.335227966308594 C 23.87622833251953 8.473472595214844 19.33542633056641 11.53517150878906 15.43529510498047 15.435302734375 C 11.53517150878906 19.33543395996094 8.473464965820312 23.87622833251953 6.335227966308594 28.93160247802734 C 4.122123718261719 34.16394424438477 3 39.72381591796875 3 45.4572868347168 C 3 51.19024658203125 4.122123718261719 56.75011825561523 6.335227966308594 61.98246002197266 C 8.473464965820312 67.03782653808594 11.53517150878906 71.57862854003906 15.43529510498047 75.478759765625 C 19.33542633056641 79.37889099121094 23.87622833251953 82.44058990478516 28.93159484863281 84.57883453369141 C 34.1639404296875 86.79193115234375 39.72381210327148 87.9140625 45.45676803588867 87.9140625 C 51.18972396850586 87.9140625 56.74959564208984 86.79193115234375 61.98194122314453 84.57883453369141 C 67.03730773925781 82.44058990478516 71.57810974121094 79.37889099121094 75.47824096679688 75.478759765625 C 79.37837219238281 71.57862854003906 82.44007110595703 67.03782653808594 84.57830810546875 61.98246002197266 C 86.79141235351562 56.75011825561523 87.91353607177734 51.19024658203125 87.91353607177734 45.4567756652832 C 87.91353607177734 39.72381591796875 86.79141235351562 34.16394424438477 84.57830810546875 28.93160247802734 C 82.44007110595703 23.87622833251953 79.37837219238281 19.33543395996094 75.47824096679688 15.435302734375 C 71.57810974121094 11.53517150878906 67.03730773925781 8.473472595214844 61.98194122314453 6.335227966308594 C 56.74959564208984 4.12213134765625 51.18972396850586 3 45.45676803588867 3 M 45.45676803588867 0 C 70.56185150146484 0 90.91353607177734 20.35169219970703 90.91353607177734 45.4567756652832 L 90.91353607177734 45.4572868347168 C 90.91353607177734 70.5623779296875 70.56185150146484 90.9140625 45.45676803588867 90.9140625 C 20.3516845703125 90.9140625 0 70.5623779296875 0 45.4572868347168 L 0 45.4567756652832 C 0 20.35169219970703 20.3516845703125 0 45.45676803588867 0 Z" stroke="none" fill="#fff"/>
          </g>
        </g>
        <g id="Trazado_874923" data-name="Trazado 874923" transform="translate(0 0)" fill="none">
          <path d="M45.457,0A45.457,45.457,0,0,1,90.914,45.457h0A45.457,45.457,0,0,1,0,45.457H0A45.457,45.457,0,0,1,45.457,0Z" stroke="none"/>
          <path d="M 45.45676803588867 3 C 39.72381210327148 3 34.1639404296875 4.12213134765625 28.93159484863281 6.335227966308594 C 23.87622833251953 8.473472595214844 19.33542633056641 11.53517150878906 15.43529510498047 15.435302734375 C 11.53517150878906 19.33543395996094 8.473464965820312 23.87622833251953 6.335227966308594 28.93160247802734 C 4.122123718261719 34.16394424438477 3 39.72381591796875 3 45.4572868347168 C 3 51.19024658203125 4.122123718261719 56.75011825561523 6.335227966308594 61.98246002197266 C 8.473464965820312 67.03782653808594 11.53517150878906 71.57862854003906 15.43529510498047 75.478759765625 C 19.33542633056641 79.37889099121094 23.87622833251953 82.44058990478516 28.93159484863281 84.57883453369141 C 34.1639404296875 86.79193115234375 39.72381210327148 87.9140625 45.45676803588867 87.9140625 C 51.18972396850586 87.9140625 56.74959564208984 86.79193115234375 61.98194122314453 84.57883453369141 C 67.03730773925781 82.44058990478516 71.57810974121094 79.37889099121094 75.47824096679688 75.478759765625 C 79.37837219238281 71.57862854003906 82.44007110595703 67.03782653808594 84.57830810546875 61.98246002197266 C 86.79141235351562 56.75011825561523 87.91353607177734 51.19024658203125 87.91353607177734 45.4567756652832 C 87.91353607177734 39.72381591796875 86.79141235351562 34.16394424438477 84.57830810546875 28.93160247802734 C 82.44007110595703 23.87622833251953 79.37837219238281 19.33543395996094 75.47824096679688 15.435302734375 C 71.57810974121094 11.53517150878906 67.03730773925781 8.473472595214844 61.98194122314453 6.335227966308594 C 56.74959564208984 4.12213134765625 51.18972396850586 3 45.45676803588867 3 M 45.45676803588867 0 C 70.56185150146484 0 90.91353607177734 20.35169219970703 90.91353607177734 45.4567756652832 L 90.91353607177734 45.4572868347168 C 90.91353607177734 70.5623779296875 70.56185150146484 90.9140625 45.45676803588867 90.9140625 C 20.3516845703125 90.9140625 0 70.5623779296875 0 45.4572868347168 L 0 45.4567756652832 C 0 20.35169219970703 20.3516845703125 0 45.45676803588867 0 Z" stroke="none" fill="#fff"/>
        </g>
      </g>
    </g>
    <g id="lista" transform="translate(829.051 4874)">
      <path id="Trazado_898823" data-name="Trazado 898823" d="M41.787,53.682H10.067A1.982,1.982,0,0,1,8.084,51.7V10.067a1.982,1.982,0,0,1,1.983-1.983h31.72a1.982,1.982,0,0,1,1.983,1.983V51.7A1.982,1.982,0,0,1,41.787,53.682Z" transform="translate(-7.341 -7.341)" fill="#e5e5e5"/>
      <path id="Trazado_898824" data-name="Trazado 898824" d="M157.132,358.4v6.939h-2.974l-4.537-1.512a2.063,2.063,0,0,1,0-3.914l4.537-1.512h2.974Z" transform="translate(-134.581 -325.44)" fill="#f4c064"/>
      <path id="Trazado_898825" data-name="Trazado 898825" d="M151.185,374.136l-1.563-.521a2.063,2.063,0,0,1,0-3.914l1.563-.521Z" transform="translate(-134.581 -335.229)" fill="#828282"/>
      <path id="Trazado_898826" data-name="Trazado 898826" d="M213.875,347.621h21.312a4.461,4.461,0,0,1,4.461,4.461h0a4.461,4.461,0,0,1-4.461,4.461H213.875a.991.991,0,0,1-.991-.991v-6.939A.991.991,0,0,1,213.875,347.621Z" transform="translate(-193.307 -315.653)" fill="#ff8d40"/>
      <path id="Trazado_898827" data-name="Trazado 898827" d="M239.648,352.082H212.884v-3.469a.991.991,0,0,1,.991-.991h21.312A4.461,4.461,0,0,1,239.648,352.082Z" transform="translate(-193.307 -315.653)" fill="#ffc248"/>
      <path id="Trazado_898828" data-name="Trazado 898828" d="M435.4,352.081h0a4.461,4.461,0,0,1-4.461,4.461h-2.478V347.62h2.478A4.461,4.461,0,0,1,435.4,352.081Z" transform="translate(-389.061 -315.652)" fill="#ffc0cf"/>
      <path id="Trazado_898829" data-name="Trazado 898829" d="M430.941,352.082h-2.478v-4.461h2.478a4.458,4.458,0,0,1,3.862,2.23A4.458,4.458,0,0,1,430.941,352.082Z" transform="translate(-389.06 -315.653)" fill="#ffd7df"/>
      <path id="Trazado_898830" data-name="Trazado 898830" d="M13.63,29.738H5.7a.743.743,0,0,1,0-1.487h7.93a.743.743,0,0,1,0,1.487ZM9.467,35.686a.743.743,0,1,0,0,1.487h.2a.743.743,0,1,0,0-1.487Zm26.962,6.939a.743.743,0,0,0-.743.743v.991A1.24,1.24,0,0,1,34.446,45.6H2.726a1.24,1.24,0,0,1-1.239-1.239V2.726A1.24,1.24,0,0,1,2.726,1.487h31.72a1.24,1.24,0,0,1,1.239,1.239V29.49a.743.743,0,1,0,1.487,0V2.726A2.729,2.729,0,0,0,34.446,0H2.726A2.729,2.729,0,0,0,0,2.726V44.359a2.729,2.729,0,0,0,2.726,2.726h31.72a2.729,2.729,0,0,0,2.726-2.726v-.991A.743.743,0,0,0,36.429,42.624ZM31.653,5.474a.744.744,0,0,0-.9.541l-.834,3.337-.753-1.507a.743.743,0,0,0-1.33.665l.8,1.591a1.452,1.452,0,0,0,2.708-.3l.857-3.428A.743.743,0,0,0,31.653,5.474Zm0,13.878a.744.744,0,0,0-.9.541l-.834,3.337-.753-1.507a.743.743,0,0,0-1.33.665l.8,1.591a1.452,1.452,0,0,0,2.708-.3l.857-3.428A.743.743,0,0,0,31.653,19.352ZM5.5,35.686a.743.743,0,1,0,0,1.487h.2a.743.743,0,1,0,0-1.487Zm41.584.743a5.21,5.21,0,0,1-5.2,5.2H20.569a1.738,1.738,0,0,1-1.639-1.167l-4.124-1.375a2.806,2.806,0,0,1,0-5.325l4.124-1.375a1.738,1.738,0,0,1,1.639-1.167H41.881A5.21,5.21,0,0,1,47.085,36.429ZM18.834,33.991l-3.558,1.186a1.319,1.319,0,0,0,0,2.5l3.558,1.186V33.991Zm19.825,3.181H20.321v2.708c0,.009,0,.017,0,.026a.248.248,0,0,0,.248.239H38.659Zm0-4.461H20.569a.248.248,0,0,0-.248.239c0,.009,0,.017,0,.026v2.708H38.659ZM45.6,36.429a3.721,3.721,0,0,0-3.717-3.717H40.146v7.434h1.735A3.721,3.721,0,0,0,45.6,36.429ZM23.543,7.434H5.7a.743.743,0,0,0,0,1.487H23.543a.743.743,0,0,0,0-1.487Zm.743,14.621a.743.743,0,0,0-.743-.743H5.7a.743.743,0,0,0,0,1.487H23.543A.743.743,0,0,0,24.286,22.056Zm-.743-7.682H5.7a.743.743,0,0,0,0,1.487H23.543a.743.743,0,0,0,0-1.487Z"/>
    </g>
  </g>
</svg>
