<svg xmlns="http://www.w3.org/2000/svg" xmlns:xlink="http://www.w3.org/1999/xlink" width="108" height="108" viewBox="0 0 108 108">
  <defs>
    <filter id="Trazado_896985" x="0" y="0" width="108" height="108" filterUnits="userSpaceOnUse">
      <feOffset dy="3" input="SourceAlpha"/>
      <feGaussianBlur stdDeviation="3" result="blur"/>
      <feFlood flood-opacity="0.161"/>
      <feComposite operator="in" in2="blur"/>
      <feComposite in="SourceGraphic"/>
    </filter>
    <clipPath id="clip-path">
      <path id="path7536" d="M0-682.665H58.808v58.808H0Z" transform="translate(0 682.665)"/>
    </clipPath>
  </defs>
  <g id="Grupo_1110248" data-name="Grupo 1110248" transform="translate(-746.776 -4599)">
    <g id="Grupo_1110052" data-name="Grupo 1110052" transform="translate(-1.005 772)">
      <g id="Grupo_1098742" data-name="Grupo 1098742" transform="translate(-446.539 3444.258)">
        <g transform="matrix(1, 0, 0, 1, 1194.32, 382.74)" filter="url(#Trazado_896985)">
          <g id="Trazado_896985-2" data-name="Trazado 896985" transform="translate(9 6)" fill="#84a065" opacity="0.859">
            <path d="M 44.99993896484375 88.5 C 39.12682723999023 88.5 33.4301872253418 87.35007476806641 28.06826400756836 85.08217620849609 C 22.88850212097168 82.89132690429688 18.23627662658691 79.75461578369141 14.2408390045166 75.75916290283203 C 10.24540138244629 71.76372528076172 7.108676433563232 67.11151123046875 4.917826652526855 61.9317512512207 C 2.649926424026489 56.56982421875 1.500001430511475 50.87317657470703 1.500001430511475 45.00006103515625 C 1.500001430511475 39.12682342529297 2.649926424026489 33.4301872253418 4.917826652526855 28.06826210021973 C 7.108676433563232 22.88850021362305 10.24540138244629 18.23628807067871 14.2408390045166 14.24083709716797 C 18.23628807067871 10.24540042877197 22.88850212097168 7.108675003051758 28.06826400756836 4.917825222015381 C 33.4301872253418 2.649924993515015 39.12682723999023 1.5 44.99993896484375 1.5 C 50.87305068969727 1.5 56.5697021484375 2.649924993515015 61.93162536621094 4.917825222015381 C 67.11138916015625 7.108675003051758 71.76360321044922 10.24540042877197 75.75904083251953 14.24083709716797 C 79.75448608398438 18.23627471923828 82.89120483398438 22.88850021362305 85.08205413818359 28.06826210021973 C 87.34995269775391 33.4301872253418 88.4998779296875 39.12682342529297 88.4998779296875 44.99993896484375 C 88.4998779296875 50.87317657470703 87.34995269775391 56.56982421875 85.08205413818359 61.9317512512207 C 82.89120483398438 67.11151123046875 79.75448608398438 71.76372528076172 75.75904083251953 75.75916290283203 C 71.76360321044922 79.75461578369141 67.11138916015625 82.89132690429688 61.93162536621094 85.08217620849609 C 56.5697021484375 87.35007476806641 50.87305068969727 88.5 44.99993896484375 88.5 Z" stroke="none"/>
            <path d="M 44.99993896484375 3 C 39.32865142822266 3 33.82860946655273 4.110054016113281 28.65258026123047 6.299331665039062 C 23.65162658691406 8.414558410644531 19.15966796875 11.44332885742188 15.30149841308594 15.30149841308594 C 11.44332122802734 19.15966796875 8.41455078125 23.65162658691406 6.299324035644531 28.65258407592773 C 4.110054016113281 33.82861328125 2.999992370605469 39.32865524291992 2.999992370605469 45.00005722045898 C 2.999992370605469 50.67134475708008 4.110054016113281 56.17138671875 6.299324035644531 61.347412109375 C 8.41455078125 66.34837341308594 11.44332122802734 70.84033203125 15.30149841308594 74.69850158691406 C 19.15966796875 78.55667114257812 23.65162658691406 81.58544158935547 28.65258026123047 83.70066833496094 C 33.82860946655273 85.88994598388672 39.32865142822266 87 44.99993896484375 87 C 50.67122650146484 87 56.17126846313477 85.88994598388672 61.34729766845703 83.70066833496094 C 66.34825134277344 81.58544158935547 70.8402099609375 78.55667114257812 74.69837951660156 74.69850158691406 C 78.55654907226562 70.84033203125 81.5853271484375 66.34837341308594 83.70055389404297 61.347412109375 C 85.88982391357422 56.17138671875 86.9998779296875 50.67134475708008 86.9998779296875 44.99994277954102 C 86.9998779296875 39.32865524291992 85.88982391357422 33.82861328125 83.70055389404297 28.65258407592773 C 81.5853271484375 23.65162658691406 78.55654907226562 19.15966796875 74.69837951660156 15.30149841308594 C 70.8402099609375 11.44332885742188 66.34825134277344 8.414558410644531 61.34729766845703 6.299331665039062 C 56.17126846313477 4.110054016113281 50.67122650146484 3 44.99993896484375 3 M 44.99993896484375 0 C 69.85272216796875 0 89.99988555908203 20.14715576171875 89.99988555908203 44.99994277954102 L 89.99988555908203 45.00005722045898 C 89.99988555908203 69.85284423828125 69.85272216796875 90 44.99993896484375 90 C 20.14715576171875 90 -7.62939453125e-06 69.85284423828125 -7.62939453125e-06 45.00005722045898 L -7.62939453125e-06 44.99994277954102 C -7.62939453125e-06 20.14715576171875 20.14715576171875 0 44.99993896484375 0 Z" stroke="none" fill="#fff"/>
          </g>
        </g>
        <g id="Rectángulo_400907" data-name="Rectángulo 400907" transform="translate(1203.32 388.742)" fill="none" stroke="#fff" stroke-width="3">
          <rect width="90" height="90" rx="45" stroke="none"/>
          <rect x="1.5" y="1.5" width="87" height="87" rx="43.5" fill="none"/>
        </g>
      </g>
    </g>
    <g id="g7530" transform="translate(770.647 5303.261)">
      <g id="g7532" transform="translate(0 -682.665)">
        <g id="g7534" clip-path="url(#clip-path)">
          <g id="g7540" transform="translate(12.978 29.367)">
            <path id="path7542" d="M-292.026-241.661q.12,2.023.193,4.285a1.467,1.467,0,0,1-1.465,1.514h-25.057a1.242,1.242,0,0,1-1.2-1.3c.252-24.007,7.587-27.283,16.6-27.283,7.783,0,14.313,2.444,16.111,18.576q.072.637.133,1.3a2.654,2.654,0,0,1-2.64,2.9Z" transform="translate(319.554 264.441)" fill="#e3e0e4"/>
          </g>
          <g id="g7544" transform="translate(28.331 29.367)">
            <path id="path7546" d="M-185.507-210.877q-.061-.666-.133-1.3c-1.8-16.132-8.328-18.575-16.111-18.575q-.627,0-1.243.023c7.233.276,13.178,3.279,14.881,18.552q.072.637.133,1.3a2.654,2.654,0,0,1-2.639,2.9h2.473a2.654,2.654,0,0,0,2.64-2.9" transform="translate(202.994 230.755)" fill="#c5bec6"/>
          </g>
          <g id="g7548" transform="translate(18.215 29.367)">
            <path id="path7550" d="M-241.115-46.415c-2.971-3.594-6.971-4.375-11.37-4.375s-8.389.78-11.359,4.363a9.579,9.579,0,0,1,2.214,3.078,2.255,2.255,0,0,1,.13,1.531c-1.164,4.282-1.932,10.534-2.154,19.607h20.828a1.467,1.467,0,0,0,1.465-1.514c-.267-8.262-1.013-14.055-2.112-18.095a2.172,2.172,0,0,1,.123-1.459,9.6,9.6,0,0,1,2.233-3.136" transform="translate(263.843 50.791)" fill="#94d4a2"/>
          </g>
          <g id="g7552" transform="translate(28.13 29.367)">
            <path id="path7554" d="M-112.239-79.682a9.6,9.6,0,0,1,2.233-3.136c-2.971-3.594-6.97-4.375-11.37-4.375q-.73,0-1.444.032c3.827.176,7.284,1.147,9.926,4.343a9.6,9.6,0,0,0-2.233,3.136,2.171,2.171,0,0,0-.123,1.459c1.1,4.04,1.844,9.833,2.111,18.1a1.467,1.467,0,0,1-1.465,1.514h2.887a1.467,1.467,0,0,0,1.465-1.514c-.267-8.262-1.013-14.055-2.111-18.095a2.171,2.171,0,0,1,.123-1.459" transform="translate(122.82 87.193)" fill="#6dc17d"/>
          </g>
          <g id="g7556" transform="translate(17.354 32.869)">
            <path id="path7558" d="M11.88,15.939H-8.947a.861.861,0,0,1-.617-.26.861.861,0,0,1-.245-.623C-9.6,6.345-8.881-.135-7.625-4.755A1.4,1.4,0,0,0-7.707-5.7,8.7,8.7,0,0,0-9.722-8.5a.861.861,0,0,1-.051-1.217.861.861,0,0,1,1.217-.051A10.411,10.411,0,0,1-6.141-6.419,3.122,3.122,0,0,1-5.963-4.3C-7.14.026-7.828,6.09-8.063,14.216H11.88a.606.606,0,0,0,.6-.625c-.253-7.822-.934-13.676-2.082-17.9a3.041,3.041,0,0,1,.168-2.038,10.433,10.433,0,0,1,2.434-3.416.861.861,0,0,1,1.217.048.861.861,0,0,1-.048,1.217,8.72,8.72,0,0,0-2.032,2.856,1.314,1.314,0,0,0-.077.88c1.184,4.351,1.884,10.335,2.141,18.293a2.328,2.328,0,0,1-2.326,2.4Z" transform="translate(10 10)"/>
          </g>
          <g id="g7560" transform="translate(12.117 28.506)">
            <path id="path7562" d="M-22.946-62.334H-48a2.009,2.009,0,0,1-1.437-.607,2.194,2.194,0,0,1-.623-1.561c.074-7.03.74-12.506,2.036-16.739a.861.861,0,0,1,1.076-.571.861.861,0,0,1,.571,1.076c-1.247,4.073-1.888,9.389-1.96,16.254a.462.462,0,0,0,.126.331.3.3,0,0,0,.211.095h25.057a.6.6,0,0,0,.434-.184.6.6,0,0,0,.17-.441q-.073-2.251-.192-4.262a.861.861,0,0,1,.233-.642.861.861,0,0,1,.627-.271H-19a1.767,1.767,0,0,0,1.32-.582,1.781,1.781,0,0,0,.462-1.379q-.06-.657-.131-1.286C-19-87.934-24.414-90.913-32.607-90.913c-4.67,0-9.4.805-12.377,6.648a.861.861,0,0,1-1.159.377.861.861,0,0,1-.377-1.159c3.405-6.688,8.943-7.589,13.912-7.589,7.693,0,15.072,2.343,16.967,19.342q.072.644.134,1.319a3.531,3.531,0,0,1-.9,2.7A3.517,3.517,0,0,1-19-68.133h-1.761c.058,1.092.106,2.231.143,3.4a2.31,2.31,0,0,1-.655,1.695A2.308,2.308,0,0,1-22.946-62.334Z" transform="translate(50.064 92.636)"/>
          </g>
          <g id="g7564" transform="translate(18.639 0.861)">
            <path id="path7566" d="M-232.266-109.709a10.342,10.342,0,0,0-10.342-10.342h-.9a7.251,7.251,0,0,0-6.417,3.873h-.295a3.946,3.946,0,0,0-3.946,3.946v9.6h21.894Z" transform="translate(254.161 120.05)" fill="#ab7b64"/>
          </g>
          <g id="g7568" transform="translate(28.19 0.861)">
            <path id="path7570" d="M-21.234,0h-.9a7.318,7.318,0,0,0-1.106.085,10.344,10.344,0,0,1,9.012,10.257V17.42h3.332V10.342A10.342,10.342,0,0,0-21.234,0" transform="translate(23.236)" fill="#9a6a53"/>
          </g>
          <g id="g7572" transform="translate(17.777 0)">
            <path id="path7574" d="M-195.756-16.686H-217.65a.861.861,0,0,1-.861-.861v-9.6a4.813,4.813,0,0,1,4.6-4.8,8.1,8.1,0,0,1,6.92-3.877h.9a11.087,11.087,0,0,1,6.944,2.411.861.861,0,0,1,.141,1.21.861.861,0,0,1-1.21.141,9.381,9.381,0,0,0-5.875-2.039h-.9a6.381,6.381,0,0,0-5.655,3.413.861.861,0,0,1-.762.459h-.295a3.088,3.088,0,0,0-3.084,3.084v8.74h20.172v-6.217a9.483,9.483,0,0,0-1.22-4.656.861.861,0,0,1,.326-1.174.861.861,0,0,1,1.174.326,11.209,11.209,0,0,1,1.443,5.5v7.078A.861.861,0,0,1-195.756-16.686Z" transform="translate(218.511 35.829)"/>
          </g>
          <g id="g7576" transform="translate(26.326 22.503)">
            <path id="path7578" d="M0,0V7.671c0,1.448,1.8,4.793,3.248,4.793S6.5,9.118,6.5,7.671V0Z" fill="#faa68f"/>
          </g>
          <g id="g7580" transform="translate(26.326 22.503)">
            <path id="path7582" d="M0-62.221a7.5,7.5,0,0,0,3.774,1.132A7.065,7.065,0,0,0,6.5-61.683v-6.4H0Z" transform="translate(0 68.086)" fill="#e09380"/>
          </g>
          <g id="g7584" transform="translate(25.465 21.641)">
            <path id="path7586" d="M-9.139-10h6.5a.861.861,0,0,1,.861.861v7.671c0,1.766-1.987,5.655-4.11,5.655S-10,.3-10-1.468V-9.139A.861.861,0,0,1-9.139-10ZM-3.5-8.277H-8.277v6.809c0,1.311,1.713,3.932,2.387,3.932S-3.5-.157-3.5-1.468Z" transform="translate(10 10)"/>
          </g>
          <g id="g7588" transform="translate(17.623 15.782)">
            <path id="path7590" d="M-227.814,0h-19.048a2.427,2.427,0,0,0-2.427,2.427,2.427,2.427,0,0,0,2.427,2.427h19.048a2.427,2.427,0,0,0,2.427-2.427A2.427,2.427,0,0,0-227.814,0" transform="translate(249.289)" fill="#faa68f"/>
          </g>
          <g id="g7592" transform="translate(16.762 14.921)">
            <path id="path7594" d="M-256-10h19.048a3.292,3.292,0,0,1,3.288,3.288,3.292,3.292,0,0,1-3.288,3.288H-256a3.292,3.292,0,0,1-3.288-3.288A3.292,3.292,0,0,1-256-10Zm19.048,4.853a1.567,1.567,0,0,0,1.565-1.565,1.567,1.567,0,0,0-1.565-1.565H-256a1.567,1.567,0,0,0-1.565,1.565A1.567,1.567,0,0,0-256-5.147Z" transform="translate(259.289 10)"/>
          </g>
          <g id="g7596" transform="translate(21.629 8.923)">
            <path id="path7598" d="M-168.807-93.806a8.5,8.5,0,0,1-7.956,8.886,8.5,8.5,0,0,1-7.956-8.886c0-4.461,1.532-7.274,3.826-8.681a1.133,1.133,0,0,1,1.358.148c1.891,1.745,4.446,3.045,8.511,3.805a2.477,2.477,0,0,1,2,2,16.124,16.124,0,0,1,.218,2.727" transform="translate(184.72 102.649)" fill="#faa68f"/>
          </g>
          <g id="g7600" transform="translate(20.768 8.061)">
            <path id="path7602" d="M-185.9-93.2a9.322,9.322,0,0,1-8.818-9.747c0-5.634,2.3-8.23,4.237-9.416a1.958,1.958,0,0,1,1.024-.288,2.013,2.013,0,0,1,1.368.537c1.928,1.78,4.5,2.921,8.085,3.592a3.352,3.352,0,0,1,2.69,2.7,17.061,17.061,0,0,1,.23,2.873A9.322,9.322,0,0,1-185.9-93.2Zm-3.556-17.729a.233.233,0,0,0-.124.034c-2.234,1.37-3.415,4.118-3.415,7.947,0,5.474,4.234,8.025,7.095,8.025s7.095-2.55,7.095-8.025a15.337,15.337,0,0,0-.206-2.582,1.622,1.622,0,0,0-1.309-1.3c-3.92-.733-6.76-2.01-8.936-4.019A.3.3,0,0,0-189.458-110.926Z" transform="translate(194.719 112.649)"/>
          </g>
          <g id="g7604" transform="translate(32.056 15.343)">
            <path id="path7606" d="M-9.139-7.533A.861.861,0,0,1-10-8.394v-.744A.861.861,0,0,1-9.139-10a.861.861,0,0,1,.861.861v.744A.861.861,0,0,1-9.139-7.533Z" transform="translate(10 10)"/>
          </g>
          <g id="g7608" transform="translate(25.393 15.343)">
            <path id="path7610" d="M-9.139-7.533A.861.861,0,0,1-10-8.394v-.744A.861.861,0,0,1-9.139-10a.861.861,0,0,1,.861.861v.744A.861.861,0,0,1-9.139-7.533Z" transform="translate(10 10)"/>
          </g>
          <g id="g7612" transform="translate(26.871 20.101)">
            <path id="path7614" d="M-50.324-7.586a3.957,3.957,0,0,1-2.367-.861.861.861,0,0,1-.179-1.205.861.861,0,0,1,1.205-.179,2,2,0,0,0,2.681,0,.861.861,0,0,1,1.205.179.861.861,0,0,1-.179,1.205A3.958,3.958,0,0,1-50.324-7.586Z" transform="translate(53.039 10.001)"/>
          </g>
          <g id="g7616" transform="translate(31.457 39.859)">
            <path id="path7618" d="M-9.154,0H-1.8A.863.863,0,0,1-.94.863v8.46a.863.863,0,0,1-.863.863H-9.154a.863.863,0,0,1-.863-.863V.863A.863.863,0,0,1-9.154,0" transform="translate(10.017)" fill="#655e67"/>
          </g>
          <g id="g7620" transform="translate(30.596 38.998)">
            <path id="path7622" d="M-18.293-10h7.351A1.726,1.726,0,0,1-9.217-8.275V.184a1.726,1.726,0,0,1-1.724,1.724h-7.351A1.726,1.726,0,0,1-20.017.184v-8.46A1.726,1.726,0,0,1-18.293-10ZM-10.942.186l0-8.461-7.353,0h0V.184Z" transform="translate(20.017 10)"/>
          </g>
          <g id="g7624" transform="translate(33.743 47.943)">
            <path id="path7626" d="M-100.088-44.6h-9.435v-4.2h11.942q.072.639.133,1.308a2.653,2.653,0,0,1-2.64,2.9" transform="translate(109.522 48.808)" fill="#e3e0e4"/>
          </g>
          <g id="g7628" transform="translate(40.705 47.943)">
            <path id="path7630" d="M-54.239-13.821c-.015-.164-.133-1.3-.133-1.3h-2.473q.072.637.133,1.3a2.654,2.654,0,0,1-2.639,2.9h2.473a2.64,2.64,0,0,0,1.052-.217l.04-.017.039-.019a2.659,2.659,0,0,0,1.509-2.648" transform="translate(59.352 15.124)" fill="#c5bec6"/>
          </g>
          <g id="g7632" transform="translate(32.882 47.081)">
            <path id="path7634" d="M-138.329-4.073h-9.435a.861.861,0,0,1-.861-.861.861.861,0,0,1,.861-.861h9.435a1.769,1.769,0,0,0,1.321-.583,1.774,1.774,0,0,0,.461-1.373q-.061-.66-.131-1.291a.861.861,0,0,1,.76-.952.861.861,0,0,1,.952.76q.073.648.135,1.325a3.524,3.524,0,0,1-.9,2.692A3.519,3.519,0,0,1-138.329-4.073Z" transform="translate(148.625 10.001)"/>
          </g>
          <g id="g7636" transform="translate(27.931 46.523)">
            <path id="path7638" d="M-61.653-9.369v4.741h-4.392a1.42,1.42,0,0,1-1.42-1.42V-8.832a1.42,1.42,0,0,1,1.42-1.42h3.508a.883.883,0,0,1,.883.883" transform="translate(67.465 10.252)" fill="#faa68f"/>
          </g>
          <g id="g7640" transform="translate(27.07 45.661)">
            <path id="path7642" d="M-75.184-20.252h3.508a1.747,1.747,0,0,1,1.745,1.745v4.741a.861.861,0,0,1-.861.861h-4.392a2.284,2.284,0,0,1-2.282-2.281V-17.97A2.284,2.284,0,0,1-75.184-20.252Zm3.53,5.625v-3.88l-3.53-.022a.559.559,0,0,0-.559.559v2.784a.559.559,0,0,0,.559.559Z" transform="translate(77.465 20.252)"/>
          </g>
          <g id="g7644" transform="translate(32.882 47.081)">
            <path id="path7646" d="M-9.139-52.88A.861.861,0,0,1-10-53.742v-4.2a.861.861,0,0,1,.861-.861H-.512a.861.861,0,0,1,.861.861.861.861,0,0,1-.861.861H-8.277v3.343A.861.861,0,0,1-9.139-52.88Z" transform="translate(10 58.808)"/>
          </g>
          <g id="g7648" transform="translate(20.583 40.13)">
            <path id="path7650" d="M-59.689-41.73h-4.661a.965.965,0,0,1-.965-.965v-2a.965.965,0,0,1,.965-.965h4.661a.965.965,0,0,1,.965.965v2a.965.965,0,0,1-.965.965" transform="translate(65.316 45.664)" fill="#efedef"/>
          </g>
          <g id="g7652" transform="translate(19.722 39.269)">
            <path id="path7654" d="M-68.828-50.007h-4.661a1.829,1.829,0,0,1-1.827-1.827v-2a1.829,1.829,0,0,1,1.827-1.827h4.661A1.829,1.829,0,0,1-67-53.837v2A1.829,1.829,0,0,1-68.828-50.007Zm-4.661-3.934a.1.1,0,0,0-.1.1v2a.1.1,0,0,0,.1.1h4.661a.1.1,0,0,0,.1-.1v-2a.1.1,0,0,0-.1-.1Z" transform="translate(75.316 55.664)"/>
          </g>
        </g>
      </g>
    </g>
  </g>
</svg>
