<svg xmlns="http://www.w3.org/2000/svg" xmlns:xlink="http://www.w3.org/1999/xlink" width="108.914" height="108.914" viewBox="0 0 108.914 108.914">
  <defs>
    <filter id="Trazado_874925" x="0" y="0" width="108.914" height="108.914" filterUnits="userSpaceOnUse">
      <feOffset dy="3" input="SourceAlpha"/>
      <feGaussianBlur stdDeviation="3" result="blur"/>
      <feFlood flood-opacity="0.161"/>
      <feComposite operator="in" in2="blur"/>
      <feComposite in="SourceGraphic"/>
    </filter>
  </defs>
  <g id="Grupo_1110377" data-name="Grupo 1110377" transform="translate(-396.657 6760.542)">
    <g id="Grupo_1110089" data-name="Grupo 1110089" transform="translate(-716.051 -9271.699)">
      <g id="Grupo_1109819" data-name="Grupo 1109819" transform="translate(1121.708 2517.157)">
        <g transform="matrix(1, 0, 0, 1, -9, -6)" filter="url(#Trazado_874925)">
          <g id="Trazado_874925-2" data-name="Trazado 874925" transform="translate(9 6)" fill="#efdb59" opacity="0.859">
            <path d="M 45.45676803588867 89.41407012939453 C 39.52198028564453 89.41407012939453 33.76551818847656 88.25206756591797 28.34726715087891 85.96034240722656 C 23.11311721801758 83.74648284912109 18.41204261779785 80.57682800292969 14.37464332580566 76.5394287109375 C 10.33724308013916 72.50202941894531 7.167593002319336 67.80095672607422 4.953730583190918 62.56679534912109 C 2.662005424499512 57.14855575561523 1.500005483627319 51.39208221435547 1.500005483627319 45.45729446411133 C 1.500005483627319 39.52198028564453 2.662005424499512 33.76551818847656 4.953730583190918 28.34726905822754 C 7.167593002319336 23.11310577392578 10.33724308013916 18.41203117370605 14.37464332580566 14.37464332580566 C 18.41204261779785 10.33724403381348 23.11311721801758 7.167593955993652 28.34726715087891 4.953731060028076 C 33.76551818847656 2.662006139755249 39.52198028564453 1.500006198883057 45.45676803588867 1.500006198883057 C 51.39155578613281 1.500006198883057 57.14802932739258 2.662006139755249 62.56626892089844 4.953731060028076 C 67.80043029785156 7.167593955993652 72.50150299072266 10.33724403381348 76.53890228271484 14.37464332580566 C 80.57630920410156 18.41203117370605 83.74595642089844 23.11310577392578 85.95981597900391 28.34726905822754 C 88.25154113769531 33.76551818847656 89.41354370117188 39.52198028564453 89.41354370117188 45.45676803588867 C 89.41354370117188 51.39208221435547 88.25154113769531 57.14855575561523 85.95981597900391 62.56679534912109 C 83.74595642089844 67.80095672607422 80.57630920410156 72.50202941894531 76.53890228271484 76.5394287109375 C 72.50150299072266 80.57682800292969 67.80043029785156 83.74648284912109 62.56626892089844 85.96034240722656 C 57.14802932739258 88.25206756591797 51.39155578613281 89.41407012939453 45.45676803588867 89.41407012939453 Z" stroke="none"/>
            <path d="M 45.45676803588867 3 C 39.72381210327148 3 34.1639404296875 4.12213134765625 28.93159484863281 6.335227966308594 C 23.87622833251953 8.473472595214844 19.33542633056641 11.53517150878906 15.43529510498047 15.435302734375 C 11.53517150878906 19.33543395996094 8.473464965820312 23.87622833251953 6.335227966308594 28.93160247802734 C 4.122123718261719 34.16394424438477 3 39.72381591796875 3 45.4572868347168 C 3 51.19024658203125 4.122123718261719 56.75011825561523 6.335227966308594 61.98246002197266 C 8.473464965820312 67.03782653808594 11.53517150878906 71.57862854003906 15.43529510498047 75.478759765625 C 19.33542633056641 79.37889099121094 23.87622833251953 82.44058990478516 28.93159484863281 84.57883453369141 C 34.1639404296875 86.79193115234375 39.72381210327148 87.9140625 45.45676803588867 87.9140625 C 51.18972396850586 87.9140625 56.74959564208984 86.79193115234375 61.98194122314453 84.57883453369141 C 67.03730773925781 82.44058990478516 71.57810974121094 79.37889099121094 75.47824096679688 75.478759765625 C 79.37837219238281 71.57862854003906 82.44007110595703 67.03782653808594 84.57830810546875 61.98246002197266 C 86.79141235351562 56.75011825561523 87.91353607177734 51.19024658203125 87.91353607177734 45.4567756652832 C 87.91353607177734 39.72381591796875 86.79141235351562 34.16394424438477 84.57830810546875 28.93160247802734 C 82.44007110595703 23.87622833251953 79.37837219238281 19.33543395996094 75.47824096679688 15.435302734375 C 71.57810974121094 11.53517150878906 67.03730773925781 8.473472595214844 61.98194122314453 6.335227966308594 C 56.74959564208984 4.12213134765625 51.18972396850586 3 45.45676803588867 3 M 45.45676803588867 0 C 70.56185150146484 0 90.91353607177734 20.35169219970703 90.91353607177734 45.4567756652832 L 90.91353607177734 45.4572868347168 C 90.91353607177734 70.5623779296875 70.56185150146484 90.9140625 45.45676803588867 90.9140625 C 20.3516845703125 90.9140625 0 70.5623779296875 0 45.4572868347168 L 0 45.4567756652832 C 0 20.35169219970703 20.3516845703125 0 45.45676803588867 0 Z" stroke="none" fill="#fff"/>
          </g>
        </g>
        <g id="Trazado_874923" data-name="Trazado 874923" transform="translate(0 0)" fill="none">
          <path d="M45.457,0A45.457,45.457,0,0,1,90.914,45.457h0A45.457,45.457,0,0,1,0,45.457H0A45.457,45.457,0,0,1,45.457,0Z" stroke="none"/>
          <path d="M 45.45676803588867 3 C 39.72381210327148 3 34.1639404296875 4.12213134765625 28.93159484863281 6.335227966308594 C 23.87622833251953 8.473472595214844 19.33542633056641 11.53517150878906 15.43529510498047 15.435302734375 C 11.53517150878906 19.33543395996094 8.473464965820312 23.87622833251953 6.335227966308594 28.93160247802734 C 4.122123718261719 34.16394424438477 3 39.72381591796875 3 45.4572868347168 C 3 51.19024658203125 4.122123718261719 56.75011825561523 6.335227966308594 61.98246002197266 C 8.473464965820312 67.03782653808594 11.53517150878906 71.57862854003906 15.43529510498047 75.478759765625 C 19.33542633056641 79.37889099121094 23.87622833251953 82.44058990478516 28.93159484863281 84.57883453369141 C 34.1639404296875 86.79193115234375 39.72381210327148 87.9140625 45.45676803588867 87.9140625 C 51.18972396850586 87.9140625 56.74959564208984 86.79193115234375 61.98194122314453 84.57883453369141 C 67.03730773925781 82.44058990478516 71.57810974121094 79.37889099121094 75.47824096679688 75.478759765625 C 79.37837219238281 71.57862854003906 82.44007110595703 67.03782653808594 84.57830810546875 61.98246002197266 C 86.79141235351562 56.75011825561523 87.91353607177734 51.19024658203125 87.91353607177734 45.4567756652832 C 87.91353607177734 39.72381591796875 86.79141235351562 34.16394424438477 84.57830810546875 28.93160247802734 C 82.44007110595703 23.87622833251953 79.37837219238281 19.33543395996094 75.47824096679688 15.435302734375 C 71.57810974121094 11.53517150878906 67.03730773925781 8.473472595214844 61.98194122314453 6.335227966308594 C 56.74959564208984 4.12213134765625 51.18972396850586 3 45.45676803588867 3 M 45.45676803588867 0 C 70.56185150146484 0 90.91353607177734 20.35169219970703 90.91353607177734 45.4567756652832 L 90.91353607177734 45.4572868347168 C 90.91353607177734 70.5623779296875 70.56185150146484 90.9140625 45.45676803588867 90.9140625 C 20.3516845703125 90.9140625 0 70.5623779296875 0 45.4572868347168 L 0 45.4567756652832 C 0 20.35169219970703 20.3516845703125 0 45.45676803588867 0 Z" stroke="none" fill="#fff"/>
        </g>
      </g>
    </g>
    <g id="analitica" transform="translate(462.997 -6698.124)">
      <g id="Grupo_1110376" data-name="Grupo 1110376" transform="translate(-35.334 -35.298)">
        <g id="Grupo_1110371" data-name="Grupo 1110371" transform="translate(0)">
          <circle id="Elipse_12363" data-name="Elipse 12363" cx="9.303" cy="9.303" r="9.303" transform="translate(0 13.155) rotate(-45)" fill="#60b7ff"/>
          <circle id="Elipse_12364" data-name="Elipse 12364" cx="8.147" cy="8.147" r="8.147" transform="translate(1.634 13.155) rotate(-45)" fill="#8ac9fe"/>
          <path id="Trazado_898848" data-name="Trazado 898848" d="M112.608,112.62h9.3a9.3,9.3,0,0,1-4.651,8.058Z" transform="translate(-99.451 -99.465)" fill="#fd4755" fill-rule="evenodd"/>
          <path id="Trazado_898849" data-name="Trazado 898849" d="M112.608,112.62h8.147a8.144,8.144,0,0,1-4.073,7.057Z" transform="translate(-99.451 -99.465)" fill="#fe646f" fill-rule="evenodd"/>
          <path id="Trazado_898850" data-name="Trazado 898850" d="M121.911,17.313h-9.3V8.01A9.3,9.3,0,0,1,121.911,17.313Z" transform="translate(-99.451 -4.159)" fill="#ffd064" fill-rule="evenodd"/>
          <path id="Trazado_898851" data-name="Trazado 898851" d="M120.755,29.155h-8.147V21.008A8.147,8.147,0,0,1,120.755,29.155Z" transform="translate(-99.451 -16.001)" fill="#ffe177" fill-rule="evenodd"/>
        </g>
        <g id="Grupo_1110372" data-name="Grupo 1110372" transform="translate(26.866 3.606)">
          <path id="Trazado_898852" data-name="Trazado 898852" d="M267.76,5.247h2.4a1,1,0,0,1,1,1v2.4a1,1,0,0,1-1,1h-2.4a1,1,0,0,1-1-1v-2.4A1,1,0,0,1,267.76,5.247Z" transform="translate(-266.759 -5.247)" fill="#8ac9fe" fill-rule="evenodd"/>
          <path id="Trazado_898853" data-name="Trazado 898853" d="M267.76,87.873h2.4a1,1,0,0,1,1,1v2.4a1,1,0,0,1-1,1h-2.4a1,1,0,0,1-1-1v-2.4A1,1,0,0,1,267.76,87.873Z" transform="translate(-266.759 -80.525)" fill="#ffe177" fill-rule="evenodd"/>
          <path id="Trazado_898854" data-name="Trazado 898854" d="M267.76,170.5h2.4a1,1,0,0,1,1,1v2.4a1,1,0,0,1-1,1h-2.4a1,1,0,0,1-1-1v-2.4A1,1,0,0,1,267.76,170.5Z" transform="translate(-266.759 -155.802)" fill="#fe646f" fill-rule="evenodd"/>
        </g>
        <g id="Grupo_1110373" data-name="Grupo 1110373" transform="translate(3.854 27.565)">
          <path id="Trazado_898855" data-name="Trazado 898855" d="M197.9,348.361h2.954a.891.891,0,0,1,.889.889v12.064a.891.891,0,0,1-.889.889H197.9a.891.891,0,0,1-.889-.889V349.25A.891.891,0,0,1,197.9,348.361Z" transform="translate(-180.203 -341.806)" fill="#ffe177" fill-rule="evenodd"/>
          <path id="Trazado_898856" data-name="Trazado 898856" d="M200.856,348.361a.891.891,0,0,1,.889.889v12.064a.891.891,0,0,1-.889.889H197.9a.891.891,0,0,1-.889-.889h2.954a.891.891,0,0,0,.889-.889Z" transform="translate(-180.203 -341.806)" fill="#ffd064" fill-rule="evenodd"/>
          <path id="Trazado_898857" data-name="Trazado 898857" d="M294.486,348.361h2.954a.891.891,0,0,1,.889.889v12.064a.891.891,0,0,1-.889.889h-2.954a.891.891,0,0,1-.889-.889V349.25A.891.891,0,0,1,294.486,348.361Z" transform="translate(-268.198 -341.806)" fill="#fe646f" fill-rule="evenodd"/>
          <path id="Trazado_898858" data-name="Trazado 898858" d="M297.441,348.361a.891.891,0,0,1,.889.889v12.064a.891.891,0,0,1-.889.889h-2.954a.891.891,0,0,1-.889-.889h2.954a.891.891,0,0,0,.889-.889Z" transform="translate(-268.198 -341.806)" fill="#fd4755" fill-rule="evenodd"/>
          <path id="Trazado_898859" data-name="Trazado 898859" d="M8.889,321.361h2.954a.891.891,0,0,1,.889.889v14.465a.891.891,0,0,1-.889.889H8.889A.891.891,0,0,1,8,336.715V322.25A.891.891,0,0,1,8.889,321.361Z" transform="translate(-8 -317.208)" fill="#6cf5c2" fill-rule="evenodd"/>
          <path id="Trazado_898860" data-name="Trazado 898860" d="M11.844,321.361a.891.891,0,0,1,.889.889v14.465a.891.891,0,0,1-.889.889H8.889A.891.891,0,0,1,8,336.715h2.954a.891.891,0,0,0,.889-.889Z" transform="translate(-8 -317.208)" fill="#00e499" fill-rule="evenodd"/>
          <path id="Trazado_898861" data-name="Trazado 898861" d="M101.315,274.658h2.954a.891.891,0,0,1,.889.889v18.618a.891.891,0,0,1-.889.889h-2.954a.891.891,0,0,1-.889-.889V275.547A.891.891,0,0,1,101.315,274.658Z" transform="translate(-92.206 -274.658)" fill="#8ac9fe" fill-rule="evenodd"/>
          <path id="Trazado_898862" data-name="Trazado 898862" d="M104.27,274.658a.891.891,0,0,1,.889.889v18.618a.891.891,0,0,1-.889.889h-2.954a.891.891,0,0,1-.889-.889h2.954a.891.891,0,0,0,.889-.889Z" transform="translate(-92.206 -274.658)" fill="#60b7ff" fill-rule="evenodd"/>
        </g>
        <g id="Grupo_1110374" data-name="Grupo 1110374" transform="translate(18.065 17.134)">
          <path id="Trazado_898863" data-name="Trazado 898863" d="M374.776,354.862a9.212,9.212,0,0,1-1.555,1.711l4.227,4.144,1.609-1.658Z" transform="translate(-354.953 -337.298)" fill="#a79ba7" fill-rule="evenodd"/>
          <path id="Trazado_898864" data-name="Trazado 898864" d="M386.309,354.541a1.062,1.062,0,0,1-.46.617l4.2,4.172.514-.563Z" transform="translate(-366.458 -337.006)" fill="#837683" fill-rule="evenodd"/>
          <path id="Trazado_898865" data-name="Trazado 898865" d="M414.766,397.534l1.816-1.872a.835.835,0,0,0-.018-1.178l-5.03-4.881a.835.835,0,0,0-1.178.018l-1.816,1.872a.835.835,0,0,0,.018,1.178l5.03,4.881A.835.835,0,0,0,414.766,397.534Z" transform="translate(-386.917 -368.736)" fill="#f1ba84" fill-rule="evenodd"/>
          <path id="Trazado_898866" data-name="Trazado 898866" d="M434.1,389.6l5.03,4.881a.835.835,0,0,1,.018,1.177l-1.816,1.872a.827.827,0,0,1-.226.165.836.836,0,0,0,.97-.165l1.816-1.872a.835.835,0,0,0-.018-1.178l-5.03-4.881a.836.836,0,0,0-.952-.147A.83.83,0,0,1,434.1,389.6Z" transform="translate(-410.233 -368.736)" fill="#e3a76f" fill-rule="evenodd"/>
          <circle id="Elipse_12365" data-name="Elipse 12365" cx="9.16" cy="9.16" r="9.16" transform="translate(0 12.953) rotate(-45)" fill="#eceff1"/>
          <path id="Trazado_898867" data-name="Trazado 898867" d="M308.959,200a9.16,9.16,0,1,1,0,18.321q-.224,0-.445-.011a9.16,9.16,0,0,0,0-18.3Q308.735,200,308.959,200Z" transform="translate(-296 -196.212)" fill="#d1d1d6" fill-rule="evenodd"/>
        </g>
        <g id="Grupo_1110375" data-name="Grupo 1110375" transform="translate(24.354 23.416)">
          <circle id="Elipse_12366" data-name="Elipse 12366" cx="6.67" cy="6.67" r="6.67" transform="translate(0 0)" fill="#837683"/>
          <path id="Trazado_898868" data-name="Trazado 898868" d="M312.922,234.675a6.671,6.671,0,0,1-6.077,6.644q.293.026.593.026a6.73,6.73,0,0,0,.954-.068l.12-.018a6.67,6.67,0,0,0-1.075-13.254q-.3,0-.593.026A6.671,6.671,0,0,1,312.922,234.675Z" transform="translate(-300.768 -228.005)" fill="#685e68" fill-rule="evenodd"/>
          <path id="Trazado_898869" data-name="Trazado 898869" d="M266.067,310.239a4.66,4.66,0,0,0-4.631,4.157,6.648,6.648,0,0,0,4.631,1.87,6.73,6.73,0,0,0,.954-.068,6.649,6.649,0,0,0,3.676-1.8A4.658,4.658,0,0,0,266.067,310.239Z" transform="translate(-259.397 -302.926)" fill="#8ac9fe" fill-rule="evenodd"/>
          <path id="Trazado_898870" data-name="Trazado 898870" d="M306.847,310.276c2.773.352,3.89,2.45,4.147,4.964a6.688,6.688,0,0,0,1.077-.845,4.658,4.658,0,0,0-4.631-4.156A4.709,4.709,0,0,0,306.847,310.276Z" transform="translate(-300.77 -302.926)" fill="#60b7ff" fill-rule="evenodd"/>
          <circle id="Elipse_12367" data-name="Elipse 12367" cx="2.355" cy="2.355" r="2.355" transform="translate(4.315 2.251)" fill="#f6dccd"/>
          <path id="Trazado_898871" data-name="Trazado 898871" d="M312.24,255.673a2.355,2.355,0,0,1-2.059,2.337,2.381,2.381,0,0,0,.3.018,2.355,2.355,0,1,0-.3-4.691,2.355,2.355,0,0,1,2.059,2.337Z" transform="translate(-303.807 -251.067)" fill="#f1cbbc" fill-rule="evenodd"/>
        </g>
      </g>
      <path id="Trazado_898872" data-name="Trazado 898872" d="M21.92,26.955a5.922,5.922,0,0,0,.984,3.273,5.354,5.354,0,0,1,2.761-2.867,3.066,3.066,0,1,1,4.428,0,5.359,5.359,0,0,1,2.761,2.867A5.957,5.957,0,1,0,21.92,26.955Zm5.959-.068a1.644,1.644,0,1,1,1.643-1.644A1.645,1.645,0,0,1,27.878,26.887Zm0,6.027a5.93,5.93,0,0,1-3.869-1.433,3.947,3.947,0,0,1,7.74,0A5.933,5.933,0,0,1,27.878,32.913ZM20.5,26.955a7.381,7.381,0,1,1,7.381,7.381A7.39,7.39,0,0,1,20.5,26.955Zm-7.547-1.81H9.64V44.119h3.31Zm1.423-.712v20.4a.712.712,0,0,1-.711.712H8.929a.712.712,0,0,1-.712-.712v-20.4a.711.711,0,0,1,.712-.712h4.733a.712.712,0,0,1,.711.712Zm29.7,15.827L39.041,35.38a.117.117,0,0,0-.084-.033h0a.119.119,0,0,0-.085.036l-1.816,1.872a.125.125,0,0,0,0,.172l5.03,4.882a.125.125,0,0,0,.172,0l1.817-1.872A.125.125,0,0,0,44.071,40.261ZM30.129,36.568a9.895,9.895,0,0,1-3.31.2v7.349h3.31Zm-8.59-2.052A9.942,9.942,0,0,1,19.224,31.7h-1V44.119h3.31ZM19.43,26.955A8.449,8.449,0,1,1,27.878,35.4a8.458,8.458,0,0,1-8.448-8.449Zm5.247-9.339a9.8,9.8,0,0,1,2.488-.507v-.981H24.677ZM35.459,33.271c-.19.227-.39.447-.6.656l1.771,1.719.619-.637ZM45.1,41.424,43.279,43.3a1.546,1.546,0,0,1-2.184.033l-5.03-4.881a1.547,1.547,0,0,1-.349-1.705l-1.936-1.879a9.867,9.867,0,0,1-2.229,1.254v8.713a.712.712,0,0,1-.711.712H26.108a.712.712,0,0,1-.712-.712V36.51a9.8,9.8,0,0,1-2.434-1v9.318a.712.712,0,0,1-.712.712H17.518a.712.712,0,0,1-.711-.712V30.988a.711.711,0,0,1,.711-.712h1.064a9.871,9.871,0,0,1,4.673-12.042V15.416a.712.712,0,0,1,.712-.712h3.91a.712.712,0,0,1,.712.712v1.693a9.8,9.8,0,0,1,3.75,1.04h5.6a.711.711,0,1,1,0,1.423H34.424A9.855,9.855,0,0,1,36.3,32.1l2.018,1.959a1.549,1.549,0,0,1,1.716.3l5.03,4.882a1.545,1.545,0,0,1,.033,2.183ZM4.73,29.3H1.42V44.119H4.73Zm1.423-.711V44.831a.712.712,0,0,1-.712.712H.709A.712.712,0,0,1,0,44.831V28.587a.711.711,0,0,1,.712-.712H5.442a.711.711,0,0,1,.712.712Zm18.524-17.32h2.488V8.78H24.677Zm-1.423.712V8.068a.711.711,0,0,1,.712-.711h3.91a.711.711,0,0,1,.712.711v3.91a.712.712,0,0,1-.712.712h-3.91A.712.712,0,0,1,23.254,11.979Zm7.8.246h6.882a.712.712,0,1,0,0-1.423H31.055a.712.712,0,0,0,0,1.423Zm0-2.979H44.819a.712.712,0,0,0,0-1.423H31.055a.712.712,0,0,0,0,1.423ZM24.677,3.919h2.488V1.432H24.677Zm-1.423.712V.721a.711.711,0,0,1,.712-.712h3.91a.711.711,0,0,1,.712.712V4.63a.711.711,0,0,1-.712.712h-3.91A.711.711,0,0,1,23.254,4.63Zm7.8.246h6.882a.711.711,0,1,0,0-1.423H31.055a.711.711,0,0,0,0,1.423Zm0-2.978H44.819a.712.712,0,0,0,0-1.423H31.055a.712.712,0,0,0,0,1.423ZM1.42,10.023a8.591,8.591,0,0,0,12.317,7.741L9.4,10.384a.718.718,0,0,1-.1-.361V1.461A8.6,8.6,0,0,0,1.42,10.023Zm9.3-8.562a8.607,8.607,0,0,1,7.851,7.854l-7.851,0Zm7.85,9.277-7.318,0,3.708,6.306a8.593,8.593,0,0,0,3.61-6.3ZM0,10.023A10.015,10.015,0,1,0,10.012.009,10.026,10.026,0,0,0,0,10.023Zm30.347,5.859a.711.711,0,0,0,.711.711H44.819a.711.711,0,1,0,0-1.423H31.055A.711.711,0,0,0,30.344,15.882Z" transform="translate(-32.189 -32.167)" fill-rule="evenodd"/>
    </g>
  </g>
</svg>
