<svg xmlns="http://www.w3.org/2000/svg" xmlns:xlink="http://www.w3.org/1999/xlink" width="108.914" height="108.914" viewBox="0 0 108.914 108.914">
  <defs>
    <filter id="Trazado_874925" x="0" y="0" width="108.914" height="108.914" filterUnits="userSpaceOnUse">
      <feOffset dy="3" input="SourceAlpha"/>
      <feGaussianBlur stdDeviation="3" result="blur"/>
      <feFlood flood-opacity="0.161"/>
      <feComposite operator="in" in2="blur"/>
      <feComposite in="SourceGraphic"/>
    </filter>
  </defs>
  <g id="Grupo_1110394" data-name="Grupo 1110394" transform="translate(-720.001 6761)">
    <g id="Grupo_1110090" data-name="Grupo 1110090" transform="translate(-392.708 -9272.157)">
      <g id="Grupo_1109819" data-name="Grupo 1109819" transform="translate(1121.708 2517.157)">
        <g transform="matrix(1, 0, 0, 1, -9, -6)" filter="url(#Trazado_874925)">
          <g id="Trazado_874925-2" data-name="Trazado 874925" transform="translate(9 6)" fill="#efdb59" opacity="0.859">
            <path d="M 45.45676803588867 89.41407012939453 C 39.52198028564453 89.41407012939453 33.76551818847656 88.25206756591797 28.34726715087891 85.96034240722656 C 23.11311721801758 83.74648284912109 18.41204261779785 80.57682800292969 14.37464332580566 76.5394287109375 C 10.33724308013916 72.50202941894531 7.167593002319336 67.80095672607422 4.953730583190918 62.56679534912109 C 2.662005424499512 57.14855575561523 1.500005483627319 51.39208221435547 1.500005483627319 45.45729446411133 C 1.500005483627319 39.52198028564453 2.662005424499512 33.76551818847656 4.953730583190918 28.34726905822754 C 7.167593002319336 23.11310577392578 10.33724308013916 18.41203117370605 14.37464332580566 14.37464332580566 C 18.41204261779785 10.33724403381348 23.11311721801758 7.167593955993652 28.34726715087891 4.953731060028076 C 33.76551818847656 2.662006139755249 39.52198028564453 1.500006198883057 45.45676803588867 1.500006198883057 C 51.39155578613281 1.500006198883057 57.14802932739258 2.662006139755249 62.56626892089844 4.953731060028076 C 67.80043029785156 7.167593955993652 72.50150299072266 10.33724403381348 76.53890228271484 14.37464332580566 C 80.57630920410156 18.41203117370605 83.74595642089844 23.11310577392578 85.95981597900391 28.34726905822754 C 88.25154113769531 33.76551818847656 89.41354370117188 39.52198028564453 89.41354370117188 45.45676803588867 C 89.41354370117188 51.39208221435547 88.25154113769531 57.14855575561523 85.95981597900391 62.56679534912109 C 83.74595642089844 67.80095672607422 80.57630920410156 72.50202941894531 76.53890228271484 76.5394287109375 C 72.50150299072266 80.57682800292969 67.80043029785156 83.74648284912109 62.56626892089844 85.96034240722656 C 57.14802932739258 88.25206756591797 51.39155578613281 89.41407012939453 45.45676803588867 89.41407012939453 Z" stroke="none"/>
            <path d="M 45.45676803588867 3 C 39.72381210327148 3 34.1639404296875 4.12213134765625 28.93159484863281 6.335227966308594 C 23.87622833251953 8.473472595214844 19.33542633056641 11.53517150878906 15.43529510498047 15.435302734375 C 11.53517150878906 19.33543395996094 8.473464965820312 23.87622833251953 6.335227966308594 28.93160247802734 C 4.122123718261719 34.16394424438477 3 39.72381591796875 3 45.4572868347168 C 3 51.19024658203125 4.122123718261719 56.75011825561523 6.335227966308594 61.98246002197266 C 8.473464965820312 67.03782653808594 11.53517150878906 71.57862854003906 15.43529510498047 75.478759765625 C 19.33542633056641 79.37889099121094 23.87622833251953 82.44058990478516 28.93159484863281 84.57883453369141 C 34.1639404296875 86.79193115234375 39.72381210327148 87.9140625 45.45676803588867 87.9140625 C 51.18972396850586 87.9140625 56.74959564208984 86.79193115234375 61.98194122314453 84.57883453369141 C 67.03730773925781 82.44058990478516 71.57810974121094 79.37889099121094 75.47824096679688 75.478759765625 C 79.37837219238281 71.57862854003906 82.44007110595703 67.03782653808594 84.57830810546875 61.98246002197266 C 86.79141235351562 56.75011825561523 87.91353607177734 51.19024658203125 87.91353607177734 45.4567756652832 C 87.91353607177734 39.72381591796875 86.79141235351562 34.16394424438477 84.57830810546875 28.93160247802734 C 82.44007110595703 23.87622833251953 79.37837219238281 19.33543395996094 75.47824096679688 15.435302734375 C 71.57810974121094 11.53517150878906 67.03730773925781 8.473472595214844 61.98194122314453 6.335227966308594 C 56.74959564208984 4.12213134765625 51.18972396850586 3 45.45676803588867 3 M 45.45676803588867 0 C 70.56185150146484 0 90.91353607177734 20.35169219970703 90.91353607177734 45.4567756652832 L 90.91353607177734 45.4572868347168 C 90.91353607177734 70.5623779296875 70.56185150146484 90.9140625 45.45676803588867 90.9140625 C 20.3516845703125 90.9140625 0 70.5623779296875 0 45.4572868347168 L 0 45.4567756652832 C 0 20.35169219970703 20.3516845703125 0 45.45676803588867 0 Z" stroke="none" fill="#fff"/>
          </g>
        </g>
        <g id="Trazado_874923" data-name="Trazado 874923" transform="translate(0 0)" fill="none">
          <path d="M45.457,0A45.457,45.457,0,0,1,90.914,45.457h0A45.457,45.457,0,0,1,0,45.457H0A45.457,45.457,0,0,1,45.457,0Z" stroke="none"/>
          <path d="M 45.45676803588867 3 C 39.72381210327148 3 34.1639404296875 4.12213134765625 28.93159484863281 6.335227966308594 C 23.87622833251953 8.473472595214844 19.33542633056641 11.53517150878906 15.43529510498047 15.435302734375 C 11.53517150878906 19.33543395996094 8.473464965820312 23.87622833251953 6.335227966308594 28.93160247802734 C 4.122123718261719 34.16394424438477 3 39.72381591796875 3 45.4572868347168 C 3 51.19024658203125 4.122123718261719 56.75011825561523 6.335227966308594 61.98246002197266 C 8.473464965820312 67.03782653808594 11.53517150878906 71.57862854003906 15.43529510498047 75.478759765625 C 19.33542633056641 79.37889099121094 23.87622833251953 82.44058990478516 28.93159484863281 84.57883453369141 C 34.1639404296875 86.79193115234375 39.72381210327148 87.9140625 45.45676803588867 87.9140625 C 51.18972396850586 87.9140625 56.74959564208984 86.79193115234375 61.98194122314453 84.57883453369141 C 67.03730773925781 82.44058990478516 71.57810974121094 79.37889099121094 75.47824096679688 75.478759765625 C 79.37837219238281 71.57862854003906 82.44007110595703 67.03782653808594 84.57830810546875 61.98246002197266 C 86.79141235351562 56.75011825561523 87.91353607177734 51.19024658203125 87.91353607177734 45.4567756652832 C 87.91353607177734 39.72381591796875 86.79141235351562 34.16394424438477 84.57830810546875 28.93160247802734 C 82.44007110595703 23.87622833251953 79.37837219238281 19.33543395996094 75.47824096679688 15.435302734375 C 71.57810974121094 11.53517150878906 67.03730773925781 8.473472595214844 61.98194122314453 6.335227966308594 C 56.74959564208984 4.12213134765625 51.18972396850586 3 45.45676803588867 3 M 45.45676803588867 0 C 70.56185150146484 0 90.91353607177734 20.35169219970703 90.91353607177734 45.4567756652832 L 90.91353607177734 45.4572868347168 C 90.91353607177734 70.5623779296875 70.56185150146484 90.9140625 45.45676803588867 90.9140625 C 20.3516845703125 90.9140625 0 70.5623779296875 0 45.4572868347168 L 0 45.4567756652832 C 0 20.35169219970703 20.3516845703125 0 45.45676803588867 0 Z" stroke="none" fill="#fff"/>
        </g>
      </g>
    </g>
    <g id="entrevista_1_" data-name="entrevista (1)" transform="translate(748 -6735)">
      <g id="Grupo_1110392" data-name="Grupo 1110392" transform="translate(0.85 0.85)">
        <g id="Grupo_1110378" data-name="Grupo 1110378" transform="translate(32.318 0.85)">
          <path id="Trazado_898873" data-name="Trazado 898873" d="M39,10.5V3.7A1.706,1.706,0,0,1,40.7,2H56.01a1.706,1.706,0,0,1,1.7,1.7v6.8a1.706,1.706,0,0,1-1.7,1.7h-5.1l-1.318,2.645a1.383,1.383,0,0,1-2.466,0L45.8,12.206H40.7A1.706,1.706,0,0,1,39,10.5Z" transform="translate(-39 -2)" fill="#e6e9ed"/>
        </g>
        <g id="Grupo_1110379" data-name="Grupo 1110379">
          <path id="Trazado_898874" data-name="Trazado 898874" d="M2.7,1H18.01a1.706,1.706,0,0,1,1.7,1.7v8.5a1.706,1.706,0,0,1-1.7,1.7h-5.1l-1.318,2.645a1.383,1.383,0,0,1-2.466,0L7.8,12.907H2.7a1.706,1.706,0,0,1-1.7-1.7V2.7A1.706,1.706,0,0,1,2.7,1Z" transform="translate(-1 -1)" fill="#e6e9ed"/>
        </g>
        <g id="Grupo_1110380" data-name="Grupo 1110380" transform="translate(34.019 39.13)">
          <path id="Trazado_898875" data-name="Trazado 898875" d="M47.8,53.814V49.561a2.545,2.545,0,0,1,.748-1.8,2.51,2.51,0,0,1,1.8-.748,2.547,2.547,0,0,1,2.551,2.551v5.953a3.4,3.4,0,0,1-3.4,3.4H42.7a1.7,1.7,0,0,1-1.7-1.7v-1.7a1.69,1.69,0,0,1,.493-1.2H41.5a1.683,1.683,0,0,1,1.2-.5Z" transform="translate(-41 -47.01)" fill="#fcd770"/>
        </g>
        <g id="Grupo_1110381" data-name="Grupo 1110381" transform="translate(35.72 39.13)">
          <path id="Trazado_898876" data-name="Trazado 898876" d="M46.9,47.886l.833-.357a4.482,4.482,0,0,1,.434-.162,6.315,6.315,0,0,1,2.109-.357h.374a2.51,2.51,0,0,0-1.8.748,2.545,2.545,0,0,0-.748,1.8v4.252H43a6.463,6.463,0,0,1,3.9-5.928Z" transform="translate(-43 -47.01)" fill="#fcd770"/>
        </g>
        <g id="Grupo_1110382" data-name="Grupo 1110382" transform="translate(29.767 17.86)">
          <path id="Trazado_898877" data-name="Trazado 898877" d="M45.355,30.513H36l.136-.264a7.634,7.634,0,0,1,4.525-3.87,10.222,10.222,0,0,0-4.329-.97H36A8.515,8.515,0,0,1,42.8,22H46.41A10.86,10.86,0,0,1,57.262,32.852a10.126,10.126,0,0,1-6.8,9.568V38.168l1.2-1.2a1.706,1.706,0,0,0,.5-1.208v-.145a1.663,1.663,0,0,0-.5-1.2,1.7,1.7,0,0,0-1.2-.5,3.4,3.4,0,0,0-3.4-3.4Z" transform="translate(-36 -22)" fill="#b27946"/>
        </g>
        <g id="Grupo_1110383" data-name="Grupo 1110383" transform="translate(24.664 39.122)">
          <path id="Trazado_898878" data-name="Trazado 898878" d="M36.8,47v6.319a1.541,1.541,0,0,0-.459.553l-.391.791H35.1a1.706,1.706,0,0,0-1.7,1.7,2.545,2.545,0,0,0,.748,1.8,2.464,2.464,0,0,0,1.675.74H30V47Z" transform="translate(-30 -47)" fill="#e6e9ed"/>
        </g>
        <g id="Grupo_1110384" data-name="Grupo 1110384" transform="translate(28.066 45.084)">
          <path id="Trazado_898879" data-name="Trazado 898879" d="M39.953,58.262a1.7,1.7,0,0,0,1.7,1.7h-5.1a.644.644,0,0,1-.128-.008,2.464,2.464,0,0,1-1.675-.74,2.545,2.545,0,0,1-.748-1.8,1.706,1.706,0,0,1,1.7-1.7h.85l.391-.791a1.541,1.541,0,0,1,.459-.553v-.009a1.654,1.654,0,0,1,2.186.136l.859.867a1.69,1.69,0,0,0-.493,1.2Z" transform="translate(-34 -54.01)" fill="#f0d0b4"/>
        </g>
        <g id="Grupo_1110385" data-name="Grupo 1110385" transform="translate(32.318 26.373)">
          <path id="Trazado_898880" data-name="Trazado 898880" d="M40.7,42.216v-3.4l-1.7-1.7a5.813,5.813,0,0,0,1.7-4.108v-1h6.8a3.4,3.4,0,0,1,3.4,3.4,1.7,1.7,0,0,1,1.2.5,1.663,1.663,0,0,1,.5,1.2v.145a1.706,1.706,0,0,1-.5,1.208l-1.2,1.2v5.1H49.682a6.315,6.315,0,0,0-2.109.357l-3.249.459a2.616,2.616,0,0,1-.451.034A3.165,3.165,0,0,1,40.7,42.445Z" transform="translate(-39 -32.01)" fill="#f0d0b4"/>
        </g>
        <g id="Grupo_1110386" data-name="Grupo 1110386" transform="translate(17.188 39.122)">
          <path id="Trazado_898881" data-name="Trazado 898881" d="M24.348,54.348a1.529,1.529,0,0,1-.2.408,1.766,1.766,0,0,0-.561-.094h-.85l-.4-.791A1.617,1.617,0,0,0,21.21,53V53l1.607-4.831A1.693,1.693,0,0,1,24.433,47a1.643,1.643,0,0,1,.536.085,1.7,1.7,0,0,1,1.08,2.152Z" transform="translate(-21.21 -47)" fill="#969faa"/>
        </g>
        <g id="Grupo_1110387" data-name="Grupo 1110387" transform="translate(13.608 45.084)">
          <path id="Trazado_898882" data-name="Trazado 898882" d="M23.515,55.8a1.712,1.712,0,0,1,1.14,1.607,2.545,2.545,0,0,1-.748,1.8,2.51,2.51,0,0,1-1.8.748H17a1.706,1.706,0,0,0,1.7-1.7v-1.7a1.663,1.663,0,0,0-.5-1.2l.867-.867a1.627,1.627,0,0,1,1.165-.485l.349.043a1.617,1.617,0,0,1,1.123.867l.4.791h.85A1.766,1.766,0,0,1,23.515,55.8Z" transform="translate(-17 -54.01)" fill="#f0d0b4"/>
        </g>
        <g id="Grupo_1110388" data-name="Grupo 1110388" transform="translate(3.402 26.373)">
          <path id="Trazado_898883" data-name="Trazado 898883" d="M16.907,42.216v.23a3.165,3.165,0,0,1-3.181,3.172,2.582,2.582,0,0,1-.442-.034l-3.249-.459a6.315,6.315,0,0,0-2.109-.357H6.7v-5.1l-1.208-1.2A1.734,1.734,0,0,1,5,37.257v-.145a1.7,1.7,0,0,1,1.7-1.7,3.4,3.4,0,0,1,3.4-3.4h6.8v1a5.813,5.813,0,0,0,1.7,4.108l-1.7,1.7Z" transform="translate(-5 -32.01)" fill="#f0d0b4"/>
        </g>
        <g id="Grupo_1110389" data-name="Grupo 1110389" transform="translate(5.953 39.13)">
          <path id="Trazado_898884" data-name="Trazado 898884" d="M10.551,49.561a2.545,2.545,0,0,0-.748-1.8A2.51,2.51,0,0,0,8,47.01h.374a6.315,6.315,0,0,1,2.109.357,4.483,4.483,0,0,1,.434.162l.825.357a6.458,6.458,0,0,1,3.912,5.928h-5.1Z" transform="translate(-8 -47.01)" fill="#ff826e"/>
        </g>
        <g id="Grupo_1110390" data-name="Grupo 1110390" transform="translate(3.402 39.13)">
          <path id="Trazado_898885" data-name="Trazado 898885" d="M10.1,53.814h5.1a1.7,1.7,0,0,1,1.2.5,1.663,1.663,0,0,1,.5,1.2v1.7a1.706,1.706,0,0,1-1.7,1.7H8.4a3.4,3.4,0,0,1-3.4-3.4V49.561A2.547,2.547,0,0,1,7.551,47.01a2.51,2.51,0,0,1,1.8.748,2.545,2.545,0,0,1,.748,1.8Z" transform="translate(-5 -47.01)" fill="#ff826e"/>
        </g>
        <g id="Grupo_1110391" data-name="Grupo 1110391" transform="translate(0 18.711)">
          <path id="Trazado_898886" data-name="Trazado 898886" d="M16.309,30.663H9.5a3.4,3.4,0,0,0-3.4,3.4,1.7,1.7,0,0,0-1.7,1.7v.145A1.734,1.734,0,0,0,4.9,37.118l1.208,1.2v5.247a2.543,2.543,0,0,0-1.7,2.407v5.945a8.5,8.5,0,0,1-3.4-6.8V30.654A7.655,7.655,0,0,1,8.654,23h3.4a5.953,5.953,0,0,1,5.953,5.953,1.706,1.706,0,0,1-1.7,1.7Z" transform="translate(-1 -23)" fill="#fcd770"/>
        </g>
      </g>
      <g id="Grupo_1110393" data-name="Grupo 1110393" transform="translate(0)">
        <path id="Trazado_898887" data-name="Trazado 898887" d="M2.551,13.608H7.129l1.085,2.171a2.227,2.227,0,0,0,3.984,0l1.085-2.171H17.86a2.555,2.555,0,0,0,2.551-2.551v-8.5A2.555,2.555,0,0,0,17.86,0H2.551A2.555,2.555,0,0,0,0,2.551v8.5A2.555,2.555,0,0,0,2.551,13.608ZM1.7,2.551a.851.851,0,0,1,.85-.85H17.86a.851.851,0,0,1,.85.85v8.5a.851.851,0,0,1-.85.85H12.232l-1.556,3.111a.544.544,0,0,1-.94,0L8.18,11.907H2.551a.851.851,0,0,1-.85-.85Z" transform="translate(0)"/>
        <path id="Trazado_898888" data-name="Trazado 898888" d="M9.735,4.348,8.259,3.5,5.409,8.49,4.5,7.577l-1.2,1.2,2.488,2.488Z" transform="translate(-0.492 -0.524)"/>
        <path id="Trazado_898889" data-name="Trazado 898889" d="M55.86,1H40.551A2.555,2.555,0,0,0,38,3.551v6.8a2.555,2.555,0,0,0,2.551,2.551h4.577l1.085,2.171a2.227,2.227,0,0,0,3.984,0l1.085-2.171H55.86a2.555,2.555,0,0,0,2.551-2.551v-6.8A2.555,2.555,0,0,0,55.86,1Zm.85,9.355a.851.851,0,0,1-.85.85H50.232l-1.556,3.111a.544.544,0,0,1-.94,0L46.18,11.206H40.551a.851.851,0,0,1-.85-.85v-6.8a.851.851,0,0,1,.85-.85H55.86a.851.851,0,0,1,.85.85Z" transform="translate(-5.682 -0.15)"/>
        <path id="Trazado_898890" data-name="Trazado 898890" d="M45.366,21c-1.844,0-3.28,0-3.624,0a9.423,9.423,0,0,0-7.469,3.75.85.85,0,0,0,.68,1.361h.336a9.3,9.3,0,0,1,2.1.242,8.5,8.5,0,0,0-3.063,3.364l-.133.265a.851.851,0,0,0,.761,1.231h3.4v.145A4.925,4.925,0,0,1,36.9,34.865l-.6.6,2.052,2.053V40.8A4.021,4.021,0,0,0,42.179,44.8a7.26,7.26,0,0,0-2.071,4.413,2.455,2.455,0,0,0-.294.115l-.374-.374a2.515,2.515,0,0,0-1.766-.731c-.057,0-.111.008-.168.012V42.262H29V55.87h6.718c.03,0,.057.009.086.009H47.71a4.258,4.258,0,0,0,4.252-4.252V45.671a3.4,3.4,0,0,0-1.586-2.866,10.987,10.987,0,0,0,6.69-10.1A11.718,11.718,0,0,0,45.366,21ZM40.155,41.42h1.6a3.405,3.405,0,0,0,3.4-3.4h-1.7a1.7,1.7,0,0,1-1.7,1.7h-1.7v-2.9L38.67,35.429a6.611,6.611,0,0,0,1.386-4.069v-.146H46.01a2.555,2.555,0,0,1,2.551,2.551v.85h.85a.851.851,0,0,1,.85.85v.145a.847.847,0,0,1-.249.6l-1.452,1.452v4.6h-.378a7.257,7.257,0,0,0-2.284.371l-3.188.456A2.345,2.345,0,0,1,40.155,41.42Zm4.994,3.359.165-.071a3.34,3.34,0,0,0-.156.963v3.4H41.823A5.591,5.591,0,0,1,45.149,44.779Zm-6.913,5.379.374.374a2.525,2.525,0,0,0-.256,1.094v1.7a2.523,2.523,0,0,0,.156.85H36.654v-.009h-.936A1.7,1.7,0,0,1,34.1,52.476a.851.851,0,0,1,.85-.85h1.376l.63-1.26a.826.826,0,0,1,1.277-.207Zm-7.535-6.2h5.1v5.1a2.5,2.5,0,0,0-.366.538l-.16.32h-.325A2.555,2.555,0,0,0,32.4,52.476a3.363,3.363,0,0,0,.469,1.692H30.7Zm19.56,7.662a2.555,2.555,0,0,1-2.551,2.551h-6.8a.851.851,0,0,1-.85-.85v-1.7a.851.851,0,0,1,.85-.85h4.649L47,52.947,48.417,52,46.86,49.667v-4a1.7,1.7,0,0,1,1.688-1.7h.025a1.7,1.7,0,0,1,1.69,1.7v5.954Zm0-10.643V38.37l.953-.953a2.533,2.533,0,0,0,.748-1.8v-.146A2.557,2.557,0,0,0,50.2,33.039a4.259,4.259,0,0,0-3.515-3.466,2.536,2.536,0,0,0-2.376-3.462h-.85v1.7h.85a.85.85,0,1,1,0,1.7H36.437a6.813,6.813,0,0,1,3.138-2.346,9.473,9.473,0,0,1,.86.5l.943-1.415a10.945,10.945,0,0,0-4.558-1.738A7.714,7.714,0,0,1,41.748,22.7h3.618a10.014,10.014,0,0,1,10,10,9.283,9.283,0,0,1-5.1,8.279Z" transform="translate(-4.336 -3.14)"/>
        <circle id="Elipse_12368" data-name="Elipse 12368" cx="0.85" cy="0.85" r="0.85" transform="translate(37.421 29.775)"/>
        <circle id="Elipse_12369" data-name="Elipse 12369" cx="0.85" cy="0.85" r="0.85" transform="translate(11.906 29.775)"/>
        <path id="Trazado_898891" data-name="Trazado 898891" d="M22.068,42.542a2.549,2.549,0,0,0-3.228,1.614L17.427,48.4a2.507,2.507,0,0,0-1.5.705l-.373.374a2.511,2.511,0,0,0-.294-.115,7.26,7.26,0,0,0-2.071-4.413,4.021,4.021,0,0,0,3.823-4.006V37.669l2.053-2.053-.6-.6a4.925,4.925,0,0,1-1.452-3.506V31.2a2.546,2.546,0,0,0,1.7-2.395,6.812,6.812,0,0,0-6.8-6.8H8.5A8.514,8.514,0,0,0,0,30.5V44.963a9.39,9.39,0,0,0,3.444,7.232,4.243,4.243,0,0,0,4.209,3.833H19.559a3.405,3.405,0,0,0,3.4-3.4,2.535,2.535,0,0,0-.915-1.941l1.637-4.918a2.554,2.554,0,0,0-1.615-3.224Zm-8.527,6.681H10.2v-3.4a3.377,3.377,0,0,0-.154-.963l.163.07a5.59,5.59,0,0,1,3.327,4.295Zm1.766-12.259v2.9h-1.7a1.7,1.7,0,0,1-1.7-1.7H10.2a3.405,3.405,0,0,0,3.4,3.4h1.6a2.321,2.321,0,0,1-2.229,1.7,2.364,2.364,0,0,1-.33-.023l-3.188-.457a7.251,7.251,0,0,0-2.283-.371H6.8v-4.6L5.35,36.364a.849.849,0,0,1-.249-.6v-.145a.851.851,0,0,1,.85-.85H6.8v-.85a2.555,2.555,0,0,1,2.551-2.551h5.953v.145a6.611,6.611,0,0,0,1.386,4.069Zm-13.606,8V30.5a6.812,6.812,0,0,1,6.8-6.8h3.4a5.108,5.108,0,0,1,5.1,5.1.851.851,0,0,1-.85.85H13.608v.009H9.354a4.26,4.26,0,0,0-4.19,3.526A2.556,2.556,0,0,0,3.4,35.616v.145a2.54,2.54,0,0,0,.748,1.8l.953.953v4.373A3.389,3.389,0,0,0,3.4,45.82v3.94a7.686,7.686,0,0,1-1.7-4.8Zm3.4,6.811V45.82a1.7,1.7,0,0,1,1.689-1.7h.025a1.7,1.7,0,0,1,1.687,1.7v4L6.947,52.155l1.415.942,1.447-2.172h4.65a.851.851,0,0,1,.85.85v1.7a.851.851,0,0,1-.85.85h-6.8A2.555,2.555,0,0,1,5.1,51.774Zm14.456,2.552H16.853a2.523,2.523,0,0,0,.156-.85v-1.7a2.525,2.525,0,0,0-.256-1.094l.373-.373a.826.826,0,0,1,1.277.207l.629,1.26H20.41a.851.851,0,0,1,.85.85A1.7,1.7,0,0,1,19.559,54.327Zm2.51-9.1-1.614,4.849c-.015,0-.03,0-.045,0h-.325l-.16-.32a2.488,2.488,0,0,0-.839-.952l1.368-4.11a.851.851,0,0,1,1.615.537Z" transform="translate(0 -3.289)"/>
        <path id="Trazado_898892" data-name="Trazado 898892" d="M13,4h5.953V5.7H13Z" transform="translate(-1.944 -0.598)"/>
        <path id="Trazado_898893" data-name="Trazado 898893" d="M13,8h5.953V9.7H13Z" transform="translate(-1.944 -1.196)"/>
        <path id="Trazado_898894" data-name="Trazado 898894" d="M42,5H55.608V6.7H42Z" transform="translate(-6.28 -0.748)"/>
        <path id="Trazado_898895" data-name="Trazado 898895" d="M42,9H55.608v1.7H42Z" transform="translate(-6.28 -1.346)"/>
      </g>
    </g>
  </g>
</svg>
