<svg xmlns="http://www.w3.org/2000/svg" xmlns:xlink="http://www.w3.org/1999/xlink" width="108.914" height="108.914" viewBox="0 0 108.914 108.914">
  <defs>
    <filter id="Trazado_874925" x="0" y="0" width="108.914" height="108.914" filterUnits="userSpaceOnUse">
      <feOffset dy="3" input="SourceAlpha"/>
      <feGaussianBlur stdDeviation="3" result="blur"/>
      <feFlood flood-opacity="0.161"/>
      <feComposite operator="in" in2="blur"/>
      <feComposite in="SourceGraphic"/>
    </filter>
    <clipPath id="clip-path">
      <path id="path2346" d="M0-682.665H51.1v51.1H0Z" transform="translate(0 682.665)"/>
    </clipPath>
  </defs>
  <g id="Grupo_1110267" data-name="Grupo 1110267" transform="translate(-798.051 -5247.999)">
    <g id="Grupo_1110059" data-name="Grupo 1110059" transform="translate(-0.376 2736.842)">
      <g id="Grupo_1109818" data-name="Grupo 1109818" transform="translate(807.427 2517.157)">
        <g transform="matrix(1, 0, 0, 1, -9, -6)" filter="url(#Trazado_874925)">
          <g id="Trazado_874925-2" data-name="Trazado 874925" transform="translate(9 6)" fill="#efdb59" opacity="0.859">
            <path d="M 45.45676803588867 89.41407012939453 C 39.52198028564453 89.41407012939453 33.76551818847656 88.25206756591797 28.34726715087891 85.96034240722656 C 23.11311721801758 83.74648284912109 18.41204261779785 80.57682800292969 14.37464332580566 76.5394287109375 C 10.33724308013916 72.50202941894531 7.167593002319336 67.80095672607422 4.953730583190918 62.56679534912109 C 2.662005424499512 57.14855575561523 1.500005483627319 51.39208221435547 1.500005483627319 45.45729446411133 C 1.500005483627319 39.52198028564453 2.662005424499512 33.76551818847656 4.953730583190918 28.34726905822754 C 7.167593002319336 23.11310577392578 10.33724308013916 18.41203117370605 14.37464332580566 14.37464332580566 C 18.41204261779785 10.33724403381348 23.11311721801758 7.167593955993652 28.34726715087891 4.953731060028076 C 33.76551818847656 2.662006139755249 39.52198028564453 1.500006198883057 45.45676803588867 1.500006198883057 C 51.39155578613281 1.500006198883057 57.14802932739258 2.662006139755249 62.56626892089844 4.953731060028076 C 67.80043029785156 7.167593955993652 72.50150299072266 10.33724403381348 76.53890228271484 14.37464332580566 C 80.57630920410156 18.41203117370605 83.74595642089844 23.11310577392578 85.95981597900391 28.34726905822754 C 88.25154113769531 33.76551818847656 89.41354370117188 39.52198028564453 89.41354370117188 45.45676803588867 C 89.41354370117188 51.39208221435547 88.25154113769531 57.14855575561523 85.95981597900391 62.56679534912109 C 83.74595642089844 67.80095672607422 80.57630920410156 72.50202941894531 76.53890228271484 76.5394287109375 C 72.50150299072266 80.57682800292969 67.80043029785156 83.74648284912109 62.56626892089844 85.96034240722656 C 57.14802932739258 88.25206756591797 51.39155578613281 89.41407012939453 45.45676803588867 89.41407012939453 Z" stroke="none"/>
            <path d="M 45.45676803588867 3 C 39.72381210327148 3 34.1639404296875 4.12213134765625 28.93159484863281 6.335227966308594 C 23.87622833251953 8.473472595214844 19.33542633056641 11.53517150878906 15.43529510498047 15.435302734375 C 11.53517150878906 19.33543395996094 8.473464965820312 23.87622833251953 6.335227966308594 28.93160247802734 C 4.122123718261719 34.16394424438477 3 39.72381591796875 3 45.4572868347168 C 3 51.19024658203125 4.122123718261719 56.75011825561523 6.335227966308594 61.98246002197266 C 8.473464965820312 67.03782653808594 11.53517150878906 71.57862854003906 15.43529510498047 75.478759765625 C 19.33542633056641 79.37889099121094 23.87622833251953 82.44058990478516 28.93159484863281 84.57883453369141 C 34.1639404296875 86.79193115234375 39.72381210327148 87.9140625 45.45676803588867 87.9140625 C 51.18972396850586 87.9140625 56.74959564208984 86.79193115234375 61.98194122314453 84.57883453369141 C 67.03730773925781 82.44058990478516 71.57810974121094 79.37889099121094 75.47824096679688 75.478759765625 C 79.37837219238281 71.57862854003906 82.44007110595703 67.03782653808594 84.57830810546875 61.98246002197266 C 86.79141235351562 56.75011825561523 87.91353607177734 51.19024658203125 87.91353607177734 45.4567756652832 C 87.91353607177734 39.72381591796875 86.79141235351562 34.16394424438477 84.57830810546875 28.93160247802734 C 82.44007110595703 23.87622833251953 79.37837219238281 19.33543395996094 75.47824096679688 15.435302734375 C 71.57810974121094 11.53517150878906 67.03730773925781 8.473472595214844 61.98194122314453 6.335227966308594 C 56.74959564208984 4.12213134765625 51.18972396850586 3 45.45676803588867 3 M 45.45676803588867 0 C 70.56185150146484 0 90.91353607177734 20.35169219970703 90.91353607177734 45.4567756652832 L 90.91353607177734 45.4572868347168 C 90.91353607177734 70.5623779296875 70.56185150146484 90.9140625 45.45676803588867 90.9140625 C 20.3516845703125 90.9140625 0 70.5623779296875 0 45.4572868347168 L 0 45.4567756652832 C 0 20.35169219970703 20.3516845703125 0 45.45676803588867 0 Z" stroke="none" fill="#fff"/>
          </g>
        </g>
        <g id="Trazado_874923" data-name="Trazado 874923" transform="translate(0 0)" fill="none">
          <path d="M45.457,0A45.457,45.457,0,0,1,90.914,45.457h0A45.457,45.457,0,0,1,0,45.457H0A45.457,45.457,0,0,1,45.457,0Z" stroke="none"/>
          <path d="M 45.45676803588867 3 C 39.72381210327148 3 34.1639404296875 4.12213134765625 28.93159484863281 6.335227966308594 C 23.87622833251953 8.473472595214844 19.33542633056641 11.53517150878906 15.43529510498047 15.435302734375 C 11.53517150878906 19.33543395996094 8.473464965820312 23.87622833251953 6.335227966308594 28.93160247802734 C 4.122123718261719 34.16394424438477 3 39.72381591796875 3 45.4572868347168 C 3 51.19024658203125 4.122123718261719 56.75011825561523 6.335227966308594 61.98246002197266 C 8.473464965820312 67.03782653808594 11.53517150878906 71.57862854003906 15.43529510498047 75.478759765625 C 19.33542633056641 79.37889099121094 23.87622833251953 82.44058990478516 28.93159484863281 84.57883453369141 C 34.1639404296875 86.79193115234375 39.72381210327148 87.9140625 45.45676803588867 87.9140625 C 51.18972396850586 87.9140625 56.74959564208984 86.79193115234375 61.98194122314453 84.57883453369141 C 67.03730773925781 82.44058990478516 71.57810974121094 79.37889099121094 75.47824096679688 75.478759765625 C 79.37837219238281 71.57862854003906 82.44007110595703 67.03782653808594 84.57830810546875 61.98246002197266 C 86.79141235351562 56.75011825561523 87.91353607177734 51.19024658203125 87.91353607177734 45.4567756652832 C 87.91353607177734 39.72381591796875 86.79141235351562 34.16394424438477 84.57830810546875 28.93160247802734 C 82.44007110595703 23.87622833251953 79.37837219238281 19.33543395996094 75.47824096679688 15.435302734375 C 71.57810974121094 11.53517150878906 67.03730773925781 8.473472595214844 61.98194122314453 6.335227966308594 C 56.74959564208984 4.12213134765625 51.18972396850586 3 45.45676803588867 3 M 45.45676803588867 0 C 70.56185150146484 0 90.91353607177734 20.35169219970703 90.91353607177734 45.4567756652832 L 90.91353607177734 45.4572868347168 C 90.91353607177734 70.5623779296875 70.56185150146484 90.9140625 45.45676803588867 90.9140625 C 20.3516845703125 90.9140625 0 70.5623779296875 0 45.4572868347168 L 0 45.4567756652832 C 0 20.35169219970703 20.3516845703125 0 45.45676803588867 0 Z" stroke="none" fill="#fff"/>
        </g>
      </g>
    </g>
    <g id="g2340" transform="translate(827.051 5956.665)">
      <g id="g2342" transform="translate(0 -682.665)">
        <g id="g2344" transform="translate(0 0)" clip-path="url(#clip-path)">
          <g id="g2350" transform="translate(0.998 4.991)">
            <path id="path2352" d="M-552,0h-42.621a2.046,2.046,0,0,0-2.046,2.046V39.077a2.046,2.046,0,0,0,2.046,2.046H-552a2.046,2.046,0,0,0,2.046-2.046V2.046A2.046,2.046,0,0,0-552,0" transform="translate(596.665)" fill="#fff"/>
          </g>
          <g id="g2354" transform="translate(0.998 4.991)">
            <path id="path2356" d="M-122.118,0h-7.835A2.046,2.046,0,0,0-132,2.046V39.077a2.046,2.046,0,0,0,2.046,2.046h42.621a2.046,2.046,0,0,0,2.046-2.046V2.046A2.046,2.046,0,0,0-87.333,0h-7.835" transform="translate(132)" fill="#fff"/>
          </g>
          <g id="g2358" transform="translate(0.998 4.991)">
            <path id="path2360" d="M-552,0h-42.621a2.046,2.046,0,0,0-2.046,2.046V39.077a2.046,2.046,0,0,0,2.046,2.046H-552a2.046,2.046,0,0,0,2.046-2.046V2.046A2.046,2.046,0,0,0-552,0" transform="translate(596.665)" fill="#fff"/>
          </g>
          <path id="path2362" d="M114.464-421.776H77.333v-23.556h37.131Z" transform="translate(-71.544 463.099)" fill="#c9f3ff"/>
          <path id="path2364" d="M183.959-332.313h-7.426V-340h7.426Z" transform="translate(-163.317 365.651)" fill="#ff5d5d"/>
          <g id="g2366" transform="translate(0.998 4.991)">
            <path id="path2368" d="M-552,0h-42.621a2.046,2.046,0,0,0-2.046,2.046V7.985h46.713V2.046A2.046,2.046,0,0,0-552,0" transform="translate(596.665)" fill="#a0e557"/>
          </g>
          <g id="g2370" transform="translate(11.279 0.998)">
            <path id="path2372" d="M-24.67-98.681h0a2,2,0,0,1-2-2v-3.993a2,2,0,0,1,2-2h0a2,2,0,0,1,2,2v3.993a2,2,0,0,1-2,2" transform="translate(26.667 106.666)" fill="#72d8ff"/>
          </g>
          <g id="g2374" transform="translate(33.438 0.998)">
            <path id="path2376" d="M-24.67-98.681h0a2,2,0,0,0,2-2v-3.993a2,2,0,0,0-2-2h0a2,2,0,0,0-2,2v3.993a2,2,0,0,0,2,2" transform="translate(26.667 106.666)" fill="#72d8ff"/>
          </g>
          <g id="g2378" transform="translate(7.985 11.978)">
            <path id="path2380" d="M25.96-11.337h-38.3a1,1,0,0,1-1-1,1,1,0,0,1,1-1h38.3a1,1,0,0,1,1,1A1,1,0,0,1,25.96-11.337Z" transform="translate(13.333 13.333)"/>
          </g>
          <g id="g2382" transform="translate(10.281 0)">
            <path id="path2384" d="M-37.005-110.018A3,3,0,0,1-40-113.013v-3.993A3,3,0,0,1-37.005-120a3,3,0,0,1,2.994,2.994v3.993A3,3,0,0,1-37.005-110.018Zm0-7.985a1,1,0,0,0-1,1v3.993a1,1,0,0,0,1,1,1,1,0,0,0,1-1v-3.993A1,1,0,0,0-37.005-118Z" transform="translate(40 120)"/>
          </g>
          <g id="g2386" transform="translate(32.44 0)">
            <path id="path2388" d="M-37.005-110.018A3,3,0,0,1-40-113.013v-3.993A3,3,0,0,1-37.005-120a3,3,0,0,1,2.994,2.994v3.993A3,3,0,0,1-37.005-110.018Zm0-7.985a1,1,0,0,0-1,1v3.993a1,1,0,0,0,1,1,1,1,0,0,0,1-1v-3.993A1,1,0,0,0-37.005-118Z" transform="translate(40 120)"/>
          </g>
          <g id="g2390" transform="translate(36.832 3.993)">
            <path id="path2392" d="M-134.453-390.437a1,1,0,0,1-1-1v-28.63a1.049,1.049,0,0,0-1.048-1.048h-7.835a1,1,0,0,1-1-1,1,1,0,0,1,1-1h7.835a3.048,3.048,0,0,1,3.044,3.044v28.63A1,1,0,0,1-134.453-390.437Z" transform="translate(145.333 423.11)"/>
          </g>
          <g id="g2394" transform="translate(23.636 45.116)">
            <path id="path2396" d="M-2.533-11.337h-9.8a1,1,0,0,1-1-1,1,1,0,0,1,1-1h9.8a1,1,0,0,1,1,1A1,1,0,0,1-2.533-11.337Z" transform="translate(13.333 13.333)"/>
          </g>
          <g id="g2398" transform="translate(0 3.993)">
            <path id="path2400" d="M-128.684,29.787h-13.6a3.048,3.048,0,0,1-3.044-3.044V-10.289a3.048,3.048,0,0,1,3.044-3.044h7.835a1,1,0,0,1,1,1,1,1,0,0,1-1,1h-7.835a1.049,1.049,0,0,0-1.048,1.048V26.742a1.049,1.049,0,0,0,1.048,1.048h13.6a1,1,0,0,1,1,1A1,1,0,0,1-128.684,29.787Z" transform="translate(145.333 13.333)"/>
          </g>
          <g id="g2402" transform="translate(14.773 3.993)">
            <path id="path2404" d="M-226.556-11.337h-17.334a1,1,0,0,1-1-1,1,1,0,0,1,1-1h17.334a1,1,0,0,1,1,1A1,1,0,0,1-226.556-11.337Z" transform="translate(244.889 13.333)"/>
          </g>
          <g id="g2406" transform="translate(4.791 16.769)">
            <path id="path2408" d="M-347.441-302.447h-27.116a1,1,0,0,1-1-1V-327a1,1,0,0,1,1-1h37.131a1,1,0,0,1,1,1v15.571a1,1,0,0,1-1,1,1,1,0,0,1-1-1V-326h-35.135v21.56h26.118a1,1,0,0,1,1,1A1,1,0,0,1-347.441-302.447Z" transform="translate(375.555 327.999)"/>
          </g>
          <g id="g2410" transform="translate(33.338 33.338)">
            <path id="path2412" d="M-207.231-103.615A8.384,8.384,0,0,0-215.615-112,8.384,8.384,0,0,0-224-103.615a8.384,8.384,0,0,0,8.384,8.384,8.384,8.384,0,0,0,8.384-8.384" transform="translate(223.999 112)" fill="#ff5d5d"/>
          </g>
          <g id="g2414" transform="translate(32.34 32.34)">
            <path id="path2416" d="M-227.95-125.333a9.393,9.393,0,0,1,9.383,9.383,9.393,9.393,0,0,1-9.383,9.383,9.393,9.393,0,0,1-9.383-9.383A9.393,9.393,0,0,1-227.95-125.333Zm0,16.769a7.4,7.4,0,0,0,7.386-7.386,7.4,7.4,0,0,0-7.386-7.386,7.4,7.4,0,0,0-7.386,7.386A7.4,7.4,0,0,0-227.95-108.564Z" transform="translate(237.333 125.333)"/>
          </g>
          <g id="g2418" transform="translate(38.445 39.011)">
            <path id="path2420" d="M-10.256-30.433a1,1,0,0,1-.706-.292l-2.079-2.079a1,1,0,0,1,0-1.412,1,1,0,0,1,1.412,0l1.374,1.374,3.087-3.087a1,1,0,0,1,1.412,0,1,1,0,0,1,0,1.412L-9.55-30.726A1,1,0,0,1-10.256-30.433Z" transform="translate(13.333 36.223)"/>
          </g>
          <g id="g2422" transform="translate(5.124 24.654)">
            <path id="path2424" d="M24.313-11.337H-12.335a1,1,0,0,1-1-1,1,1,0,0,1,1-1H24.313a1,1,0,0,1,1,1A1,1,0,0,1,24.313-11.337Z" transform="translate(13.333 13.333)"/>
          </g>
          <g id="g2426" transform="translate(5.124 32.44)">
            <path id="path2428" d="M21.968-11.337h-34.3a1,1,0,0,1-1-1,1,1,0,0,1,1-1h34.3a1,1,0,0,1,1,1A1,1,0,0,1,21.968-11.337Z" transform="translate(13.333 13.333)"/>
          </g>
          <g id="g2430" transform="translate(12.217 16.769)">
            <path id="path2432" d="M-12.335,12.091a1,1,0,0,1-1-1V-12.335a1,1,0,0,1,1-1,1,1,0,0,1,1,1V11.093A1,1,0,0,1-12.335,12.091Z" transform="translate(13.333 13.333)"/>
          </g>
          <g id="g2434" transform="translate(19.643 16.769)">
            <path id="path2436" d="M-12.335,12.091a1,1,0,0,1-1-1V-12.335a1,1,0,0,1,1-1,1,1,0,0,1,1,1V11.093A1,1,0,0,1-12.335,12.091Z" transform="translate(13.333 13.333)"/>
          </g>
          <g id="g2438" transform="translate(27.07 16.769)">
            <path id="path2440" d="M-12.335,12.091a1,1,0,0,1-1-1V-12.335a1,1,0,0,1,1-1,1,1,0,0,1,1,1V11.093A1,1,0,0,1-12.335,12.091Z" transform="translate(13.333 13.333)"/>
          </g>
          <g id="g2442" transform="translate(34.496 16.769)">
            <path id="path2444" d="M-12.335,6.929a1,1,0,0,1-1-1V-12.335a1,1,0,0,1,1-1,1,1,0,0,1,1,1V5.931A1,1,0,0,1-12.335,6.929Z" transform="translate(13.333 13.333)"/>
          </g>
          <g id="g2446" transform="translate(20.642 46.114)">
            <path id="path2448"/>
          </g>
          <g id="g2450" transform="translate(4.991 12.976)">
            <path id="path2452"/>
          </g>
        </g>
      </g>
    </g>
  </g>
</svg>
