<svg xmlns="http://www.w3.org/2000/svg" xmlns:xlink="http://www.w3.org/1999/xlink" width="108.914" height="108.914" viewBox="0 0 108.914 108.914">
  <defs>
    <filter id="Trazado_874925" x="0" y="0" width="108.914" height="108.914" filterUnits="userSpaceOnUse">
      <feOffset dy="3" input="SourceAlpha"/>
      <feGaussianBlur stdDeviation="3" result="blur"/>
      <feFlood flood-opacity="0.161"/>
      <feComposite operator="in" in2="blur"/>
      <feComposite in="SourceGraphic"/>
    </filter>
  </defs>
  <g id="Grupo_1110277" data-name="Grupo 1110277" transform="translate(3169 6360)">
    <g id="Grupo_1110272" data-name="Grupo 1110272" transform="translate(-4282.051 -11607.999)">
      <g id="Grupo_1110060" data-name="Grupo 1110060" transform="translate(0.343 2736.842)">
        <g id="Grupo_1109819" data-name="Grupo 1109819" transform="translate(1121.708 2517.157)">
          <g transform="matrix(1, 0, 0, 1, -9, -6)" filter="url(#Trazado_874925)">
            <g id="Trazado_874925-2" data-name="Trazado 874925" transform="translate(9 6)" fill="#efdb59" opacity="0.859">
              <path d="M 45.45676803588867 89.41407012939453 C 39.52198028564453 89.41407012939453 33.76551818847656 88.25206756591797 28.34726715087891 85.96034240722656 C 23.11311721801758 83.74648284912109 18.41204261779785 80.57682800292969 14.37464332580566 76.5394287109375 C 10.33724308013916 72.50202941894531 7.167593002319336 67.80095672607422 4.953730583190918 62.56679534912109 C 2.662005424499512 57.14855575561523 1.500005483627319 51.39208221435547 1.500005483627319 45.45729446411133 C 1.500005483627319 39.52198028564453 2.662005424499512 33.76551818847656 4.953730583190918 28.34726905822754 C 7.167593002319336 23.11310577392578 10.33724308013916 18.41203117370605 14.37464332580566 14.37464332580566 C 18.41204261779785 10.33724403381348 23.11311721801758 7.167593955993652 28.34726715087891 4.953731060028076 C 33.76551818847656 2.662006139755249 39.52198028564453 1.500006198883057 45.45676803588867 1.500006198883057 C 51.39155578613281 1.500006198883057 57.14802932739258 2.662006139755249 62.56626892089844 4.953731060028076 C 67.80043029785156 7.167593955993652 72.50150299072266 10.33724403381348 76.53890228271484 14.37464332580566 C 80.57630920410156 18.41203117370605 83.74595642089844 23.11310577392578 85.95981597900391 28.34726905822754 C 88.25154113769531 33.76551818847656 89.41354370117188 39.52198028564453 89.41354370117188 45.45676803588867 C 89.41354370117188 51.39208221435547 88.25154113769531 57.14855575561523 85.95981597900391 62.56679534912109 C 83.74595642089844 67.80095672607422 80.57630920410156 72.50202941894531 76.53890228271484 76.5394287109375 C 72.50150299072266 80.57682800292969 67.80043029785156 83.74648284912109 62.56626892089844 85.96034240722656 C 57.14802932739258 88.25206756591797 51.39155578613281 89.41407012939453 45.45676803588867 89.41407012939453 Z" stroke="none"/>
              <path d="M 45.45676803588867 3 C 39.72381210327148 3 34.1639404296875 4.12213134765625 28.93159484863281 6.335227966308594 C 23.87622833251953 8.473472595214844 19.33542633056641 11.53517150878906 15.43529510498047 15.435302734375 C 11.53517150878906 19.33543395996094 8.473464965820312 23.87622833251953 6.335227966308594 28.93160247802734 C 4.122123718261719 34.16394424438477 3 39.72381591796875 3 45.4572868347168 C 3 51.19024658203125 4.122123718261719 56.75011825561523 6.335227966308594 61.98246002197266 C 8.473464965820312 67.03782653808594 11.53517150878906 71.57862854003906 15.43529510498047 75.478759765625 C 19.33542633056641 79.37889099121094 23.87622833251953 82.44058990478516 28.93159484863281 84.57883453369141 C 34.1639404296875 86.79193115234375 39.72381210327148 87.9140625 45.45676803588867 87.9140625 C 51.18972396850586 87.9140625 56.74959564208984 86.79193115234375 61.98194122314453 84.57883453369141 C 67.03730773925781 82.44058990478516 71.57810974121094 79.37889099121094 75.47824096679688 75.478759765625 C 79.37837219238281 71.57862854003906 82.44007110595703 67.03782653808594 84.57830810546875 61.98246002197266 C 86.79141235351562 56.75011825561523 87.91353607177734 51.19024658203125 87.91353607177734 45.4567756652832 C 87.91353607177734 39.72381591796875 86.79141235351562 34.16394424438477 84.57830810546875 28.93160247802734 C 82.44007110595703 23.87622833251953 79.37837219238281 19.33543395996094 75.47824096679688 15.435302734375 C 71.57810974121094 11.53517150878906 67.03730773925781 8.473472595214844 61.98194122314453 6.335227966308594 C 56.74959564208984 4.12213134765625 51.18972396850586 3 45.45676803588867 3 M 45.45676803588867 0 C 70.56185150146484 0 90.91353607177734 20.35169219970703 90.91353607177734 45.4567756652832 L 90.91353607177734 45.4572868347168 C 90.91353607177734 70.5623779296875 70.56185150146484 90.9140625 45.45676803588867 90.9140625 C 20.3516845703125 90.9140625 0 70.5623779296875 0 45.4572868347168 L 0 45.4567756652832 C 0 20.35169219970703 20.3516845703125 0 45.45676803588867 0 Z" stroke="none" fill="#fff"/>
            </g>
          </g>
          <g id="Trazado_874923" data-name="Trazado 874923" transform="translate(0 0)" fill="none">
            <path d="M45.457,0A45.457,45.457,0,0,1,90.914,45.457h0A45.457,45.457,0,0,1,0,45.457H0A45.457,45.457,0,0,1,45.457,0Z" stroke="none"/>
            <path d="M 45.45676803588867 3 C 39.72381210327148 3 34.1639404296875 4.12213134765625 28.93159484863281 6.335227966308594 C 23.87622833251953 8.473472595214844 19.33542633056641 11.53517150878906 15.43529510498047 15.435302734375 C 11.53517150878906 19.33543395996094 8.473464965820312 23.87622833251953 6.335227966308594 28.93160247802734 C 4.122123718261719 34.16394424438477 3 39.72381591796875 3 45.4572868347168 C 3 51.19024658203125 4.122123718261719 56.75011825561523 6.335227966308594 61.98246002197266 C 8.473464965820312 67.03782653808594 11.53517150878906 71.57862854003906 15.43529510498047 75.478759765625 C 19.33542633056641 79.37889099121094 23.87622833251953 82.44058990478516 28.93159484863281 84.57883453369141 C 34.1639404296875 86.79193115234375 39.72381210327148 87.9140625 45.45676803588867 87.9140625 C 51.18972396850586 87.9140625 56.74959564208984 86.79193115234375 61.98194122314453 84.57883453369141 C 67.03730773925781 82.44058990478516 71.57810974121094 79.37889099121094 75.47824096679688 75.478759765625 C 79.37837219238281 71.57862854003906 82.44007110595703 67.03782653808594 84.57830810546875 61.98246002197266 C 86.79141235351562 56.75011825561523 87.91353607177734 51.19024658203125 87.91353607177734 45.4567756652832 C 87.91353607177734 39.72381591796875 86.79141235351562 34.16394424438477 84.57830810546875 28.93160247802734 C 82.44007110595703 23.87622833251953 79.37837219238281 19.33543395996094 75.47824096679688 15.435302734375 C 71.57810974121094 11.53517150878906 67.03730773925781 8.473472595214844 61.98194122314453 6.335227966308594 C 56.74959564208984 4.12213134765625 51.18972396850586 3 45.45676803588867 3 M 45.45676803588867 0 C 70.56185150146484 0 90.91353607177734 20.35169219970703 90.91353607177734 45.4567756652832 L 90.91353607177734 45.4572868347168 C 90.91353607177734 70.5623779296875 70.56185150146484 90.9140625 45.45676803588867 90.9140625 C 20.3516845703125 90.9140625 0 70.5623779296875 0 45.4572868347168 L 0 45.4567756652832 C 0 20.35169219970703 20.3516845703125 0 45.45676803588867 0 Z" stroke="none" fill="#fff"/>
          </g>
        </g>
      </g>
    </g>
    <g id="vaca45" transform="translate(-3138.991 -6332.999)">
      <g id="Grupo_1110275" data-name="Grupo 1110275" transform="translate(0.694 0.703)">
        <path id="Trazado_898651" data-name="Trazado 898651" d="M52.059,422.571H9.533a2.052,2.052,0,0,1-2.052-2.052h0a2.057,2.057,0,0,1,1.29-1.9c2.4-.97,3.36-2.474,6.111-3.1h0c.086-.019.173-.038.263-.055,2.282-.444,5.3.358,8.045.129,2.456-.205,4.925-1.5,7.631-1.5s5.175,1.291,7.631,1.5c2.739.23,5.758-.574,8.045-.129,2.9.565,3.923,2.154,6.342,3.149a2.062,2.062,0,0,1,1.28,1.905h0A2.059,2.059,0,0,1,52.059,422.571Z" transform="translate(-7.481 -375.921)" fill="#acd980"/>
        <path id="Trazado_898652" data-name="Trazado 898652" d="M28.44,47.268s-.53.707-7.068,3.534-1.414,7.068-1.414,7.068L16.9,59.283s-5.086-7.068,1.453-9.9,7.265-4.241,7.265-4.241Z" transform="translate(-14.304 -41.613)" fill="#7a8fa5"/>
        <path id="Trazado_898653" data-name="Trazado 898653" d="M200.5,340.687l-4.118.448a.684.684,0,0,0-.666.615v7.943l2.827.905,2.827-.905V341.3A.731.731,0,0,0,200.5,340.687Z" transform="translate(-178.042 -309.404)" fill="#d4d4ff"/>
        <path id="Trazado_898654" data-name="Trazado 898654" d="M199.52,440.074a1.539,1.539,0,0,0-1.548-.2l-.4.2a1.279,1.279,0,0,1-1.852-1.144v-2.253h5.654v2.253A1.279,1.279,0,0,1,199.52,440.074Z" transform="translate(-178.047 -396.389)" fill="#5b778f"/>
        <path id="Trazado_898655" data-name="Trazado 898655" d="M65.841,341.394a.575.575,0,0,0-.263-.467c-.35-.248-.211-.191-4.727.3a.682.682,0,0,0-.665.615v7.943l2.827,1.276,2.827-1.276Z" transform="translate(-55.239 -309.498)" fill="#bdbdff"/>
        <path id="Trazado_898656" data-name="Trazado 898656" d="M63.99,440.074a1.539,1.539,0,0,0-1.548-.2l-.4.2a1.279,1.279,0,0,1-1.852-1.144v-2.253h5.654v2.253A1.279,1.279,0,0,1,63.99,440.074Z" transform="translate(-55.239 -396.389)" fill="#5b778f"/>
        <path id="Trazado_898657" data-name="Trazado 898657" d="M127.629,153.674a29.152,29.152,0,0,1-1.684,7.07l-2.889,2.989-1.685,3.826a6.19,6.19,0,0,0-2.082,4.2l-.142,3.118-2.54,1.276-3.115-1.276v-3.934a1.718,1.718,0,0,0-.814-1.339c-.849-.583-1.371-.065-4.347-.094-11.583-6.258-8.138-13.783-5.008-17.752l1.882-1.218,2.238-1.448c12.761.64,2.342-3,18.772-.368A45.146,45.146,0,0,1,127.629,153.674Z" transform="translate(-91.581 -134.591)" fill="#efedff"/>
        <path id="Trazado_898658" data-name="Trazado 898658" d="M25.138,196.4c-3-.023-3.2-.805-4.425-1.408a1.623,1.623,0,0,0-1.723.178l-3.163,2.791a3.192,3.192,0,0,0-1.079,2.392v1.414l-2.681,1.066L9.1,201.768c.707-8.529-.351-12.1-.613-15.586l11.648-7.533,1.882-1.218C20.006,181.894,17.838,190.151,25.138,196.4Z" transform="translate(-8.388 -161.479)" fill="#d4d4ff"/>
        <path id="Trazado_898659" data-name="Trazado 898659" d="M244.7,440.075a1.539,1.539,0,0,0-1.548-.2l-.4.2a1.279,1.279,0,0,1-1.852-1.144v-2.253h5.654v2.253A1.279,1.279,0,0,1,244.7,440.075Z" transform="translate(-218.982 -396.39)" fill="#7a8fa5"/>
        <path id="Trazado_898660" data-name="Trazado 898660" d="M307.922,286.094a16.462,16.462,0,0,1-4.3,6.582c-.052.045-.1.087-.153.13s-.082.069-.122.1c-1.436-1.792-2.678-3.41-2.063-5.4a1.818,1.818,0,0,1,2.042-1.413C304.983,286.092,306.435,286.094,307.922,286.094Z" transform="translate(-273.559 -259.941)" fill="#7a8fa5"/>
        <path id="Trazado_898661" data-name="Trazado 898661" d="M96.907,36.909c.958-.446,3.11-.034,4.428.287a.935.935,0,0,1,.617,1.326c-.6,1.215-1.674,3.126-2.633,3.572a2.859,2.859,0,0,1-2.413-5.185Z" transform="translate(-87.013 -33.971)" fill="#d4d4ff"/>
        <path id="Trazado_898662" data-name="Trazado 898662" d="M18.814,440.075a1.539,1.539,0,0,0-1.548-.2l-.4.2a1.279,1.279,0,0,1-1.852-1.144v-2.253h5.654v2.253A1.28,1.28,0,0,1,18.814,440.075Z" transform="translate(-14.304 -396.39)" fill="#7a8fa5"/>
        <path id="Trazado_898663" data-name="Trazado 898663" d="M195.359,53.873a9.682,9.682,0,0,1-5.021,4.613c-3.967,1.889-1.876,6.4,1.4,5.827,1.264-.222,2.95-.52,3.825-2.273,1.1-2.2.411-5.784-.2-8.167Z" transform="translate(-171.209 -49.52)" fill="#9ea2e3"/>
        <path id="Trazado_898664" data-name="Trazado 898664" d="M420.283,53.873a9.682,9.682,0,0,0,5.021,4.613,3.777,3.777,0,0,1,1.923,1.808,2.958,2.958,0,0,1-3.325,4.019c-1.264-.222-2.95-.52-3.825-2.273-1.1-2.2-.411-5.784.2-8.167Z" transform="translate(-380.82 -49.52)" fill="#bdbdff"/>
        <path id="Trazado_898665" data-name="Trazado 898665" d="M414.07,11.089a6.118,6.118,0,0,0,2.851-1.33,5.54,5.54,0,0,0,1.509-1.666,1.216,1.216,0,0,1,2.146.113c1.282,2.668.409,5.538-2.845,6.363Z" transform="translate(-375.902 -7.502)" fill="#7a8fa5"/>
        <path id="Trazado_898666" data-name="Trazado 898666" d="M210.273,11.089a6.118,6.118,0,0,1-2.851-1.33,5.543,5.543,0,0,1-1.509-1.666,1.215,1.215,0,0,0-2.146.113c-1.282,2.668-.409,5.538,2.845,6.363Z" transform="translate(-184.828 -7.502)" fill="#516980"/>
        <path id="Trazado_898667" data-name="Trazado 898667" d="M289.939,36.175C288.39,40.052,284.2,41.93,280,42.117c-16.543-6.631-1.376-19.546-1.376-19.546C286.914,22.178,292.493,29.777,289.939,36.175Z" transform="translate(-247.42 -21.143)" fill="#efedff"/>
        <path id="Trazado_898668" data-name="Trazado 898668" d="M237.612,42.257c-8.527.436-13.948-5.464-11.548-12.336a11.2,11.2,0,0,1,10.172-7.21C234.274,25.526,228.653,35.141,237.612,42.257Z" transform="translate(-205.028 -21.283)" fill="#d4d4ff"/>
        <path id="Trazado_898669" data-name="Trazado 898669" d="M308.48,143.612a6.908,6.908,0,0,1-3.669,2.595c-11.247-.495-7.57-9.635-7.524-9.75h0C303.9,132.955,311.279,139.266,308.48,143.612Z" transform="translate(-269.529 -123.428)" fill="#ffb3c2"/>
        <path id="Trazado_898670" data-name="Trazado 898670" d="M274.733,156.033c-5.452,1.773-11.251-.964-11.251-4.648,0-2.117,1.8-4.081,3.728-5.1C267.654,149.648,269.659,153.154,274.733,156.033Z" transform="translate(-239.45 -133.254)" fill="#ff9eb1"/>
        <path id="Trazado_898671" data-name="Trazado 898671" d="M311.83,182.916c-2.673-.023-1.393-2.235-1.393-2.235A1.414,1.414,0,0,1,311.83,182.916Z" transform="translate(-281.72 -164.398)" fill="#ff9eb1"/>
        <path id="Trazado_898672" data-name="Trazado 898672" d="M303.676,183.186a1.413,1.413,0,1,1-1.393-2.235A11.756,11.756,0,0,0,303.676,183.186Z" transform="translate(-273.566 -164.669)" fill="#ff758f"/>
        <circle id="Elipse_12351" data-name="Elipse 12351" cx="1.414" cy="1.414" r="1.414" transform="translate(33.22 16.257)" fill="#ff9eb1"/>
        <path id="Trazado_898673" data-name="Trazado 898673" d="M136.134,163.123a4.256,4.256,0,0,1-3.97,4.03c-.06,0-.12.01-.179.02-1.8-3.969,2.274-6.091,2.274-6.091.5.034,1,.06,1.5.079A4.23,4.23,0,0,1,136.134,163.123Z" transform="translate(-119.882 -146.664)" fill="#7a8fa5"/>
        <path id="Trazado_898674" data-name="Trazado 898674" d="M22.27,156.446A24.061,24.061,0,0,0,20,162.537a1.962,1.962,0,0,0-1.594,1.506,3.543,3.543,0,0,1-5.412,2.123,1.951,1.951,0,0,0-2.132-.051,4.236,4.236,0,0,1-2.86.609,16.417,16.417,0,0,1,.027-3.154,8.284,8.284,0,0,1,9.13-7.578C18.53,156.091,20.114,156.3,22.27,156.446Z" transform="translate(-7.893 -142.029)" fill="#5b778f"/>
        <path id="Trazado_898675" data-name="Trazado 898675" d="M145.186,294.676c-.166,0-1.46.183-3.313.183-4.636-.9-4.552-6.918-4.552-6.918a2.828,2.828,0,0,1,5.481.93,1.872,1.872,0,0,0,1.128,1.692A2.828,2.828,0,0,1,145.186,294.676Z" transform="translate(-125.132 -259.937)" fill="#7a8fa5"/>
        <path id="Trazado_898676" data-name="Trazado 898676" d="M126.554,312.739c-2.92,0-3.282-.847-4.425-1.408a1.625,1.625,0,0,0-1.464.012h0a1.642,1.642,0,0,0-.222.139,2.816,2.816,0,0,1,.859-2.507,1.868,1.868,0,0,0,.561-1.691,2.838,2.838,0,0,1,.13-1.463A13.926,13.926,0,0,0,126.554,312.739Z" transform="translate(-109.804 -277.817)" fill="#5b778f"/>
      </g>
      <g id="Grupo_1110276" data-name="Grupo 1110276" transform="translate(-0.009 -0.001)">
        <path id="Trazado_898677" data-name="Trazado 898677" d="M117.638,420.613c-.774,0-1.546-.064-2.455-.14-.484-.04-1.011-.084-1.6-.123a.7.7,0,1,1,.093-1.4c.6.04,1.136.084,1.627.125a13.781,13.781,0,0,0,5.225-.24.7.7,0,0,1,.339,1.367A12.817,12.817,0,0,1,117.638,420.613Z" transform="translate(-102.32 -379.494)"/>
        <path id="Trazado_898678" data-name="Trazado 898678" d="M45.272,423.943H2.746a2.757,2.757,0,0,1-1.7-4.92.7.7,0,0,1,.874,1.1,1.349,1.349,0,0,0,.83,2.408H45.272a1.354,1.354,0,0,0,.51-2.609,14.312,14.312,0,0,1-2.567-1.444,9.3,9.3,0,0,0-3.642-1.666,15.4,15.4,0,0,0-3.992.023,23.717,23.717,0,0,1-3.976.117,18.784,18.784,0,0,1-3.417-.727.736.736,0,0,1-.525-.877.674.674,0,0,1,.832-.5l.071.02a17.48,17.48,0,0,0,3.157.681,22.68,22.68,0,0,0,3.738-.116,16.322,16.322,0,0,1,4.381,0,10.6,10.6,0,0,1,4.151,1.875,12.987,12.987,0,0,0,2.325,1.315,2.763,2.763,0,0,1-1.046,5.319Z" transform="translate(0.009 -375.885)"/>
        <path id="Trazado_898679" data-name="Trazado 898679" d="M9.591,73.769a.7.7,0,0,1-.613-.357c-.8-1.406-2.01-4.135-1.18-6.609a5.846,5.846,0,0,1,3.483-3.452c1.618-.7,3.012-1.37,4.143-1.993a.7.7,0,1,1,.68,1.233c-1.17.645-2.605,1.336-4.264,2.053a4.508,4.508,0,0,0-2.706,2.607c-.656,1.956.389,4.265,1.07,5.467a.7.7,0,0,1-.612,1.051Z" transform="translate(-6.812 -55.518)"/>
        <path id="Trazado_898680" data-name="Trazado 898680" d="M41.306,93.746a.7.7,0,0,1-.587-.315,4.089,4.089,0,0,1-.705-3.455c.393-1.325,1.608-2.436,3.61-3.3,1.007-.436,1.872-.821,2.614-1.161a.7.7,0,1,1,.587,1.28c-.749.343-1.623.732-2.641,1.173-1.6.693-2.55,1.5-2.819,2.41a2.71,2.71,0,0,0,.529,2.276.7.7,0,0,1-.586,1.093Z" transform="translate(-36.131 -77.428)"/>
        <path id="Trazado_898681" data-name="Trazado 898681" d="M194.571,378.65h-5.655a.7.7,0,0,1-.7-.7v-5.381a.7.7,0,0,1,1.408,0v4.677h4.951a.7.7,0,1,1,0,1.408Z" transform="translate(-170.543 -336.953)"/>
        <path id="Trazado_898682" data-name="Trazado 898682" d="M193.3,434.134a2.386,2.386,0,0,1-1.1-.324c-.361-.182-.465-.224-.713-.1l-.4.2a1.984,1.984,0,0,1-2.871-1.774v-2.253a.7.7,0,0,1,.7-.7h4.153a.7.7,0,1,1,0,1.408H189.62v1.549a.576.576,0,0,0,.833.515l.4-.2a1.988,1.988,0,0,1,1.978.1c.361.182.466.225.714.1a.7.7,0,0,1,.631,1.259A1.937,1.937,0,0,1,193.3,434.134Z" transform="translate(-170.543 -388.892)"/>
        <path id="Trazado_898683" data-name="Trazado 898683" d="M59.05,366.916H53.4a.7.7,0,1,1,0-1.408h4.95v-5.892a.7.7,0,1,1,1.408,0v6.6A.7.7,0,0,1,59.05,366.916Z" transform="translate(-47.745 -325.219)"/>
        <path id="Trazado_898684" data-name="Trazado 898684" d="M61.478,434.129a1.916,1.916,0,0,1-.869-.217.7.7,0,0,1,.631-1.259c.24.12.364.082.79-.137l.128-.065a2.092,2.092,0,0,1,2.067.146l.111.056a.575.575,0,0,0,.832-.515v-1.549H61.72a.7.7,0,1,1,0-1.408h4.152a.7.7,0,0,1,.7.7v2.253a1.983,1.983,0,0,1-2.87,1.774l-.123-.062c-.423-.217-.557-.259-.795-.14l-.115.059A2.574,2.574,0,0,1,61.478,434.129Z" transform="translate(-54.566 -388.892)"/>
        <path id="Trazado_898685" data-name="Trazado 898685" d="M28.655,176.146H23a.7.7,0,0,1-.7-.7v-3.934a1.059,1.059,0,0,0-.507-.757c-.26-.178-.327-.184-1.208-.105-.433.039-1,.09-1.8.119-3.237.116-4.124-.474-4.982-1.046a5.977,5.977,0,0,0-.7-.42.922.922,0,0,0-1.019.134l-3.089,2.731a2.489,2.489,0,0,0-.841,1.864v1.414a.7.7,0,0,1-.7.7H1.8a.7.7,0,0,1-.7-.762c.039-.468.079-.881.117-1.269a27.371,27.371,0,0,0,.175-2.967,62,62,0,0,0-.595-8.465,23.156,23.156,0,0,1-.2-6.606,8.947,8.947,0,0,1,9.227-7.692c1.079.041,1.861.128,2.69.219a55.806,55.806,0,0,0,7.151.348.7.7,0,0,1,0,1.408A57.018,57.018,0,0,1,12.352,150c-.838-.092-1.561-.172-2.589-.212a7.542,7.542,0,0,0-7.78,6.483,22.09,22.09,0,0,0,.206,6.233,63.233,63.233,0,0,1,.606,8.641,28.88,28.88,0,0,1-.182,3.1c-.015.158-.031.319-.047.487h4.18v-.71a3.9,3.9,0,0,1,1.316-2.919l3.09-2.732a2.326,2.326,0,0,1,2.572-.342,7.347,7.347,0,0,1,.858.512c.734.489,1.368.911,4.151.811.76-.028,1.306-.077,1.722-.114a2.74,2.74,0,0,1,2.13.346,2.39,2.39,0,0,1,1.119,1.919v3.23h4.273q0-.16.01-.319c.072-2.44.146-4.963,2.569-6.946,2.34-1.95,4.259-5.5,5.261-9.749a.7.7,0,0,1,1.37.323c-.629,2.665-2.21,7.574-5.735,10.511-1.931,1.58-1.99,3.582-2.058,5.9-.01.334-.02.672-.035,1.013A.7.7,0,0,1,28.655,176.146Z" transform="translate(-0.386 -134.448)"/>
        <path id="Trazado_898686" data-name="Trazado 898686" d="M238.472,434.12a1.966,1.966,0,0,1-.887-.211l-.132-.067a1.353,1.353,0,0,0-.544-.2.545.545,0,0,0-.243.066l-.4.2a1.966,1.966,0,0,1-.886.211,2.008,2.008,0,0,1-1.38-.56,1.962,1.962,0,0,1-.6-1.426v-2.253a.7.7,0,0,1,.7-.7h5.654a.7.7,0,0,1,.7.7v2.253A1.987,1.987,0,0,1,238.472,434.12Zm-1.562-1.887a2.544,2.544,0,0,1,1.19.358l.115.059a.57.57,0,0,0,.257.062.578.578,0,0,0,.576-.577v-1.549H234.8v1.549a.559.559,0,0,0,.173.412.579.579,0,0,0,.66.1l.4-.2A1.941,1.941,0,0,1,236.91,432.233Z" transform="translate(-211.483 -388.889)"/>
        <path id="Trazado_898687" data-name="Trazado 898687" d="M298.581,278.593h2.56a.7.7,0,0,1,.657.957,17,17,0,0,1-4.771,7.1.7.7,0,0,1-1.009-.093c-1.372-1.712-2.927-3.652-2.187-6.049a2.529,2.529,0,0,1,2.714-1.909Zm1.51,1.408h-1.51l-2.034,0c-.844,0-1.151.205-1.37.916-.431,1.4.267,2.607,1.476,4.166A15.35,15.35,0,0,0,300.091,280Z" transform="translate(-266.075 -252.441)"/>
        <path id="Trazado_898688" data-name="Trazado 898688" d="M91.3,29.213a15.737,15.737,0,0,1,3.4.5,1.64,1.64,0,0,1,1.081,2.323c-1.079,2.172-2.077,3.484-2.966,3.9a3.534,3.534,0,0,1-1.5.333,3.578,3.578,0,0,1-3.233-2.061,3.431,3.431,0,0,1,3.221-5Zm.012,5.648a2.136,2.136,0,0,0,.907-.2c.432-.2,1.262-1.159,2.3-3.247a.231.231,0,0,0-.153-.329,14.389,14.389,0,0,0-3.066-.463,2.216,2.216,0,0,0-.9.13,2.155,2.155,0,0,0-1.045,2.863A2.165,2.165,0,0,0,91.307,34.862Z" transform="translate(-79.503 -26.471)"/>
        <path id="Trazado_898689" data-name="Trazado 898689" d="M9.5,434.12a2.008,2.008,0,0,1-1.38-.56,1.962,1.962,0,0,1-.6-1.426v-2.253a.7.7,0,0,1,.7-.7H13.87a.7.7,0,0,1,.7.7v2.253a1.987,1.987,0,0,1-1.984,1.985,1.966,1.966,0,0,1-.887-.211l-.124-.063a1.409,1.409,0,0,0-.554-.2.518.518,0,0,0-.241.066l-.4.2A1.966,1.966,0,0,1,9.5,434.12Zm-.576-3.534v1.549a.559.559,0,0,0,.173.412.579.579,0,0,0,.66.1l.4-.2a1.937,1.937,0,0,1,.87-.215,2.551,2.551,0,0,1,1.2.36l.111.056a.57.57,0,0,0,.257.062.578.578,0,0,0,.576-.577v-1.549Z" transform="translate(-6.805 -388.889)"/>
        <path id="Trazado_898690" data-name="Trazado 898690" d="M184.334,89.806a3.465,3.465,0,0,1-1.664-.417,3.6,3.6,0,0,1-1.677-4.639,4.751,4.751,0,0,1,2.627-2.336,10.8,10.8,0,0,0,1.84-1.089.7.7,0,0,1,.855,1.119,12.112,12.112,0,0,1-2.065,1.23c-.957.479-1.589.795-1.971,1.651a2.192,2.192,0,0,0,1.043,2.817,2.627,2.627,0,0,0,1.952.142.7.7,0,1,1,.263,1.383A6.41,6.41,0,0,1,184.334,89.806Z" transform="translate(-163.727 -73.56)"/>
        <path id="Trazado_898691" data-name="Trazado 898691" d="M451.285,89.831a4.07,4.07,0,0,1-.706-.063l-.454-.083a.7.7,0,0,1,.265-1.383l.434.079a2.311,2.311,0,0,0,2.64-1.556c.373-1.168-.249-2.268-1.664-2.942a13.4,13.4,0,0,1-2.451-1.419.7.7,0,0,1,.854-1.12,12.169,12.169,0,0,0,2.2,1.268c2.487,1.185,2.847,3.241,2.4,4.642A3.709,3.709,0,0,1,451.285,89.831Z" transform="translate(-406.915 -73.578)"/>
        <path id="Trazado_898692" data-name="Trazado 898692" d="M415.374,8.466A.7.7,0,0,1,415.2,7.08a3.656,3.656,0,0,0,2.548-1.917,4.015,4.015,0,0,0-.2-3.45.517.517,0,0,0-.45-.306.5.5,0,0,0-.457.25,6.247,6.247,0,0,1-1.7,1.875A7.807,7.807,0,0,1,412.3,4.905a.7.7,0,1,1-.327-1.37,6.642,6.642,0,0,0,2.146-1.146A4.848,4.848,0,0,0,415.434.933,1.889,1.889,0,0,1,417.164,0a1.936,1.936,0,0,1,1.654,1.1,5.461,5.461,0,0,1,.206,4.653,5.013,5.013,0,0,1-3.473,2.687A.706.706,0,0,1,415.374,8.466Z" transform="translate(-372.807 0.001)"/>
        <path id="Trazado_898693" data-name="Trazado 898693" d="M199.734,8.466a.705.705,0,0,1-.177-.023,5.083,5.083,0,0,1-3.475-2.691A5.385,5.385,0,0,1,196.29,1.1,1.936,1.936,0,0,1,197.944,0a1.89,1.89,0,0,1,1.73.932,4.861,4.861,0,0,0,1.317,1.456,6.625,6.625,0,0,0,2.145,1.145.7.7,0,0,1-.325,1.37,7.789,7.789,0,0,1-2.643-1.373,6.261,6.261,0,0,1-1.7-1.873.5.5,0,0,0-.458-.251.517.517,0,0,0-.45.305,4.011,4.011,0,0,0-.2,3.446,3.66,3.66,0,0,0,2.55,1.921.7.7,0,0,1-.176,1.386Z" transform="translate(-177.282 0.001)"/>
        <path id="Trazado_898694" data-name="Trazado 898694" d="M326.642,33.779a.7.7,0,0,1-.41-1.277,7.557,7.557,0,0,0,3.3-6.377,9.244,9.244,0,0,0-3.434-7.145,11.206,11.206,0,0,0-9.182-2.383.7.7,0,0,1-.243-1.387A12.61,12.61,0,0,1,327,17.9a10.771,10.771,0,0,1,3.936,8.224,9.028,9.028,0,0,1-3.888,7.524A.7.7,0,0,1,326.642,33.779Z" transform="translate(-286.415 -13.601)"/>
        <path id="Trazado_898695" data-name="Trazado 898695" d="M222.5,43.937a.7.7,0,0,1-.408-.131,9.076,9.076,0,0,1-3.852-8.479,11.286,11.286,0,0,1,6.737-9.045.7.7,0,0,1,.577,1.285,9.876,9.876,0,0,0-5.912,7.9,7.7,7.7,0,0,0,3.269,7.193.7.7,0,0,1-.41,1.277Z" transform="translate(-197.708 -23.759)"/>
        <path id="Trazado_898696" data-name="Trazado 898696" d="M264.723,128.041h0a9.222,9.222,0,0,1,3.323.621,8.609,8.609,0,0,1,4.434,3.687,4.65,4.65,0,0,1,.064,4.772c-1.281,2.178-4.437,3.641-7.853,3.641a11.609,11.609,0,0,1-3.679-.587,7.6,7.6,0,0,1-4.047-2.884,4.714,4.714,0,0,1-.045-4.932A8.984,8.984,0,0,1,264.723,128.041Zm-.032,11.313c2.935,0,5.6-1.184,6.639-2.947a3.214,3.214,0,0,0-.081-3.374,7.285,7.285,0,0,0-3.709-3.057,7.82,7.82,0,0,0-2.817-.527,7.649,7.649,0,0,0-6.568,3.583,3.3,3.3,0,0,0-.008,3.5,6.2,6.2,0,0,0,3.309,2.311A10.2,10.2,0,0,0,264.691,139.354Z" transform="translate(-232.191 -116.021)"/>
        <path id="Línea_567" data-name="Línea 567" d="M-6.8-4.965a.7.7,0,0,1-.7-.7V-6.8a.7.7,0,0,1,.7-.7.7.7,0,0,1,.7.7v1.126A.7.7,0,0,1-6.8-4.965Z" transform="translate(33.454 17.683)"/>
        <path id="Línea_568" data-name="Línea 568" d="M-6.8-4.965a.7.7,0,0,1-.7-.7V-6.8a.7.7,0,0,1,.7-.7.7.7,0,0,1,.7.7v1.126A.7.7,0,0,1-6.8-4.965Z" transform="translate(45.179 17.683)"/>
        <path id="Elipse_12352" data-name="Elipse 12352" d="M-5.382-7.5A2.12,2.12,0,0,1-3.265-5.382,2.12,2.12,0,0,1-5.382-3.265,2.12,2.12,0,0,1-7.5-5.382,2.12,2.12,0,0,1-5.382-7.5Zm0,2.827a.71.71,0,0,0,.71-.71.71.71,0,0,0-.71-.71.71.71,0,0,0-.71.71A.71.71,0,0,0-5.382-4.673Z" transform="translate(35.065 23.757)"/>
        <path id="Elipse_12353" data-name="Elipse 12353" d="M-5.382-7.5A2.12,2.12,0,0,1-3.265-5.382,2.12,2.12,0,0,1-5.382-3.265,2.12,2.12,0,0,1-7.5-5.382,2.12,2.12,0,0,1-5.382-7.5Zm0,2.827a.71.71,0,0,0,.71-.71.71.71,0,0,0-.71-.71.71.71,0,0,0-.71.71A.71.71,0,0,0-5.382-4.673Z" transform="translate(40.719 23.757)"/>
        <path id="Trazado_898697" data-name="Trazado 898697" d="M2.407,166.071a4.938,4.938,0,0,1-.7-.049.7.7,0,0,1,.2-1.394,3.549,3.549,0,0,0,2.385-.508,2.661,2.661,0,0,1,2.9.061,2.83,2.83,0,0,0,4.071-1.008,2.854,2.854,0,0,0,.264-.693,2.653,2.653,0,0,1,2.414-2.066,3.552,3.552,0,0,0,3.311-3.36,3.505,3.505,0,0,0-.314-1.637.7.7,0,1,1,1.281-.586,4.946,4.946,0,0,1-4.1,6.983l-.106.006a1.249,1.249,0,0,0-1.114.984,4.236,4.236,0,0,1-4.153,3.26,4.149,4.149,0,0,1-1.592-.315,4.23,4.23,0,0,1-.745-.4,1.253,1.253,0,0,0-1.364-.04A4.931,4.931,0,0,1,2.407,166.071Z" transform="translate(-0.997 -139.924)"/>
        <path id="Trazado_898698" data-name="Trazado 898698" d="M123.076,288.585a.7.7,0,0,1-.592-1.084,2.1,2.1,0,0,0,.328-.991,2.136,2.136,0,0,0-1.272-2.1,2.587,2.587,0,0,1-1.551-2.326l0-.122a2.123,2.123,0,0,0-3.571-1.392,2.1,2.1,0,0,0-.67,1.548,2.08,2.08,0,0,0,.031.364,2.572,2.572,0,0,1-.773,2.327,2.118,2.118,0,0,0-.666,1.707c0,.058.011.115.02.17a.7.7,0,1,1-1.388.234q-.025-.15-.036-.3a3.519,3.519,0,0,1,1.108-2.835,1.167,1.167,0,0,0,.349-1.056,3.478,3.478,0,0,1-.053-.608,3.545,3.545,0,0,1,1.114-2.575,3.531,3.531,0,0,1,5.94,2.319c0,.067.007.132.008.2a1.162,1.162,0,0,0,.706,1.059,3.53,3.53,0,0,1,1.567,5.138A.7.7,0,0,1,123.076,288.585Z" transform="translate(-102.32 -252.437)"/>
      </g>
    </g>
  </g>
</svg>
