<svg xmlns="http://www.w3.org/2000/svg" xmlns:xlink="http://www.w3.org/1999/xlink" width="108.914" height="108.914" viewBox="0 0 108.914 108.914">
  <defs>
    <filter id="Trazado_874925" x="0" y="0" width="108.914" height="108.914" filterUnits="userSpaceOnUse">
      <feOffset dy="3" input="SourceAlpha"/>
      <feGaussianBlur stdDeviation="3" result="blur"/>
      <feFlood flood-opacity="0.161"/>
      <feComposite operator="in" in2="blur"/>
      <feComposite in="SourceGraphic"/>
    </filter>
  </defs>
  <g id="Grupo_1110279" data-name="Grupo 1110279" transform="translate(2850 6360)">
    <g id="Grupo_1110273" data-name="Grupo 1110273" transform="translate(-3963.051 -11607.999)">
      <g id="Grupo_1110060" data-name="Grupo 1110060" transform="translate(0.343 2736.842)">
        <g id="Grupo_1109819" data-name="Grupo 1109819" transform="translate(1121.708 2517.157)">
          <g transform="matrix(1, 0, 0, 1, -9, -6)" filter="url(#Trazado_874925)">
            <g id="Trazado_874925-2" data-name="Trazado 874925" transform="translate(9 6)" fill="#efdb59" opacity="0.859">
              <path d="M 45.45676803588867 89.41407012939453 C 39.52198028564453 89.41407012939453 33.76551818847656 88.25206756591797 28.34726715087891 85.96034240722656 C 23.11311721801758 83.74648284912109 18.41204261779785 80.57682800292969 14.37464332580566 76.5394287109375 C 10.33724308013916 72.50202941894531 7.167593002319336 67.80095672607422 4.953730583190918 62.56679534912109 C 2.662005424499512 57.14855575561523 1.500005483627319 51.39208221435547 1.500005483627319 45.45729446411133 C 1.500005483627319 39.52198028564453 2.662005424499512 33.76551818847656 4.953730583190918 28.34726905822754 C 7.167593002319336 23.11310577392578 10.33724308013916 18.41203117370605 14.37464332580566 14.37464332580566 C 18.41204261779785 10.33724403381348 23.11311721801758 7.167593955993652 28.34726715087891 4.953731060028076 C 33.76551818847656 2.662006139755249 39.52198028564453 1.500006198883057 45.45676803588867 1.500006198883057 C 51.39155578613281 1.500006198883057 57.14802932739258 2.662006139755249 62.56626892089844 4.953731060028076 C 67.80043029785156 7.167593955993652 72.50150299072266 10.33724403381348 76.53890228271484 14.37464332580566 C 80.57630920410156 18.41203117370605 83.74595642089844 23.11310577392578 85.95981597900391 28.34726905822754 C 88.25154113769531 33.76551818847656 89.41354370117188 39.52198028564453 89.41354370117188 45.45676803588867 C 89.41354370117188 51.39208221435547 88.25154113769531 57.14855575561523 85.95981597900391 62.56679534912109 C 83.74595642089844 67.80095672607422 80.57630920410156 72.50202941894531 76.53890228271484 76.5394287109375 C 72.50150299072266 80.57682800292969 67.80043029785156 83.74648284912109 62.56626892089844 85.96034240722656 C 57.14802932739258 88.25206756591797 51.39155578613281 89.41407012939453 45.45676803588867 89.41407012939453 Z" stroke="none"/>
              <path d="M 45.45676803588867 3 C 39.72381210327148 3 34.1639404296875 4.12213134765625 28.93159484863281 6.335227966308594 C 23.87622833251953 8.473472595214844 19.33542633056641 11.53517150878906 15.43529510498047 15.435302734375 C 11.53517150878906 19.33543395996094 8.473464965820312 23.87622833251953 6.335227966308594 28.93160247802734 C 4.122123718261719 34.16394424438477 3 39.72381591796875 3 45.4572868347168 C 3 51.19024658203125 4.122123718261719 56.75011825561523 6.335227966308594 61.98246002197266 C 8.473464965820312 67.03782653808594 11.53517150878906 71.57862854003906 15.43529510498047 75.478759765625 C 19.33542633056641 79.37889099121094 23.87622833251953 82.44058990478516 28.93159484863281 84.57883453369141 C 34.1639404296875 86.79193115234375 39.72381210327148 87.9140625 45.45676803588867 87.9140625 C 51.18972396850586 87.9140625 56.74959564208984 86.79193115234375 61.98194122314453 84.57883453369141 C 67.03730773925781 82.44058990478516 71.57810974121094 79.37889099121094 75.47824096679688 75.478759765625 C 79.37837219238281 71.57862854003906 82.44007110595703 67.03782653808594 84.57830810546875 61.98246002197266 C 86.79141235351562 56.75011825561523 87.91353607177734 51.19024658203125 87.91353607177734 45.4567756652832 C 87.91353607177734 39.72381591796875 86.79141235351562 34.16394424438477 84.57830810546875 28.93160247802734 C 82.44007110595703 23.87622833251953 79.37837219238281 19.33543395996094 75.47824096679688 15.435302734375 C 71.57810974121094 11.53517150878906 67.03730773925781 8.473472595214844 61.98194122314453 6.335227966308594 C 56.74959564208984 4.12213134765625 51.18972396850586 3 45.45676803588867 3 M 45.45676803588867 0 C 70.56185150146484 0 90.91353607177734 20.35169219970703 90.91353607177734 45.4567756652832 L 90.91353607177734 45.4572868347168 C 90.91353607177734 70.5623779296875 70.56185150146484 90.9140625 45.45676803588867 90.9140625 C 20.3516845703125 90.9140625 0 70.5623779296875 0 45.4572868347168 L 0 45.4567756652832 C 0 20.35169219970703 20.3516845703125 0 45.45676803588867 0 Z" stroke="none" fill="#fff"/>
            </g>
          </g>
          <g id="Trazado_874923" data-name="Trazado 874923" transform="translate(0 0)" fill="none">
            <path d="M45.457,0A45.457,45.457,0,0,1,90.914,45.457h0A45.457,45.457,0,0,1,0,45.457H0A45.457,45.457,0,0,1,45.457,0Z" stroke="none"/>
            <path d="M 45.45676803588867 3 C 39.72381210327148 3 34.1639404296875 4.12213134765625 28.93159484863281 6.335227966308594 C 23.87622833251953 8.473472595214844 19.33542633056641 11.53517150878906 15.43529510498047 15.435302734375 C 11.53517150878906 19.33543395996094 8.473464965820312 23.87622833251953 6.335227966308594 28.93160247802734 C 4.122123718261719 34.16394424438477 3 39.72381591796875 3 45.4572868347168 C 3 51.19024658203125 4.122123718261719 56.75011825561523 6.335227966308594 61.98246002197266 C 8.473464965820312 67.03782653808594 11.53517150878906 71.57862854003906 15.43529510498047 75.478759765625 C 19.33542633056641 79.37889099121094 23.87622833251953 82.44058990478516 28.93159484863281 84.57883453369141 C 34.1639404296875 86.79193115234375 39.72381210327148 87.9140625 45.45676803588867 87.9140625 C 51.18972396850586 87.9140625 56.74959564208984 86.79193115234375 61.98194122314453 84.57883453369141 C 67.03730773925781 82.44058990478516 71.57810974121094 79.37889099121094 75.47824096679688 75.478759765625 C 79.37837219238281 71.57862854003906 82.44007110595703 67.03782653808594 84.57830810546875 61.98246002197266 C 86.79141235351562 56.75011825561523 87.91353607177734 51.19024658203125 87.91353607177734 45.4567756652832 C 87.91353607177734 39.72381591796875 86.79141235351562 34.16394424438477 84.57830810546875 28.93160247802734 C 82.44007110595703 23.87622833251953 79.37837219238281 19.33543395996094 75.47824096679688 15.435302734375 C 71.57810974121094 11.53517150878906 67.03730773925781 8.473472595214844 61.98194122314453 6.335227966308594 C 56.74959564208984 4.12213134765625 51.18972396850586 3 45.45676803588867 3 M 45.45676803588867 0 C 70.56185150146484 0 90.91353607177734 20.35169219970703 90.91353607177734 45.4567756652832 L 90.91353607177734 45.4572868347168 C 90.91353607177734 70.5623779296875 70.56185150146484 90.9140625 45.45676803588867 90.9140625 C 20.3516845703125 90.9140625 0 70.5623779296875 0 45.4572868347168 L 0 45.4567756652832 C 0 20.35169219970703 20.3516845703125 0 45.45676803588867 0 Z" stroke="none" fill="#fff"/>
          </g>
        </g>
      </g>
    </g>
    <g id="resultados" transform="translate(-2823 -6336.68)">
      <path id="Trazado_898677" data-name="Trazado 898677" d="M54.147,45.725a1.718,1.718,0,0,0-1.562-1.087h-.959V17.858a3.281,3.281,0,0,0-3.278-3.286H42.064V6.327A1.643,1.643,0,0,0,40.417,4.68H13.934a1.638,1.638,0,0,0-1.647,1.647V14.58H5.995a3.289,3.289,0,0,0-3.286,3.286V44.638H1.749A1.705,1.705,0,0,0,.2,45.708,2.245,2.245,0,0,0,.535,48.1l1.749,1.961a2.907,2.907,0,0,0,2.14,1.01H49.935a2.96,2.96,0,0,0,2.148-1.019l1.732-1.944a2.268,2.268,0,0,0,.331-2.386ZM42.056,16.219h6.283a1.627,1.627,0,0,1,1.63,1.639v1.384H42.056ZM13.934,6.327H40.417V37.82H39.058l-5.069-5.774a9,9,0,1,0-3.006,2.344l2.36,3.43H13.934ZM32.605,33.379c.076-.059.136-.119.2-.17l5.281,6c.008,0,.008.008.017.017l.28.323a.8.8,0,0,1,.187.577.767.767,0,0,1-.289.535.778.778,0,0,1-1.112-.17l-4.78-6.954a2.3,2.3,0,0,0,.212-.161Zm-1-1.3A7.331,7.331,0,1,1,32.877,21.8,7.353,7.353,0,0,1,31.6,32.08ZM4.364,17.858A1.64,1.64,0,0,1,6,16.219h6.292v3.023H4.364Zm0,3.031h7.931V37.82a1.643,1.643,0,0,0,1.647,1.647H34.473l1.35,1.961a2.456,2.456,0,0,0,1.622,1.019,2.762,2.762,0,0,0,.374.025,2.423,2.423,0,0,0,2.411-2.191,2.38,2.38,0,0,0-.076-.815h.272a1.649,1.649,0,0,0,1.647-1.647V20.889h7.914V44.63H33.624a.858.858,0,0,0-.628.289l-1.138,1.325H22.476l-1.121-1.325a.844.844,0,0,0-.628-.289H4.364Zm48.22,26.118-1.732,1.944a1.3,1.3,0,0,1-.926.475H4.415a1.292,1.292,0,0,1-.926-.467L1.749,47.016a.6.6,0,0,1-.11-.45,1.473,1.473,0,0,1,.1-.28H20.327l1.129,1.325a.844.844,0,0,0,.628.289H32.232a.844.844,0,0,0,.628-.289L34,46.286l16.778-.008a.03.03,0,0,1,.017.008c.008,0,.017-.008.025-.008h1.749a.513.513,0,0,1,.127.28.675.675,0,0,1-.11.45Z" transform="translate(0)" fill="#2a2f64"/>
      <path id="Trazado_898678" data-name="Trazado 898678" d="M52.977,53.95a.584.584,0,0,1-.11.45h-.008l-1.724,1.944a1.3,1.3,0,0,1-.926.475H4.706a1.292,1.292,0,0,1-.926-.467L2.04,54.409a.6.6,0,0,1-.11-.45,1.473,1.473,0,0,1,.1-.28H20.618L21.747,55a.844.844,0,0,0,.628.289H32.522A.844.844,0,0,0,33.15,55l1.138-1.325,16.778-.008a.03.03,0,0,1,.017.008c.008,0,.017-.008.025-.008h1.749a.5.5,0,0,1,.119.28Z" transform="translate(-0.29 -7.393)" fill="#53be9e"/>
      <path id="Trazado_898679" data-name="Trazado 898679" d="M44.331,45.192a.767.767,0,0,1-.289.535.778.778,0,0,1-1.112-.17L38.15,38.6c.076-.059.144-.1.212-.153s.136-.119.2-.17l5.281,6c.008,0,.008.008.017.017l.28.323a.784.784,0,0,1,.187.569Z" transform="translate(-5.757 -5.07)" fill="#f16e61"/>
      <path id="Trazado_898680" data-name="Trazado 898680" d="M36.388,24.327A7.333,7.333,0,1,0,35.115,34.61a7.364,7.364,0,0,0,1.274-10.283ZM35.3,26.348,29.179,32.47a.83.83,0,0,1-1.163,0L25.9,30.365a.829.829,0,0,1,1.172-1.172l1.52,1.528,5.545-5.545A.826.826,0,1,1,35.3,26.348Z" transform="translate(-3.511 -2.538)" fill="#b6d9e7"/>
      <path id="Trazado_898681" data-name="Trazado 898681" d="M36.388,24.327A7.333,7.333,0,1,0,35.115,34.61a7.364,7.364,0,0,0,1.274-10.283Zm-1.944,9.425A6.237,6.237,0,1,1,35.531,25,6.259,6.259,0,0,1,34.444,33.752Z" transform="translate(-3.511 -2.538)" fill="#a0c3d8"/>
      <path id="Trazado_898682" data-name="Trazado 898682" d="M16.41,6.62V38.113h19.4l-2.36-3.43a8.889,8.889,0,0,1-3.88.892,8.985,8.985,0,1,1,6.886-3.235l5.069,5.774h1.359V6.62ZM32.3,14.746H19.628a.824.824,0,1,1,0-1.647h12.66a.83.83,0,0,1,.824.824.817.817,0,0,1-.815.824Zm6.58-3.8H19.628a.824.824,0,1,1,0-1.647H38.877a.824.824,0,1,1,0,1.647Z" transform="translate(-2.476 -0.293)" fill="#ececec"/>
      <path id="Trazado_898683" data-name="Trazado 898683" d="M42.893,6.62V38.113H41.535l-1.061-1.206H41.73V7.826H17.573V36.907H35l.824,1.206H16.41V6.62Z" transform="translate(-2.476 -0.293)" fill="#d5d6d5"/>
      <path id="Trazado_898684" data-name="Trazado 898684" d="M13.062,18.27v3.023H5.14V19.909A1.64,1.64,0,0,1,6.779,18.27Z" transform="translate(-0.776 -2.051)" fill="#53be9e"/>
      <path id="Trazado_898685" data-name="Trazado 898685" d="M57.444,19.909v1.384H49.53V18.27h6.283A1.632,1.632,0,0,1,57.444,19.909Z" transform="translate(-7.474 -2.051)" fill="#53be9e"/>
      <path id="Trazado_898686" data-name="Trazado 898686" d="M52.977,53.95a.584.584,0,0,1-.11.45h-.008l-1.724,1.944a1.3,1.3,0,0,1-.926.475H4.706a1.292,1.292,0,0,1-.926-.467L2.04,54.409a.6.6,0,0,1-.11-.45,1.473,1.473,0,0,1,.1-.28H3.653l1.2,1.274a1.231,1.231,0,0,0,.883.425H49.19a1.239,1.239,0,0,0,.883-.433l1.189-1.274h1.6a.5.5,0,0,1,.119.28Z" transform="translate(-0.29 -7.393)" fill="#3ba37f"/>
      <path id="Trazado_898687" data-name="Trazado 898687" d="M13.062,18.27v1.443H8.2a1.515,1.515,0,0,0-1.528,1.494v.085H5.14V19.909A1.64,1.64,0,0,1,6.779,18.27Z" transform="translate(-0.776 -2.051)" fill="#3ba37f"/>
      <path id="Trazado_898688" data-name="Trazado 898688" d="M57.445,19.909v1.384H55.917v-.085a1.5,1.5,0,0,0-1.52-1.494H49.54V18.27h6.283A1.631,1.631,0,0,1,57.445,19.909Z" transform="translate(-7.476 -2.051)" fill="#3ba37f"/>
      <path id="Trazado_898689" data-name="Trazado 898689" d="M50.745,23.77V47.511H34.4a.858.858,0,0,0-.628.289l-1.138,1.325H23.251L22.13,47.8a.844.844,0,0,0-.628-.289H5.14V23.77h7.931V40.7a1.643,1.643,0,0,0,1.647,1.647H35.249L36.6,44.31a2.456,2.456,0,0,0,1.622,1.019,2.762,2.762,0,0,0,.374.025,2.423,2.423,0,0,0,2.411-2.191,2.38,2.38,0,0,0-.076-.815H41.2A1.649,1.649,0,0,0,42.848,40.7V23.77Z" transform="translate(-0.776 -2.881)" fill="#d6e8f2"/>
      <path id="Trazado_898690" data-name="Trazado 898690" d="M5.14,23.77H6.668V47.511H5.14Z" transform="translate(-0.776 -2.881)" fill="#b6d9e7"/>
      <path id="Trazado_898691" data-name="Trazado 898691" d="M57.05,23.77h1.528V47.511H57.05Z" transform="translate(-8.609 -2.881)" fill="#b6d9e7"/>
      <g id="Grupo_1110278" data-name="Grupo 1110278" transform="translate(16.328 9.002)">
        <path id="Trazado_898692" data-name="Trazado 898692" d="M35.726,26.959,29.6,33.081a.83.83,0,0,1-1.163,0l-2.114-2.106A.829.829,0,1,1,27.5,29.8l1.52,1.528,5.545-5.545a.826.826,0,1,1,1.163,1.172Z" transform="translate(-20.264 -12.151)" fill="#2a2f64"/>
        <path id="Trazado_898693" data-name="Trazado 898693" d="M40.126,10.594a.83.83,0,0,1-.824.824H20.054a.824.824,0,1,1,0-1.647H39.3A.819.819,0,0,1,40.126,10.594Z" transform="translate(-19.23 -9.77)" fill="#2a2f64"/>
        <path id="Trazado_898694" data-name="Trazado 898694" d="M33.546,15.074a.83.83,0,0,1-.824.824H20.054a.824.824,0,1,1,0-1.647h12.66A.832.832,0,0,1,33.546,15.074Z" transform="translate(-19.23 -10.446)" fill="#2a2f64"/>
      </g>
    </g>
  </g>
</svg>
