<svg xmlns="http://www.w3.org/2000/svg" xmlns:xlink="http://www.w3.org/1999/xlink" width="108.914" height="108.914" viewBox="0 0 108.914 108.914">
  <defs>
    <filter id="Trazado_874925" x="0" y="0" width="108.914" height="108.914" filterUnits="userSpaceOnUse">
      <feOffset dy="3" input="SourceAlpha"/>
      <feGaussianBlur stdDeviation="3" result="blur"/>
      <feFlood flood-opacity="0.161"/>
      <feComposite operator="in" in2="blur"/>
      <feComposite in="SourceGraphic"/>
    </filter>
  </defs>
  <g id="Grupo_1110296" data-name="Grupo 1110296" transform="translate(2531 6360)">
    <g id="Grupo_1110060" data-name="Grupo 1110060" transform="translate(-3643.708 -8871.157)">
      <g id="Grupo_1109819" data-name="Grupo 1109819" transform="translate(1121.708 2517.157)">
        <g transform="matrix(1, 0, 0, 1, -9, -6)" filter="url(#Trazado_874925)">
          <g id="Trazado_874925-2" data-name="Trazado 874925" transform="translate(9 6)" fill="#efdb59" opacity="0.859">
            <path d="M 45.45676803588867 89.41407012939453 C 39.52198028564453 89.41407012939453 33.76551818847656 88.25206756591797 28.34726715087891 85.96034240722656 C 23.11311721801758 83.74648284912109 18.41204261779785 80.57682800292969 14.37464332580566 76.5394287109375 C 10.33724308013916 72.50202941894531 7.167593002319336 67.80095672607422 4.953730583190918 62.56679534912109 C 2.662005424499512 57.14855575561523 1.500005483627319 51.39208221435547 1.500005483627319 45.45729446411133 C 1.500005483627319 39.52198028564453 2.662005424499512 33.76551818847656 4.953730583190918 28.34726905822754 C 7.167593002319336 23.11310577392578 10.33724308013916 18.41203117370605 14.37464332580566 14.37464332580566 C 18.41204261779785 10.33724403381348 23.11311721801758 7.167593955993652 28.34726715087891 4.953731060028076 C 33.76551818847656 2.662006139755249 39.52198028564453 1.500006198883057 45.45676803588867 1.500006198883057 C 51.39155578613281 1.500006198883057 57.14802932739258 2.662006139755249 62.56626892089844 4.953731060028076 C 67.80043029785156 7.167593955993652 72.50150299072266 10.33724403381348 76.53890228271484 14.37464332580566 C 80.57630920410156 18.41203117370605 83.74595642089844 23.11310577392578 85.95981597900391 28.34726905822754 C 88.25154113769531 33.76551818847656 89.41354370117188 39.52198028564453 89.41354370117188 45.45676803588867 C 89.41354370117188 51.39208221435547 88.25154113769531 57.14855575561523 85.95981597900391 62.56679534912109 C 83.74595642089844 67.80095672607422 80.57630920410156 72.50202941894531 76.53890228271484 76.5394287109375 C 72.50150299072266 80.57682800292969 67.80043029785156 83.74648284912109 62.56626892089844 85.96034240722656 C 57.14802932739258 88.25206756591797 51.39155578613281 89.41407012939453 45.45676803588867 89.41407012939453 Z" stroke="none"/>
            <path d="M 45.45676803588867 3 C 39.72381210327148 3 34.1639404296875 4.12213134765625 28.93159484863281 6.335227966308594 C 23.87622833251953 8.473472595214844 19.33542633056641 11.53517150878906 15.43529510498047 15.435302734375 C 11.53517150878906 19.33543395996094 8.473464965820312 23.87622833251953 6.335227966308594 28.93160247802734 C 4.122123718261719 34.16394424438477 3 39.72381591796875 3 45.4572868347168 C 3 51.19024658203125 4.122123718261719 56.75011825561523 6.335227966308594 61.98246002197266 C 8.473464965820312 67.03782653808594 11.53517150878906 71.57862854003906 15.43529510498047 75.478759765625 C 19.33542633056641 79.37889099121094 23.87622833251953 82.44058990478516 28.93159484863281 84.57883453369141 C 34.1639404296875 86.79193115234375 39.72381210327148 87.9140625 45.45676803588867 87.9140625 C 51.18972396850586 87.9140625 56.74959564208984 86.79193115234375 61.98194122314453 84.57883453369141 C 67.03730773925781 82.44058990478516 71.57810974121094 79.37889099121094 75.47824096679688 75.478759765625 C 79.37837219238281 71.57862854003906 82.44007110595703 67.03782653808594 84.57830810546875 61.98246002197266 C 86.79141235351562 56.75011825561523 87.91353607177734 51.19024658203125 87.91353607177734 45.4567756652832 C 87.91353607177734 39.72381591796875 86.79141235351562 34.16394424438477 84.57830810546875 28.93160247802734 C 82.44007110595703 23.87622833251953 79.37837219238281 19.33543395996094 75.47824096679688 15.435302734375 C 71.57810974121094 11.53517150878906 67.03730773925781 8.473472595214844 61.98194122314453 6.335227966308594 C 56.74959564208984 4.12213134765625 51.18972396850586 3 45.45676803588867 3 M 45.45676803588867 0 C 70.56185150146484 0 90.91353607177734 20.35169219970703 90.91353607177734 45.4567756652832 L 90.91353607177734 45.4572868347168 C 90.91353607177734 70.5623779296875 70.56185150146484 90.9140625 45.45676803588867 90.9140625 C 20.3516845703125 90.9140625 0 70.5623779296875 0 45.4572868347168 L 0 45.4567756652832 C 0 20.35169219970703 20.3516845703125 0 45.45676803588867 0 Z" stroke="none" fill="#fff"/>
          </g>
        </g>
        <g id="Trazado_874923" data-name="Trazado 874923" transform="translate(0 0)" fill="none">
          <path d="M45.457,0A45.457,45.457,0,0,1,90.914,45.457h0A45.457,45.457,0,0,1,0,45.457H0A45.457,45.457,0,0,1,45.457,0Z" stroke="none"/>
          <path d="M 45.45676803588867 3 C 39.72381210327148 3 34.1639404296875 4.12213134765625 28.93159484863281 6.335227966308594 C 23.87622833251953 8.473472595214844 19.33542633056641 11.53517150878906 15.43529510498047 15.435302734375 C 11.53517150878906 19.33543395996094 8.473464965820312 23.87622833251953 6.335227966308594 28.93160247802734 C 4.122123718261719 34.16394424438477 3 39.72381591796875 3 45.4572868347168 C 3 51.19024658203125 4.122123718261719 56.75011825561523 6.335227966308594 61.98246002197266 C 8.473464965820312 67.03782653808594 11.53517150878906 71.57862854003906 15.43529510498047 75.478759765625 C 19.33542633056641 79.37889099121094 23.87622833251953 82.44058990478516 28.93159484863281 84.57883453369141 C 34.1639404296875 86.79193115234375 39.72381210327148 87.9140625 45.45676803588867 87.9140625 C 51.18972396850586 87.9140625 56.74959564208984 86.79193115234375 61.98194122314453 84.57883453369141 C 67.03730773925781 82.44058990478516 71.57810974121094 79.37889099121094 75.47824096679688 75.478759765625 C 79.37837219238281 71.57862854003906 82.44007110595703 67.03782653808594 84.57830810546875 61.98246002197266 C 86.79141235351562 56.75011825561523 87.91353607177734 51.19024658203125 87.91353607177734 45.4567756652832 C 87.91353607177734 39.72381591796875 86.79141235351562 34.16394424438477 84.57830810546875 28.93160247802734 C 82.44007110595703 23.87622833251953 79.37837219238281 19.33543395996094 75.47824096679688 15.435302734375 C 71.57810974121094 11.53517150878906 67.03730773925781 8.473472595214844 61.98194122314453 6.335227966308594 C 56.74959564208984 4.12213134765625 51.18972396850586 3 45.45676803588867 3 M 45.45676803588867 0 C 70.56185150146484 0 90.91353607177734 20.35169219970703 90.91353607177734 45.4567756652832 L 90.91353607177734 45.4572868347168 C 90.91353607177734 70.5623779296875 70.56185150146484 90.9140625 45.45676803588867 90.9140625 C 20.3516845703125 90.9140625 0 70.5623779296875 0 45.4572868347168 L 0 45.4567756652832 C 0 20.35169219970703 20.3516845703125 0 45.45676803588867 0 Z" stroke="none" fill="#fff"/>
        </g>
      </g>
    </g>
    <g id="Grupo_1110294" data-name="Grupo 1110294" transform="translate(-2501.18 -6333.18)">
      <g id="Grupo_1110280" data-name="Grupo 1110280" transform="translate(31.153 0.82)">
        <path id="Trazado_898695" data-name="Trazado 898695" d="M39,10.2V3.64A1.644,1.644,0,0,1,40.64,2H55.4a1.644,1.644,0,0,1,1.64,1.64V10.2a1.644,1.644,0,0,1-1.64,1.64H50.477l-1.271,2.55a1.333,1.333,0,0,1-2.377,0l-1.271-2.55H40.64A1.644,1.644,0,0,1,39,10.2Z" transform="translate(-39 -2)" fill="#e6e9ed"/>
      </g>
      <g id="Grupo_1110281" data-name="Grupo 1110281">
        <path id="Trazado_898696" data-name="Trazado 898696" d="M2.64,1H17.4a1.644,1.644,0,0,1,1.64,1.64v8.2a1.644,1.644,0,0,1-1.64,1.64H12.477l-1.271,2.55a1.333,1.333,0,0,1-2.377,0l-1.271-2.55H2.64A1.644,1.644,0,0,1,1,10.838V2.64A1.644,1.644,0,0,1,2.64,1Z" transform="translate(-1 -1)" fill="#e6e9ed"/>
      </g>
      <g id="Grupo_1110282" data-name="Grupo 1110282" transform="translate(32.792 37.719)">
        <path id="Trazado_898697" data-name="Trazado 898697" d="M47.558,53.568v-4.1a2.454,2.454,0,0,1,.721-1.738,2.42,2.42,0,0,1,1.738-.721,2.455,2.455,0,0,1,2.459,2.459v5.739A3.278,3.278,0,0,1,49.2,58.487H42.64A1.639,1.639,0,0,1,41,56.848v-1.64a1.629,1.629,0,0,1,.475-1.156h.008a1.622,1.622,0,0,1,1.156-.484Z" transform="translate(-41 -47.01)" fill="#fcd770"/>
      </g>
      <g id="Grupo_1110283" data-name="Grupo 1110283" transform="translate(34.432 37.719)">
        <path id="Trazado_898698" data-name="Trazado 898698" d="M46.763,47.854l.8-.344a4.322,4.322,0,0,1,.418-.156,6.087,6.087,0,0,1,2.033-.344h.361a2.42,2.42,0,0,0-1.738.721,2.454,2.454,0,0,0-.721,1.738v4.1H43a6.23,6.23,0,0,1,3.763-5.714Z" transform="translate(-43 -47.01)" fill="#fcd770"/>
      </g>
      <g id="Grupo_1110284" data-name="Grupo 1110284" transform="translate(28.693 17.216)">
        <path id="Trazado_898699" data-name="Trazado 898699" d="M45.018,30.206H36l.131-.254a7.358,7.358,0,0,1,4.361-3.73,9.854,9.854,0,0,0-4.173-.935H36A8.208,8.208,0,0,1,42.55,22h3.484A10.468,10.468,0,0,1,56.5,32.461a9.76,9.76,0,0,1-6.558,9.223v-4.1l1.156-1.156a1.645,1.645,0,0,0,.484-1.164v-.139a1.6,1.6,0,0,0-.484-1.156,1.636,1.636,0,0,0-1.156-.484,3.278,3.278,0,0,0-3.279-3.279Z" transform="translate(-36 -22)" fill="#b27946"/>
      </g>
      <g id="Grupo_1110285" data-name="Grupo 1110285" transform="translate(23.774 37.711)">
        <path id="Trazado_898700" data-name="Trazado 898700" d="M36.558,47v6.091a1.486,1.486,0,0,0-.443.533l-.377.762h-.82a1.644,1.644,0,0,0-1.64,1.64A2.454,2.454,0,0,0,34,57.764a2.375,2.375,0,0,0,1.615.713H30V47Z" transform="translate(-30 -47)" fill="#e6e9ed"/>
      </g>
      <g id="Grupo_1110286" data-name="Grupo 1110286" transform="translate(27.054 43.458)">
        <path id="Trazado_898701" data-name="Trazado 898701" d="M39.739,58.109a1.639,1.639,0,0,0,1.64,1.64H36.459a.621.621,0,0,1-.123-.008,2.375,2.375,0,0,1-1.615-.713A2.454,2.454,0,0,1,34,57.289a1.644,1.644,0,0,1,1.64-1.64h.82l.377-.762a1.486,1.486,0,0,1,.443-.533v-.008a1.594,1.594,0,0,1,2.107.131l.828.836a1.629,1.629,0,0,0-.475,1.156Z" transform="translate(-34 -54.01)" fill="#f0d0b4"/>
      </g>
      <g id="Grupo_1110287" data-name="Grupo 1110287" transform="translate(31.153 25.422)">
        <path id="Trazado_898702" data-name="Trazado 898702" d="M40.64,41.848V38.568L39,36.929a5.6,5.6,0,0,0,1.64-3.96V32.01H47.2a3.278,3.278,0,0,1,3.279,3.279,1.636,1.636,0,0,1,1.156.484,1.6,1.6,0,0,1,.484,1.156v.139a1.645,1.645,0,0,1-.484,1.164l-1.156,1.156v4.919H49.3a6.087,6.087,0,0,0-2.033.344l-3.132.443a2.522,2.522,0,0,1-.434.033,3.051,3.051,0,0,1-3.058-3.058Z" transform="translate(-39 -32.01)" fill="#f0d0b4"/>
      </g>
      <g id="Grupo_1110288" data-name="Grupo 1110288" transform="translate(16.568 37.711)">
        <path id="Trazado_898703" data-name="Trazado 898703" d="M24.235,54.083a1.474,1.474,0,0,1-.2.394,1.7,1.7,0,0,0-.541-.09h-.82l-.385-.762a1.559,1.559,0,0,0-1.082-.836V52.78l1.549-4.657A1.632,1.632,0,0,1,24.317,47a1.584,1.584,0,0,1,.516.082,1.64,1.64,0,0,1,1.041,2.074Z" transform="translate(-21.21 -47)" fill="#969faa"/>
      </g>
      <g id="Grupo_1110289" data-name="Grupo 1110289" transform="translate(13.117 43.458)">
        <path id="Trazado_898704" data-name="Trazado 898704" d="M23.28,55.74a1.651,1.651,0,0,1,1.1,1.549,2.454,2.454,0,0,1-.721,1.738,2.42,2.42,0,0,1-1.738.721H17a1.644,1.644,0,0,0,1.64-1.64v-1.64a1.6,1.6,0,0,0-.484-1.156l.836-.836a1.568,1.568,0,0,1,1.123-.467l.336.041a1.559,1.559,0,0,1,1.082.836l.385.762h.82A1.7,1.7,0,0,1,23.28,55.74Z" transform="translate(-17 -54.01)" fill="#f0d0b4"/>
      </g>
      <g id="Grupo_1110290" data-name="Grupo 1110290" transform="translate(3.279 25.422)">
        <path id="Trazado_898705" data-name="Trazado 898705" d="M16.477,41.848v.221a3.051,3.051,0,0,1-3.066,3.058,2.489,2.489,0,0,1-.426-.033l-3.132-.443a6.087,6.087,0,0,0-2.033-.344H6.64V39.388L5.475,38.232A1.672,1.672,0,0,1,5,37.068v-.139a1.637,1.637,0,0,1,1.64-1.64A3.278,3.278,0,0,1,9.919,32.01h6.558v.959a5.6,5.6,0,0,0,1.64,3.96l-1.64,1.64Z" transform="translate(-5 -32.01)" fill="#f0d0b4"/>
      </g>
      <g id="Grupo_1110291" data-name="Grupo 1110291" transform="translate(5.739 37.719)">
        <path id="Trazado_898706" data-name="Trazado 898706" d="M10.459,49.469a2.454,2.454,0,0,0-.721-1.738A2.42,2.42,0,0,0,8,47.01h.361a6.087,6.087,0,0,1,2.033.344,4.32,4.32,0,0,1,.418.156l.8.344a6.225,6.225,0,0,1,3.771,5.714H10.459Z" transform="translate(-8 -47.01)" fill="#ff826e"/>
      </g>
      <g id="Grupo_1110292" data-name="Grupo 1110292" transform="translate(3.279 37.719)">
        <path id="Trazado_898707" data-name="Trazado 898707" d="M9.919,53.568h4.919a1.636,1.636,0,0,1,1.156.484,1.6,1.6,0,0,1,.484,1.156v1.64a1.644,1.644,0,0,1-1.64,1.64H8.279A3.278,3.278,0,0,1,5,55.208V49.469A2.455,2.455,0,0,1,7.459,47.01a2.42,2.42,0,0,1,1.738.721,2.454,2.454,0,0,1,.721,1.738Z" transform="translate(-5 -47.01)" fill="#ff826e"/>
      </g>
      <g id="Grupo_1110293" data-name="Grupo 1110293" transform="translate(0 18.036)">
        <path id="Trazado_898708" data-name="Trazado 898708" d="M15.757,30.386H9.2a3.278,3.278,0,0,0-3.279,3.279,1.637,1.637,0,0,0-1.64,1.64v.139a1.672,1.672,0,0,0,.475,1.164l1.164,1.156v5.058a2.451,2.451,0,0,0-1.64,2.32v5.73A8.192,8.192,0,0,1,1,44.315V30.378A7.379,7.379,0,0,1,8.378,23h3.279A5.738,5.738,0,0,1,17.4,28.739a1.644,1.644,0,0,1-1.64,1.64Z" transform="translate(-1 -23)" fill="#fcd770"/>
      </g>
    </g>
    <g id="Grupo_1110295" data-name="Grupo 1110295" transform="translate(-2502 -6334)">
      <path id="Trazado_898709" data-name="Trazado 898709" d="M2.459,13.117H6.872L7.918,15.21a2.147,2.147,0,0,0,3.84,0L12.8,13.117h4.412a2.462,2.462,0,0,0,2.459-2.459v-8.2A2.462,2.462,0,0,0,17.216,0H2.459A2.462,2.462,0,0,0,0,2.459v8.2A2.462,2.462,0,0,0,2.459,13.117ZM1.64,2.459a.821.821,0,0,1,.82-.82H17.216a.821.821,0,0,1,.82.82v8.2a.821.821,0,0,1-.82.82H11.79l-1.5,3a.525.525,0,0,1-.906,0l-1.5-3H2.459a.821.821,0,0,1-.82-.82Z" transform="translate(0)"/>
      <path id="Trazado_898710" data-name="Trazado 898710" d="M9.5,4.317,8.08,3.5,5.333,8.311l-.88-.88L3.293,8.589l2.4,2.4Z" transform="translate(-0.593 -0.631)"/>
      <path id="Trazado_898711" data-name="Trazado 898711" d="M55.216,1H40.459A2.462,2.462,0,0,0,38,3.459v6.558a2.462,2.462,0,0,0,2.459,2.459h4.412l1.046,2.093a2.147,2.147,0,0,0,3.84,0L50.8,12.477h4.412a2.462,2.462,0,0,0,2.459-2.459V3.459A2.462,2.462,0,0,0,55.216,1Zm.82,9.018a.821.821,0,0,1-.82.82H49.79l-1.5,3a.525.525,0,0,1-.906,0l-1.5-3H40.459a.821.821,0,0,1-.82-.82V3.459a.821.821,0,0,1,.82-.82H55.216a.821.821,0,0,1,.82.82Z" transform="translate(-6.847 -0.18)"/>
      <path id="Trazado_898712" data-name="Trazado 898712" d="M44.776,21c-1.777,0-3.162,0-3.493,0a9.083,9.083,0,0,0-7.2,3.615.82.82,0,0,0,.656,1.312h.324a8.963,8.963,0,0,1,2.023.233A8.2,8.2,0,0,0,34.134,29.4l-.128.256a.821.821,0,0,0,.734,1.187h3.279v.14a4.748,4.748,0,0,1-1.4,3.379l-.58.58,1.978,1.979v3.158A3.876,3.876,0,0,0,41.7,43.943a7,7,0,0,0-2,4.254,2.366,2.366,0,0,0-.284.111l-.361-.361a2.424,2.424,0,0,0-1.7-.705c-.055,0-.107.007-.161.011V41.5H29V54.612h6.476c.029,0,.055.008.083.008H47.035a4.1,4.1,0,0,0,4.1-4.1V44.782a3.273,3.273,0,0,0-1.529-2.763,10.591,10.591,0,0,0,6.449-9.739A11.3,11.3,0,0,0,44.776,21ZM39.753,40.684H41.3A3.283,3.283,0,0,0,44.576,37.4h-1.64a1.641,1.641,0,0,1-1.64,1.64h-1.64v-2.8l-1.336-1.336a6.372,6.372,0,0,0,1.336-3.922v-.141H45.4a2.462,2.462,0,0,1,2.459,2.459v.82h.82a.821.821,0,0,1,.82.82v.14a.816.816,0,0,1-.24.58l-1.4,1.4V41.5h-.364a7,7,0,0,0-2.2.357l-3.073.439a2.26,2.26,0,0,1-2.464-1.617Zm4.814,3.238.159-.068a3.219,3.219,0,0,0-.15.928v3.28H41.36A5.389,5.389,0,0,1,44.567,43.922ZM37.9,49.107l.361.361a2.434,2.434,0,0,0-.247,1.054v1.64a2.432,2.432,0,0,0,.151.82h-1.79v-.009h-.9a1.637,1.637,0,0,1-1.557-1.631.821.821,0,0,1,.82-.82h1.326l.607-1.215a.8.8,0,0,1,1.231-.2ZM30.64,43.135h4.919v4.92a2.411,2.411,0,0,0-.353.519l-.154.308h-.313a2.462,2.462,0,0,0-2.459,2.459,3.241,3.241,0,0,0,.452,1.631H30.64ZM49.494,50.52a2.462,2.462,0,0,1-2.459,2.459H40.476a.821.821,0,0,1-.82-.82V50.52a.821.821,0,0,1,.82-.82h4.481l1.4,2.095,1.364-.909-1.5-2.253V44.782a1.641,1.641,0,0,1,1.627-1.639h.024A1.641,1.641,0,0,1,49.5,44.781V50.52Zm0-10.259V37.744l.919-.919a2.441,2.441,0,0,0,.721-1.739v-.141a2.465,2.465,0,0,0-1.7-2.34,4.106,4.106,0,0,0-3.388-3.341,2.445,2.445,0,0,0-2.291-3.337h-.82v1.64h.82a.82.82,0,1,1,0,1.64H36.168a6.567,6.567,0,0,1,3.025-2.261,9.131,9.131,0,0,1,.829.484l.909-1.364a10.55,10.55,0,0,0-4.393-1.675,7.436,7.436,0,0,1,4.75-1.749h3.487a9.653,9.653,0,0,1,9.638,9.64A8.949,8.949,0,0,1,49.5,40.261Z" transform="translate(-5.226 -3.784)"/>
      <circle id="Elipse_12352" data-name="Elipse 12352" cx="1" cy="1" r="1" transform="translate(36 28.826)"/>
      <circle id="Elipse_12353" data-name="Elipse 12353" cx="1" cy="1" r="1" transform="translate(11 28.826)"/>
      <path id="Trazado_898713" data-name="Trazado 898713" d="M21.272,41.8a2.457,2.457,0,0,0-3.112,1.556L16.8,47.448a2.416,2.416,0,0,0-1.449.68l-.36.361a2.42,2.42,0,0,0-.284-.111,7,7,0,0,0-2-4.254A3.876,3.876,0,0,0,16.4,40.262V37.1l1.979-1.979-.58-.58a4.748,4.748,0,0,1-1.4-3.379v-.3a2.454,2.454,0,0,0,1.64-2.309A6.566,6.566,0,0,0,11.477,22H8.2A8.207,8.207,0,0,0,0,30.2V44.135a9.051,9.051,0,0,0,3.32,6.971A4.09,4.09,0,0,0,7.377,54.8H18.854a3.283,3.283,0,0,0,3.279-3.279,2.444,2.444,0,0,0-.882-1.871l1.578-4.741A2.462,2.462,0,0,0,21.272,41.8Zm-8.219,6.44H9.836V44.963a3.255,3.255,0,0,0-.148-.928l.157.067a5.388,5.388,0,0,1,3.207,4.14Zm1.7-11.817v2.8h-1.64a1.641,1.641,0,0,1-1.64-1.64H9.836a3.283,3.283,0,0,0,3.279,3.279h1.547a2.238,2.238,0,0,1-2.149,1.64,2.278,2.278,0,0,1-.318-.022l-3.073-.44a6.989,6.989,0,0,0-2.2-.357H6.557V37.245l-1.4-1.4a.818.818,0,0,1-.24-.58v-.14a.821.821,0,0,1,.82-.82h.82v-.82a2.462,2.462,0,0,1,2.459-2.459h5.739v.14a6.372,6.372,0,0,0,1.336,3.922ZM1.64,44.135V30.2A6.566,6.566,0,0,1,8.2,23.64h3.279A4.924,4.924,0,0,1,16.4,28.558a.821.821,0,0,1-.82.82H13.117v.008h-4.1a4.106,4.106,0,0,0-4.039,3.4,2.464,2.464,0,0,0-1.7,2.34v.14A2.448,2.448,0,0,0,4,37l.919.919v4.215a3.267,3.267,0,0,0-1.638,2.822v3.8a7.409,7.409,0,0,1-1.64-4.625ZM4.919,50.7V44.961a1.641,1.641,0,0,1,1.628-1.638h.024A1.636,1.636,0,0,1,8.2,44.962v3.852L6.7,51.067l1.364.908,1.394-2.094h4.482a.821.821,0,0,1,.82.82v1.64a.821.821,0,0,1-.82.82H7.377A2.463,2.463,0,0,1,4.919,50.7Zm13.935,2.46H16.245a2.432,2.432,0,0,0,.151-.82V50.7a2.434,2.434,0,0,0-.247-1.054l.36-.36a.8.8,0,0,1,1.231.2l.607,1.215h1.326a.821.821,0,0,1,.82.82A1.641,1.641,0,0,1,18.854,53.161Zm2.419-8.768-1.556,4.674c-.015,0-.029,0-.043,0h-.313l-.154-.308a2.4,2.4,0,0,0-.809-.917l1.319-3.961a.82.82,0,0,1,1.557.517Z" transform="translate(0 -3.964)"/>
      <path id="Trazado_898714" data-name="Trazado 898714" d="M13,4h5.739V5.64H13Z" transform="translate(-2.342 -0.721)"/>
      <path id="Trazado_898715" data-name="Trazado 898715" d="M13,8h5.739V9.64H13Z" transform="translate(-2.342 -1.442)"/>
      <path id="Trazado_898716" data-name="Trazado 898716" d="M42,5H55.117V6.64H42Z" transform="translate(-7.568 -0.901)"/>
      <path id="Trazado_898717" data-name="Trazado 898717" d="M42,9H55.117v1.64H42Z" transform="translate(-7.568 -1.622)"/>
    </g>
  </g>
</svg>
