<svg xmlns="http://www.w3.org/2000/svg" width="72" height="72" viewBox="0 0 72 72">
  <g id="Grupo_1109992" data-name="Grupo 1109992" transform="translate(-285 -5400.688)">
    <g id="Grupo_1109991" data-name="Grupo 1109991" transform="translate(70 3517)">
      <g id="Grupo_1109953" data-name="Grupo 1109953" transform="translate(-204 762.688)">
        <path id="Trazado_824488" data-name="Trazado 824488" d="M36,0A36,36,0,1,1,0,36,36,36,0,0,1,36,0Z" transform="translate(419 1121)" fill="#efdb59"/>
      </g>
    </g>
    <g id="prioridad" transform="translate(301.146 5416.835)">
      <path id="Trazado_898306" data-name="Trazado 898306" d="M36.69,114.274H16.854A9.354,9.354,0,0,0,7.5,123.628v6.521a9.337,9.337,0,0,0,3.553,7.338A14.4,14.4,0,0,1,8.977,142.3a1.381,1.381,0,0,0,.962,2.177A10.373,10.373,0,0,0,19.96,139.5H36.69a9.354,9.354,0,0,0,9.354-9.354v-6.521a9.354,9.354,0,0,0-9.354-9.354Z" transform="translate(-6.918 -105.412)" fill="#eeb4af"/>
      <path id="Trazado_898307" data-name="Trazado 898307" d="M156.7,114.274h-18.23l.858,8.655a7.523,7.523,0,0,0,1.28,3.5,7.86,7.86,0,1,0,13.954,0,7.524,7.524,0,0,0,1.28-3.5Z" transform="translate(-127.728 -105.412)" fill="#e16e7e"/>
      <path id="Trazado_898308" data-name="Trazado 898308" d="M178.467,9.172A5.1,5.1,0,0,0,174.7,7.5h-3.818a5.087,5.087,0,0,0-5.062,5.589l1.1,11.11a5.072,5.072,0,0,0,1.97,3.544,5.461,5.461,0,1,0,7.8,0,5.071,5.071,0,0,0,1.97-3.544l1.1-11.11a5.1,5.1,0,0,0-1.292-3.917Z" transform="translate(-152.935 -6.918)" fill="#f6ee86"/>
      <path id="Trazado_898309" data-name="Trazado 898309" d="M207.983,43.589h-3.818a2.288,2.288,0,0,0-2.277,2.514l1.1,11.109a2.289,2.289,0,0,0,2.277,2.063h1.615a2.288,2.288,0,0,0,2.277-2.063l1.1-11.109A2.288,2.288,0,0,0,207.983,43.589Z" transform="translate(-186.22 -40.209)" fill="#e7889d"/>
      <path id="Trazado_898310" data-name="Trazado 898310" d="M208.816,62.494c-3.855-2.524-6.166-11.476-5.882-14.262a2.287,2.287,0,0,0-1.045,2.154l1.1,11.109a2.288,2.288,0,0,0,2.277,2.063h1.615A2.288,2.288,0,0,0,208.816,62.494Z" transform="translate(-186.221 -44.492)" fill="#e16e7e"/>
      <circle id="Elipse_12033" data-name="Elipse 12033" cx="2.662" cy="2.662" r="2.662" transform="translate(17.191 21.979)" fill="#e16e7e"/>
      <path id="Trazado_898311" data-name="Trazado 898311" d="M28.943,33.51h-15.9a.582.582,0,0,0-.5.29,9.787,9.787,0,0,1-9.457,4.69.8.8,0,0,1-.546-1.265A14.993,14.993,0,0,0,4.7,32.2a.582.582,0,0,0-.206-.585,8.731,8.731,0,0,1-3.332-6.882V18.216a8.7,8.7,0,0,1,2.7-6.327.582.582,0,0,0-.806-.839A9.852,9.852,0,0,0,0,18.216v6.521a9.883,9.883,0,0,0,3.483,7.555,13.7,13.7,0,0,1-1.9,4.264,1.963,1.963,0,0,0,1.377,3.089,10.97,10.97,0,0,0,10.411-4.973H28.943a.582.582,0,0,0,0-1.163ZM21.762,2.8H17.945a2.872,2.872,0,0,0-2.856,3.153l1.1,11.109a2.861,2.861,0,0,0,2.856,2.587h1.615a2.861,2.861,0,0,0,2.856-2.587l1.1-11.109A2.871,2.871,0,0,0,21.762,2.8Zm1.7,3.039-1.1,11.109a1.7,1.7,0,0,1-1.7,1.538H19.046a1.7,1.7,0,0,1-1.7-1.538l-1.1-11.109a1.706,1.706,0,0,1,1.7-1.875h3.818a1.705,1.705,0,0,1,1.7,1.875ZM19.854,21.4A3.244,3.244,0,1,0,23.1,24.642,3.247,3.247,0,0,0,19.854,21.4Zm0,5.324a2.08,2.08,0,1,1,2.081-2.08A2.083,2.083,0,0,1,19.854,26.722ZM29.771,8.281H27.2l.2-2.053A5.672,5.672,0,0,0,21.762,0H17.945A5.672,5.672,0,0,0,12.3,6.228l.2,2.053H9.936A9.832,9.832,0,0,0,5.428,9.36.582.582,0,0,0,5.957,10.4a8.677,8.677,0,0,1,3.979-.952h2.687l.783,7.894a5.7,5.7,0,0,0,1.722,3.543,6.043,6.043,0,1,0,9.452,0A5.7,5.7,0,0,0,26.3,17.338l.783-7.894h2.687a8.782,8.782,0,0,1,8.772,8.772v6.521a8.8,8.8,0,0,1-7,8.594.582.582,0,0,0,.233,1.14,9.966,9.966,0,0,0,7.934-9.734V18.216a9.947,9.947,0,0,0-9.936-9.936ZM26.246,6.113l-1.1,11.11A4.461,4.461,0,0,1,23.4,20.362a.582.582,0,0,0-.063.869,4.879,4.879,0,1,1-6.969,0,.582.582,0,0,0-.063-.869,4.462,4.462,0,0,1-1.744-3.139l-1.1-11.11a4.508,4.508,0,0,1,4.484-4.95h3.818a4.508,4.508,0,0,1,4.483,4.95Z"/>
    </g>
  </g>
</svg>
