<svg xmlns="http://www.w3.org/2000/svg" width="72" height="72" viewBox="0 0 72 72">
  <g id="Grupo_1110203" data-name="Grupo 1110203" transform="translate(-543.051 -6781)">
    <g id="Grupo_1110002" data-name="Grupo 1110002" transform="translate(258.051 1380.312)">
      <g id="Grupo_1109991" data-name="Grupo 1109991" transform="translate(70 3517)">
        <g id="Grupo_1109953" data-name="Grupo 1109953" transform="translate(-204 762.688)">
          <path id="Trazado_824488" data-name="Trazado 824488" d="M36,0A36,36,0,1,1,0,36,36,36,0,0,1,36,0Z" transform="translate(419 1121)" fill="#efdb59"/>
        </g>
      </g>
    </g>
    <g id="Page-1" transform="translate(555.051 6799)">
      <g id="_054---Farm-Truck" data-name="054---Farm-Truck" transform="translate(0 0)">
        <path id="Shape" d="M52.283,20.233v8.632a.769.769,0,0,1-.768.768H50.38a.776.776,0,0,1-.744-.587,1.889,1.889,0,0,0-.063-.2,7.833,7.833,0,0,0-14.946,0,1.892,1.892,0,0,0-.063.2.776.776,0,0,1-.744.587H28V4.567A1.571,1.571,0,0,1,29.567,3H36.3a1.554,1.554,0,0,1,1.473,1.042l.744,2.091H32.7a.783.783,0,0,0-.783.783v6.267a.783.783,0,0,0,.783.783H47.583A4.685,4.685,0,0,1,52.009,17.1H47.583a.783.783,0,0,0-.783.783v.783a1.571,1.571,0,0,0,1.567,1.567Z" transform="translate(-6.067 -0.65)" fill="#f44335"/>
        <path id="Shape-2" data-name="Shape" d="M54.426,20.133h2.35A4.685,4.685,0,0,0,52.35,17H50A4.685,4.685,0,0,1,54.426,20.133Z" transform="translate(-10.833 -3.683)" fill="#c81e1e"/>
        <path id="Shape-3" data-name="Shape" d="M37.063,4.042l.744,2.091h2.35l-.744-2.091A1.554,1.554,0,0,0,37.94,3H35.59A1.554,1.554,0,0,1,37.063,4.042Z" transform="translate(-7.711 -0.65)" fill="#c81e1e"/>
        <path id="Shape-4" data-name="Shape" d="M55.955,25v8.632a.755.755,0,0,1-.162.45.754.754,0,0,0,.609.318h1.136a.769.769,0,0,0,.768-.768V25Z" transform="translate(-12.088 -5.417)" fill="#c81e1e"/>
        <path id="Shape-5" data-name="Shape" d="M42.4,14.833H33.783A.783.783,0,0,1,33,14.05V7.783A.783.783,0,0,1,33.783,7H39.6Z" transform="translate(-7.15 -1.517)" fill="#02a9f4"/>
        <path id="Shape-6" data-name="Shape" d="M49.4,37.7a4.7,4.7,0,1,1-9.4,0,4.588,4.588,0,0,1,.634-2.35,4.691,4.691,0,0,1,8.131,0A4.588,4.588,0,0,1,49.4,37.7Z" transform="translate(-8.667 -7.15)" fill="#37474f"/>
        <ellipse id="Oval" cx="2" cy="1.5" rx="2" ry="1.5" transform="translate(34 29.033)" fill="#cfd8dc"/>
        <path id="Shape-7" data-name="Shape" d="M17.4,37.7a4.7,4.7,0,1,1-9.4,0,4.588,4.588,0,0,1,.635-2.35,4.691,4.691,0,0,1,8.131,0A4.588,4.588,0,0,1,17.4,37.7Z" transform="translate(-1.733 -7.15)" fill="#37474f"/>
        <ellipse id="Oval-2" data-name="Oval" cx="2" cy="1.5" rx="2" ry="1.5" transform="translate(9 29.033)" fill="#cfd8dc"/>
        <path id="Shape-8" data-name="Shape" d="M22.15,21V33.533H19.463a.776.776,0,0,1-.744-.588,1.89,1.89,0,0,0-.063-.2,7.833,7.833,0,0,0-14.946,0,1.89,1.89,0,0,0-.063.2.776.776,0,0,1-.744.588H1.768A.769.769,0,0,1,1,32.766V21.783A.783.783,0,0,1,1.783,21Z" transform="translate(-0.217 -4.55)" fill="#ff5722"/>
        <path id="Rectangle-path" d="M25,21h2.35V33.533H25Z" transform="translate(-5.417 -4.55)" fill="#d84315"/>
        <path id="Shape-9" data-name="Shape" d="M19.406,34.483H16a4.691,4.691,0,0,0-8.131,0H4.46a7.833,7.833,0,0,1,14.946,0Z" transform="translate(-0.966 -6.283)" fill="#d84315"/>
        <path id="Shape-10" data-name="Shape" d="M51.406,34.483H48a4.691,4.691,0,0,0-8.131,0H36.46a7.833,7.833,0,0,1,14.946,0Z" transform="translate(-7.9 -6.283)" fill="#c81e1e"/>
        <path id="Shape-11" data-name="Shape" d="M22.15,13v3.133H1.783A.783.783,0,0,1,1,15.35V13.783A.783.783,0,0,1,1.783,13Z" transform="translate(-0.217 -2.817)" fill="sienna"/>
        <path id="Rectangle-path-2" data-name="Rectangle-path" d="M25,13h2.35v3.133H25Z" transform="translate(-5.417 -2.817)" fill="#783e22"/>
        <path id="Shape-12" data-name="Shape" d="M22.15,5V8.133H1.783A.783.783,0,0,1,1,7.35V5.783A.783.783,0,0,1,1.783,5Z" transform="translate(-0.217 -1.083)" fill="sienna"/>
        <g id="Grupo_1110188" data-name="Grupo 1110188" transform="translate(3.133 0.783)">
          <path id="Rectangle-path-3" data-name="Rectangle-path" d="M25,5h2.35V8.133H25Z" transform="translate(-8.55 -1.867)" fill="#783e22"/>
          <path id="Rectangle-path-4" data-name="Rectangle-path" d="M4,17H7.133v3.133H4Z" transform="translate(-4 -4.467)" fill="#783e22"/>
          <path id="Rectangle-path-5" data-name="Rectangle-path" d="M19,17h3.133v3.133H19Z" transform="translate(-7.25 -4.467)" fill="#783e22"/>
          <path id="Rectangle-path-6" data-name="Rectangle-path" d="M4,9H7.133v3.133H4Z" transform="translate(-4 -2.733)" fill="#783e22"/>
          <path id="Rectangle-path-7" data-name="Rectangle-path" d="M19,9h3.133v3.133H19Z" transform="translate(-7.25 -2.733)" fill="#783e22"/>
          <path id="Shape-13" data-name="Shape" d="M7.133,1.783v2.35H4V1.783A.783.783,0,0,1,4.783,1H6.35A.783.783,0,0,1,7.133,1.783Z" transform="translate(-4 -1)" fill="#783e22"/>
          <path id="Shape-14" data-name="Shape" d="M22.133,1.783v2.35H19V1.783A.783.783,0,0,1,19.783,1H21.35A.783.783,0,0,1,22.133,1.783Z" transform="translate(-7.25 -1)" fill="#783e22"/>
        </g>
        <path id="Shape-15" data-name="Shape" d="M57.483,22.567v1.567H53.567A1.571,1.571,0,0,1,52,22.567v-.783A.783.783,0,0,1,52.783,21h4.426A4.543,4.543,0,0,1,57.483,22.567Z" transform="translate(-11.267 -4.55)" fill="#ffdc00"/>
        <path id="Shape-16" data-name="Shape" d="M45.35,36a2.35,2.35,0,1,0,2.35,2.35A2.35,2.35,0,0,0,45.35,36Zm0,3.133a.783.783,0,1,1,.783-.783A.783.783,0,0,1,45.35,39.133Z" transform="translate(-9.317 -7.8)"/>
        <path id="Shape-17" data-name="Shape" d="M13.35,36a2.35,2.35,0,1,0,2.35,2.35A2.35,2.35,0,0,0,13.35,36Zm0,3.133a.783.783,0,1,1,.783-.783A.783.783,0,0,1,13.35,39.133Z" transform="translate(-2.383 -7.8)"/>
        <path id="Shape-18" data-name="Shape" d="M38.133,20h-2.35a.783.783,0,0,0,0,1.567h2.35a.783.783,0,0,0,0-1.567Z" transform="translate(-7.583 -4.333)"/>
        <path id="Shape-19" data-name="Shape" d="M18.883,24H5.567A1.567,1.567,0,0,0,4,25.567v1.567a.783.783,0,0,0,1.567,0V25.567H18.883v1.567a.783.783,0,0,0,1.567,0V25.567A1.567,1.567,0,0,0,18.883,24Z" transform="translate(-0.867 -5.2)"/>
        <path id="Shape-20" data-name="Shape" d="M36.783,12.962a.783.783,0,0,1-.352-1.484l4.363-2.186a.784.784,0,0,1,.705,1.4l-4.366,2.19A.791.791,0,0,1,36.783,12.962Z" transform="translate(-7.799 -1.995)" fill="#f5f5f5"/>
        <path id="Shape-21" data-name="Shape" d="M46.664,16.144a5.489,5.489,0,0,0-5.147-3.61H35.8L32.443,3.126a2.355,2.355,0,0,0-2.214-1.56H23.5a2.35,2.35,0,0,0-2.206,1.567H18.8V1.567A1.567,1.567,0,0,0,17.233,0H15.667A1.567,1.567,0,0,0,14.1,1.567V3.133H7.05V1.567A1.567,1.567,0,0,0,5.483,0H3.917A1.567,1.567,0,0,0,2.35,1.567V3.133H1.567A1.567,1.567,0,0,0,0,4.7V6.267A1.567,1.567,0,0,0,1.567,7.833H2.35V9.4H1.567A1.567,1.567,0,0,0,0,10.967v1.567A1.567,1.567,0,0,0,1.567,14.1H2.35v1.567H1.567A1.567,1.567,0,0,0,0,17.233V28.216a1.553,1.553,0,0,0,1.551,1.551H2.687a1.531,1.531,0,0,0,1.327-.783h1.7a5.455,5.455,0,0,0,1.423,5.483H.783a.783.783,0,1,0,0,1.567H18.8a.783.783,0,0,0,0-1.567h-4a5.455,5.455,0,0,0,1.423-5.483h1.7a1.531,1.531,0,0,0,1.327.783h8.508a1.532,1.532,0,0,0,1.327-.783h1.7a5.455,5.455,0,0,0,1.423,5.483H21.933a.783.783,0,0,0,0,1.567H46.217a.783.783,0,1,0,0-1.567H39.863a5.455,5.455,0,0,0,1.423-5.483h1.7a1.532,1.532,0,0,0,1.327.783h1.137A1.553,1.553,0,0,0,47,28.216v-10.2a5.445,5.445,0,0,0-.335-1.87Zm-1.231,1.873V18.8H42.3a.783.783,0,0,1-.783-.783v-.783h3.838A3.917,3.917,0,0,1,45.433,18.017ZM32.909,9.093l1.229,3.44H26.633V6.267H31.9l.479,1.339ZM7.05,15.667V14.1H14.1v1.567ZM15.667,14.1h1.567v1.567H15.667Zm3.133,0h2.35v1.567H18.8ZM7.05,9.4V7.833H14.1V9.4Zm8.617-1.567h1.567V9.4H15.667Zm3.133,0h2.35V9.4H18.8ZM15.667,1.567h1.567V3.133H15.667Zm-11.75,0H5.483V3.133H3.917ZM1.567,4.7H21.15V6.267H1.567Zm2.35,3.133H5.483V9.4H3.917Zm-2.35,3.133H21.15v1.567H1.567ZM3.917,14.1H5.483v1.567H3.917Zm7.05,20.367a3.917,3.917,0,1,1,3.917-3.917A3.917,3.917,0,0,1,10.967,34.467Zm0-9.4a5.476,5.476,0,0,0-4.493,2.35H4.655a7.045,7.045,0,0,1,12.624,0H15.46a5.476,5.476,0,0,0-4.493-2.35Zm8.2,2.851a.085.085,0,0,0-.01-.032A8.617,8.617,0,0,0,2.669,28.2l-1.1.016V17.233H21.15V28.195l-1.9-.012C19.228,28.093,19.192,28.007,19.166,27.918Zm16.868,6.549A3.917,3.917,0,1,1,39.95,30.55,3.917,3.917,0,0,1,36.033,34.467Zm0-9.4a5.476,5.476,0,0,0-4.493,2.35H29.724a7.041,7.041,0,0,1,12.62,0H40.527A5.476,5.476,0,0,0,36.033,25.067Zm8.286,3.116c-.025-.088-.057-.172-.085-.257a.382.382,0,0,0-.014-.042,8.652,8.652,0,0,0-8.187-5.95,8.51,8.51,0,0,0-1.567.15V16.45a.783.783,0,0,0-1.567,0v6.087a8.636,8.636,0,0,0-5.031,5.312.759.759,0,0,0-.056.173c-.019.06-.042.118-.059.179h-1.9V16.45a.783.783,0,1,0-1.567,0V28.2H22.717V3.917a.783.783,0,0,1,.783-.783h6.729a.783.783,0,0,1,.738.519L31.341,4.7H26.633a1.567,1.567,0,0,0-1.567,1.567v6.267A1.567,1.567,0,0,0,26.633,14.1H41.517a3.9,3.9,0,0,1,3.113,1.567H41.517a1.567,1.567,0,0,0-1.567,1.567v.783a2.35,2.35,0,0,0,2.35,2.35h3.133V28.2Z" transform="translate(0 0)"/>
      </g>
    </g>
  </g>
</svg>
