<svg xmlns="http://www.w3.org/2000/svg" width="72" height="72" viewBox="0 0 72 72">
  <g id="Grupo_1110202" data-name="Grupo 1110202" transform="translate(-974.051 -6780.688)">
    <g id="Grupo_1110003" data-name="Grupo 1110003" transform="translate(689.051 1380)">
      <g id="Grupo_1109991" data-name="Grupo 1109991" transform="translate(70 3517)">
        <g id="Grupo_1109953" data-name="Grupo 1109953" transform="translate(-204 762.688)">
          <path id="Trazado_824488" data-name="Trazado 824488" d="M36,0A36,36,0,1,1,0,36,36,36,0,0,1,36,0Z" transform="translate(419 1121)" fill="#84a065"/>
        </g>
      </g>
    </g>
    <g id="desinfeccion" transform="translate(924.42 6790.162)">
      <g id="Grupo_1110194" data-name="Grupo 1110194" transform="translate(69.379 0.748)">
        <g id="Grupo_1110189" data-name="Grupo 1110189" transform="translate(19.954 17.913)">
          <path id="Trazado_898502" data-name="Trazado 898502" d="M279.124,187.54v2.494l-1.5.628-1.5-.628V187.54a.5.5,0,0,1,.5-.5h2A.5.5,0,0,1,279.124,187.54Z" transform="translate(-276.131 -187.041)" fill="#6289cc"/>
          <path id="Trazado_898503" data-name="Trazado 898503" d="M279.124,217.041v2.76l-.495,1.932.495,3.334-2.993-3.869.357-1.756-.357-1.773v-.628Z" transform="translate(-276.131 -214.048)" fill="#d3dcfb"/>
          <path id="Trazado_898504" data-name="Trazado 898504" d="M279.124,225.463v5.266l-2.993-3.869v-3.529A7.964,7.964,0,0,1,279.124,225.463Z" transform="translate(-276.131 -219.71)" fill="#bec8f7"/>
        </g>
        <g id="Grupo_1110190" data-name="Grupo 1110190" transform="translate(0 17.913)">
          <path id="Trazado_898505" data-name="Trazado 898505" d="M76.132,187.54v2.494l1.221.628,1.772-.628V187.54a.5.5,0,0,0-.5-.5h-2A.5.5,0,0,0,76.132,187.54Z" transform="translate(-76.132 -187.041)" fill="#6289cc"/>
          <path id="Trazado_898506" data-name="Trazado 898506" d="M76.132,217.041v2.76l.495,1.932-.495,3.334,2.993-3.869-.357-1.756.357-1.773v-.628Z" transform="translate(-76.132 -214.048)" fill="#d3dcfb"/>
          <path id="Trazado_898507" data-name="Trazado 898507" d="M76.132,225.463v5.266l2.993-3.869v-3.529A7.963,7.963,0,0,0,76.132,225.463Z" transform="translate(-76.132 -219.71)" fill="#bec8f7"/>
        </g>
        <g id="Grupo_1110191" data-name="Grupo 1110191" transform="translate(21.249 29.903)">
          <path id="Trazado_898508" data-name="Trazado 898508" d="M299.157,326.875a4.574,4.574,0,0,1-4.569-4.569v-2.122h2.5v2.122a2.073,2.073,0,1,0,4.145,0v-2.3a6.736,6.736,0,0,0-3.52-5.921l-8.6-4.676,1.193-2.193,8.6,4.676a9.23,9.23,0,0,1,4.824,8.114v2.3A4.574,4.574,0,0,1,299.157,326.875Z" transform="translate(-289.112 -307.22)" fill="#bec8f7"/>
        </g>
        <rect id="Rectángulo_402693" data-name="Rectángulo 402693" width="2.494" height="25.393" transform="translate(29.22 33.148) rotate(180)" fill="#e9effe"/>
        <g id="Grupo_1110192" data-name="Grupo 1110192" transform="translate(26.753)">
          <path id="Trazado_898509" data-name="Trazado 898509" d="M344.779,11.553h1.511a.5.5,0,0,0,.491-.414,2.563,2.563,0,0,1,.777-1.456,1.26,1.26,0,0,0,.311-1.425l0-.008a1.239,1.239,0,0,0-1.961-.435,5.057,5.057,0,0,0-1.622,3.193A.5.5,0,0,0,344.779,11.553Z" transform="translate(-344.279 -7.5)" fill="#6289cc"/>
        </g>
        <path id="Trazado_898510" data-name="Trazado 898510" d="M338.509,344.74h0a2,2,0,0,0,2-2V332.419a.7.7,0,0,0-.7-.7h-2.594a.7.7,0,0,0-.7.7v10.325A2,2,0,0,0,338.509,344.74Z" transform="translate(-310.536 -299.374)" fill="#6289cc"/>
        <path id="Trazado_898511" data-name="Trazado 898511" d="M94.537,204.289l-1.919-.548a1,1,0,0,1-.724-.959V201.04l-4.29-.907-4.49.707v1.742a1,1,0,0,1-.724.959l-1.919.548a5.986,5.986,0,0,0-4.342,5.756v16.032a5.986,5.986,0,0,0,1.312,3.74h0a2.277,2.277,0,0,0,1.778.855h2.137a2.277,2.277,0,0,0,1.366-.455h0a5.206,5.206,0,0,1,3.123-1.041h3.513a5.206,5.206,0,0,1,3.123,1.041h0a2.277,2.277,0,0,0,1.366.455h1.559l.6-.147c.692,0,1.108-.5,1.54-1.042h0a5.6,5.6,0,0,0,1.028-3.686l.042-15.752A5.528,5.528,0,0,0,94.537,204.289Z" transform="translate(-76.131 -180.914)" fill="#e9effe"/>
        <path id="Trazado_898512" data-name="Trazado 898512" d="M225.056,211.563v16.032a5.98,5.98,0,0,1-1.312,3.74,2.278,2.278,0,0,1-1.778.854h-.579a2.256,2.256,0,0,0,.355-.355,5.98,5.98,0,0,0,1.312-3.74V212.588a4.7,4.7,0,0,0-3.408-4.519l-2.852-.815a1,1,0,0,1-.723-.959v-3.737l1.072-.517.929.517V204.3a1,1,0,0,0,.723.959l1.919.549A5.986,5.986,0,0,1,225.056,211.563Z" transform="translate(-202.109 -182.632)" fill="#d3dcfb"/>
        <g id="Grupo_1110193" data-name="Grupo 1110193" transform="translate(4.689 28.955)">
          <circle id="Elipse_12289" data-name="Elipse 12289" cx="6.784" cy="6.784" r="6.784" fill="#70f2a3"/>
        </g>
        <rect id="Rectángulo_402694" data-name="Rectángulo 402694" width="4.988" height="4.509" transform="translate(8.979 11.935)" fill="#d3dcfb"/>
        <path id="Trazado_898513" data-name="Trazado 898513" d="M145.8,166.5l-1.69.208H137.13a1,1,0,0,1-1-1v-2.494a1,1,0,0,1,1-1h6.978l1.767.249a1,1,0,0,1,1,1l-.077,2.036A1,1,0,0,1,145.8,166.5Z" transform="translate(-130.146 -146.785)" fill="#fe7186"/>
        <path id="Trazado_898514" data-name="Trazado 898514" d="M219.07,163.219v2.494a1,1,0,0,1-1,1h-2v-4.49h2A1,1,0,0,1,219.07,163.219Z" transform="translate(-202.109 -146.785)" fill="#fc5e6a"/>
        <path id="Trazado_898515" data-name="Trazado 898515" d="M148.7,106.7l-1.9.256h-3.181a2.494,2.494,0,0,1-2.494-2.494v-.5l4.988-.362,4.537.362v.5C150.657,105.836,150.081,106.7,148.7,106.7Z" transform="translate(-134.646 -94.01)" fill="#e9effe"/>
        <path id="Trazado_898516" data-name="Trazado 898516" d="M198.82,103.959v.5a2.494,2.494,0,0,1-2.494,2.494h-2.195a2.494,2.494,0,0,0,2.494-2.494v-.5l1.194-.362Z" transform="translate(-182.358 -94.009)" fill="#d3dcfb"/>
        <path id="Trazado_898517" data-name="Trazado 898517" d="M137.736,80.04l-2.326.174H127.13a1,1,0,0,1-1-1v-1a1,1,0,0,1,1-1h8.281l2.46.188a1,1,0,0,1,1,1l-.134.636A1,1,0,0,1,137.736,80.04Z" transform="translate(-121.143 -70.265)" fill="#fe7186"/>
        <path id="Trazado_898518" data-name="Trazado 898518" d="M222.822,78.219v1a1,1,0,0,1-1,1h-2.694V77.221h2.694A1,1,0,0,1,222.822,78.219Z" transform="translate(-204.864 -70.265)" fill="#fc5e6a"/>
      </g>
      <g id="Grupo_1110201" data-name="Grupo 1110201" transform="translate(68.631 0)">
        <g id="Grupo_1110198" data-name="Grupo 1110198" transform="translate(22.994 0)">
          <g id="Grupo_1110195" data-name="Grupo 1110195" transform="translate(0 30.203)">
            <path id="Línea_567" data-name="Línea 567" d="M-3.819-4.409A.745.745,0,0,1-4.176-4.5L-7.111-6.1a.748.748,0,0,1-.3-1.015A.748.748,0,0,1-6.4-7.41l2.935,1.6a.748.748,0,0,1,.3,1.015A.748.748,0,0,1-3.819-4.409Z" transform="translate(7.503 10.344)"/>
            <path id="Trazado_898519" data-name="Trazado 898519" d="M373.292,375.292a.748.748,0,0,1-.729-.584,6.006,6.006,0,0,0-2.845-3.869.748.748,0,0,1,.749-1.3,7.506,7.506,0,0,1,3.555,4.836.749.749,0,0,1-.731.913Z" transform="translate(-362.337 -362.787)"/>
            <path id="Trazado_898520" data-name="Trazado 898520" d="M364.341,451.974a2.824,2.824,0,0,1-2.821-2.821.762.762,0,0,1,.748-.764.735.735,0,0,1,.748.732v.032a1.324,1.324,0,1,0,2.649,0v-.279a.748.748,0,0,1,1.5,0v.279A2.824,2.824,0,0,1,364.341,451.974Z" transform="translate(-355.293 -433.62)"/>
            <path id="Trazado_898521" data-name="Trazado 898521" d="M341.814,357.971a5.323,5.323,0,0,1-5.317-5.317.763.763,0,0,1,.748-.766.734.734,0,0,1,.748.731,3.821,3.821,0,1,0,7.642.035v-2.3A8.483,8.483,0,0,0,341.2,342.9l-1.037-.564a.748.748,0,0,1,.715-1.315l1.037.564a9.978,9.978,0,0,1,5.214,8.772v2.3A5.323,5.323,0,0,1,341.814,357.971Z" transform="translate(-332.767 -337.121)"/>
            <path id="Línea_568" data-name="Línea 568" d="M-3.049-3.99a.745.745,0,0,1-.357-.091L-7.111-6.1a.748.748,0,0,1-.3-1.015A.748.748,0,0,1-6.4-7.41l3.7,2.015a.748.748,0,0,1,.3,1.015A.748.748,0,0,1-3.049-3.99Z" transform="translate(7.501 7.501)"/>
          </g>
          <g id="Grupo_1110197" data-name="Grupo 1110197" transform="translate(2.734)">
            <path id="Línea_569" data-name="Línea 569" d="M-6.752.551A.748.748,0,0,1-7.5-.2V-6.752A.748.748,0,0,1-6.752-7.5.748.748,0,0,1-6-6.752V-.2A.748.748,0,0,1-6.752.551Z" transform="translate(8.498 33.268)"/>
            <path id="Línea_570" data-name="Línea 570" d="M-6.752,8.494A.748.748,0,0,1-7.5,7.745v-14.5A.748.748,0,0,1-6.752-7.5.748.748,0,0,1-6-6.752v14.5A.748.748,0,0,1-6.752,8.494Z" transform="translate(8.498 15.279)"/>
            <path id="Línea_571" data-name="Línea 571" d="M-6.752,18.54a.748.748,0,0,1-.748-.748V-6.752A.748.748,0,0,1-6.752-7.5.748.748,0,0,1-6-6.752V17.791A.748.748,0,0,1-6.752,18.54Z" transform="translate(10.992 15.279)"/>
            <path id="Línea_572" data-name="Línea 572" d="M-6.752-2.314A.748.748,0,0,1-7.5-3.062v-3.69A.748.748,0,0,1-6.752-7.5.748.748,0,0,1-6-6.752v3.69A.748.748,0,0,1-6.752-2.314Z" transform="translate(9.745 11.564)"/>
            <g id="Grupo_1110196" data-name="Grupo 1110196" transform="translate(1.024)">
              <path id="Trazado_898522" data-name="Trazado 898522" d="M339.539,5.55h-1.511a1.253,1.253,0,0,1-.931-.415,1.238,1.238,0,0,1-.31-.958A5.8,5.8,0,0,1,338.649.51,1.953,1.953,0,0,1,339.967,0a2,2,0,0,1,1.351,3.478,1.823,1.823,0,0,0-.55,1.031A1.239,1.239,0,0,1,339.539,5.55Zm-1.223-1.5h1.018a3.329,3.329,0,0,1,.962-1.668.505.505,0,0,0-.328-.889.454.454,0,0,0-.31.12A4.3,4.3,0,0,0,338.315,4.053Z" transform="translate(-336.78 0)"/>
            </g>
            <path id="Línea_573" data-name="Línea 573" d="M-2.262-6h-4.49A.748.748,0,0,1-7.5-6.752.748.748,0,0,1-6.752-7.5h4.49a.748.748,0,0,1,.748.748A.748.748,0,0,1-2.262-6Z" transform="translate(7.5 15.254)"/>
            <path id="Línea_574" data-name="Línea 574" d="M-4.357-6H-6.752A.748.748,0,0,1-7.5-6.752.748.748,0,0,1-6.752-7.5h2.394a.748.748,0,0,1,.748.748A.748.748,0,0,1-4.357-6Z" transform="translate(8.548 18.247)"/>
            <path id="Línea_575" data-name="Línea 575" d="M-4.357-6H-6.752A.748.748,0,0,1-7.5-6.752.748.748,0,0,1-6.752-7.5h2.394a.748.748,0,0,1,.748.748A.748.748,0,0,1-4.357-6Z" transform="translate(8.548 21.24)"/>
            <path id="Línea_576" data-name="Línea 576" d="M-4.357-6H-6.752A.748.748,0,0,1-7.5-6.752.748.748,0,0,1-6.752-7.5h2.394a.748.748,0,0,1,.748.748A.748.748,0,0,1-4.357-6Z" transform="translate(8.548 24.233)"/>
            <path id="Trazado_898523" data-name="Trazado 898523" d="M331.758,338.736a2.747,2.747,0,0,1-2.744-2.744V325.668a1.448,1.448,0,0,1,1.447-1.447h2.594a1.448,1.448,0,0,1,1.447,1.447v10.325A2.747,2.747,0,0,1,331.758,338.736ZM333,325.668l-2.544.05.05,10.275a1.247,1.247,0,0,0,2.494,0Z" transform="translate(-328.765 -291.874)"/>
          </g>
          <path id="Línea_577" data-name="Línea 577" d="M-2.861-6H-6.752A.748.748,0,0,1-7.5-6.752.748.748,0,0,1-6.752-7.5h3.891a.748.748,0,0,1,.748.748A.748.748,0,0,1-2.861-6Z" transform="translate(10.534 42.84)"/>
          <path id="Línea_578" data-name="Línea 578" d="M-2.861-6H-6.752A.748.748,0,0,1-7.5-6.752.748.748,0,0,1-6.752-7.5h3.891a.748.748,0,0,1,.748.748A.748.748,0,0,1-2.861-6Z" transform="translate(10.534 45.833)"/>
        </g>
        <g id="Grupo_1110200" data-name="Grupo 1110200" transform="translate(0 6.956)">
          <path id="Línea_579" data-name="Línea 579" d="M-6.752-3.577A.748.748,0,0,1-7.5-4.325V-6.752A.748.748,0,0,1-6.752-7.5.748.748,0,0,1-6-6.752v2.426A.748.748,0,0,1-6.752-3.577Z" transform="translate(16.479 13.522)"/>
          <path id="Línea_580" data-name="Línea 580" d="M-6.752-3.577A.748.748,0,0,1-7.5-4.325V-6.752A.748.748,0,0,1-6.752-7.5.748.748,0,0,1-6-6.752v2.426A.748.748,0,0,1-6.752-3.577Z" transform="translate(21.468 13.522)"/>
          <path id="Trazado_898524" data-name="Trazado 898524" d="M139.356,160.707h-8.979a1.748,1.748,0,0,1-1.746-1.746v-2.494a1.748,1.748,0,0,1,1.746-1.746h8.979a1.748,1.748,0,0,1,1.746,1.746v2.494A1.748,1.748,0,0,1,139.356,160.707Zm-8.979-4.49a.25.25,0,0,0-.249.249v2.494a.25.25,0,0,0,.249.249h8.979a.25.25,0,0,0,.249-.249v-2.494a.25.25,0,0,0-.249-.249Z" transform="translate(-122.645 -146.241)"/>
          <path id="Trazado_898525" data-name="Trazado 898525" d="M131.351,74.211H120.377a1.748,1.748,0,0,1-1.746-1.746v-1a1.748,1.748,0,0,1,1.746-1.746h3.978a.748.748,0,0,1,0,1.5h-3.978a.25.25,0,0,0-.249.249v1a.25.25,0,0,0,.249.249h10.975a.25.25,0,0,0,.249-.249v-1a.25.25,0,0,0-.249-.249h-3.5a.748.748,0,0,1,0-1.5h3.5a1.748,1.748,0,0,1,1.746,1.746v1A1.748,1.748,0,0,1,131.351,74.211Z" transform="translate(-113.643 -69.721)"/>
          <path id="Trazado_898526" data-name="Trazado 898526" d="M141.862,104.882h-4.988a3.246,3.246,0,0,1-3.242-3.242v-.412a.748.748,0,1,1,1.5,0v.412a1.748,1.748,0,0,0,1.746,1.746h4.988a1.748,1.748,0,0,0,1.746-1.746v-.424a.748.748,0,0,1,1.5,0v.424A3.246,3.246,0,0,1,141.862,104.882Z" transform="translate(-127.146 -97.4)"/>
          <path id="Trazado_898527" data-name="Trazado 898527" d="M89.236,231.292H87.1a3.044,3.044,0,0,1-1.815-.605,4.485,4.485,0,0,0-2.674-.891H79.1a4.485,4.485,0,0,0-2.674.892,3.044,3.044,0,0,1-1.815.6H72.469a3.01,3.01,0,0,1-2.362-1.135,6.759,6.759,0,0,1-1.476-4.207V209.917a6.763,6.763,0,0,1,4.884-6.475l1.919-.548a.25.25,0,0,0,.181-.24V200.97a.748.748,0,1,1,1.5,0v1.684a1.753,1.753,0,0,1-1.266,1.679l-1.918.548a5.26,5.26,0,0,0-3.8,5.036v16.032a5.257,5.257,0,0,0,1.148,3.272,1.521,1.521,0,0,0,1.194.574h2.137a1.538,1.538,0,0,0,.917-.306A5.991,5.991,0,0,1,79.1,228.3h3.513a5.991,5.991,0,0,1,3.572,1.191,1.538,1.538,0,0,0,.917.306h2.137a1.521,1.521,0,0,0,1.194-.574,5.257,5.257,0,0,0,1.148-3.272V209.917a5.26,5.26,0,0,0-3.8-5.036l-1.919-.548a1.753,1.753,0,0,1-1.266-1.679v-1.693a.748.748,0,1,1,1.5,0v1.693a.251.251,0,0,0,.181.24l1.918.548a6.763,6.763,0,0,1,4.884,6.475v16.032a6.759,6.759,0,0,1-1.476,4.207A3.01,3.01,0,0,1,89.236,231.292Z" transform="translate(-68.631 -187.194)"/>
          <path id="Trazado_898528" data-name="Trazado 898528" d="M272.372,184.03h-2.993a.748.748,0,0,1-.748-.748v-2.494a1.249,1.249,0,0,1,1.247-1.247h2a1.249,1.249,0,0,1,1.247,1.247v2.494A.748.748,0,0,1,272.372,184.03Zm-2.245-1.5h1.5v-1.5h-1.5Z" transform="translate(-248.677 -168.584)"/>
          <path id="Trazado_898529" data-name="Trazado 898529" d="M72.372,184.03H69.379a.748.748,0,0,1-.748-.748v-2.494a1.249,1.249,0,0,1,1.247-1.247h2a1.249,1.249,0,0,1,1.247,1.247v2.494A.748.748,0,0,1,72.372,184.03Zm-2.245-1.5h1.5v-1.5h-1.5Z" transform="translate(-68.631 -168.584)"/>
          <path id="Línea_581" data-name="Línea 581" d="M-6.752,2.022A.748.748,0,0,1-7.5,1.274V-6.752A.748.748,0,0,1-6.752-7.5.748.748,0,0,1-6-6.752V1.274A.748.748,0,0,1-6.752,2.022Z" transform="translate(30.447 21.45)"/>
          <path id="Línea_582" data-name="Línea 582" d="M-6.752-3.263A.748.748,0,0,1-7.5-4.011V-6.752A.748.748,0,0,1-6.752-7.5.748.748,0,0,1-6-6.752v2.741A.748.748,0,0,1-6.752-3.263Z" transform="translate(27.454 21.45)"/>
          <path id="Línea_583" data-name="Línea 583" d="M-6.752,2.022A.748.748,0,0,1-7.5,1.274V-6.752A.748.748,0,0,1-6.752-7.5.748.748,0,0,1-6-6.752V1.274A.748.748,0,0,1-6.752,2.022Z" transform="translate(7.5 21.45)"/>
          <path id="Línea_584" data-name="Línea 584" d="M-6.752-3.263A.748.748,0,0,1-7.5-4.011V-6.752A.748.748,0,0,1-6.752-7.5.748.748,0,0,1-6-6.752v2.741A.748.748,0,0,1-6.752-3.263Z" transform="translate(10.493 21.45)"/>
          <path id="Línea_585" data-name="Línea 585" d="M-6.752-3.609A.748.748,0,0,1-7.5-4.357V-6.752A.748.748,0,0,1-6.752-7.5.748.748,0,0,1-6-6.752v2.394A.748.748,0,0,1-6.752-3.609Z" transform="translate(8.997 16.021)"/>
          <path id="Línea_586" data-name="Línea 586" d="M-6.752-3.609A.748.748,0,0,1-7.5-4.357V-6.752A.748.748,0,0,1-6.752-7.5.748.748,0,0,1-6-6.752v2.394A.748.748,0,0,1-6.752-3.609Z" transform="translate(28.95 16.021)"/>
          <path id="Línea_587" data-name="Línea 587" d="M-3.759-6H-6.752A.748.748,0,0,1-7.5-6.752.748.748,0,0,1-6.752-7.5h2.993a.748.748,0,0,1,.748.748A.748.748,0,0,1-3.759-6Z" transform="translate(27.454 15.98)"/>
          <path id="Línea_588" data-name="Línea 588" d="M-3.759-6H-6.752A.748.748,0,0,1-7.5-6.752.748.748,0,0,1-6.752-7.5h2.993a.748.748,0,0,1,.748.748A.748.748,0,0,1-3.759-6Z" transform="translate(7.5 15.98)"/>
          <g id="Grupo_1110199" data-name="Grupo 1110199" transform="translate(4.49 21.799)">
            <path id="Trazado_898530" data-name="Trazado 898530" d="M121.363,303.685a7.741,7.741,0,0,1-7.732-7.732,7.652,7.652,0,0,1,1.667-4.8.748.748,0,0,1,1.173.929,6.17,6.17,0,0,0-1.344,3.867,6.23,6.23,0,1,0,3.847-5.762.748.748,0,0,1-.574-1.382,7.733,7.733,0,1,1,2.963,14.876Z" transform="translate(-113.631 -288.221)"/>
            <path id="Línea_589" data-name="Línea 589" d="M-4.208-6H-6.752A.748.748,0,0,1-7.5-6.752.748.748,0,0,1-6.752-7.5h2.544a.748.748,0,0,1,.748.748A.748.748,0,0,1-4.208-6Z" transform="translate(16.23 14.484)"/>
            <path id="Línea_590" data-name="Línea 590" d="M-6.752-4.507A.748.748,0,0,1-7.5-5.255v-1.5A.748.748,0,0,1-6.752-7.5.748.748,0,0,1-6-6.752v1.5A.748.748,0,0,1-6.752-4.507Z" transform="translate(18.774 13.736)"/>
            <path id="Línea_591" data-name="Línea 591" d="M-5.458-5.256a.745.745,0,0,1-.373-.1l-1.3-.748A.748.748,0,0,1-7.4-7.127.748.748,0,0,1-6.379-7.4l1.3.748A.748.748,0,0,1-4.809-5.63.748.748,0,0,1-5.458-5.256Z" transform="translate(11.692 17.826)"/>
            <path id="Línea_592" data-name="Línea 592" d="M-5.458-5.256a.745.745,0,0,1-.373-.1l-1.3-.748A.748.748,0,0,1-7.4-7.127.748.748,0,0,1-6.379-7.4l1.3.748A.748.748,0,0,1-4.809-5.63.748.748,0,0,1-5.458-5.256Z" transform="translate(15.982 10.396)"/>
            <path id="Línea_593" data-name="Línea 593" d="M-5.48-3.8a.748.748,0,0,1-.649-.374L-7.4-6.379A.748.748,0,0,1-7.127-7.4.748.748,0,0,1-6.1-7.127l1.272,2.2A.748.748,0,0,1-5.107-3.9.745.745,0,0,1-5.48-3.8Z" transform="translate(15.358 15.997)"/>
            <path id="Línea_594" data-name="Línea 594" d="M-6.752-5.256A.748.748,0,0,1-7.4-5.63a.748.748,0,0,1,.274-1.022l1.3-.748a.748.748,0,0,1,1.022.274A.748.748,0,0,1-5.083-6.1l-1.3.748A.745.745,0,0,1-6.752-5.256Z" transform="translate(15.982 17.826)"/>
            <path id="Línea_595" data-name="Línea 595" d="M-4.208-6H-6.752A.748.748,0,0,1-7.5-6.752.748.748,0,0,1-6.752-7.5h2.544a.748.748,0,0,1,.748.748A.748.748,0,0,1-4.208-6Z" transform="translate(10.194 14.484)"/>
            <path id="Línea_596" data-name="Línea 596" d="M-6.752-4.507A.748.748,0,0,1-7.5-5.255v-1.5A.748.748,0,0,1-6.752-7.5.748.748,0,0,1-6-6.752v1.5A.748.748,0,0,1-6.752-4.507Z" transform="translate(10.194 13.736)"/>
            <path id="Línea_597" data-name="Línea 597" d="M-5.48-3.8a.748.748,0,0,1-.649-.374L-7.4-6.379A.748.748,0,0,1-7.127-7.4.748.748,0,0,1-6.1-7.127l1.272,2.2A.748.748,0,0,1-5.107-3.9.745.745,0,0,1-5.48-3.8Z" transform="translate(12.34 10.77)"/>
            <path id="Línea_598" data-name="Línea 598" d="M-6.752-5.256A.748.748,0,0,1-7.4-5.63a.748.748,0,0,1,.274-1.022l1.3-.748a.748.748,0,0,1,1.022.274A.748.748,0,0,1-5.083-6.1l-1.3.748A.745.745,0,0,1-6.752-5.256Z" transform="translate(11.692 10.396)"/>
            <path id="Línea_599" data-name="Línea 599" d="M-6.754-.641a.745.745,0,0,1-.373-.1A.748.748,0,0,1-7.4-1.763l3.1-5.364A.748.748,0,0,1-3.282-7.4a.748.748,0,0,1,.274,1.022L-6.1-1.015A.748.748,0,0,1-6.754-.641Z" transform="translate(15.379 7.573)"/>
            <path id="Línea_600" data-name="Línea 600" d="M-6.754-.634a.745.745,0,0,1-.373-.1A.748.748,0,0,1-7.4-1.756l3.1-5.371A.748.748,0,0,1-3.278-7.4.748.748,0,0,1-3-6.379L-6.1-1.008A.748.748,0,0,1-6.754-.634Z" transform="translate(10.494 16.027)"/>
            <path id="Elipse_12290" data-name="Elipse 12290" d="M-5.006-7.5A2.5,2.5,0,0,1-2.512-5.006,2.5,2.5,0,0,1-5.006-2.512,2.5,2.5,0,0,1-7.5-5.006,2.5,2.5,0,0,1-5.006-7.5Zm0,3.492a1,1,0,0,0,1-1,1,1,0,0,0-1-1,1,1,0,0,0-1,1A1,1,0,0,0-5.006-4.008Z" transform="translate(12.738 12.738)"/>
          </g>
        </g>
      </g>
    </g>
  </g>
</svg>
