<svg xmlns="http://www.w3.org/2000/svg" width="72" height="72" viewBox="0 0 72 72">
  <g id="Grupo_1110437" data-name="Grupo 1110437" transform="translate(-843.051 -10971)">
    <g id="Grupo_1110152" data-name="Grupo 1110152" transform="translate(558.051 5570.312)">
      <g id="Grupo_1109991" data-name="Grupo 1109991" transform="translate(70 3517)">
        <g id="Grupo_1109953" data-name="Grupo 1109953" transform="translate(-204 762.688)">
          <path id="Trazado_824488" data-name="Trazado 824488" d="M36,0A36,36,0,1,1,0,36,36,36,0,0,1,36,0Z" transform="translate(419 1121)" fill="#84a065"/>
        </g>
      </g>
    </g>
    <g id="implementar" transform="translate(849.951 10982)">
      <g id="Grupo_1110436" data-name="Grupo 1110436" transform="translate(9.944 5.468)">
        <g id="Grupo_1110432" data-name="Grupo 1110432">
          <path id="Trazado_898947" data-name="Trazado 898947" d="M118.09,300.541h4.326v2.2a1.316,1.316,0,0,1-1.312,1.312h-1.7a1.316,1.316,0,0,1-1.312-1.312v-2.2Z" transform="translate(-112.137 -277.287)" fill="#b1b1b5" fill-rule="evenodd"/>
          <path id="Trazado_898948" data-name="Trazado 898948" d="M104.013,267.394h7.016v2.744a1.315,1.315,0,0,1-1.312,1.312h-4.393a1.315,1.315,0,0,1-1.312-1.312v-2.744Z" transform="translate(-99.405 -247.307)" fill="#d1d1d6" fill-rule="evenodd"/>
          <path id="Trazado_898949" data-name="Trazado 898949" d="M149.029,282.376v1.312a1.3,1.3,0,0,1-.071.424,1.317,1.317,0,0,1-1.241.888h1.528a1.315,1.315,0,0,0,1.312-1.312v-1.313h-1.528Z" transform="translate(-138.932 -260.857)" fill="#b1b1b5" fill-rule="evenodd"/>
          <path id="Trazado_898950" data-name="Trazado 898950" d="M89.827,241.222h9.64v2.622a1.315,1.315,0,0,1-1.312,1.312H91.139a1.316,1.316,0,0,1-1.312-1.312v-2.622Z" transform="translate(-86.575 -223.637)" fill="#eceff1" fill-rule="evenodd"/>
          <path id="Trazado_898951" data-name="Trazado 898951" d="M162.3,254.93v1.312a1.315,1.315,0,0,1-1.312,1.312h1.572a1.316,1.316,0,0,0,1.268-1.311V254.93Z" transform="translate(-150.932 -236.035)" fill="#d1d1d6" fill-rule="evenodd"/>
          <path id="Trazado_898952" data-name="Trazado 898952" d="M63.869,57.212a8.072,8.072,0,0,1,8.072,8.072c0,4.483-2.864,4.215-3.252,10.823h-9.64C58.661,69.5,55.8,69.767,55.8,65.284A8.072,8.072,0,0,1,63.869,57.212Z" transform="translate(-55.797 -57.212)" fill="#ffe177" fill-rule="evenodd"/>
          <path id="Trazado_898953" data-name="Trazado 898953" d="M132.268,57.249a8.073,8.073,0,0,1,7.308,8.036c0,4.164-2.471,4.229-3.134,9.513-.051.4-.091.84-.118,1.31h1.528c.388-6.608,3.252-6.34,3.252-10.823a8.072,8.072,0,0,0-8.072-8.072Q132.645,57.213,132.268,57.249Z" transform="translate(-124.96 -57.213)" fill="#ffd064" fill-rule="evenodd"/>
        </g>
        <g id="Grupo_1110433" data-name="Grupo 1110433" transform="translate(20.034 20.499)">
          <path id="Trazado_898954" data-name="Trazado 898954" d="M278.585,274.947a8.1,8.1,0,0,1,2.125.881l2.66-1.926,2.129,2.129-1.926,2.66a8.1,8.1,0,0,1,.881,2.125l3.242.519v3.011l-3.242.519a8.1,8.1,0,0,1-.881,2.125l1.926,2.66-2.129,2.129-2.66-1.926a8.1,8.1,0,0,1-2.125.881l-.519,3.242h-3.011l-.519-3.242a8.1,8.1,0,0,1-2.125-.881l-2.661,1.926-2.129-2.129,1.926-2.66a8.1,8.1,0,0,1-.881-2.125l-3.242-.519v-3.011l3.242-.519a8.1,8.1,0,0,1,.881-2.125l-1.926-2.661,2.129-2.129,2.66,1.926a8.1,8.1,0,0,1,2.126-.881l.519-3.242h3.011Z" transform="translate(-265.424 -271.705)" fill="#837683" fill-rule="evenodd"/>
          <path id="Trazado_898955" data-name="Trazado 898955" d="M446.019,305.662a8.1,8.1,0,0,1-.881,2.125l1.926,2.66-1.72,1.72.565.409,2.129-2.129-1.926-2.66a8.1,8.1,0,0,0,.881-2.125l3.242-.519v-3.011l-3.242-.519a8.1,8.1,0,0,0-.881-2.125l1.926-2.661L445.91,294.7l-.565.409,1.72,1.72-1.926,2.661a8.1,8.1,0,0,1,.881,2.125l3.242.519v3.011Z" transform="translate(-427.963 -292.501)" fill="#685e68" fill-rule="evenodd"/>
          <circle id="Elipse_12376" data-name="Elipse 12376" cx="4.448" cy="4.448" r="4.448" transform="translate(5.594 14.115) rotate(-73.142)" fill="#eceff1"/>
          <path id="Trazado_898956" data-name="Trazado 898956" d="M336.383,346.137a4.449,4.449,0,0,0,3.961,4.422,4.508,4.508,0,0,1-.487.026,4.448,4.448,0,1,1,.487-8.87,4.444,4.444,0,0,0-3.961,4.422Z" transform="translate(-328.72 -335.001)" fill="#d1d1d6" fill-rule="evenodd"/>
        </g>
        <g id="Grupo_1110434" data-name="Grupo 1110434" transform="translate(1.033 28.588)">
          <path id="Trazado_898957" data-name="Trazado 898957" d="M77.238,362.567v-2.539l6.688,4.907-6.688,5.6v-2.441c-9.335,0-12.4-6.863-9.684-11.743C69.053,362.191,73.952,362.567,77.238,362.567Z" transform="translate(-66.604 -356.349)" fill="#6cf5c2" fill-rule="evenodd"/>
          <path id="Trazado_898958" data-name="Trazado 898958" d="M83.187,381.217,78.1,385.473v-1.495c-7.836,0-11.5-4.56-11.264-9.028-1.2,4.613,2.154,9.965,10.4,9.965v2.441l6.688-5.6Z" transform="translate(-66.603 -373.172)" fill="#00e499" fill-rule="evenodd"/>
        </g>
        <g id="Grupo_1110435" data-name="Grupo 1110435" transform="translate(19.525 3.067)">
          <path id="Trazado_898959" data-name="Trazado 898959" d="M267.269,97.842v2.721L260.1,95.3l7.168-6V91.92c10,0,13.286,7.355,10.38,12.586-1.608-6.261-6.858-6.665-10.38-6.665Z" transform="translate(-260.101 -89.304)" fill="#fe646f" fill-rule="evenodd"/>
          <path id="Trazado_898960" data-name="Trazado 898960" d="M266.409,148.347v2.077l-5.646-4.142-.662.554,7.168,5.259v-2.721c3.149,0,7.68.322,9.753,4.867-2.142-5.385-7.078-5.894-10.613-5.894Z" transform="translate(-260.101 -140.837)" fill="#fd4755" fill-rule="evenodd"/>
        </g>
      </g>
      <path id="Trazado_898961" data-name="Trazado 898961" d="M35.912,10.1v.979a.765.765,0,0,0,.765.765c4.492,0,8.016,1.61,9.668,4.418A6.953,6.953,0,0,1,47.1,21.5a8.3,8.3,0,0,0-4.2-4.209,15,15,0,0,0-6.222-1.052.764.764,0,0,0-.765.765v1.212l-5.165-3.789Zm-7.168,4.387a.764.764,0,0,0,.312.592l7.169,5.259a.764.764,0,0,0,1.216-.616V17.773c3.916.1,7.584,1.055,8.875,6.081a.764.764,0,0,0,.642.568.8.8,0,0,0,.1.006.766.766,0,0,0,.668-.394,8.534,8.534,0,0,0-.063-8.55,9.728,9.728,0,0,0-4.092-3.715,14.859,14.859,0,0,0-6.13-1.442V8.462a.764.764,0,0,0-1.255-.586l-7.169,6a.766.766,0,0,0-.274.611Zm-6.33,32.044v-.8a.765.765,0,0,0-.765-.765c-4.172,0-7.444-1.493-8.976-4.1a6.43,6.43,0,0,1-.733-4.705,7.775,7.775,0,0,0,3.882,3.82,14.044,14.044,0,0,0,5.827.986.765.765,0,0,0,.765-.765v-1.03L27.1,42.608Zm6.376-4.577L22.1,37.045a.765.765,0,0,0-1.217.617v1.764c-3.613-.1-6.989-1-8.179-5.634a.765.765,0,0,0-1.409-.181,8.013,8.013,0,0,0,.059,8.028A9.127,9.127,0,0,0,15.2,45.126a13.88,13.88,0,0,0,5.69,1.349v1.691a.765.765,0,0,0,1.255.586l6.688-5.6a.764.764,0,0,0-.038-1.2ZM27.939,9.136a.764.764,0,0,1,.28-1.044l1.647-.951a.764.764,0,1,1,.765,1.324l-1.647.951a.764.764,0,0,1-1.045-.28ZM23.482,3.915l.951-1.647a.764.764,0,1,1,1.324.765L24.806,4.68a.764.764,0,0,1-1.324-.765ZM8.173,9.136a.765.765,0,0,1-1.045.28L5.482,8.466a.764.764,0,1,1,.765-1.324l1.646.951A.764.764,0,0,1,8.173,9.136Zm2.182-6.1a.765.765,0,0,1,1.324-.765l.95,1.647a.765.765,0,1,1-1.324.765Zm6.937-.367V.765a.765.765,0,1,1,1.529,0v1.9a.765.765,0,1,1-1.529,0Zm2.923,11.972V13.526a1.111,1.111,0,1,1,1.112,1.111ZM18.056,6.159a7.316,7.316,0,0,0-7.307,7.307,6.748,6.748,0,0,0,1.215,3.954,12.98,12.98,0,0,1,1.981,6.105H15.9V16.167H14.786a2.64,2.64,0,1,1,2.64-2.64v1.111h1.259V13.526a2.641,2.641,0,1,1,2.641,2.64H20.214v7.359h1.952a12.98,12.98,0,0,1,1.982-6.105,6.748,6.748,0,0,0,1.215-3.954,7.316,7.316,0,0,0-7.308-7.307Zm.9,25.237h-1.7a.548.548,0,0,1-.547-.547V30.3h2.8v.547A.548.548,0,0,1,18.951,31.4ZM20.3,28.773H15.9a.548.548,0,0,1-.548-.547v-.547h5.487v.547a.548.548,0,0,1-.547.547Zm1.815-3.718V25.6a.547.547,0,0,1-.547.547H14.548A.548.548,0,0,1,14,25.6v-.547Zm-3.426-1.529H17.427V16.167h1.259ZM15.9,14.638H14.786A1.111,1.111,0,1,1,15.9,13.526Zm-3.426,9.678V25.6a2.08,2.08,0,0,0,1.356,1.947v.676a2.079,2.079,0,0,0,1.345,1.943v.681a2.078,2.078,0,0,0,2.076,2.076h1.7a2.078,2.078,0,0,0,2.076-2.076v-.681a2.079,2.079,0,0,0,1.346-1.943v-.711A2.08,2.08,0,0,0,23.64,25.6V24.315a11.684,11.684,0,0,1,1.828-6.122,8.189,8.189,0,0,0,1.425-4.726,8.837,8.837,0,0,0-17.673,0,8.189,8.189,0,0,0,1.425,4.726,11.684,11.684,0,0,1,1.828,6.123Zm28.682,16.4a3.684,3.684,0,1,1,3.683-3.684A3.688,3.688,0,0,1,41.154,40.714Zm0-8.9a5.213,5.213,0,1,0,5.212,5.213A5.219,5.219,0,0,0,41.154,31.817Zm10.372,6.066V36.176l-2.6-.416a.765.765,0,0,1-.619-.565,7.367,7.367,0,0,0-.8-1.925.764.764,0,0,1,.038-.839L49.091,30.3l-1.207-1.207-2.132,1.544a.764.764,0,0,1-.838.038,7.357,7.357,0,0,0-1.925-.8.764.764,0,0,1-.566-.62l-.416-2.6H40.3l-.416,2.6a.765.765,0,0,1-.566.62,7.333,7.333,0,0,0-1.925.8.766.766,0,0,1-.839-.038l-2.132-1.544L33.216,30.3l1.544,2.132a.764.764,0,0,1,.038.839A7.369,7.369,0,0,0,34,35.2a.765.765,0,0,1-.62.565l-2.6.416v1.707l2.6.416a.764.764,0,0,1,.62.565,7.367,7.367,0,0,0,.8,1.925.764.764,0,0,1-.038.839L33.216,43.76l1.207,1.207,2.133-1.544a.764.764,0,0,1,.838-.038,7.332,7.332,0,0,0,1.925.8.766.766,0,0,1,.566.62l.416,2.6h1.707l.416-2.6a.763.763,0,0,1,.566-.62,7.345,7.345,0,0,0,1.925-.8.764.764,0,0,1,.838.038l2.132,1.544,1.207-1.207-1.544-2.132a.764.764,0,0,1-.038-.839,7.376,7.376,0,0,0,.8-1.925.765.765,0,0,1,.62-.565Zm.885-3.114-2.763-.442a8.757,8.757,0,0,0-.577-1.393l1.641-2.267a.764.764,0,0,0-.078-.989L48.505,27.55a.765.765,0,0,0-.989-.079l-2.267,1.641a8.893,8.893,0,0,0-1.393-.578l-.442-2.762a.765.765,0,0,0-.755-.644h-3.01a.765.765,0,0,0-.755.644l-.442,2.762a8.856,8.856,0,0,0-1.393.578l-2.267-1.641a.765.765,0,0,0-.99.079l-2.129,2.129a.765.765,0,0,0-.078.989l1.642,2.267a8.831,8.831,0,0,0-.578,1.393L29.9,34.77a.765.765,0,0,0-.644.755v3.01a.765.765,0,0,0,.644.755l2.762.442a8.85,8.85,0,0,0,.578,1.393L31.6,43.392a.765.765,0,0,0,.078.989L33.8,46.509a.766.766,0,0,0,.99.079l2.267-1.641a8.81,8.81,0,0,0,1.393.578l.442,2.762a.765.765,0,0,0,.755.644h3.01a.765.765,0,0,0,.755-.644l.442-2.763a8.837,8.837,0,0,0,1.393-.578l2.267,1.641a.765.765,0,0,0,.989-.079l2.128-2.129a.765.765,0,0,0,.078-.989l-1.641-2.267a8.893,8.893,0,0,0,.578-1.393l2.762-.442a.766.766,0,0,0,.644-.755v-3.01a.766.766,0,0,0-.644-.755Z" fill-rule="evenodd"/>
    </g>
  </g>
</svg>
