<svg xmlns="http://www.w3.org/2000/svg" width="72" height="72" viewBox="0 0 72 72">
  <g id="Grupo_1110311" data-name="Grupo 1110311" transform="translate(-974.051 -1194)">
    <g id="Grupo_1110003" data-name="Grupo 1110003" transform="translate(689.051 -4206.688)">
      <g id="Grupo_1109991" data-name="Grupo 1109991" transform="translate(70 3517)">
        <g id="Grupo_1109953" data-name="Grupo 1109953" transform="translate(-204 762.688)">
          <path id="Trazado_824488" data-name="Trazado 824488" d="M36,0A36,36,0,1,1,0,36,36,36,0,0,1,36,0Z" transform="translate(419 1121)" fill="#84a065"/>
        </g>
      </g>
    </g>
    <g id="recomendaciones" transform="translate(987.051 1207)">
      <path id="Trazado_898736" data-name="Trazado 898736" d="M31.918,10.5l2.719-1.028a.917.917,0,0,1,.9.142L37.8,11.431a.917.917,0,0,0,.617.2l2.9-.137a.917.917,0,0,1,.81.413l1.6,2.43a.916.916,0,0,0,.525.381l2.8.767a.917.917,0,0,1,.643.643l.767,2.8a.917.917,0,0,0,.381.525l2.43,1.6a.917.917,0,0,1,.413.81l-.137,2.9a.917.917,0,0,0,.2.617l1.817,2.269a.917.917,0,0,1,.142.9l-1.028,2.719a.917.917,0,0,0,0,.648l1.028,2.719a.917.917,0,0,1-.142.9L51.753,37.8a.917.917,0,0,0-.2.617l.137,2.9a.917.917,0,0,1-.413.81l-2.43,1.6a.916.916,0,0,0-.381.525l-.767,2.8a.917.917,0,0,1-.643.643l-2.8.767a.917.917,0,0,0-.525.381l-1.6,2.43a.917.917,0,0,1-.81.413l-2.9-.137a.917.917,0,0,0-.617.2l-2.269,1.817a.917.917,0,0,1-.9.142l-2.719-1.028a.917.917,0,0,0-.648,0L28.55,53.71a.917.917,0,0,1-.9-.142l-2.269-1.817a.917.917,0,0,0-.617-.2l-2.9.137a.917.917,0,0,1-.81-.413l-1.6-2.43a.916.916,0,0,0-.525-.381l-2.8-.767a.917.917,0,0,1-.643-.643l-.767-2.8a.917.917,0,0,0-.381-.525l-2.429-1.6a.917.917,0,0,1-.413-.81l.137-2.9a.917.917,0,0,0-.2-.617L9.616,35.532a.917.917,0,0,1-.142-.9L10.5,31.915a.917.917,0,0,0,0-.648L9.474,28.547a.917.917,0,0,1,.142-.9l1.817-2.269a.917.917,0,0,0,.2-.617l-.137-2.9a.917.917,0,0,1,.413-.81l2.43-1.6a.916.916,0,0,0,.381-.525l.767-2.8a.917.917,0,0,1,.643-.643l2.8-.767a.917.917,0,0,0,.525-.381l1.6-2.43a.917.917,0,0,1,.81-.413l2.9.137a.917.917,0,0,0,.617-.2l2.269-1.817a.917.917,0,0,1,.9-.142L31.269,10.5A.916.916,0,0,0,31.918,10.5Z" transform="translate(-8.568 -8.565)" fill="#ffc850"/>
      <path id="Trazado_898737" data-name="Trazado 898737" d="M38.515,105.342a23.071,23.071,0,0,1-21-32.637l-1.389.38a.917.917,0,0,0-.643.643l-.767,2.8a.917.917,0,0,1-.381.525l-2.43,1.6a.917.917,0,0,0-.413.81l.137,2.9a.918.918,0,0,1-.2.617L9.616,85.25a.917.917,0,0,0-.142.9L10.5,88.867a.917.917,0,0,1,0,.648L9.474,92.234a.917.917,0,0,0,.142.9L11.434,95.4a.917.917,0,0,1,.2.617l-.137,2.9a.917.917,0,0,0,.413.81l2.43,1.6a.917.917,0,0,1,.381.525l.767,2.8a.917.917,0,0,0,.643.643l2.8.767a.917.917,0,0,1,.525.381l1.6,2.43a.917.917,0,0,0,.81.413l2.9-.137a.918.918,0,0,1,.617.2l2.269,1.817a.917.917,0,0,0,.9.142l2.719-1.028a.917.917,0,0,1,.648,0l2.719,1.028a.917.917,0,0,0,.9-.142l2.269-1.817a.918.918,0,0,1,.617-.2l2.9.137a.917.917,0,0,0,.81-.413l1.6-2.43a.917.917,0,0,1,.525-.381l2.8-.767a.917.917,0,0,0,.643-.643l.38-1.389A22.981,22.981,0,0,1,38.515,105.342Z" transform="translate(-8.568 -66.165)" fill="#e1a546"/>
      <circle id="Elipse_12355" data-name="Elipse 12355" cx="17.69" cy="17.69" r="17.69" transform="translate(5.335 5.336)" fill="#ffdc64"/>
      <path id="Trazado_898738" data-name="Trazado 898738" d="M107.6,139.907a.794.794,0,0,0-.6-.378,17.688,17.688,0,0,1-14.609-24.154.554.554,0,0,0-.829-.667,15.378,15.378,0,0,0,6.75,27.86,15.2,15.2,0,0,0,8.988-1.544.8.8,0,0,0,.3-1.117Z" transform="translate(-77.335 -104.296)" fill="#ffc850"/>
      <path id="Trazado_898739" data-name="Trazado 898739" d="M158.592,132.587a1.923,1.923,0,0,0-1.923-1.923h-6.657a8.307,8.307,0,0,0,3.182-4.993,2.017,2.017,0,0,0-1.882-2.323,1.915,1.915,0,0,0-1.94,1.913c0,.692-1.5,2.747-4.32,3.662a2.816,2.816,0,0,0-1.17.772,9.716,9.716,0,0,1-1.5,1.454.767.767,0,0,0-.712-.484h-4.615a.769.769,0,0,0-.769.769v12.306a.769.769,0,0,0,.769.769h4.615a.769.769,0,0,0,.769-.769h12.31a1.538,1.538,0,0,0,0-3.076h.769a1.538,1.538,0,1,0,0-3.076h.769a1.538,1.538,0,0,0,0-3.076h.385A1.923,1.923,0,0,0,158.592,132.587Z" transform="translate(-124.027 -112.253)" fill="#fff"/>
      <g id="Grupo_1110310" data-name="Grupo 1110310" transform="translate(12.257 11.095)">
        <path id="Trazado_898740" data-name="Trazado 898740" d="M325.179,298.755a.769.769,0,0,0,0,1.538h1.46a1.6,1.6,0,0,0,1.6-1.28,1.571,1.571,0,0,0,.013-.258Z" transform="translate(-307.489 -282.979)" fill="#fffab4"/>
        <path id="Trazado_898741" data-name="Trazado 898741" d="M325.179,264.551a.769.769,0,0,0,0,1.538h2.229a1.6,1.6,0,0,0,1.6-1.28,1.574,1.574,0,0,0,.013-.258Z" transform="translate(-307.489 -251.851)" fill="#fffab4"/>
        <path id="Trazado_898742" data-name="Trazado 898742" d="M325.179,230.346a.769.769,0,0,0,0,1.538h2.7a1.916,1.916,0,0,0,1.874-1.538Z" transform="translate(-307.489 -220.722)" fill="#fffab4"/>
        <path id="Trazado_898743" data-name="Trazado 898743" d="M144.744,141.434v-9.421a.769.769,0,0,1,.533-.732c1.55-.508,5.967-2.4,6.345-7.6l-.326-.334a1.915,1.915,0,0,0-1.926,1.913c0,.692-1.5,2.747-4.32,3.662a2.815,2.815,0,0,0-1.17.772,10.232,10.232,0,0,1-1.445,1.412V142.2H140.13a1.538,1.538,0,0,1-1.538-1.538v-10h-1.538a.769.769,0,0,0-.769.769v12.306a.769.769,0,0,0,.769.769h4.615a.769.769,0,0,0,.769-.769h12.31a1.538,1.538,0,0,0,1.538-1.538H145.513A.769.769,0,0,1,144.744,141.434Z" transform="translate(-136.284 -123.35)" fill="#fffab4"/>
      </g>
      <path id="Trazado_898744" data-name="Trazado 898744" d="M152.017,125.292a2.647,2.647,0,0,0-2.644-2.644h-4.859a7.982,7.982,0,0,0,2.1-4.193,2.916,2.916,0,0,0-.7-2.255,2.534,2.534,0,0,0-1.891-.868H144a2.636,2.636,0,0,0-2.643,2.622,3.365,3.365,0,0,1-.959,1.314,7.51,7.51,0,0,1-2.862,1.674,3.507,3.507,0,0,0-1.473.964,9.535,9.535,0,0,1-.994.916,1.48,1.48,0,0,0-.7-.173h-4.615a1.492,1.492,0,0,0-1.49,1.49v12.306a1.492,1.492,0,0,0,1.49,1.49h4.615a1.491,1.491,0,0,0,1.3-.769h11.776a2.259,2.259,0,0,0,1.945-3.407,2.257,2.257,0,0,0,.769-3.076,2.257,2.257,0,0,0,.69-3.2A2.643,2.643,0,0,0,152.017,125.292Zm-2.644,1.2h-.385a.721.721,0,0,0,0,1.442.817.817,0,0,1,0,1.634h-.769a.721.721,0,1,0,0,1.442.817.817,0,0,1,0,1.634h-.769a.721.721,0,1,0,0,1.442.817.817,0,0,1,0,1.634H135.862v-6.97a.721.721,0,0,0-1.442,0v7.691a.048.048,0,0,1-.048.048h-4.615a.048.048,0,0,1-.048-.048V124.138a.048.048,0,0,1,.048-.048h4.615a.048.048,0,0,1,.048.048v1.538a.721.721,0,1,0,1.442,0v-1.538c0-.035,0-.069-.005-.1a10.948,10.948,0,0,0,1.255-1.142,2.084,2.084,0,0,1,.867-.579,8.908,8.908,0,0,0,3.5-2.085,3.76,3.76,0,0,0,1.319-2.262,1.18,1.18,0,0,1,.351-.844,1.209,1.209,0,0,1,.861-.348,1.1,1.1,0,0,1,.825.383,1.492,1.492,0,0,1,.347,1.14,7.627,7.627,0,0,1-2.919,4.512.721.721,0,0,0,.454,1.281h6.657a1.2,1.2,0,0,1,0,2.4Z" transform="translate(-116.731 -104.958)"/>
      <path id="Trazado_898745" data-name="Trazado 898745" d="M163.155,316.306a.725.725,0,1,0,.725.725A.728.728,0,0,0,163.155,316.306Z" transform="translate(-147.821 -287.856)"/>
      <path id="Trazado_898746" data-name="Trazado 898746" d="M44.765,23.026,46,19.748a.721.721,0,0,0-.112-.706L43.7,16.308l.165-3.5a.721.721,0,0,0-.324-.637l-2.929-1.924-.924-3.38a.721.721,0,0,0-.505-.505L35.8,5.437,33.88,2.509a.722.722,0,0,0-.637-.324l-3.5.165L27.009.159A.721.721,0,0,0,26.3.047L23.025,1.286,19.747.047a.721.721,0,0,0-.706.112L16.307,2.35l-3.5-.165a.72.72,0,0,0-.637.324L10.246,5.438l-3.38.924a.721.721,0,0,0-.505.505l-.924,3.38L2.508,12.171a.721.721,0,0,0-.324.637l.165,3.5L.158,19.042a.721.721,0,0,0-.112.706l1.239,3.278L.046,26.3a.721.721,0,0,0,.112.706l2.191,2.735-.165,3.5a.721.721,0,0,0,.324.637L5.437,35.8l.924,3.38a.721.721,0,0,0,.505.505l3.38.924,1.924,2.929a.723.723,0,0,0,.637.324l3.5-.165,2.735,2.191a.721.721,0,0,0,.706.112l3.278-1.239L26.3,46a.721.721,0,0,0,.706-.112L29.743,43.7l3.5.165a.722.722,0,0,0,.637-.324L35.8,40.614l3.38-.924a.721.721,0,0,0,.505-.505l.924-3.38,2.929-1.924a.721.721,0,0,0,.324-.637l-.165-3.5,2.191-2.735A.721.721,0,0,0,46,26.3Zm-1.445.255,1.19,3.148-2.1,2.626a.721.721,0,0,0-.158.485l.159,3.361-2.813,1.848a.721.721,0,0,0-.3.412l-.888,3.246-3.246.888a.721.721,0,0,0-.412.3L32.9,42.407l-3.361-.159a.722.722,0,0,0-.485.158l-2.626,2.1-3.148-1.19a.722.722,0,0,0-.51,0l-3.148,1.19L17,42.406a.722.722,0,0,0-.485-.158l-3.361.159L11.3,39.594a.721.721,0,0,0-.412-.3l-3.246-.888-.888-3.246a.721.721,0,0,0-.3-.412L3.644,32.9,3.8,29.54a.721.721,0,0,0-.158-.485l-2.1-2.626,1.19-3.148a.72.72,0,0,0,0-.51l-1.19-3.148L3.645,17a.721.721,0,0,0,.158-.485L3.644,13.15,6.456,11.3a.721.721,0,0,0,.3-.412l.888-3.246,3.246-.888a.721.721,0,0,0,.412-.3L13.15,3.644l3.361.159A.722.722,0,0,0,17,3.645l2.626-2.1,3.148,1.19a.72.72,0,0,0,.51,0l3.148-1.19,2.626,2.1a.72.72,0,0,0,.485.158L32.9,3.644l1.848,2.813a.721.721,0,0,0,.412.3l3.246.888.888,3.246a.722.722,0,0,0,.3.412l2.813,1.848-.159,3.361a.721.721,0,0,0,.158.485l2.1,2.626-1.19,3.148A.722.722,0,0,0,43.32,23.281Z" transform="translate(0 0)"/>
      <path id="Trazado_898747" data-name="Trazado 898747" d="M381.389,104.653c.173.173.345.353.511.533a.721.721,0,0,0,1.062-.975c-.179-.2-.366-.39-.553-.577s-.382-.374-.577-.553a.721.721,0,0,0-.975,1.062C381.036,104.307,381.216,104.479,381.389,104.653Z" transform="translate(-346.389 -93.635)"/>
      <path id="Trazado_898748" data-name="Trazado 898748" d="M57.459,57.624a16.975,16.975,0,0,1,21.1-2.324.721.721,0,1,0,.775-1.216A18.413,18.413,0,0,0,55.356,81.461a.721.721,0,0,0,1.1-.928,16.97,16.97,0,0,1,1-22.909Z" transform="translate(-46.455 -46.606)"/>
      <path id="Trazado_898749" data-name="Trazado 898749" d="M147.9,142.445a.721.721,0,0,0-.221,1,16.971,16.971,0,0,1-25.233,22.1.721.721,0,0,0-.928,1.1,18.34,18.34,0,0,0,11.833,4.31q.376,0,.755-.015a18.415,18.415,0,0,0,14.79-28.276A.721.721,0,0,0,147.9,142.445Z" transform="translate(-110.359 -129.53)"/>
    </g>
  </g>
</svg>
