<svg xmlns="http://www.w3.org/2000/svg" xmlns:xlink="http://www.w3.org/1999/xlink" width="108" height="108" viewBox="0 0 108 108">
  <defs>
    <filter id="Trazado_896985" x="0" y="0" width="108" height="108" filterUnits="userSpaceOnUse">
      <feOffset dy="3" input="SourceAlpha"/>
      <feGaussianBlur stdDeviation="3" result="blur"/>
      <feFlood flood-opacity="0.161"/>
      <feComposite operator="in" in2="blur"/>
      <feComposite in="SourceGraphic"/>
    </filter>
  </defs>
  <g id="Grupo_1110328" data-name="Grupo 1110328" transform="translate(-326.051 -1534)">
    <g id="Grupo_1110072" data-name="Grupo 1110072" transform="translate(-421.73 -2293)">
      <g id="Grupo_1098742" data-name="Grupo 1098742" transform="translate(-446.539 3444.258)">
        <g transform="matrix(1, 0, 0, 1, 1194.32, 382.74)" filter="url(#Trazado_896985)">
          <g id="Trazado_896985-2" data-name="Trazado 896985" transform="translate(9 6)" fill="#84a065" opacity="0.859">
            <path d="M 44.99993896484375 88.5 C 39.12682723999023 88.5 33.4301872253418 87.35007476806641 28.06826400756836 85.08217620849609 C 22.88850212097168 82.89132690429688 18.23627662658691 79.75461578369141 14.2408390045166 75.75916290283203 C 10.24540138244629 71.76372528076172 7.108676433563232 67.11151123046875 4.917826652526855 61.9317512512207 C 2.649926424026489 56.56982421875 1.500001430511475 50.87317657470703 1.500001430511475 45.00006103515625 C 1.500001430511475 39.12682342529297 2.649926424026489 33.4301872253418 4.917826652526855 28.06826210021973 C 7.108676433563232 22.88850021362305 10.24540138244629 18.23628807067871 14.2408390045166 14.24083709716797 C 18.23628807067871 10.24540042877197 22.88850212097168 7.108675003051758 28.06826400756836 4.917825222015381 C 33.4301872253418 2.649924993515015 39.12682723999023 1.5 44.99993896484375 1.5 C 50.87305068969727 1.5 56.5697021484375 2.649924993515015 61.93162536621094 4.917825222015381 C 67.11138916015625 7.108675003051758 71.76360321044922 10.24540042877197 75.75904083251953 14.24083709716797 C 79.75448608398438 18.23627471923828 82.89120483398438 22.88850021362305 85.08205413818359 28.06826210021973 C 87.34995269775391 33.4301872253418 88.4998779296875 39.12682342529297 88.4998779296875 44.99993896484375 C 88.4998779296875 50.87317657470703 87.34995269775391 56.56982421875 85.08205413818359 61.9317512512207 C 82.89120483398438 67.11151123046875 79.75448608398438 71.76372528076172 75.75904083251953 75.75916290283203 C 71.76360321044922 79.75461578369141 67.11138916015625 82.89132690429688 61.93162536621094 85.08217620849609 C 56.5697021484375 87.35007476806641 50.87305068969727 88.5 44.99993896484375 88.5 Z" stroke="none"/>
            <path d="M 44.99993896484375 3 C 39.32865142822266 3 33.82860946655273 4.110054016113281 28.65258026123047 6.299331665039062 C 23.65162658691406 8.414558410644531 19.15966796875 11.44332885742188 15.30149841308594 15.30149841308594 C 11.44332122802734 19.15966796875 8.41455078125 23.65162658691406 6.299324035644531 28.65258407592773 C 4.110054016113281 33.82861328125 2.999992370605469 39.32865524291992 2.999992370605469 45.00005722045898 C 2.999992370605469 50.67134475708008 4.110054016113281 56.17138671875 6.299324035644531 61.347412109375 C 8.41455078125 66.34837341308594 11.44332122802734 70.84033203125 15.30149841308594 74.69850158691406 C 19.15966796875 78.55667114257812 23.65162658691406 81.58544158935547 28.65258026123047 83.70066833496094 C 33.82860946655273 85.88994598388672 39.32865142822266 87 44.99993896484375 87 C 50.67122650146484 87 56.17126846313477 85.88994598388672 61.34729766845703 83.70066833496094 C 66.34825134277344 81.58544158935547 70.8402099609375 78.55667114257812 74.69837951660156 74.69850158691406 C 78.55654907226562 70.84033203125 81.5853271484375 66.34837341308594 83.70055389404297 61.347412109375 C 85.88982391357422 56.17138671875 86.9998779296875 50.67134475708008 86.9998779296875 44.99994277954102 C 86.9998779296875 39.32865524291992 85.88982391357422 33.82861328125 83.70055389404297 28.65258407592773 C 81.5853271484375 23.65162658691406 78.55654907226562 19.15966796875 74.69837951660156 15.30149841308594 C 70.8402099609375 11.44332885742188 66.34825134277344 8.414558410644531 61.34729766845703 6.299331665039062 C 56.17126846313477 4.110054016113281 50.67122650146484 3 44.99993896484375 3 M 44.99993896484375 0 C 69.85272216796875 0 89.99988555908203 20.14715576171875 89.99988555908203 44.99994277954102 L 89.99988555908203 45.00005722045898 C 89.99988555908203 69.85284423828125 69.85272216796875 90 44.99993896484375 90 C 20.14715576171875 90 -7.62939453125e-06 69.85284423828125 -7.62939453125e-06 45.00005722045898 L -7.62939453125e-06 44.99994277954102 C -7.62939453125e-06 20.14715576171875 20.14715576171875 0 44.99993896484375 0 Z" stroke="none" fill="#fff"/>
          </g>
        </g>
        <g id="Rectángulo_400907" data-name="Rectángulo 400907" transform="translate(1203.32 388.742)" fill="none" stroke="#fff" stroke-width="3">
          <rect width="90" height="90" rx="45" stroke="none"/>
          <rect x="1.5" y="1.5" width="87" height="87" rx="43.5" fill="none"/>
        </g>
      </g>
    </g>
    <g id="evaluar" transform="translate(353.051 1558)">
      <g id="Grupo_1110326" data-name="Grupo 1110326" transform="translate(0.85 0.85)">
        <g id="Grupo_1110312" data-name="Grupo 1110312" transform="translate(20.407 5.102)">
          <path id="Trazado_898750" data-name="Trazado 898750" d="M51.359,49.515H25V7.85A.851.851,0,0,1,25.85,7H51.359a.851.851,0,0,1,.85.85V48.665A.851.851,0,0,1,51.359,49.515Z" transform="translate(-25 -7)" fill="#e6e9ed"/>
        </g>
        <g id="Grupo_1110313" data-name="Grupo 1110313" transform="translate(17.006 1.701)">
          <path id="Trazado_898751" data-name="Trazado 898751" d="M23.551,48.916h27.21a.853.853,0,0,0,.85-.85V7.252a.853.853,0,0,0-.85-.85h-5.1a.853.853,0,0,0,.85-.85V3h7.653a.853.853,0,0,1,.85.85V51.467a.853.853,0,0,1-.85.85H21.85a.853.853,0,0,1-.85-.85V47.216a1.706,1.706,0,0,0,1.7,1.7Z" transform="translate(-21 -3)" fill="#cf9e76"/>
        </g>
        <g id="Grupo_1110314" data-name="Grupo 1110314" transform="translate(17.006 1.701)">
          <path id="Trazado_898752" data-name="Trazado 898752" d="M30.353,6.4h-5.1a.853.853,0,0,0-.85.85V9.836c-.281-.026-.561-.034-.85-.034A10.083,10.083,0,0,0,21,10.126V3.85A.853.853,0,0,1,21.85,3H29.5V5.551A.853.853,0,0,0,30.353,6.4Z" transform="translate(-21 -3)" fill="#cf9e76"/>
        </g>
        <g id="Grupo_1110315" data-name="Grupo 1110315" transform="translate(25.509)">
          <path id="Trazado_898753" data-name="Trazado 898753" d="M48.006,2.7V5.252a.853.853,0,0,1-.85.85H31.85a.853.853,0,0,1-.85-.85V1.85A.853.853,0,0,1,31.85,1H47.156a.853.853,0,0,1,.85.85Z" transform="translate(-31 -1)" fill="#b4dd7f"/>
        </g>
        <g id="Grupo_1110316" data-name="Grupo 1110316" transform="translate(33.162 11.904)">
          <path id="Trazado_898754" data-name="Trazado 898754" d="M54.455,37.065V42.21H50.2v-.893a1.84,1.84,0,0,0-1.148-1.709L49.03,39.6a1.833,1.833,0,0,0-2.007.4l-.638.629-4.8-4.8.638-.646a1.836,1.836,0,0,0,.4-1.99l-.017-.043a1.834,1.834,0,0,0-1.7-1.139H40V25.2h.893A1.84,1.84,0,0,0,42.6,24.056l.009-.026a1.833,1.833,0,0,0-.4-2.007l-.629-.638,4.8-4.8.646.638a1.817,1.817,0,0,0,2,.391.031.031,0,0,0,.026-.009A1.829,1.829,0,0,0,50.2,15.9V15h4.252v5.144c-.281-.026-.561-.043-.85-.043a8.5,8.5,0,1,0,0,17.006c.289,0,.578-.017.85-.043Z" transform="translate(-40 -15)" fill="#ffc729"/>
        </g>
        <g id="Grupo_1110317" data-name="Grupo 1110317" transform="translate(38.264 17.006)">
          <path id="Trazado_898755" data-name="Trazado 898755" d="M55.353,34.528v3.435c-.272.026-.561.043-.85.043A8.5,8.5,0,0,1,54.5,21c.289,0,.57.017.85.043v3.427a5.641,5.641,0,0,0-.85-.068,5.1,5.1,0,0,0,0,10.2A4.651,4.651,0,0,0,55.353,34.528Z" transform="translate(-46 -21)" fill="#fcd770"/>
        </g>
        <g id="Grupo_1110318" data-name="Grupo 1110318" transform="translate(0 32.311)">
          <path id="Trazado_898756" data-name="Trazado 898756" d="M7.8,39.85v8.5a.853.853,0,0,1-.85.85H1V39H6.952A.853.853,0,0,1,7.8,39.85Z" transform="translate(-1 -39)" fill="#ff826e"/>
        </g>
        <g id="Grupo_1110319" data-name="Grupo 1110319" transform="translate(17.006 32.26)">
          <path id="Trazado_898757" data-name="Trazado 898757" d="M25.762,39.025a1.707,1.707,0,0,0-.859.468,1.663,1.663,0,0,0-.5,1.2,1.706,1.706,0,0,0,1.7,1.7,1.713,1.713,0,0,0-1.7,1.7,1.706,1.706,0,0,0,1.7,1.7,1.713,1.713,0,0,0-1.7,1.7,1.706,1.706,0,0,0,1.7,1.7v3.4a1.706,1.706,0,0,1-1.7,1.7H22.7A1.706,1.706,0,0,1,21,52.6V41.542a9.254,9.254,0,0,0,1.7-2.551h2.551a2.449,2.449,0,0,0,.5-.051Z" transform="translate(-21 -38.94)" fill="#969faa"/>
        </g>
        <g id="Grupo_1110320" data-name="Grupo 1110320" transform="translate(20.407 32.311)">
          <path id="Trazado_898758" data-name="Trazado 898758" d="M28.4,39a1.706,1.706,0,0,1,1.7,1.7,1.713,1.713,0,0,1-1.7,1.7H26.7A1.706,1.706,0,0,1,25,40.7a1.663,1.663,0,0,1,.5-1.2,1.707,1.707,0,0,1,.859-.468A1.49,1.49,0,0,1,26.7,39Z" transform="translate(-25 -39)" fill="#f0d0b4"/>
        </g>
        <g id="Grupo_1110321" data-name="Grupo 1110321" transform="translate(20.407 35.713)">
          <path id="Trazado_898759" data-name="Trazado 898759" d="M28.4,43a1.706,1.706,0,0,1,1.7,1.7,1.713,1.713,0,0,1-1.7,1.7H26.7A1.706,1.706,0,0,1,25,44.7,1.713,1.713,0,0,1,26.7,43Z" transform="translate(-25 -43)" fill="#f0d0b4"/>
        </g>
        <g id="Grupo_1110322" data-name="Grupo 1110322" transform="translate(20.407 39.114)">
          <path id="Trazado_898760" data-name="Trazado 898760" d="M26.7,50.4A1.706,1.706,0,0,1,25,48.7,1.713,1.713,0,0,1,26.7,47h1.7a1.706,1.706,0,0,1,1.7,1.7,1.713,1.713,0,0,1-1.7,1.7Z" transform="translate(-25 -47)" fill="#f0d0b4"/>
        </g>
        <g id="Grupo_1110323" data-name="Grupo 1110323" transform="translate(6.802 28.91)">
          <path id="Trazado_898761" data-name="Trazado 898761" d="M19.2,40.952v9.353H15.156A8.716,8.716,0,0,1,9,47.755v-8.5A8.755,8.755,0,0,1,16.508,35h8.648a.853.853,0,0,1,.85.85,2.545,2.545,0,0,1-.748,1.8,2.5,2.5,0,0,1-1.3.7,2.449,2.449,0,0,1-.5.051H20.9A9.254,9.254,0,0,1,19.2,40.952Z" transform="translate(-9 -35)" fill="#f0d0b4"/>
        </g>
        <g id="Grupo_1110324" data-name="Grupo 1110324" transform="translate(9.353 8.503)">
          <path id="Trazado_898762" data-name="Trazado 898762" d="M23.054,11.034a10.206,10.206,0,1,1-3.4.289A10.083,10.083,0,0,1,22.2,11C22.493,11,22.773,11.009,23.054,11.034Z" transform="translate(-12 -11)" fill="#aab2bd"/>
        </g>
        <g id="Grupo_1110325" data-name="Grupo 1110325" transform="translate(12.755 11.904)">
          <ellipse id="Elipse_12356" data-name="Elipse 12356" cx="6.5" cy="7" rx="6.5" ry="7" transform="translate(0.395 -0.036)" fill="#69d6f4"/>
        </g>
      </g>
      <g id="Grupo_1110327" data-name="Grupo 1110327" transform="translate(0)">
        <path id="Trazado_898763" data-name="Trazado 898763" d="M30.305,21.653a7.653,7.653,0,1,0-7.653,7.653A7.662,7.662,0,0,0,30.305,21.653Zm-13.6,0A5.952,5.952,0,1,1,22.653,27.6,5.959,5.959,0,0,1,16.7,21.653Z" transform="translate(-2.245 -2.096)"/>
        <path id="Trazado_898764" data-name="Trazado 898764" d="M26.1,19.293l-4.5,4.5-1.1-1.1-1.2,1.2,2.3,2.3,5.7-5.7Z" transform="translate(-2.888 -2.888)"/>
        <path id="Trazado_898765" data-name="Trazado 898765" d="M4,56H5.7v1.7H4Z" transform="translate(-0.599 -8.383)"/>
        <path id="Trazado_898766" data-name="Trazado 898766" d="M8,56H9.7v1.7H8Z" transform="translate(-1.198 -8.383)"/>
        <path id="Trazado_898767" data-name="Trazado 898767" d="M12,56h1.7v1.7H12Z" transform="translate(-1.796 -8.383)"/>
        <path id="Trazado_898768" data-name="Trazado 898768" d="M2,3H13.9V4.7H2Z" transform="translate(-0.299 -0.449)"/>
        <path id="Trazado_898769" data-name="Trazado 898769" d="M2,7H12.2V8.7H2Z" transform="translate(-0.299 -1.048)"/>
        <path id="Trazado_898770" data-name="Trazado 898770" d="M2,11h8.5v1.7H2Z" transform="translate(-0.299 -1.647)"/>
        <path id="Trazado_898771" data-name="Trazado 898771" d="M2,15H3.7v1.7H2Z" transform="translate(-0.299 -2.245)"/>
        <path id="Trazado_898772" data-name="Trazado 898772" d="M6,15H7.7v1.7H6Z" transform="translate(-0.898 -2.245)"/>
        <path id="Trazado_898773" data-name="Trazado 898773" d="M51.018,1.7h-6.8a1.7,1.7,0,0,0-1.7-1.7H27.21a1.7,1.7,0,0,0-1.7,1.7h-6.8a1.7,1.7,0,0,0-1.7,1.7V9.044a11.036,11.036,0,0,0-2.4,19.9,9.66,9.66,0,0,0-6.962,3.594,1.686,1.686,0,0,0-.839-.23H0v11.9H6.8a1.681,1.681,0,0,0,1.06-.382,9.479,9.479,0,0,0,5.949,2.082h3.195v5.1a1.7,1.7,0,0,0,1.7,1.7H51.018a1.7,1.7,0,0,0,1.7-1.7V3.4A1.7,1.7,0,0,0,51.018,1.7ZM6.8,42.515H1.7v-8.5H6.8Zm40.815-11.9a4.252,4.252,0,1,1,0-8.5Zm-5.952-4.252a5.959,5.959,0,0,0,5.952,5.952v1.7a7.653,7.653,0,1,1,0-15.305v1.7A5.959,5.959,0,0,0,41.665,26.359Zm-3.4,0a9.364,9.364,0,0,0,9.353,9.353v3.4H45.066v-.042a2.72,2.72,0,0,0-4.634-1.921l-.03.03-3.608-3.608.037-.037a2.72,2.72,0,0,0-1.917-4.626h-.053v-5.1H34.9a2.72,2.72,0,0,0,1.921-4.634l-.03-.03L40.4,15.537l.037.037a2.72,2.72,0,0,0,4.627-1.917V13.6h2.551v3.4A9.365,9.365,0,0,0,38.264,26.359ZM47.617,11.9H43.365v1.753a1.02,1.02,0,0,1-1.724.714l-1.24-1.24-6.012,6.012,1.232,1.232a1.019,1.019,0,0,1-.717,1.731H33.162v8.5h1.753a1,1,0,0,1,.929.653.984.984,0,0,1-.214,1.071l-1.24,1.24L40.4,39.588l1.232-1.232a1.019,1.019,0,0,1,1.731.717v1.742h4.252v6.8H23.652a2.522,2.522,0,0,0,.156-.85V44.216h.85a2.54,2.54,0,0,0,1.888-4.252,2.512,2.512,0,0,0,0-3.4,2.53,2.53,0,0,0-1.531-4.216,3.361,3.361,0,0,0,.493-1.736,1.684,1.684,0,0,0-.389-1.07A11.035,11.035,0,0,0,22.108,8.648V6.8H47.617ZM22.108,38.264a.852.852,0,0,1,.85-.85h1.7a.85.85,0,1,1,0,1.7h-1.7A.852.852,0,0,1,22.108,38.264Zm2.551-2.551h-1.7a.85.85,0,1,1,0-1.7h1.7a.85.85,0,1,1,0,1.7Zm0,5.1a.85.85,0,0,1,0,1.7h-1.7a.85.85,0,0,1,0-1.7ZM27.21,1.7H42.515V5.1H27.21Zm-8.5,1.7h6.8V5.1h-3.4a1.7,1.7,0,0,0-1.7,1.7V8.5a11.1,11.1,0,0,0-1.7.145ZM11.054,19.557a9.353,9.353,0,1,1,9.353,9.353A9.364,9.364,0,0,1,11.054,19.557Zm2.758,24.659A7.8,7.8,0,0,1,8.5,42.14V34.275a7.941,7.941,0,0,1,6.659-3.664h8.647a1.7,1.7,0,0,1-1.7,1.7H18.944l-.194.582a4.939,4.939,0,0,1-2.856,3.03l-1.755.7.632,1.578,1.754-.7c.164-.065.323-.142.48-.22v6.934Zm4.9-8.137a6.643,6.643,0,0,0,1.433-2.067h.424a2.472,2.472,0,0,0,.507,2.551,2.512,2.512,0,0,0,0,3.4,2.527,2.527,0,0,0,1.037,4.1v2.707a.852.852,0,0,1-.85.85h-1.7a.852.852,0,0,1-.85-.85ZM51.018,51.018H18.707V49.161a2.522,2.522,0,0,0,.85.156h28.06a1.7,1.7,0,0,0,1.7-1.7V6.8a1.7,1.7,0,0,0-1.7-1.7h-3.4V3.4h6.8Z" transform="translate(0)"/>
        <path id="Trazado_898774" data-name="Trazado 898774" d="M36,52h1.7v1.7H36Z" transform="translate(-5.389 -7.784)"/>
        <path id="Trazado_898775" data-name="Trazado 898775" d="M40,52h1.7v1.7H40Z" transform="translate(-5.988 -7.784)"/>
        <path id="Trazado_898776" data-name="Trazado 898776" d="M44,52h1.7v1.7H44Z" transform="translate(-6.587 -7.784)"/>
      </g>
    </g>
  </g>
</svg>
