<svg xmlns="http://www.w3.org/2000/svg" xmlns:xlink="http://www.w3.org/1999/xlink" width="190" height="130" viewBox="0 0 190 130">
  <defs>
    <clipPath id="clip-path">
      <path id="path2877" d="M0-682.665H94.044v94.044H0Z" transform="translate(0 682.665)"/>
    </clipPath>
  </defs>
  <g id="Grupo_1110183" data-name="Grupo 1110183" transform="translate(-1230.051 -1200)">
    <rect id="Rectángulo_402538" data-name="Rectángulo 402538" width="190" height="130" rx="8" transform="translate(1230.051 1200)" fill="#f8f0bc"/>
    <g id="g2871" transform="translate(1281.335 1900.143)">
      <g id="g2873" transform="translate(0 -682.665)">
        <g id="g2875" clip-path="url(#clip-path)">
          <g id="g2881" transform="translate(11.389 30.952)">
            <path id="path2883" d="M-400.67,0h-3.7a3.3,3.3,0,0,0-2.674,1.366l-3.69,5.1a1.813,1.813,0,0,1-1.469.75h-42.976a9.5,9.5,0,0,0-9.5,9.5V55.58A1.116,1.116,0,0,0-463.57,56.7h4.643a1.115,1.115,0,0,0,1.115-1.115V46.651a.941.941,0,0,1,.505-.833c1.855-.974,8.212-4.681,8.733-9.959a1.121,1.121,0,0,1,.972-.992c9.145-1.214,21.942,8.587,32.19,3.323a.842.842,0,0,1,1.23.747V55.58a1.116,1.116,0,0,0,1.116,1.115h3.613a1.116,1.116,0,0,0,1.107-.976l2.512-19.97a2.983,2.983,0,0,1,.439-1.223l7.547-11.924a2.15,2.15,0,0,1,1.432-.965l11-2a2.446,2.446,0,0,0,2.008-2.406V14.8a2.446,2.446,0,0,0-.86-1.862L-398.531.788A3.3,3.3,0,0,0-400.67,0" transform="translate(464.686)" fill="#f2fbff"/>
          </g>
          <g id="g2885" transform="translate(28.866 38.17)">
            <path id="path2887" d="M0-102.614H9.449a6.174,6.174,0,0,0,5.439-3.253l.51-.95a6.174,6.174,0,0,1,5.439-3.253h2.39a6,6,0,0,0,6-6,5.981,5.981,0,0,0-.769-2.938H1.145Z" transform="translate(0 119.009)" fill="#678d98"/>
          </g>
          <g id="g2889" transform="translate(62.794 30.952)">
            <path id="path2891" d="M-181.588-80.956-195.851-93.1a3.3,3.3,0,0,0-2.14-.788h-3.7a3.3,3.3,0,0,0-.743.085,3.3,3.3,0,0,1,1.408.7L-186.8-81.278a2.446,2.446,0,0,1,.86,1.862v.772a2.446,2.446,0,0,1-2.008,2.406l-8.03,1.508a2.15,2.15,0,0,0-1.432.965l-9.349,14.4a2.982,2.982,0,0,0-.439,1.223l-2.512,19.97a1.115,1.115,0,0,1-.894.955,1.115,1.115,0,0,0,.215.021h3.613a1.116,1.116,0,0,0,1.107-.976l2.512-19.97a2.982,2.982,0,0,1,.439-1.223l7.547-11.924a2.15,2.15,0,0,1,1.432-.965l11-2a2.446,2.446,0,0,0,2.008-2.406v-2.434a2.446,2.446,0,0,0-.86-1.862" transform="translate(210.601 93.89)" fill="#dff6fd"/>
          </g>
          <g id="g2893" transform="translate(84.703 40.41)">
            <path id="path2895" d="M-44.458-21.763l-4.083-3.477a11.189,11.189,0,0,0-3.02,7.659,11.213,11.213,0,0,0,.56,3.5l5.4-.981A2.446,2.446,0,0,0-43.6-17.467V-19.9a2.446,2.446,0,0,0-.86-1.862" transform="translate(51.561 25.24)" fill="#ffa78f"/>
          </g>
          <g id="g2897" transform="translate(84.726 40.41)">
            <path id="path2899" d="M-44.318-21.763-48.4-25.24a11.271,11.271,0,0,0-1.809,2.587l.683.568a2.446,2.446,0,0,1,.86,1.862v.772a2.446,2.446,0,0,1-2.008,2.406l-.724.136a11.206,11.206,0,0,0,.537,2.829l5.4-.981a2.446,2.446,0,0,0,2.008-2.406V-19.9a2.446,2.446,0,0,0-.86-1.862" transform="translate(51.399 25.24)" fill="#f89580"/>
          </g>
          <g id="g2901" transform="translate(63.635 28.837)">
            <path id="path2903" d="M-6.257-.118a.827.827,0,0,0-.984.967A10.921,10.921,0,0,0-4.9,6.1C-2.8,8.242-.235,9.135.83,8.093s.225-3.625-1.874-5.769A10.879,10.879,0,0,0-6.257-.118" transform="translate(7.257 0.137)" fill="#f2fbff"/>
          </g>
          <g id="g2905" transform="translate(1.378 29.896)">
            <path id="path2907" d="M0-16.011V41.556a2.558,2.558,0,0,0,2.558,2.558H41.715a2.558,2.558,0,0,0,2.558-2.558V-16.011a2.558,2.558,0,0,0-2.558-2.558H2.558A2.558,2.558,0,0,0,0-16.011" transform="translate(0 18.569)" fill="#68ca44"/>
          </g>
          <g id="g2909" transform="translate(38.684 29.896)">
            <path id="path2911" d="M-27.592,0H-32a2.558,2.558,0,0,1,2.558,2.558V60.125A2.558,2.558,0,0,1-32,62.684h4.408a2.558,2.558,0,0,0,2.558-2.558V2.558A2.558,2.558,0,0,0-27.592,0" transform="translate(32)" fill="#4fc123"/>
          </g>
          <g id="g2913" transform="translate(39.589 1.465)">
            <path id="path2915" d="M-56.908-75.877a3.031,3.031,0,0,1-3.031-3.031,3.031,3.031,0,0,1,3.031-3.031,3.031,3.031,0,0,1,3.031,3.031,3.031,3.031,0,0,1-3.031,3.031m0-12.123A9.1,9.1,0,0,0-66-78.908c0,7.38,9.092,12.949,9.092,12.949s9.092-5.82,9.092-12.949A9.1,9.1,0,0,0-56.908-88" transform="translate(66 88)" fill="#fd8087"/>
          </g>
          <g id="g2917" transform="translate(7.439 35.957)">
            <path id="path2919" d="M-193.583,0h-10.035a1.257,1.257,0,0,0-1.257,1.257,3.562,3.562,0,0,1-3.562,3.562A3.562,3.562,0,0,1-212,1.257,1.257,1.257,0,0,0-213.255,0H-223.29a1.221,1.221,0,0,0-1.221,1.221V49.339a1.221,1.221,0,0,0,1.221,1.221h29.707a1.222,1.222,0,0,0,1.221-1.221V1.221A1.222,1.222,0,0,0-193.583,0" transform="translate(224.511)" fill="#f2fbff"/>
          </g>
          <g id="g2921" transform="translate(44.272 36.793)">
            <path id="path2923" d="M-93.382,3.211a1.374,1.374,0,0,1-1.039-.472A1.378,1.378,0,0,1-94.288.795a7.544,7.544,0,0,1,4.959-1.858h2.392a4.628,4.628,0,0,0,4.623-4.623,4.626,4.626,0,0,0-.593-2.262,1.378,1.378,0,0,1,.526-1.876A1.378,1.378,0,0,1-80.5-9.3a7.387,7.387,0,0,1,.946,3.612,7.387,7.387,0,0,1-7.378,7.378h-2.392a4.789,4.789,0,0,0-3.148,1.18A1.373,1.373,0,0,1-93.382,3.211Z" transform="translate(94.76 10.002)"/>
          </g>
          <g id="g2925" transform="translate(44.272 34.282)">
            <path id="path2927" d="M9.6-22.961H-8.622A1.378,1.378,0,0,1-10-24.339a1.378,1.378,0,0,1,1.378-1.378H9.6A.438.438,0,0,0,9.95-25.9l1.273-1.759a1.378,1.378,0,0,1,1.924-.309,1.378,1.378,0,0,1,.309,1.924l-1.273,1.76A3.2,3.2,0,0,1,9.6-22.961Z" transform="translate(10 28.227)"/>
          </g>
          <g id="g2929" transform="translate(68.606 29.574)">
            <path id="path2931" d="M-2.547,15.246a1.371,1.371,0,0,1-.735-.214,1.378,1.378,0,0,1-.427-1.9l2.166-3.422A3.533,3.533,0,0,1,.807,8.126l11-2a1.067,1.067,0,0,0,.876-1.051V2.642a1.067,1.067,0,0,0-.375-.814L-1.957-10.319A1.923,1.923,0,0,0-3.2-10.778H-6.9A1.888,1.888,0,0,0-7.9-10.5a1.378,1.378,0,0,1-1.9-.447,1.378,1.378,0,0,1,.447-1.9A4.641,4.641,0,0,1-6.9-13.533h3.7A4.68,4.68,0,0,1-.17-12.416L14.093-.27a3.818,3.818,0,0,1,1.344,2.911V5.075A3.821,3.821,0,0,1,12.3,8.837l-11,2a.772.772,0,0,0-.514.347L-1.382,14.6A1.377,1.377,0,0,1-2.547,15.246Z" transform="translate(10.001 13.533)"/>
          </g>
          <g id="g2933" transform="translate(44.272 61.026)">
            <path id="path2935" d="M12.348-32.934H8.735a2.5,2.5,0,0,1-2.494-2.494V-51.22c-5.078,2.25-10.525,1.282-15.225.01a1.378,1.378,0,0,1-.97-1.69,1.378,1.378,0,0,1,1.69-.97c4.432,1.2,9.564,2.118,14.025-.173a2.208,2.208,0,0,1,2.175.08A2.2,2.2,0,0,1,9-52.072v16.382h3.12L14.6-55.431a4.332,4.332,0,0,1,.642-1.789l1.945-3.074a1.378,1.378,0,0,1,1.9-.428,1.378,1.378,0,0,1,.428,1.9L17.57-55.745a1.6,1.6,0,0,0-.236.66L14.821-35.117A2.5,2.5,0,0,1,12.348-32.934Z" transform="translate(10.002 60.934)"/>
          </g>
          <g id="g2937" transform="translate(74.722 38.661)">
            <path id="path2939" d="M-8.622-6.15A1.378,1.378,0,0,1-10-7.528V-8.622A1.378,1.378,0,0,1-8.622-10,1.378,1.378,0,0,1-7.245-8.622v1.095A1.378,1.378,0,0,1-8.622-6.15Z" transform="translate(10 10)"/>
          </g>
          <g id="g2941" transform="translate(83.326 39.032)">
            <path id="path2943" d="M-29.987,3.916A1.378,1.378,0,0,1-31.3,2.967a12.593,12.593,0,0,1-.628-3.931,12.563,12.563,0,0,1,3.391-8.6,1.378,1.378,0,0,1,1.947-.067,1.378,1.378,0,0,1,.067,1.947,9.817,9.817,0,0,0-2.65,6.719,9.842,9.842,0,0,0,.491,3.072,1.378,1.378,0,0,1-.88,1.738A1.377,1.377,0,0,1-29.987,3.916Z" transform="translate(31.924 10)"/>
          </g>
          <g id="g2945" transform="translate(62.257 27.46)">
            <path id="path2947" d="M-62.066-35.179a1.371,1.371,0,0,1-.648-.163,11.209,11.209,0,0,1-2.671-2.037,12.056,12.056,0,0,1-2.709-5.947,2.2,2.2,0,0,1,.618-2,2.2,2.2,0,0,1,2.008-.583,12.007,12.007,0,0,1,5.907,2.824,11.084,11.084,0,0,1,2.052,2.856,1.378,1.378,0,0,1-.639,1.841,1.378,1.378,0,0,1-1.841-.639,8.306,8.306,0,0,0-1.541-2.13A8.471,8.471,0,0,0-65.2-43a8.517,8.517,0,0,0,1.782,3.7,8.427,8.427,0,0,0,2,1.535,1.378,1.378,0,0,1,.566,1.864A1.377,1.377,0,0,1-62.066-35.179Z" transform="translate(68.136 45.955)"/>
          </g>
          <g id="g2949" transform="translate(0 28.518)">
            <path id="path2951" d="M33.093-111.552H-6.064A3.94,3.94,0,0,1-10-115.487v-37.121a1.378,1.378,0,0,1,1.378-1.378,1.378,1.378,0,0,1,1.378,1.378v37.121a1.182,1.182,0,0,0,1.181,1.18H33.093a1.182,1.182,0,0,0,1.181-1.18v-57.567a1.182,1.182,0,0,0-1.181-1.181H-6.064a1.182,1.182,0,0,0-1.181,1.181v14.018a1.378,1.378,0,0,1-1.378,1.378A1.378,1.378,0,0,1-10-159.037v-14.018a3.94,3.94,0,0,1,3.936-3.936H33.093a3.94,3.94,0,0,1,3.936,3.936v57.567A3.94,3.94,0,0,1,33.093-111.552Z" transform="translate(10 176.99)"/>
          </g>
          <g id="g2953" transform="translate(38.212 0.087)">
            <path id="path2955" d="M-65.53-73.2a1.376,1.376,0,0,1-.72-.2c-.4-.244-9.75-6.065-9.75-14.124A10.482,10.482,0,0,1-65.53-98,10.482,10.482,0,0,1-55.06-87.53c0,7.794-9.33,13.855-9.727,14.11A1.377,1.377,0,0,1-65.53-73.2Zm0-22.042a7.723,7.723,0,0,0-7.715,7.715c0,5.372,5.645,9.836,7.7,11.281,2.052-1.5,7.73-6.108,7.73-11.281A7.723,7.723,0,0,0-65.53-95.245Zm0,12.123a4.413,4.413,0,0,1-4.408-4.408,4.413,4.413,0,0,1,4.408-4.408,4.413,4.413,0,0,1,4.408,4.408A4.413,4.413,0,0,1-65.53-83.122Zm0-6.061a1.655,1.655,0,0,0-1.653,1.653,1.655,1.655,0,0,0,1.653,1.653,1.655,1.655,0,0,0,1.653-1.653A1.655,1.655,0,0,0-65.53-89.183Z" transform="translate(76 98)"/>
          </g>
          <g id="g2957" transform="translate(6.061 34.58)">
            <path id="path2959" d="M-231.913-10h10.035a2.637,2.637,0,0,1,2.634,2.634,2.187,2.187,0,0,0,2.184,2.184,2.187,2.187,0,0,0,2.185-2.184A2.637,2.637,0,0,1-212.24-10h10.035a2.6,2.6,0,0,1,2.6,2.6V40.717a2.6,2.6,0,0,1-2.6,2.6h-29.707a2.6,2.6,0,0,1-2.6-2.6V-7.4A2.6,2.6,0,0,1-231.913-10ZM-222-7.245h-9.759V40.561h29.395V-7.245h-9.759a4.946,4.946,0,0,1-4.938,4.819A4.946,4.946,0,0,1-222-7.245Z" transform="translate(234.511 10)"/>
          </g>
          <g id="g2961" transform="translate(13.304 70.109)">
            <path id="path2963" d="M-8.622-4.892A1.378,1.378,0,0,1-10-6.27V-8.622A1.378,1.378,0,0,1-8.622-10,1.378,1.378,0,0,1-7.245-8.622V-6.27A1.378,1.378,0,0,1-8.622-4.892Z" transform="translate(10 10)"/>
          </g>
          <g id="g2965" transform="translate(19.192 67.008)">
            <path id="path2967" d="M-8.622-1.792A1.378,1.378,0,0,1-10-3.169V-8.622A1.378,1.378,0,0,1-8.622-10,1.378,1.378,0,0,1-7.245-8.622v5.453A1.378,1.378,0,0,1-8.622-1.792Z" transform="translate(10 10)"/>
          </g>
          <g id="g2969" transform="translate(25.081 63.907)">
            <path id="path2971" d="M-8.622,1.309A1.378,1.378,0,0,1-10-.069V-8.622A1.378,1.378,0,0,1-8.622-10,1.378,1.378,0,0,1-7.245-8.622V-.069A1.378,1.378,0,0,1-8.622,1.309Z" transform="translate(10 10)"/>
          </g>
          <g id="g2973" transform="translate(30.969 60.806)">
            <path id="path2975" d="M-8.622,4.41A1.378,1.378,0,0,1-10,3.032V-8.622A1.378,1.378,0,0,1-8.622-10,1.378,1.378,0,0,1-7.245-8.622V3.032A1.378,1.378,0,0,1-8.622,4.41Z" transform="translate(10 10)"/>
          </g>
          <g id="g2977" transform="translate(13.815 48.28)">
            <path id="path2979" d="M-8.623-65.944A1.377,1.377,0,0,1-9.852-66.7a1.378,1.378,0,0,1,.6-1.853L9.174-77.928a1.378,1.378,0,0,1,1.853.6,1.378,1.378,0,0,1-.6,1.853L-8-66.094A1.372,1.372,0,0,1-8.623-65.944Z" transform="translate(10.002 78.078)"/>
          </g>
          <g id="g2981" transform="translate(27.811 46.629)">
            <path id="path2983" d="M-5.467-1.044A1.378,1.378,0,0,1-5.838-1.1a1.378,1.378,0,0,1-.957-1.7l.93-3.332L-9.106-7.334a1.378,1.378,0,0,1-.809-1.772,1.378,1.378,0,0,1,1.772-.809l4.427,1.651A1.378,1.378,0,0,1-2.871-6.6L-4.141-2.052A1.378,1.378,0,0,1-5.467-1.044Z" transform="translate(10.003 10.003)"/>
          </g>
        </g>
      </g>
    </g>
  </g>
</svg>
