<svg xmlns="http://www.w3.org/2000/svg" width="72" height="72" viewBox="0 0 72 72">
  <g id="Grupo_1110235" data-name="Grupo 1110235" transform="translate(-543.051 -2111)">
    <g id="Grupo_1110002" data-name="Grupo 1110002" transform="translate(258.051 -3289.688)">
      <g id="Grupo_1109991" data-name="Grupo 1109991" transform="translate(70 3517)">
        <g id="Grupo_1109953" data-name="Grupo 1109953" transform="translate(-204 762.688)">
          <path id="Trazado_824488" data-name="Trazado 824488" d="M36,0A36,36,0,1,1,0,36,36,36,0,0,1,36,0Z" transform="translate(419 1121)" fill="#efdb59"/>
        </g>
      </g>
    </g>
    <g id="comunicacion" transform="translate(556.051 2124)">
      <g id="Grupo_1110233" data-name="Grupo 1110233" transform="translate(1.704 1.704)">
        <g id="Grupo_1110221" data-name="Grupo 1110221" transform="translate(1.408 28.155)">
          <path id="Trazado_898551" data-name="Trazado 898551" d="M18.078,51.854v4.223H12.221A8.219,8.219,0,0,1,4,47.856,6.179,6.179,0,0,1,8.223,42a8.434,8.434,0,0,1,8.447,8.447v1.408Z" transform="translate(-4 -42)" fill="#b4dd7f"/>
        </g>
        <g id="Grupo_1110222" data-name="Grupo 1110222" transform="translate(25.34 28.155)">
          <path id="Trazado_898552" data-name="Trazado 898552" d="M42.223,47.631l.042-.169a7.248,7.248,0,0,1,7-5.462,6.179,6.179,0,0,1,4.223,5.856v.479a7.743,7.743,0,1,1-15.485,0v-.7Z" transform="translate(-38 -42)" fill="#fcd770"/>
        </g>
        <g id="Grupo_1110223" data-name="Grupo 1110223" transform="translate(26.747 8.447)">
          <path id="Trazado_898553" data-name="Trazado 898553" d="M48.088,19.159l-.056.056a1.376,1.376,0,0,1-.992.415H42.816a2.816,2.816,0,1,1,0-5.631h3.829a8.838,8.838,0,0,1,8.841,8.841v6.433A3.029,3.029,0,0,1,52.459,32.3h-2.6V25.262a1.408,1.408,0,0,0,0-2.816,3.946,3.946,0,0,0-1.76-3.28Z" transform="translate(-40 -14)" fill="#656d78"/>
        </g>
        <g id="Grupo_1110224" data-name="Grupo 1110224" transform="translate(0 7.743)">
          <path id="Trazado_898554" data-name="Trazado 898554" d="M16.078,13v3.308a3.027,3.027,0,0,1-1.351,2.52l-.028.021a.053.053,0,0,1-.028.014,2.9,2.9,0,0,1-1.591.472H11.235a3.718,3.718,0,0,0-3.6,2.816,1.408,1.408,0,0,0,0,2.816v4.223A8.673,8.673,0,0,1,2,21.066V20.32A6.628,6.628,0,0,1,8.624,13.7h3.118a13.778,13.778,0,0,0,4.336-.7Z" transform="translate(-2 -13)" fill="#b27946"/>
        </g>
        <g id="Grupo_1110225" data-name="Grupo 1110225" transform="translate(14.078)">
          <path id="Trazado_898555" data-name="Trazado 898555" d="M34.67,3.408V9.039a1.412,1.412,0,0,1-1.408,1.408H30.447l-1.168,2.337a.87.87,0,0,1-1.647-.394V10.447H23.408A1.412,1.412,0,0,1,22,9.039V3.408A1.412,1.412,0,0,1,23.408,2h9.854A1.412,1.412,0,0,1,34.67,3.408Z" transform="translate(-22 -2)" fill="#e6e9ed"/>
        </g>
        <g id="Grupo_1110226" data-name="Grupo 1110226" transform="translate(16.893 18.301)">
          <path id="Trazado_898556" data-name="Trazado 898556" d="M26,37.854V32.223a1.412,1.412,0,0,1,1.408-1.408h2.816l1.168-2.337a.87.87,0,0,1,1.647.394v1.943h4.223a1.412,1.412,0,0,1,1.408,1.408v5.631a1.412,1.412,0,0,1-1.408,1.408H27.408A1.412,1.412,0,0,1,26,37.854Z" transform="translate(-26 -28)" fill="#e6e9ed"/>
        </g>
        <g id="Grupo_1110227" data-name="Grupo 1110227" transform="translate(28.155 13.606)">
          <path id="Trazado_898557" data-name="Trazado 898557" d="M51.439,25.032a1.376,1.376,0,0,0-.992-.415,3.946,3.946,0,0,0-1.76-3.28l-.007-.007-.056.056a1.376,1.376,0,0,1-.992.415H43.408v1.647a2.818,2.818,0,0,1-.824,1.992l-.3.3a1,1,0,0,0,.7,1.7h.415v4.223l.246-.007A2.485,2.485,0,0,0,45.9,33.064a1.677,1.677,0,0,0,.324-.028v4.209l.007.007a7.139,7.139,0,0,1,4.216-1.373V27.433a1.4,1.4,0,0,0,.992-2.4Z" transform="translate(-42 -21.33)" fill="#f0d0b4"/>
        </g>
        <g id="Grupo_1110228" data-name="Grupo 1110228" transform="translate(25.34 29.563)">
          <path id="Trazado_898558" data-name="Trazado 898558" d="M42.223,46.112v2.112H38V46.112a2.112,2.112,0,0,1,4.223,0Z" transform="translate(-38 -44)" fill="#f0d0b4"/>
        </g>
        <g id="Grupo_1110229" data-name="Grupo 1110229" transform="translate(15.485 36.602)">
          <path id="Trazado_898559" data-name="Trazado 898559" d="M30.419,56.027a2.11,2.11,0,0,1-1.492,3.6H24V55.408h1.408a1.408,1.408,0,0,1,2.816,0h.7A2.107,2.107,0,0,1,30.419,56.027Z" transform="translate(-24 -54)" fill="#f0d0b4"/>
        </g>
        <g id="Grupo_1110230" data-name="Grupo 1110230" transform="translate(4.223 13.606)">
          <path id="Trazado_898560" data-name="Trazado 898560" d="M17.566,25.736l-.3-.3a2.818,2.818,0,0,1-.824-1.992V21.33a2.9,2.9,0,0,1-1.591.472H13.012a3.718,3.718,0,0,0-3.6,2.816,1.408,1.408,0,0,0,0,2.816v8.447a8.394,8.394,0,0,1,4.223,1.126v-3.97l.324.028A2.485,2.485,0,0,0,16.2,31.649l.246.007V27.433h.415a1,1,0,0,0,.7-1.7Z" transform="translate(-8 -21.33)" fill="#f0d0b4"/>
        </g>
        <g id="Grupo_1110231" data-name="Grupo 1110231" transform="translate(29.563 21.116)">
          <path id="Trazado_898561" data-name="Trazado 898561" d="M44,32h2.816a2.8,2.8,0,0,1-.746,1.908,2.832,2.832,0,0,1-1.823.9A2.494,2.494,0,0,1,44,33.732V32Z" transform="translate(-44 -32)" fill="#ff826e"/>
        </g>
        <g id="Grupo_1110232" data-name="Grupo 1110232" transform="translate(9.854 21.116)">
          <path id="Trazado_898562" data-name="Trazado 898562" d="M18.816,32v1.732a2.5,2.5,0,0,1-.246,1.077,2.832,2.832,0,0,1-1.823-.9A2.8,2.8,0,0,1,16,32Z" transform="translate(-16 -32)" fill="#ff826e"/>
        </g>
      </g>
      <g id="Grupo_1110234" data-name="Grupo 1110234" transform="translate(1 1)">
        <path id="Trazado_898563" data-name="Trazado 898563" d="M22.116,39.01H22a2.112,2.112,0,0,0-3.983,0H16.485v-.7a9.145,9.145,0,0,0-4.223-7.7v-2.9a3.185,3.185,0,0,0,2.816-3.154V22.092a1.7,1.7,0,0,0,.91-2.876l-.291-.291a2.1,2.1,0,0,1-.619-1.494V15.665a3.72,3.72,0,0,0,1.408-2.913V10.725a2.084,2.084,0,0,0,.7.13h3.519V12.1a1.574,1.574,0,0,0,2.982.7l.973-1.946h2.381a2.114,2.114,0,0,0,2.112-2.112V3.112A2.114,2.114,0,0,0,27.044,1H17.189a2.114,2.114,0,0,0-2.112,2.112V8.743c0,.058.013.113.017.17a13,13,0,0,1-3.65.534H8.324A7.323,7.323,0,0,0,1,16.77v.74a9.43,9.43,0,0,0,5.631,8.6v3.262a6.872,6.872,0,0,0-4.223,6.347,8.933,8.933,0,0,0,8.922,8.922H22.116a2.816,2.816,0,1,0,0-5.631ZM13.645,24.8a2.136,2.136,0,0,1-1.261-1.274H13.67v1.031A1.731,1.731,0,0,1,13.645,24.8Zm1.141-4.09H13.67v1.408H10.854v.7a3.536,3.536,0,0,0,2.057,3.189,1.775,1.775,0,0,1-2.288-.192l-.679-.679-1,1,.679.679a3.169,3.169,0,0,0,1.226.752v2.3a9.076,9.076,0,0,0-2.816-.67V20.709h-.7a.7.7,0,1,1,0-1.408h.549l.133-.534a3.009,3.009,0,0,1,2.922-2.281h1.847a3.59,3.59,0,0,0,.883-.119v1.063A3.5,3.5,0,0,0,14.7,19.92l.291.291a.291.291,0,0,1-.206.5Zm1.7-17.6a.7.7,0,0,1,.7-.7h9.854a.7.7,0,0,1,.7.7V8.743a.7.7,0,0,1-.7.7H23.793l-1.361,2.723a.172.172,0,0,1-.315-.073V9.447H17.189a.7.7,0,0,1-.7-.7V3.112ZM2.408,17.51v-.74a5.916,5.916,0,0,1,5.916-5.916h3.12a14.388,14.388,0,0,0,3.633-.465v2.363a2.338,2.338,0,0,1-1.067,1.955,2.2,2.2,0,0,1-1.225.371H10.94a4.414,4.414,0,0,0-4.145,2.885A2.112,2.112,0,0,0,6.631,22v2.55A8.017,8.017,0,0,1,2.408,17.51ZM3.816,35.718a5.461,5.461,0,0,1,3.642-5.149,7.748,7.748,0,0,1,7.62,7.736v.7H12.1a4.062,4.062,0,0,1-4.057-4.057,2.1,2.1,0,0,0-1.167-1.889l-.63-.315-.63,1.259.63.315a.7.7,0,0,1,.389.63A5.47,5.47,0,0,0,12.1,40.417h4.389v2.816H11.33a7.523,7.523,0,0,1-7.515-7.515Zm18.3,7.515H17.893V40.417H19.3v-.7a.7.7,0,0,1,1.408,0v.7h1.408a1.408,1.408,0,0,1,0,2.816Z" transform="translate(-1 -1)"/>
        <ellipse id="Elipse_12346" data-name="Elipse 12346" cx="0.5" cy="1" rx="0.5" ry="1" transform="translate(10 16.641)"/>
        <circle id="Elipse_12347" data-name="Elipse 12347" cx="1" cy="1" r="1" transform="translate(32 16.641)"/>
        <path id="Trazado_898564" data-name="Trazado 898564" d="M42.2,13H38.374a3.519,3.519,0,0,0-.7,6.968v1.016a2.1,2.1,0,0,1-.619,1.494l-.291.291a1.7,1.7,0,0,0,.91,2.876V25.8a2.088,2.088,0,0,0-.7-.13H33.447V24.428a1.574,1.574,0,0,0-2.982-.7l-.973,1.946H27.112A2.114,2.114,0,0,0,25,27.782v5.631a2.114,2.114,0,0,0,2.112,2.112h6.726a2.787,2.787,0,0,0-.391,1.408v2.816a8.447,8.447,0,0,0,16.893,0v-.476a6.872,6.872,0,0,0-4.223-6.347v-.216h1.9a3.733,3.733,0,0,0,3.733-3.733v-6.43A9.557,9.557,0,0,0,42.2,13ZM37.755,23.764l.291-.291a3.5,3.5,0,0,0,1.031-2.489v-.945H42.6a2.085,2.085,0,0,0,1.045-.288,3.233,3.233,0,0,1,1.067,2.4v.7h.7a.7.7,0,0,1,0,1.408h-.7v8.479a7.88,7.88,0,0,0-2.816.8V31.118a3.161,3.161,0,0,0,1.226-.752l.679-.679-1-1-.679.679a1.776,1.776,0,0,1-2.289.192,3.537,3.537,0,0,0,2.058-3.189v-.7H39.078V24.262H37.961a.292.292,0,0,1-.206-.5Zm1.178,12.319a2.8,2.8,0,0,0-.615-1.063,2.1,2.1,0,0,0,.76-1.608V30.755a3.17,3.17,0,0,0,1.408.508v3.165a7.906,7.906,0,0,0-1.553,1.656Zm.17-7.732a1.731,1.731,0,0,1-.025-.243V27.078h1.285A2.136,2.136,0,0,1,39.1,28.352ZM26.408,33.413V27.781a.7.7,0,0,1,.7-.7h3.251l1.361-2.723a.172.172,0,0,1,.315.073v2.649h4.927a.7.7,0,0,1,.7.7v5.631a.7.7,0,0,1-.7.7H27.112a.7.7,0,0,1-.7-.7ZM37.67,36.932V38.34H34.854V36.932a1.408,1.408,0,0,1,2.816,0Zm11.262,2.34v.476a7.039,7.039,0,1,1-14.078,0H37.67v.7a3.519,3.519,0,1,0,7.039,0V37.8a.7.7,0,0,1,.389-.63l.63-.315L45.1,35.6l-.63.315A2.1,2.1,0,0,0,43.3,37.8v2.649a2.112,2.112,0,0,1-4.223,0V39.129l.02-.084a6.5,6.5,0,0,1,6.19-4.924A5.46,5.46,0,0,1,48.932,39.272Zm1.408-10.3A2.325,2.325,0,0,1,48.015,31.3h-1.9V25.549a2.112,2.112,0,0,0-.038-4,4.627,4.627,0,0,0-1.517-2.868,2.08,2.08,0,0,0,.147-.759A2.114,2.114,0,0,0,42.6,15.816h-.7v1.408h.7a.7.7,0,1,1,0,1.408H38.374a2.112,2.112,0,1,1,0-4.223H42.2a8.148,8.148,0,0,1,8.138,8.139Z" transform="translate(-8.107 -4.553)"/>
        <path id="Trazado_898565" data-name="Trazado 898565" d="M25,5h8.447V6.408H25Z" transform="translate(-8.107 -2.184)"/>
        <path id="Trazado_898566" data-name="Trazado 898566" d="M35,9h1.408v1.408H35Z" transform="translate(-11.068 -3.369)"/>
        <path id="Trazado_898567" data-name="Trazado 898567" d="M29,35h8.447v1.408H29Z" transform="translate(-9.291 -11.068)"/>
        <path id="Trazado_898568" data-name="Trazado 898568" d="M29,39h5.631v1.408H29Z" transform="translate(-9.291 -12.253)"/>
        <path id="Trazado_898569" data-name="Trazado 898569" d="M39,39h1.408v1.408H39Z" transform="translate(-12.253 -12.253)"/>
        <path id="Trazado_898570" data-name="Trazado 898570" d="M25,9h5.631v1.408H25Z" transform="translate(-8.107 -3.369)"/>
      </g>
    </g>
  </g>
</svg>
