<svg xmlns="http://www.w3.org/2000/svg" width="72" height="72" viewBox="0 0 72 72">
  <g id="Grupo_1110237" data-name="Grupo 1110237" transform="translate(-974.051 -2110.688)">
    <g id="Grupo_1110003" data-name="Grupo 1110003" transform="translate(689.051 -3290)">
      <g id="Grupo_1109991" data-name="Grupo 1109991" transform="translate(70 3517)">
        <g id="Grupo_1109953" data-name="Grupo 1109953" transform="translate(-204 762.688)">
          <path id="Trazado_824488" data-name="Trazado 824488" d="M36,0A36,36,0,1,1,0,36,36,36,0,0,1,36,0Z" transform="translate(419 1121)" fill="#84a065"/>
        </g>
      </g>
    </g>
    <g id="acuerdo" transform="translate(968.222 2124.965)">
      <circle id="Elipse_12348" data-name="Elipse 12348" cx="14.323" cy="14.323" r="14.323" transform="translate(21.721 15.425)" fill="#dcd7ba"/>
      <rect id="Rectángulo_402703" data-name="Rectángulo 402703" width="25.478" height="29.679" transform="translate(35.838 2.961)" fill="#e1e6e9"/>
      <path id="Trazado_898571" data-name="Trazado 898571" d="M199.868,57.295H174.39a.617.617,0,0,1-.62-.62V27a.617.617,0,0,1,.62-.62h25.479a.617.617,0,0,1,.62.62V56.675A.617.617,0,0,1,199.868,57.295Zm-24.859-1.24h24.308V27.615H175.009Z" transform="translate(-138.552 -24.035)" fill="#193651"/>
      <rect id="Rectángulo_402704" data-name="Rectángulo 402704" width="20.727" height="24.928" transform="translate(38.219 5.302)" fill="#fff"/>
      <path id="Trazado_898572" data-name="Trazado 898572" d="M85.77,282.065c.964.482,3.787,1.653,3.718-.413.964.344,1.859-.069,1.79-1.171a1.29,1.29,0,0,0,1.79-1.308c1.79.344,1.928-1.515,1.1-2.617a14.674,14.674,0,0,0-2.135-2c-1.171-1.033-2.272-2.135-3.443-3.03a5.859,5.859,0,0,0-2.686-.826c-1.79-.344-3.168-.413-4.683-1.515l-3.65,5.44c.482.482,1.1,1.033,1.653,1.584" transform="translate(-50.897 -245.293)" fill="#fdbf5e"/>
      <path id="Trazado_898573" data-name="Trazado 898573" d="M82.089,277.788a7.27,7.27,0,0,1-2.823-.826.616.616,0,1,1,.551-1.1c.964.482,2.272.9,2.686.62.138-.069.138-.207.138-.482a.536.536,0,0,1,.207-.482.52.52,0,0,1,.551-.069c.551.207,1.033.069,1.033-.551a.536.536,0,0,1,.207-.482.52.52,0,0,1,.551-.069c.62.207.964-.138,1.033-.757a.417.417,0,0,1,.207-.413.581.581,0,0,1,.482-.138q.62.1.826-.207a1.346,1.346,0,0,0-.275-1.446,18.322,18.322,0,0,0-1.653-1.584l-.413-.344c-.413-.344-.757-.689-1.171-1.033-.757-.689-1.515-1.377-2.272-2a3.974,3.974,0,0,0-1.859-.62c-.207,0-.413-.069-.551-.069-.275-.069-.551-.069-.826-.138a9.815,9.815,0,0,1-3.581-1.1l-3.03,4.476a3,3,0,0,0,.482.413,8.251,8.251,0,0,0,.826.757.584.584,0,0,1-.826.826c-.275-.275-.551-.482-.826-.757a8.247,8.247,0,0,0-.826-.757.545.545,0,0,1-.069-.757l3.65-5.44a.632.632,0,0,1,.413-.275,1.171,1.171,0,0,1,.482.069,7.7,7.7,0,0,0,3.65,1.24c.275.069.551.069.826.138a1.516,1.516,0,0,0,.551.069,5.057,5.057,0,0,1,2.341.826c.826.62,1.653,1.377,2.41,2.066.344.344.757.689,1.1,1.033l.413.344a14.01,14.01,0,0,1,1.79,1.722,2.707,2.707,0,0,1,.413,2.823,1.843,1.843,0,0,1-1.446.826,1.8,1.8,0,0,1-1.79,1.377,1.626,1.626,0,0,1-1.79,1.171A1.809,1.809,0,0,1,82.089,277.788Z" transform="translate(-44.668 -239.639)" fill="#193651"/>
      <path id="Trazado_898574" data-name="Trazado 898574" d="M148.99,251.323l5.715,4.958,2.41-1.1v-6.266l-8.608-1.446-3.65,3.236a1.436,1.436,0,0,0-.069,2.066h0a1.365,1.365,0,0,0,1.722.207Z" transform="translate(-111.775 -225.5)" fill="#fdbf5e"/>
      <path id="Trazado_898575" data-name="Trazado 898575" d="M147.894,250.536a.978.978,0,0,1-.413-.138l-5.371-4.683-2.2,1.377a1.944,1.944,0,0,1-1.033.275h0a1.923,1.923,0,0,1-1.377-.551,2.08,2.08,0,0,1,.069-2.961l3.65-3.236a.655.655,0,0,1,.482-.138l8.608,1.446a.6.6,0,0,1,.482.62v6.266a.7.7,0,0,1-.344.551l-2.41,1.1A.239.239,0,0,1,147.894,250.536Zm-5.715-6.2a.979.979,0,0,1,.413.138l5.371,4.683,1.722-.757V243.03l-7.85-1.308-3.443,3.03a.8.8,0,0,0,.9,1.308l2.548-1.584A1.161,1.161,0,0,1,142.179,244.338Z" transform="translate(-104.964 -219.135)" fill="#193651"/>
      <path id="Trazado_898576" data-name="Trazado 898576" d="M55.457,246.659,51.6,252.375a1.194,1.194,0,0,0,2,1.308l3.856-5.715a1.206,1.206,0,0,0-.344-1.653A1.219,1.219,0,0,0,55.457,246.659Z" transform="translate(-27.057 -224.28)" fill="#fff"/>
      <path id="Trazado_898577" data-name="Trazado 898577" d="M46.457,249.384h0a2.886,2.886,0,0,1-1.033-.275,1.777,1.777,0,0,1-.482-2.479l3.856-5.715a1.786,1.786,0,1,1,2.961,2L47.9,248.626A1.622,1.622,0,0,1,46.457,249.384Zm3.305-7.85-3.856,5.715a.592.592,0,1,0,.964.689l3.856-5.715a.562.562,0,0,0-.138-.826A.579.579,0,0,0,49.762,241.533Z" transform="translate(-20.879 -218.809)" fill="#193651"/>
      <path id="Trazado_898578" data-name="Trazado 898578" d="M289.509,254.816V247.93a1.24,1.24,0,1,0-2.479,0v6.886a1.234,1.234,0,0,0,1.24,1.24A1.331,1.331,0,0,0,289.509,254.816Z" transform="translate(-241.759 -224.792)" fill="#fff"/>
      <path id="Trazado_898579" data-name="Trazado 898579" d="M282.614,250.951h0a1.823,1.823,0,0,1-1.79-1.79v-6.886a1.79,1.79,0,1,1,3.581,0v6.886A1.736,1.736,0,0,1,282.614,250.951Zm0-9.3a.617.617,0,0,0-.62.62v6.886a.62.62,0,1,0,1.24,0v-6.886A.617.617,0,0,0,282.614,241.655Z" transform="translate(-236.103 -219.137)" fill="#193651"/>
      <path id="Trazado_898580" data-name="Trazado 898580" d="M216.04,348.97a.979.979,0,0,1-.413-.138l-2.961-2.686a.586.586,0,0,1,.757-.9l2.961,2.686a.567.567,0,0,1,.069.826A.6.6,0,0,1,216.04,348.97Z" transform="translate(-173.798 -314.471)" fill="#193651"/>
      <path id="Trazado_898581" data-name="Trazado 898581" d="M198.629,367.244a.979.979,0,0,1-.413-.138l-2.617-2.341a.586.586,0,0,1,.757-.9l2.617,2.341a.567.567,0,0,1,.069.826A.416.416,0,0,1,198.629,367.244Z" transform="translate(-158.247 -331.436)" fill="#193651"/>
      <path id="Trazado_898582" data-name="Trazado 898582" d="M189.692,388.13a.6.6,0,0,1-.413-.207l-1.584-1.584a.584.584,0,1,1,.826-.826L190.1,387.1a.628.628,0,0,1,0,.826A.491.491,0,0,1,189.692,388.13Z" transform="translate(-151.1 -351.152)" fill="#193651"/>
      <path id="Trazado_898583" data-name="Trazado 898583" d="M144.123,389.5h0a1.181,1.181,0,0,0-1.653-.069l-.826.689a1.173,1.173,0,0,0,1.515,1.79l.826-.689A1.214,1.214,0,0,0,144.123,389.5Z" transform="translate(-108.905 -354.592)" fill="#fdbf5e"/>
      <path id="Trazado_898584" data-name="Trazado 898584" d="M137.427,386.6h0a1.7,1.7,0,0,1-1.308-.62,1.75,1.75,0,0,1,.207-2.479l.826-.689a1.759,1.759,0,1,1,2.272,2.686l-.826.689A1.87,1.87,0,0,1,137.427,386.6Zm.826-3.03a.445.445,0,0,0-.344.138l-.826.689a.586.586,0,1,0,.757.9l.826-.689a.627.627,0,0,0,.069-.826A.915.915,0,0,0,138.253,383.566Z" transform="translate(-103.862 -348.447)" fill="#193651"/>
      <path id="Trazado_898585" data-name="Trazado 898585" d="M90.893,341.655a1,1,0,0,0-1.446-.069l-.689.551a1,1,0,0,0-.069,1.446h0a1,1,0,0,0,1.446.069l.689-.551A1,1,0,0,0,90.893,341.655Z" transform="translate(-60.771 -311.012)" fill="#fdbf5e"/>
      <path id="Trazado_898586" data-name="Trazado 898586" d="M84.289,338.546h0a1.724,1.724,0,0,1-1.24-.551,1.693,1.693,0,0,1,.138-2.272l.689-.551a1.61,1.61,0,1,1,2.135,2.41l-.689.551A1.518,1.518,0,0,1,84.289,338.546Zm.62-2.617a.52.52,0,0,0-.275.069l-.689.551a.427.427,0,0,0-.069.551.522.522,0,0,0,.275.138h0a.52.52,0,0,0,.275-.069l.689-.551a.427.427,0,0,0,.069-.551C85.184,336,85.047,335.929,84.909,335.929Z" transform="translate(-55.544 -305.079)" fill="#193651"/>
      <path id="Trazado_898587" data-name="Trazado 898587" d="M124.573,366.613a1.107,1.107,0,0,0-1.584-.138l-1.515,1.377a1.111,1.111,0,0,0-.138,1.584h0a1.172,1.172,0,0,0,1.584.138l1.515-1.377A1.053,1.053,0,0,0,124.573,366.613Z" transform="translate(-90.526 -333.698)" fill="#fdbf5e"/>
      <path id="Trazado_898588" data-name="Trazado 898588" d="M115.621,363.876h0a1.755,1.755,0,0,1-1.722-1.859,1.534,1.534,0,0,1,.62-1.171l1.515-1.377a1.814,1.814,0,0,1,2.479.138,1.759,1.759,0,0,1-.207,2.479l-1.515,1.377A1.87,1.87,0,0,1,115.621,363.876ZM117.2,360.3a.445.445,0,0,0-.344.138l-1.515,1.377a.379.379,0,0,0-.207.344.979.979,0,0,0,.138.413.545.545,0,0,0,.757.069l1.515-1.377a.545.545,0,0,0,.069-.757A.6.6,0,0,0,117.2,360.3Z" transform="translate(-83.984 -327.173)" fill="#193651"/>
      <path id="Trazado_898589" data-name="Trazado 898589" d="M104.673,344.405a1.091,1.091,0,0,0-1.515-.138l-2.341,2.066a1.076,1.076,0,1,0,1.377,1.653l2.341-2.066A1.022,1.022,0,0,0,104.673,344.405Z" transform="translate(-71.728 -313.487)" fill="#fdbf5e"/>
      <path id="Trazado_898590" data-name="Trazado 898590" d="M95.519,343.3h0a1.613,1.613,0,0,1-1.24-.551,1.923,1.923,0,0,1-.413-1.24,1.7,1.7,0,0,1,.551-1.171l2.341-2.066a1.778,1.778,0,0,1,2.341.138,1.923,1.923,0,0,1,.413,1.24,1.7,1.7,0,0,1-.551,1.171l-2.341,2.066A1.952,1.952,0,0,1,95.519,343.3Zm2.341-4.2a.445.445,0,0,0-.344.138L95.174,341.3a.53.53,0,0,0-.069.689c.069.138.207.138.344.138h0a.445.445,0,0,0,.344-.138l2.341-2.066a.526.526,0,0,0,.138-.344c0-.138,0-.275-.138-.344C98.135,339.1,98,339.1,97.86,339.1Z" transform="translate(-65.741 -307.906)" fill="#193651"/>
      <path id="Trazado_898591" data-name="Trazado 898591" d="M265.687,11.733H252.121l2.272-4.751h9.021Z" transform="translate(-209.948 -6.362)" fill="#f16051"/>
      <path id="Trazado_898592" data-name="Trazado 898592" d="M259.567,5.991H246a.58.58,0,0,1-.482-.275.552.552,0,0,1-.069-.551l2.272-4.82A.545.545,0,0,1,248.274,0h9.09a.7.7,0,0,1,.551.344l2.2,4.683a.526.526,0,0,1,.138.344A.732.732,0,0,1,259.567,5.991ZM246.9,4.751H258.6l-1.722-3.581h-8.263Z" transform="translate(-203.829)" fill="#193651"/>
      <rect id="Rectángulo_402705" data-name="Rectángulo 402705" width="2.479" height="2.479" transform="translate(40.589 8.883)" fill="#fff"/>
      <path id="Trazado_898593" data-name="Trazado 898593" d="M230.4,96.033h-2.479a.617.617,0,0,1-.62-.62V92.935a.617.617,0,0,1,.62-.62H230.4a.617.617,0,0,1,.62.62v2.479A.617.617,0,0,1,230.4,96.033Zm-1.859-1.171h1.308V93.555h-1.308Z" transform="translate(-187.328 -84.121)" fill="#193651"/>
      <rect id="Rectángulo_402706" data-name="Rectángulo 402706" width="2.479" height="2.479" transform="translate(40.589 15.081)" fill="#fff"/>
      <g id="Grupo_1110236" data-name="Grupo 1110236" transform="translate(39.969 9.434)">
        <path id="Trazado_898594" data-name="Trazado 898594" d="M230.4,166.628h-2.479a.617.617,0,0,1-.62-.62v-2.479a.617.617,0,0,1,.62-.62H230.4a.617.617,0,0,1,.62.62v2.479A.617.617,0,0,1,230.4,166.628Zm-1.859-1.24h1.308V164.08h-1.308Z" transform="translate(-227.297 -157.882)" fill="#193651"/>
        <path id="Trazado_898595" data-name="Trazado 898595" d="M317.272,107.518H308.6a.62.62,0,1,1,0-1.24h8.676a.617.617,0,0,1,.62.62A.727.727,0,0,1,317.272,107.518Z" transform="translate(-300.814 -106.278)" fill="#193651"/>
        <path id="Trazado_898596" data-name="Trazado 898596" d="M317.272,178.112H308.6a.62.62,0,1,1,0-1.24h8.676a.617.617,0,0,1,.62.62A.727.727,0,0,1,317.272,178.112Z" transform="translate(-300.814 -170.606)" fill="#193651"/>
        <path id="Trazado_898597" data-name="Trazado 898597" d="M348.375,247.931h-5.647a.62.62,0,0,1,0-1.24h5.647a.617.617,0,0,1,.62.62A.727.727,0,0,1,348.375,247.931Z" transform="translate(-331.918 -234.227)" fill="#193651"/>
        <rect id="Rectángulo_402707" data-name="Rectángulo 402707" width="1.171" height="1.171" transform="translate(10.191 17.491)" fill="#193651"/>
        <rect id="Rectángulo_402708" data-name="Rectángulo 402708" width="1.171" height="1.171" transform="translate(13.015 17.491)" fill="#193651"/>
        <rect id="Rectángulo_402709" data-name="Rectángulo 402709" width="1.171" height="1.171" transform="translate(15.838 17.491)" fill="#193651"/>
      </g>
    </g>
  </g>
</svg>
